<svg width="89" height="89" fill="none" xmlns="http://www.w3.org/2000/svg"><path d="m33.723 52.17-30.53 7.01-2.04-8.802 30.58-7.092 1.175-.273-1.024-.639-26.63-16.603 4.768-7.647 26.63 16.603 1.024.639-.272-1.176-7.092-30.58 8.8-2.041 7.093 30.58.273 1.176.638-1.025L63.72 5.67l7.647 4.768-16.604 26.63-.638 1.025 1.176-.273 30.58-7.092 2.04 8.801-30.58 7.092-1.175.273 1.024.639 26.713 16.655-4.768 7.647-26.63-16.604-1.022-.637.27 1.173 7.01 30.53-8.803 2.041-7.142-30.498-.275-1.172-.636 1.021-16.604 26.63-7.647-4.768 16.603-26.63.637-1.021-1.173.27Z" stroke="#0CBD68"/></svg>