<svg width="56" height="56" fill="none" xmlns="http://www.w3.org/2000/svg"><path d="M37.409 10.867v.4h1.501c.669 0 1.211.543 1.211 1.212v7.606c0 4.884-3.974 8.859-8.858 8.859h-5.868c-4.884 0-8.858-3.975-8.858-8.859v-7.607c0-.668.542-1.21 1.211-1.21h1.501V9.604c0-5.006 4.074-9.08 9.08-9.08s9.08 4.074 9.08 9.08v1.262Zm-18.05 2.823h-.4V20.085a6.443 6.443 0 0 0 6.436 6.436h5.868a6.443 6.443 0 0 0 6.436-6.436V13.69H19.36Zm15.227-2.423h.4V9.605a6.664 6.664 0 0 0-6.657-6.657 6.664 6.664 0 0 0-6.657 6.657v1.662h12.914Z" fill="#394252" stroke="#fff" stroke-width=".8"/><path d="M27.115 20.535v-.4h-.508a1.211 1.211 0 0 1 0-2.423h3.438a1.211 1.211 0 0 1 0 2.423h-.508V21.287a1.211 1.211 0 0 1-2.422 0v-.752Z" fill="#394252" stroke="#fff" stroke-width=".8"/><path d="m16.095 42.642.347-.6.462-.801c.335-.58.137-1.32-.443-1.655l-.366 3.056Zm0 0h.693m-.693 0h.693m0 0h.926a1.211 1.211 0 1 1 0 2.422h-1.619l.346.6.463.802c.335.579.136 1.32-.443 1.654a1.21 1.21 0 0 1-1.655-.443l-.463-.802-.347-.6-.346.6-.463.802a1.21 1.21 0 0 1-1.655.443 1.211 1.211 0 0 1-.443-1.654l.463-.801.346-.6H10.28a1.211 1.211 0 1 1 0-2.423h1.62l-.347-.6-.463-.801a1.211 1.211 0 0 1 2.098-1.212l.463.802.347.6.346-.6.463-.802m1.982 2.613-1.981-2.613m0 0a1.211 1.211 0 0 1 1.654-.443l-1.654.443ZM30.376 42.642l.347-.6.462-.801c.335-.58.137-1.32-.443-1.655l-.366 3.056Zm0 0h.693m-.693 0h.693m0 0h.926a1.211 1.211 0 1 1 0 2.422h-1.619l.347.6.462.802c.335.579.137 1.32-.443 1.654a1.21 1.21 0 0 1-1.655-.443l-.463-.802-.346-.6-.347.6-.463.802a1.21 1.21 0 0 1-1.655.443 1.211 1.211 0 0 1-.443-1.654l.463-.801.347-.6H24.56a1.211 1.211 0 0 1 0-2.423h1.619l-.347-.6-.463-.801a1.212 1.212 0 0 1 2.098-1.212l.463.802.347.6m2.791 1.21-2.791-1.21m0 0 .346-.6m-.346.6.346-.6m0 0 .463-.802m-.463.802.463-.802m0 0a1.211 1.211 0 0 1 1.655-.443l-1.655.443ZM44.759 42.626l.346-.6.463-.8c.335-.58.136-1.321-.443-1.656l-.366 3.056Zm0 0h.693m-.693 0h.693m0 0h.926a1.211 1.211 0 1 1 0 2.423h-1.619l.346.6.463.801c.335.58.136 1.32-.443 1.655a1.21 1.21 0 0 1-1.655-.443l-.463-.803-.346-.6-.347.6-.463.803a1.211 1.211 0 0 1-1.655.443 1.211 1.211 0 0 1-.443-1.655l.463-.801.346-.6h-1.619a1.211 1.211 0 1 1 0-2.423h1.619l-.346-.6-.463-.8a1.211 1.211 0 0 1 2.098-1.212l.463.802.346.6.347-.6.463-.803m1.982 2.613-1.982-2.612m0 0a1.211 1.211 0 0 1 1.655-.444l-1.655.444Z" fill="#0CBD68" stroke="#fff" stroke-width=".8"/><path d="M5.873 32.97h44.91a4.65 4.65 0 0 1 4.645 4.645v12.469a4.65 4.65 0 0 1-4.645 4.645H5.873a4.65 4.65 0 0 1-4.645-4.645V37.615a4.65 4.65 0 0 1 4.645-4.645Zm44.91 19.336a2.224 2.224 0 0 0 2.222-2.222V37.615a2.224 2.224 0 0 0-2.222-2.222H5.873a2.224 2.224 0 0 0-2.222 2.222v12.469c0 1.226.996 2.222 2.222 2.222h44.91Z" fill="#394252" stroke="#fff" stroke-width=".8"/></svg>