<svg width="55" height="55" fill="none" xmlns="http://www.w3.org/2000/svg"><path d="M12.672 11.55h.35V1.706c0-.68.552-1.232 1.233-1.232h39.16c.68 0 1.231.552 1.231 1.232v30.484c0 .68-.552 1.232-1.232 1.232H42.97v9.842c0 .68-.551 1.232-1.232 1.232H22.352l-.102.167-5.248 8.525a1.232 1.232 0 0 1-2.099 0l-.298.183.298-.183-5.248-8.525-.102-.167H2.578c-.68 0-1.232-.551-1.232-1.232V12.781c0-.68.552-1.232 1.232-1.232h10.095Zm27.483 30.483h.35V14.013H3.81V42.033h6.431c.428 0 .825.222 1.05.586l4.364 7.09.298.484.298-.484 4.363-7.09a1.232 1.232 0 0 1 1.05-.586h18.491ZM51.832 30.96h.35V2.939H15.487v8.61h26.25c.68 0 1.232.552 1.232 1.232V30.96h8.863Z" fill="#394252" stroke="#fff" stroke-width=".7"/><path d="M34.355 26.788a1.232 1.232 0 0 1 0 2.464H9.96a1.232 1.232 0 0 1 0-2.464h24.394ZM25.32 33.116h9.034a1.232 1.232 0 0 1 0 2.464H25.32a1.232 1.232 0 0 1 0-2.464ZM9.96 33.116h9.033a1.232 1.232 0 0 1 0 2.464H9.961a1.232 1.232 0 0 1 0-2.464Z" fill="#0CBD68" stroke="#fff" stroke-width=".7"/><path d="M34.354 22.923H25.32a1.232 1.232 0 0 1 0-2.464h9.034a1.232 1.232 0 0 1 0 2.464ZM9.96 22.923a1.232 1.232 0 0 1 0-2.464h9.033a1.232 1.232 0 0 1 0 2.464H9.961Z" fill="#394252" stroke="#fff" stroke-width=".7"/></svg>