<svg width="90" height="99" fill="none" xmlns="http://www.w3.org/2000/svg"><circle cx="38.801" cy="57.625" r="38.5" fill="#0CBD68"/><path d="M20.69 37.628 74.14 23.26 44.596 87.546 20.69 37.628Z" fill="#0CBD68"/><path d="M60.458 74.287h-1.44v-18.45h1.44a.654.654 0 0 0 .574-.344.669.669 0 0 0-.021-.674l-4.89-7.769a.653.653 0 0 0-.553-.306H42.567l-3.11-3.144v-2.595h6.331a.654.654 0 0 0 .578-.35.668.668 0 0 0-.033-.679l-1.155-1.751 1.155-1.752a.668.668 0 0 0 .033-.68.654.654 0 0 0-.578-.35h-6.33v-.75a.659.659 0 0 0-.655-.662.659.659 0 0 0-.655.662V43.6l-3.11 3.144h-13a.653.653 0 0 0-.553.306l-4.89 7.769a.669.669 0 0 0-.022.674.654.654 0 0 0 .574.343h1.44v18.451h-1.44a.659.659 0 0 0-.655.662c0 .366.293.662.655.662h43.311a.659.659 0 0 0 .655-.662.659.659 0 0 0-.655-.662Zm-5.25-26.22 4.057 6.445h-9.014l-6.374-6.444h11.332Zm-10.643-11.3-.719 1.09a.668.668 0 0 0 0 .735l.719 1.09h-5.107v-2.914h5.107Zm-22.168 11.3h11.332l-6.375 6.445H18.34l4.057-6.444Zm-2.5 7.77h7.728a.643.643 0 0 0 .065-.004c.01 0 .019-.002.028-.004l.036-.005.031-.008.03-.008.031-.01.03-.012.028-.013.03-.015.027-.016c.01-.005.019-.01.028-.017l.029-.021.023-.018a.607.607 0 0 0 .048-.044l10.714-10.831 10.714 10.831c.015.016.031.03.048.044.007.007.015.012.023.018l.028.021.029.017.026.016.03.015.028.013.03.011.03.011.03.008.033.008.034.005.029.004a.664.664 0 0 0 .065.004h7.728v18.45h-14.06v-9.225c0-1.144-.92-2.075-2.051-2.075h-5.589c-1.131 0-2.052.93-2.052 2.075v9.225H19.898v-18.45Zm22.442 9.975h-7.073v-.75c0-.414.333-.75.742-.75h5.589c.41 0 .742.336.742.75v.75Zm-7.073 1.324h2.882v7.151h-2.882v-7.15Zm4.192 0h2.881v7.151h-2.881v-7.15Z" fill="#fff"/><path d="M38.807 60.783c2.672 0 4.846-2.197 4.846-4.9 0-2.7-2.173-4.899-4.846-4.899-2.672 0-4.846 2.198-4.846 4.9 0 2.702 2.174 4.9 4.846 4.9Zm0-8.474c1.95 0 3.537 1.604 3.537 3.575s-1.587 3.575-3.537 3.575-3.536-1.604-3.536-3.575 1.586-3.575 3.536-3.575Z" fill="#fff"/><path d="M38.801 56.544a.659.659 0 0 0 .655-.662v-2.118a.659.659 0 0 0-.655-.662.659.659 0 0 0-.654.662v1.456h-1.441a.659.659 0 0 0-.655.662c0 .366.293.663.655.663H38.8ZM31.816 66.516h-3.493a.659.659 0 0 0-.655.662v4.237c0 .366.293.662.655.662h3.493a.659.659 0 0 0 .655-.662v-4.237a.659.659 0 0 0-.655-.662Zm-.655 1.324v.794h-2.183v-.794h2.183Zm-2.183 2.913v-.794h2.183v.794h-2.183ZM25.53 66.516h-3.492a.659.659 0 0 0-.655.662v4.237c0 .366.293.662.655.662h3.493a.659.659 0 0 0 .655-.662v-4.237a.659.659 0 0 0-.655-.662Zm-.654 1.324v.794h-2.183v-.794h2.183Zm-2.183 2.913v-.794h2.183v.794h-2.183ZM31.597 58.047h-3.056a.879.879 0 0 0-.873.883v4.723c0 .365.293.662.655.662h3.493a.659.659 0 0 0 .655-.662V58.93a.879.879 0 0 0-.874-.883Zm-.436 1.324v1.5h-2.183v-1.5h2.183Zm-2.183 3.62v-.795h2.183v.795h-2.183ZM25.312 58.047h-3.056a.879.879 0 0 0-.873.883v4.723c0 .365.293.662.655.662h3.493a.659.659 0 0 0 .655-.662V58.93a.88.88 0 0 0-.874-.883Zm-.436 1.324v1.5h-2.183v-1.5h2.183Zm-2.183 3.62v-.795h2.183v.795h-2.183ZM52.077 72.077h3.493a.659.659 0 0 0 .654-.662v-4.237a.659.659 0 0 0-.654-.662h-3.493a.659.659 0 0 0-.655.662v4.237c0 .366.293.662.655.662Zm.655-1.324v-.794h2.183v.794h-2.183Zm2.183-2.913v.794h-2.183v-.794h2.183ZM45.788 72.077h3.493a.659.659 0 0 0 .654-.662v-4.237a.659.659 0 0 0-.654-.662h-3.493a.659.659 0 0 0-.655.662v4.237c0 .366.293.662.655.662Zm.655-1.324v-.794h2.183v.794h-2.183Zm2.183-2.913v.794h-2.183v-.794h2.183ZM52.077 64.315h3.493a.659.659 0 0 0 .654-.662V58.93a.879.879 0 0 0-.873-.883h-3.056a.879.879 0 0 0-.873.883v4.723c0 .365.293.662.655.662Zm.655-1.324v-.795h2.183v.795h-2.183Zm2.183-3.62v1.5h-2.183v-1.5h2.183ZM45.788 64.315h3.493a.659.659 0 0 0 .654-.662V58.93a.88.88 0 0 0-.873-.883h-3.056a.879.879 0 0 0-.873.883v4.723c0 .365.293.662.655.662Zm.655-1.324v-.795h2.183v.795h-2.183Zm2.183-3.62v1.5h-2.183v-1.5h2.183Z" fill="#fff"/></svg>