<svg width="59" height="57" fill="none" xmlns="http://www.w3.org/2000/svg"><path d="M3.428 55.877c-.238.17-.522.262-.813.266a1.457 1.457 0 0 1-1.455-1.442V29.582a9.16 9.16 0 0 1 9.16-9.16h19.34a9.16 9.16 0 0 1 9.16 9.16v11.6a9.161 9.161 0 0 1-9.16 9.161H10.807l-.134.1-7.245 5.434Zm1.41-4.634 4.638-3.478h.002c.248-.185.55-.284.86-.282H29.66a6.3 6.3 0 0 0 6.3-6.3v-11.6a6.3 6.3 0 0 0-6.3-6.3l-19.321.018v.5-.5a6.3 6.3 0 0 0-6.3 6.3v22.242l.8-.6Z" fill="#394252" stroke="#fff"/><path d="M58.158 10.262v25.116a1.458 1.458 0 0 1-1.457 1.427v.5l-.004-.5a1.422 1.422 0 0 1-.858-.282l-7.248-5.436-.134-.1h-3.381l-.024.002a1.439 1.439 0 1 1 0-2.865l.024.002H48.982a1.421 1.421 0 0 1 .858.281l4.64 3.48.8.6V10.262a6.3 6.3 0 0 0-6.3-6.3H29.657a6.3 6.3 0 0 0-6.3 6.3v3.885l.002.024a1.439 1.439 0 1 1-2.865 0l.002-.024v-3.884a9.16 9.16 0 0 1 9.161-9.161H48.98a9.16 9.16 0 0 1 9.178 9.16Z" fill="#394252" stroke="#fff"/><path d="M12.26 33.002h-.025l-.024.003a1.439 1.439 0 1 1 0-2.866l.024.003H23.865l.025-.002a1.44 1.44 0 1 1 0 2.865l-.049.497v-.5H12.26ZM18.108 40.724l-.024-.003h-5.849l-.024.003a1.44 1.44 0 1 1 0-2.866l.024.003h5.849l.024-.003a1.439 1.439 0 1 1 0 2.866Z" fill="#21AA68" stroke="#fff"/></svg>