<svg width="64" height="64" fill="none" xmlns="http://www.w3.org/2000/svg"><path d="m11.532 12.738-4.009-4.01a1.346 1.346 0 0 1 1.903-1.904l4.009 4.01a1.346 1.346 0 0 1-1.903 1.904ZM9.452 19.651v.003a1.349 1.349 0 0 1-1.643.953l-.004-.001-5.477-1.458a1.346 1.346 0 0 1 .692-2.602l5.478 1.458c.718.191 1.145.929.954 1.647ZM18.704 7.8c.187.719.948 1.143 1.642.952h.003a1.346 1.346 0 0 0 .955-1.648l-1.458-5.479a1.346 1.346 0 0 0-1.647-.954l.505 7.128Zm0 0-.001-.003m0 .002v-.002m0 0-1.458-5.48m1.458 5.48-1.458-5.48m0 0a1.346 1.346 0 0 1 .954-1.646l-.954 1.647ZM24.594 10.816l.345.346-3.654 3.655a1.346 1.346 0 0 0 1.903 1.904l3.654-3.655a6.816 6.816 0 0 1 9.63 0 6.772 6.772 0 0 1 1.995 4.816c0 1.82-.71 3.531-1.994 4.816l-3.654 3.656a1.346 1.346 0 0 0 0 1.904c.262.263.606.394.951.394s.689-.131.951-.394l3.655-3.656a9.444 9.444 0 0 0 2.783-6.719l-16.565-7.067Zm0 0 .345.346c3.704-3.706 9.733-3.705 13.437 0a9.441 9.441 0 0 1 2.783 6.72l-16.565-7.066ZM23.398 35.782a6.816 6.816 0 0 1-9.63 0 6.772 6.772 0 0 1-1.995-4.817c.001-1.82.71-3.531 1.995-4.816l3.654-3.656a1.347 1.347 0 0 0-1.903-1.903l-3.654 3.655a9.443 9.443 0 0 0-2.783 6.72l14.316 4.817Zm0 0 3.654-3.656a1.345 1.345 0 1 1 1.904 1.904L25.3 37.685m-1.903-1.903 1.903 1.903m0 0a9.433 9.433 0 0 1-6.717 2.784 9.435 9.435 0 0 1-6.72-2.784 9.441 9.441 0 0 1-2.782-6.72l16.22 6.72Zm-13.79.354a9.935 9.935 0 0 0 7.073 2.93 9.933 9.933 0 0 0 7.071-2.93H11.511Z" fill="#394252" stroke="#fff"/><path d="M31.165 18.37a1.346 1.346 0 0 1 0 1.904L20.973 30.47a1.34 1.34 0 0 1-.952.395 1.346 1.346 0 0 1-.951-2.298L29.262 18.37a1.345 1.345 0 0 1 1.903 0Z" fill="#0CBD68" stroke="#fff"/><path d="m36.393 34.077.007.002.008.002 25.906 6.584a1.346 1.346 0 0 1 .364 2.457l-6.193 3.742-.482.29.346.445L59.783 52a5.064 5.064 0 0 1-.411 6.685 5.06 5.06 0 0 1-6.683.411l-4.4-3.434-.445-.347-.291.483-3.74 6.195-.005.006-.004.007c-.27.48-.8.684-1.34.604-.538-.08-.986-.431-1.104-.966l-.002-.008-.002-.008-6.584-25.91-.002-.008-.002-.008c-.129-.448.026-.921.365-1.26.339-.34.811-.494 1.26-.365Zm16.91 11.563.01-.006 4.196-2.534 1.023-.619-1.158-.294-18.621-4.733-.815-.207.207.815 4.732 18.625.295 1.159.618-1.024 2.534-4.197.006-.01c.382-.665 1.37-.848 1.966-.362l.008.006 6.04 4.715c.94.733 2.282.65 3.125-.192a2.366 2.366 0 0 0 .192-3.125l-4.713-6.042-.008-.009c-.484-.593-.301-1.585.363-1.966Z" fill="#394252" stroke="#fff"/></svg>