<svg width="48" height="67" viewBox="0 0 48 67" fill="none" xmlns="http://www.w3.org/2000/svg">
<mask id="path-1-inside-1_315_44" fill="white">
<path d="M46.3218 42.8846L4.01199 65.7536C2.28408 66.6897 0.179688 65.4479 0.179688 63.4992V17.7804C0.179688 15.8317 2.28408 14.5994 4.01199 15.526C4.84216 15.975 5.36343 16.8443 5.36343 17.7804V44.1361C5.36343 46.0848 7.47747 47.3266 9.20539 46.3809L33.8016 32.969C34.5739 32.5487 35.5199 32.5487 36.2921 32.9595L46.3121 38.3663C48.1269 39.3597 48.1269 41.9198 46.3218 42.8846Z"/>
</mask>
<path d="M46.3218 42.8846L4.01199 65.7536C2.28408 66.6897 0.179688 65.4479 0.179688 63.4992V17.7804C0.179688 15.8317 2.28408 14.5994 4.01199 15.526C4.84216 15.975 5.36343 16.8443 5.36343 17.7804V44.1361C5.36343 46.0848 7.47747 47.3266 9.20539 46.3809L33.8016 32.969C34.5739 32.5487 35.5199 32.5487 36.2921 32.9595L46.3121 38.3663C48.1269 39.3597 48.1269 41.9198 46.3218 42.8846Z" stroke="#38AC5A" stroke-width="2" mask="url(#path-1-inside-1_315_44)"/>
<mask id="path-2-inside-2_315_44" fill="white">
<path d="M43.063 17.2987C44.762 18.2921 44.762 20.7185 43.063 21.712L30.0506 29.3349L29.8382 29.4591L14.1615 38.6487C12.4336 39.6613 10.252 38.429 10.252 36.4421V2.56857C10.252 0.581625 12.4336 -0.650659 14.1615 0.361917L43.063 17.2987Z"/>
</mask>
<path d="M43.063 17.2987C44.762 18.2921 44.762 20.7185 43.063 21.712L30.0506 29.3349L29.8382 29.4591L14.1615 38.6487C12.4336 39.6613 10.252 38.429 10.252 36.4421V2.56857C10.252 0.581625 12.4336 -0.650659 14.1615 0.361917L43.063 17.2987Z" stroke="#38AC5A" stroke-width="2" mask="url(#path-2-inside-2_315_44)"/>
</svg>
