<svg width="59" height="41" fill="none" xmlns="http://www.w3.org/2000/svg"><path d="M55.262 12.84h.45V6.39c0-1.28-.898-2.45-2.15-2.45H5.758c-1.252 0-2.15 1.17-2.15 2.45v6.45h.45c3.434 0 6.348 3.316 6.348 7.55 0 4.235-2.914 7.55-6.347 7.55h-.45v6.45c0 1.28.897 2.45 2.149 2.45h47.805c1.251 0 2.149-1.17 2.149-2.45v-6.45h-.45c-3.434 0-6.347-3.315-6.347-7.55 0-4.234 2.913-7.55 6.347-7.55ZM5.758.84h47.804c2.497 0 4.648 2.42 4.648 5.55v8c0 .928-.625 1.55-1.25 1.55h-1.698c-2.189 0-3.849 2.068-3.849 4.45 0 2.383 1.66 4.45 3.849 4.45h1.699c.624 0 1.25.623 1.25 1.55v8c0 3.132-2.152 5.55-4.648 5.55H5.758c-2.497 0-4.648-2.418-4.648-5.55v-8c0-.927.625-1.55 1.25-1.55h1.699c2.188 0 3.848-2.067 3.848-4.45 0-2.382-1.66-4.45-3.848-4.45h-1.7c-.624 0-1.249-.622-1.249-1.55v-8C1.11 3.26 3.261.84 5.758.84Z" fill="#394252" stroke="#fff" stroke-width=".9"/><path d="M31.81 25.55a4.653 4.653 0 0 1 4.647-4.647 4.653 4.653 0 0 1 4.648 4.648 4.653 4.653 0 0 1-4.648 4.647 4.653 4.653 0 0 1-4.648-4.647Zm2.498 0c0 1.186.964 2.15 2.149 2.15s2.15-.964 2.15-2.15c0-1.185-.965-2.148-2.15-2.148s-2.15.963-2.15 2.149ZM22.863 10.708a4.653 4.653 0 0 1 4.648 4.647 4.653 4.653 0 0 1-4.648 4.648 4.653 4.653 0 0 1-4.647-4.648 4.653 4.653 0 0 1 4.647-4.647Zm0 2.498c-1.185 0-2.149.964-2.149 2.15 0 1.185.964 2.149 2.15 2.149 1.185 0 2.148-.964 2.148-2.15 0-1.185-.963-2.149-2.149-2.149ZM35.482 11.177a1.25 1.25 0 1 1 1.95 1.56L23.84 29.73a1.25 1.25 0 1 1-1.951-1.561l13.594-16.992Z" fill="#0CBD68" stroke="#fff" stroke-width=".9"/></svg>