<svg width="56" height="56" fill="none" xmlns="http://www.w3.org/2000/svg"><path d="M48.32 42.868h.246l.083-.23 3.335-9.167.17-.47H4.5l.17.47 3.335 9.167.084.23H16.709a1.37 1.37 0 0 1 0 2.738H7.13a1.37 1.37 0 0 1-1.287-.902L1.26 32.101a1.366 1.366 0 0 1 1.287-1.836h51.562c.448 0 .865.216 1.12.582l.001.002c.257.364.318.833.166 1.254l-4.583 12.603c-.197.54-.712.9-1.287.9h-9.58a1.37 1.37 0 0 1 0-2.738h8.374Z" fill="#394252" stroke="#fff" stroke-width=".7"/><path d="m36.715 53.196 1.987-12.916.062-.403H17.89l.062.403 1.987 12.916a1.368 1.368 0 0 1-1.144 1.56h-.003a1.36 1.36 0 0 1-1.557-1.144l-2.292-14.896a1.37 1.37 0 0 1 1.352-1.577H40.36a1.367 1.367 0 0 1 1.352 1.58l-2.292 14.895a1.366 1.366 0 0 1-1.56 1.142 1.369 1.369 0 0 1-1.144-1.56ZM45.952 17.223c4.815 2.934 7.805 8.239 7.805 13.84v.001a1.366 1.366 0 0 1-1.366 1.368 1.37 1.37 0 0 1-1.37-1.369c0-4.658-2.488-9.063-6.494-11.502a1.368 1.368 0 1 1 1.425-2.338Z" fill="#394252" stroke="#fff" stroke-width=".7"/><path d="M46.31 17.313a3.088 3.088 0 1 1-6.175 0 3.088 3.088 0 0 1 6.175 0ZM28.327 18.108c-4.862 0-8.817-3.954-8.817-8.816S23.465.475 28.327.475s8.817 3.955 8.817 8.817-3.955 8.816-8.817 8.816Zm0-14.896a6.086 6.086 0 0 0-6.08 6.08 6.086 6.086 0 0 0 6.08 6.079 6.086 6.086 0 0 0 6.079-6.08 6.086 6.086 0 0 0-6.08-6.079Z" fill="#394252" stroke="#fff" stroke-width=".7"/><path d="M45.516 33.004a1.37 1.37 0 0 1-1.37-1.369c0-4.3-3.497-7.798-7.797-7.798H20.307c-4.3 0-7.798 3.498-7.798 7.798a1.37 1.37 0 0 1-2.737 0c0-5.808 4.727-10.535 10.535-10.535H36.35c5.809 0 10.535 4.727 10.535 10.535a1.37 1.37 0 0 1-1.368 1.37Z" fill="#0CBD68" stroke="#fff" stroke-width=".7"/></svg>