<svg width="90" height="98" fill="none" xmlns="http://www.w3.org/2000/svg"><circle cx="39.328" cy="57.18" r="38.5" fill="#0CBD68"/><path d="m21.217 37.182 53.45-14.366L45.123 87.1 21.217 37.182Z" fill="#0CBD68"/><path d="m61.617 52.898-7.54-9.796a.883.883 0 0 0-1.175-.206l-4.869 3.096h-6.35a.877.877 0 0 0-.243.04l-4.923 1.418-5.109-1.397-4.964-3.157a.883.883 0 0 0-1.161.19l-8.34 10.332c-.3.371-.251.913.11 1.224l4.372 3.762 3.922 5.286a3.126 3.126 0 0 0 .069 4.343c.529.529 1.202.827 1.894.897a3.102 3.102 0 0 0 .878 2.685c.59.59 1.373.915 2.207.915l.034-.002-.002.064c0 .834.325 1.618.915 2.208a3.103 3.103 0 0 0 2.695.876c.068.694.367 1.37.898 1.9a3.111 3.111 0 0 0 2.207.914c.8 0 1.6-.304 2.208-.913l.478-.477.2.161a3.111 3.111 0 0 0 2.171.877c.8 0 1.6-.304 2.208-.913.62-.621.925-1.441.912-2.257a3.116 3.116 0 0 0 3.17-3.167 3.105 3.105 0 0 0 2.256-.914c.62-.621.925-1.441.912-2.257a3.114 3.114 0 0 0 2.257-.913 3.127 3.127 0 0 0 .41-3.908l2.864-5.997 4.305-3.705a.883.883 0 0 0 .124-1.209ZM26.162 44.81l3.57 2.27-7.765 9.46-3.112-2.678 7.307-9.052Zm.503 20.057 1.078-1.078a1.353 1.353 0 0 1 .838-.391h.023a1.314 1.314 0 0 1 1.082.419c.5.528.473 1.39-.06 1.922l-1.044 1.044a1.357 1.357 0 0 1-1.917 0 1.357 1.357 0 0 1 0-1.916Zm2.772 5.498a1.345 1.345 0 0 1-.397-.958c0-.362.14-.702.397-.958l2.089-2.089c.4-.4 1.03-.51 1.54-.266.528.251.825.824.747 1.4a1.43 1.43 0 0 1-.403.816l-2.056 2.055a1.346 1.346 0 0 1-.959.397c-.362 0-.702-.14-.958-.397Zm3.154 3.185a1.345 1.345 0 0 1-.397-.958c0-.362.141-.702.397-.958l2.089-2.09a1.37 1.37 0 0 1 1.638-.214c.479.278.73.825.647 1.37-.045.299-.187.58-.402.794l-2.055 2.056a1.346 1.346 0 0 1-.959.397c-.361 0-.702-.14-.958-.397Zm3.593 2.777a1.357 1.357 0 0 1 0-1.916l1.077-1.077a1.444 1.444 0 0 1 .104-.094 1.35 1.35 0 0 1 .601-.28c.005 0 .01 0 .016-.002.038-.006.076-.012.114-.015l.047-.003c.032-.001.063-.004.095-.003a1.346 1.346 0 0 1 1.054.527c.406.531.352 1.32-.153 1.825L38.1 76.328a1.357 1.357 0 0 1-1.916 0Zm16.48-9.86a1.356 1.356 0 0 1-1.916 0 .8.8 0 0 0-.06-.053l-5.68-5.74a.883.883 0 0 0-1.257 1.242l5.742 5.803a1.357 1.357 0 0 1-.956 2.316c-.362 0-.702-.142-.958-.398l-3.841-3.88a.883.883 0 1 0-1.256 1.242l3.782 3.822c.02.024.04.047.062.069a1.357 1.357 0 0 1 0 1.916 1.357 1.357 0 0 1-1.917 0l-2.096-2.118a.883.883 0 0 0-1.256 1.242l2.038 2.06c.02.023.04.047.062.069a1.356 1.356 0 0 1-1.916 1.917c-.061-.061-.133-.108-.2-.16-.058-.044-.074-.075-.045-.145.03-.071.073-.136.102-.207a3.185 3.185 0 0 0 .198-1.604 3.109 3.109 0 0 0-1.319-2.15 3.101 3.101 0 0 0-1.314-.51c.228-1.003-.046-2.091-.757-2.842a3.1 3.1 0 0 0-2.318-.977 3.119 3.119 0 0 0-.835-2.208 3.1 3.1 0 0 0-2.226-.977 3.18 3.18 0 0 0-.754.08 3.096 3.096 0 0 0-3.03-2.65 3.129 3.129 0 0 0-2.132.802l-3.415-4.602 8.17-9.953 2.604.712-3.4 6a3.101 3.101 0 0 0-.293 2.372 3.1 3.1 0 0 0 1.992 2.12 3.103 3.103 0 0 0 1.85.057 3.102 3.102 0 0 0 1.883-1.47l2.21-3.9 3.946.28 10.507 10.507a1.357 1.357 0 0 1 0 1.917Zm.367-4.049-9.857-9.856a.885.885 0 0 0-.562-.256l-4.831-.343a.898.898 0 0 0-.831.446l-2.485 4.384a1.347 1.347 0 0 1-.818.638 1.347 1.347 0 0 1-1.03-.127 1.347 1.347 0 0 1-.637-.818 1.345 1.345 0 0 1 .127-1.03l3.317-5.853 1.344-.386.026-.01 5.016-1.448h6.061l7.566 9.619-2.406 5.04Zm3.564-6.427-6.997-8.9 3.57-2.27 6.54 8.492-3.113 2.678Z" fill="#fff"/><path d="M44.04 44.34a.881.881 0 0 0 .625-.258l6.034-6.035a.883.883 0 1 0-1.25-1.25l-6.034 6.036a.883.883 0 0 0 .625 1.508ZM33.883 44.082a.881.881 0 0 0 1.25 0 .883.883 0 0 0 0-1.25l-6.035-6.034a.883.883 0 1 0-1.25 1.25l6.035 6.034ZM39.274 44.34a.884.884 0 0 0 .883-.884V38.46a.884.884 0 0 0-1.766 0v4.995c0 .487.395.883.883.883ZM38.456 35.258c.14.34.49.563.86.544a.892.892 0 0 0 .796-.612.89.89 0 0 0-.303-.97.893.893 0 0 0-1.027-.035.89.89 0 0 0-.326 1.073Z" fill="#fff"/></svg>