<svg width="64" height="66" fill="none" xmlns="http://www.w3.org/2000/svg"><path d="M37.47 7.941a3.571 3.571 0 0 0-5.062-.66c-1.396 1.098-1.792 3.038-1.028 4.582L11.735 36.757a.853.853 0 0 0 .125 1.186c.122.1.264.159.41.178a.825.825 0 0 0 .755-.31l19.35-24.52 7.98 10.587a.818.818 0 0 0 1.162.152.855.855 0 0 0 .155-1.184l-8.62-11.437a2.025 2.025 0 0 1 .364-2.792 1.932 1.932 0 0 1 2.738.357l19.548 25.944a2.02 2.02 0 0 1-.365 2.792 1.928 1.928 0 0 1-2.734-.358l-8.588-11.389a.818.818 0 0 0-1.162-.152.856.856 0 0 0-.155 1.184l7.947 10.54-8.51 3.854-.027.01-4.314 1.953-.035.018-14.84 6.72-2.698 1.222-.01.005-.042.019-8.657 3.92-5.986-7.943 5.248-6.65a.854.854 0 0 0-.125-1.186.82.82 0 0 0-1.166.133L3.59 47.078c-1.103 1.4-1.822 2.883-2.08 4.286-.31 1.693.05 3.283 1.042 4.599.926 1.228 2.218 1.976 3.753 2.177.112.015.225.026.34.035 1.398.108 2.987-.221 4.595-.95l8.75-3.963 1.716 3.878a7.504 7.504 0 0 0 4.213 4.004c.56.213 1.132.357 1.709.433a7.357 7.357 0 0 0 4.063-.629l9.69-4.491c3.795-1.76 5.492-6.33 3.784-10.19l-1.623-3.67 8.2-3.714a3.56 3.56 0 0 0 4.603.163 3.734 3.734 0 0 0 .675-5.16L37.47 7.942Zm-8.393 47.103a1.16 1.16 0 0 1-.905.03 1.17 1.17 0 0 1-.659-.625l-1.695-3.827 11.892-5.385 1.646 3.72c.13.292.139.619.026.922a1.193 1.193 0 0 1-.62.674l-9.685 4.491Zm-25.209-.113c-1.667-2.212-.382-4.814.601-6.241l5.467 7.255c-1.604.604-4.397 1.204-6.068-1.014Zm39.784-7.965c1.333 3.013.009 6.582-2.954 7.955l-9.69 4.49a5.75 5.75 0 0 1-4.502.151 5.856 5.856 0 0 1-3.289-3.122l-1.71-3.866 2.592-1.174.2-.09L26 55.148a2.816 2.816 0 0 0 3.756 1.433h.001l9.686-4.491a2.87 2.87 0 0 0 1.489-1.62 2.919 2.919 0 0 0-.064-2.213l-1.64-3.707 2.795-1.266 1.629 3.682Z" fill="#394252"/><path d="M51.18 18.578a.818.818 0 0 0 .613-.17l4.759-3.73a.855.855 0 0 0 .154-1.185.817.817 0 0 0-1.162-.152l-4.758 3.732a.856.856 0 0 0-.155 1.184c.14.185.339.294.55.321ZM47.61 13.828l.01.002a.837.837 0 0 0 .923-.74l.719-5.984a.836.836 0 0 0-.713-.936l-.01-.001a.837.837 0 0 0-.923.74l-.719 5.984a.837.837 0 0 0 .714.935ZM60.84 22.47l-5.853-.83-.01-.001a.837.837 0 0 0-.929.72.837.837 0 0 0 .702.953l5.854.83.009.001a.837.837 0 0 0 .93-.721.837.837 0 0 0-.703-.953Z" fill="#0CBD68"/></svg>