<svg width="98" height="97" fill="none" xmlns="http://www.w3.org/2000/svg"><path d="M96.437 41.614 80.37 20.742a1.882 1.882 0 0 0-2.502-.44L67.493 26.9h-13.53c-.175 0-.35.037-.518.086l-10.49 3.02L32.07 27.03l-10.577-6.727a1.882 1.882 0 0 0-2.475.406L1.246 42.722a1.882 1.882 0 0 0 .237 2.608l9.315 8.017 8.357 11.262c-2.444 2.603-2.397 6.71.146 9.254a6.624 6.624 0 0 0 4.035 1.91 6.692 6.692 0 0 0-.077 1.018c0 1.777.692 3.448 1.948 4.704a6.61 6.61 0 0 0 4.704 1.949c.024 0 .048-.002.071-.003 0 .046-.003.09-.003.136 0 1.777.693 3.447 1.949 4.704a6.611 6.611 0 0 0 4.704 1.948c.35 0 .698-.028 1.038-.08a6.618 6.618 0 0 0 1.914 4.05 6.629 6.629 0 0 0 4.703 1.945 6.632 6.632 0 0 0 4.705-1.946l1.017-1.017.427.344a6.63 6.63 0 0 0 4.626 1.869 6.629 6.629 0 0 0 4.704-1.946 6.633 6.633 0 0 0 1.944-4.808 6.64 6.64 0 0 0 6.753-6.75 6.615 6.615 0 0 0 4.808-1.947 6.633 6.633 0 0 0 1.944-4.808 6.634 6.634 0 0 0 4.808-1.945c2.26-2.258 2.55-5.75.875-8.327L87 52.083l9.173-7.894a1.882 1.882 0 0 0 .264-2.575ZM20.891 24.381l7.605 4.836-16.544 20.157-6.63-5.707L20.89 24.381Zm1.073 42.735 2.295-2.295a2.881 2.881 0 0 1 1.786-.834c.016 0 .033 0 .049-.002a2.87 2.87 0 0 1 2.306.894c1.064 1.125 1.007 2.962-.127 4.096L26.047 71.2a2.89 2.89 0 0 1-4.083 0 2.892 2.892 0 0 1 0-4.084Zm5.905 11.716a2.866 2.866 0 0 1-.846-2.041c0-.771.3-1.496.846-2.042l4.451-4.45a2.918 2.918 0 0 1 3.283-.568c1.123.536 1.755 1.755 1.59 2.982a3.047 3.047 0 0 1-.86 1.74l-4.38 4.38a2.869 2.869 0 0 1-2.042.845 2.87 2.87 0 0 1-2.042-.846Zm6.721 6.786a2.866 2.866 0 0 1-.846-2.041c0-.771.3-1.496.846-2.042l4.45-4.451c.912-.911 2.375-1.107 3.49-.458a2.874 2.874 0 0 1 1.38 2.918 3.051 3.051 0 0 1-.856 1.694l-4.38 4.38a2.869 2.869 0 0 1-2.042.846c-.771 0-1.496-.3-2.042-.846Zm7.655 5.918a2.89 2.89 0 0 1 0-4.083l2.296-2.296a3.026 3.026 0 0 1 .222-.2 2.877 2.877 0 0 1 1.28-.595l.033-.004c.08-.015.162-.027.244-.034.033-.003.066-.003.1-.005.067-.004.134-.008.202-.008a2.869 2.869 0 0 1 2.246 1.124c.865 1.132.75 2.813-.325 3.888l-2.215 2.214a2.89 2.89 0 0 1-4.083 0Zm35.116-21.008a2.89 2.89 0 0 1-4.083 0 1.702 1.702 0 0 0-.128-.115L61.046 58.182a1.882 1.882 0 0 0-2.676 2.648l12.235 12.363.004.004a2.892 2.892 0 0 1 0 4.084 2.869 2.869 0 0 1-2.042.846c-.772 0-1.497-.3-2.042-.846l-8.185-8.27a1.882 1.882 0 1 0-2.675 2.649l8.06 8.143c.04.051.084.1.131.147a2.892 2.892 0 0 1 0 4.084 2.892 2.892 0 0 1-4.085 0l-4.467-4.515a1.882 1.882 0 1 0-2.676 2.648l4.343 4.387c.04.052.085.101.132.148a2.891 2.891 0 0 1 0 4.084 2.89 2.89 0 0 1-4.083 0c-.13-.13-.282-.23-.427-.34-.123-.094-.155-.16-.094-.309.062-.151.155-.288.218-.44a6.43 6.43 0 0 0 .178-.522c.289-.93.374-1.93.244-2.895a6.625 6.625 0 0 0-2.812-4.582 6.608 6.608 0 0 0-2.8-1.085c.485-2.139-.097-4.458-1.612-6.058a6.603 6.603 0 0 0-4.94-2.08c.04-1.73-.588-3.447-1.78-4.706a6.606 6.606 0 0 0-4.741-2.08 6.768 6.768 0 0 0-1.607.17 6.601 6.601 0 0 0-2.2-4.034 6.599 6.599 0 0 0-4.254-1.615 6.668 6.668 0 0 0-4.545 1.71l-7.277-9.805L31.98 30.907l5.548 1.518-7.246 12.785a6.608 6.608 0 0 0-.623 5.053 6.607 6.607 0 0 0 3.424 4.172l.023.01a6.61 6.61 0 0 0 4.738.456 6.61 6.61 0 0 0 4.014-3.131l4.709-8.31 8.407.597 22.388 22.387a2.892 2.892 0 0 1 0 4.084Zm.78-8.629L57.14 40.898a1.884 1.884 0 0 0-1.198-.546l-10.294-.73c-.712-.05-1.42.329-1.77.95l-5.295 9.342a2.87 2.87 0 0 1-1.742 1.36 2.87 2.87 0 0 1-2.194-.272 2.869 2.869 0 0 1-1.359-1.742 2.865 2.865 0 0 1 .271-2.194l7.067-12.472 2.864-.824.056-.02 10.688-3.085h12.915L83.27 51.159 78.14 61.9Zm7.595-13.694L70.826 29.24l7.61-4.839 13.931 18.096-6.631 5.707Z" fill="#21AA68" stroke="#fff"/><path d="M58.988 23.366c.482 0 .964-.184 1.331-.552L73.178 9.956a1.882 1.882 0 1 0-2.663-2.662L57.657 20.152a1.882 1.882 0 0 0 1.33 3.214ZM37.336 22.814a1.877 1.877 0 0 0 2.662 0 1.882 1.882 0 0 0 0-2.662L27.14 7.294a1.882 1.882 0 1 0-2.663 2.662l12.859 12.858ZM48.828 23.367c1.039 0 1.882-.843 1.882-1.882V10.843a1.883 1.883 0 0 0-3.765 0v10.642c0 1.039.843 1.882 1.883 1.882ZM47.09 4.019a1.893 1.893 0 0 0 1.83 1.159 1.9 1.9 0 0 0 1.697-1.304 1.897 1.897 0 0 0-.645-2.068 1.903 1.903 0 0 0-2.19-.072 1.896 1.896 0 0 0-.692 2.285Z" fill="#21AA68" stroke="#fff"/></svg>