<svg width="86" height="86" fill="none" xmlns="http://www.w3.org/2000/svg"><path d="M85.078 55.884c-.753-15.048-13.183-26.856-28.25-26.837-3.89.004-7.737.812-11.3 2.373V2.21c0-.78-.632-1.413-1.412-1.413H29.99c-.78 0-1.413.632-1.413 1.412v5.65H15.866c-.78 0-1.413.633-1.413 1.413v7.062H1.741c-.78 0-1.413.633-1.413 1.413v39.55c0 .78.633 1.412 1.413 1.412h26.908c.78 15.583 14.044 27.582 29.627 26.802 15.582-.78 27.582-14.044 26.802-29.627Zm-70.625 0h-11.3V19.16h11.3v36.725Zm14.125 0h-11.3v-45.2h11.3v45.2Zm2.825-52.262h11.3v29.253a28.25 28.25 0 0 0-11.3 12.19V3.622Zm25.425 79.1c-14.04-.238-25.228-11.813-24.99-25.853.224-13.159 10.452-23.972 23.578-24.927v25.355c0 .78.632 1.412 1.412 1.412h25.425c-.75 13.488-11.917 24.034-25.425 24.013Zm1.413-26.838V31.942c12.934.7 23.275 11.01 24.012 23.942H58.241Z" fill="#21AA68" stroke="#fff" stroke-width=".5"/><path d="M76.503 10.141a1.413 1.413 0 0 0-1.313-.875h-9.888v2.825h6.483l-9.308 9.308-4.647-4.661a1.413 1.413 0 0 0-1.998-.008l-.008.008-7.062 7.062 2.005 2.006 6.06-6.074 4.647 4.662a1.412 1.412 0 0 0 2.006 0l10.297-10.312v6.484h2.825v-9.888a1.173 1.173 0 0 0-.099-.537ZM25.752 64.36h-22.6v2.824h22.6V64.36ZM25.752 70.016h-22.6v2.825h22.6v-2.825ZM25.752 75.656h-22.6v2.825h22.6v-2.825Z" fill="#21AA68" stroke="#fff" stroke-width=".5"/></svg>