<svg width="102" height="95" fill="none" xmlns="http://www.w3.org/2000/svg"><path d="M99.379 91.51h-3.236V50.066h3.236a1.47 1.47 0 0 0 1.29-.772 1.503 1.503 0 0 0-.049-1.514L89.636 30.33a1.467 1.467 0 0 0-1.241-.69H59.191l-6.984-7.06v-5.828h14.22c.543 0 1.041-.302 1.297-.786a1.5 1.5 0 0 0-.073-1.527l-2.594-3.934 2.594-3.934a1.501 1.501 0 0 0 .073-1.527 1.47 1.47 0 0 0-1.297-.785h-14.22V2.573a1.48 1.48 0 0 0-1.471-1.487 1.48 1.48 0 0 0-1.471 1.487V22.58l-6.984 7.06H13.076c-.503 0-.97.26-1.241.69L.851 47.78a1.502 1.502 0 0 0-.048 1.514 1.47 1.47 0 0 0 1.29.772h3.236V91.51H2.092a1.48 1.48 0 0 0-1.47 1.487 1.48 1.48 0 0 0 1.47 1.487H99.38a1.48 1.48 0 0 0 1.471-1.487 1.48 1.48 0 0 0-1.471-1.487ZM87.588 32.615l9.111 14.476H76.451L62.133 32.615h25.455ZM63.678 7.233 62.065 9.68a1.5 1.5 0 0 0 0 1.65l1.613 2.447H52.207V7.233h11.471ZM13.884 32.615h25.454L25.02 47.091H4.772l9.112-14.476ZM8.27 50.065h17.358c.049 0 .097-.002.146-.007l.062-.009.08-.012c.024-.005.047-.012.07-.018.024-.006.047-.01.07-.018.023-.007.045-.016.068-.024.023-.008.045-.015.068-.025.021-.009.041-.02.062-.03.023-.01.046-.02.068-.032l.059-.035.064-.04.064-.047.052-.04c.037-.03.073-.064.108-.099L50.736 25.3l24.066 24.33c.034.035.07.068.108.1l.051.038c.021.017.042.033.064.048.02.014.043.027.064.04l.06.035c.022.012.044.022.067.033l.063.03.066.024.07.025.067.017.072.018.078.012.064.01c.049.004.097.007.146.007H93.2V91.51H61.62V70.788c0-2.57-2.067-4.66-4.609-4.66H44.46c-2.542 0-4.61 2.09-4.61 4.66V91.51H8.272V50.066Zm50.408 22.408H42.792v-1.685c0-.93.748-1.686 1.667-1.686h12.553c.92 0 1.667.756 1.667 1.686v1.685Zm-15.887 2.975h6.472V91.51h-6.472V75.448Zm9.415 0h6.472V91.51h-6.472V75.448Z" fill="#21AA68" stroke="#fff" stroke-width=".8"/><path d="M50.734 61.167c6.002 0 10.886-4.937 10.886-11.005 0-6.069-4.884-11.006-10.886-11.006-6.003 0-10.886 4.937-10.886 11.006 0 6.068 4.883 11.005 10.886 11.005Zm0-19.036c4.38 0 7.943 3.602 7.943 8.03 0 4.43-3.563 8.032-7.943 8.032-4.38 0-7.944-3.603-7.944-8.031 0-4.429 3.563-8.031 7.944-8.031Z" fill="#21AA68" stroke="#fff" stroke-width=".8"/><path d="M50.737 51.656a1.48 1.48 0 0 0 1.471-1.488V45.41a1.48 1.48 0 0 0-1.47-1.487 1.48 1.48 0 0 0-1.472 1.487v3.272H46.03a1.48 1.48 0 0 0-1.471 1.487 1.48 1.48 0 0 0 1.47 1.488h4.708ZM35.047 74.063h-7.845a1.48 1.48 0 0 0-1.472 1.487v9.518a1.48 1.48 0 0 0 1.471 1.487h7.846a1.48 1.48 0 0 0 1.471-1.487V75.55a1.48 1.48 0 0 0-1.47-1.487Zm-1.47 2.974v1.785h-4.904v-1.785h4.903Zm-4.904 6.544v-1.785h4.903v1.785h-4.903ZM20.922 74.063h-7.846a1.48 1.48 0 0 0-1.47 1.487v9.518a1.48 1.48 0 0 0 1.47 1.487h7.846a1.48 1.48 0 0 0 1.471-1.487V75.55a1.48 1.48 0 0 0-1.47-1.487Zm-1.47 2.974v1.785h-4.904v-1.785h4.903Zm-4.904 6.544v-1.785h4.903v1.785h-4.903ZM34.557 55.016h-6.865c-1.082 0-1.962.89-1.962 1.983v10.609a1.48 1.48 0 0 0 1.471 1.487h7.846a1.48 1.48 0 0 0 1.471-1.487v-10.61c0-1.093-.88-1.982-1.961-1.982Zm-.98 2.974v3.371h-4.904v-3.37h4.903Zm-4.904 8.13v-1.784h4.903v1.784h-4.903ZM20.432 55.016h-6.865c-1.082 0-1.962.89-1.962 1.983v10.609a1.48 1.48 0 0 0 1.471 1.487h7.846a1.48 1.48 0 0 0 1.471-1.487v-10.61c0-1.093-.88-1.982-1.961-1.982Zm-.98 2.974v3.371h-4.904v-3.37h4.903Zm-4.904 8.13v-1.784h4.903v1.784h-4.903ZM80.55 86.555h7.845a1.48 1.48 0 0 0 1.471-1.487V75.55a1.48 1.48 0 0 0-1.471-1.487h-7.846a1.48 1.48 0 0 0-1.47 1.487v9.518a1.48 1.48 0 0 0 1.47 1.487Zm1.47-2.974v-1.785h4.904v1.785H82.02Zm4.904-6.544v1.785H82.02v-1.785h4.904ZM66.428 86.555h7.846a1.48 1.48 0 0 0 1.47-1.487V75.55a1.48 1.48 0 0 0-1.47-1.487h-7.846a1.48 1.48 0 0 0-1.471 1.487v9.518a1.48 1.48 0 0 0 1.471 1.487Zm1.471-2.974v-1.785h4.904v1.785h-4.904Zm4.904-6.544v1.785h-4.904v-1.785h4.904ZM80.55 69.095h7.845a1.48 1.48 0 0 0 1.471-1.487v-10.61c0-1.093-.88-1.982-1.961-1.982H81.04c-1.082 0-1.962.89-1.962 1.983v10.609a1.48 1.48 0 0 0 1.471 1.487Zm1.47-2.975v-1.784h4.904v1.784H82.02Zm4.904-8.13v3.371H82.02v-3.37h4.904ZM66.428 69.095h7.846a1.48 1.48 0 0 0 1.47-1.487v-10.61c0-1.093-.879-1.982-1.96-1.982h-6.866c-1.081 0-1.961.89-1.961 1.983v10.609a1.48 1.48 0 0 0 1.471 1.487ZM67.9 66.12v-1.784h4.904v1.784h-4.904Zm4.904-8.13v3.371h-4.904v-3.37h4.904Z" fill="#21AA68" stroke="#fff" stroke-width=".8"/></svg>