<svg width="176" height="41" viewBox="0 0 176 41" fill="none" xmlns="http://www.w3.org/2000/svg">
<path fill-rule="evenodd" clip-rule="evenodd" d="M18.9688 0.547671C9.52511 1.54724 2.03667 9.05103 1.09549 18.4576C0.476458 24.6444 2.70028 30.6525 7.19911 34.9478C12.7636 40.2605 20.853 41.9211 28.0631 39.2308C34.076 36.9872 38.665 31.9866 40.3699 25.8201C41.942 20.1343 40.9471 14.0955 37.6374 9.23318C34.4814 4.5966 29.5386 1.50971 23.8726 0.636652C23.0491 0.509689 19.8719 0.452091 18.9688 0.547671ZM24.6305 4.62308C29.4454 5.66732 33.6491 9.05085 35.7686 13.588C36.2125 14.5385 36.7108 15.8709 36.6462 15.9353C36.5548 16.0267 34.5018 16.7638 33.8585 16.9362C30.7988 17.7561 27.0972 17.6387 24.864 16.6511C23.7927 16.1773 22.6824 15.2279 21.9672 14.1742L21.6258 13.6711L21.1267 13.9539L20.6276 14.2368L20.8991 14.771C21.257 15.4754 21.742 16.1129 22.4076 16.7543L22.9511 17.2779L22.4594 18.4759C22.1891 19.1349 21.7461 20.2062 21.4749 20.8565L20.9818 22.0389L21.3128 22.2403C21.4947 22.351 21.7892 22.508 21.9672 22.5892L22.2908 22.7369L23.1406 20.7151C23.608 19.6031 24.0527 18.5413 24.129 18.3556L24.2676 18.0178L24.6051 18.1873C24.7907 18.2805 25.1561 18.4266 25.417 18.512C25.6779 18.5975 25.9098 18.7153 25.9324 18.7741C25.9705 18.8732 25.092 22.6825 24.8485 23.4742C24.8134 23.5885 24.9255 23.6494 25.382 23.764C26.352 24.0076 26.2198 24.2021 26.844 21.6133C27.1485 20.3505 27.3969 19.2621 27.396 19.1945C27.3944 19.0703 27.5881 19.0763 28.9226 19.2419L29.3363 19.2932L29.3007 19.6174C29.2556 20.0288 29.1002 22.0797 29.0272 23.2266C28.9613 24.2631 28.9607 24.2625 29.8138 24.2645L30.4054 24.2658L30.4606 23.7977C30.5112 23.3684 30.6015 22.2171 30.7501 20.1081L30.8074 19.2939L31.6196 19.2339C32.0664 19.2009 32.4976 19.1548 32.5778 19.1314C32.7092 19.0932 32.7301 19.333 32.7897 21.5556L32.8558 24.0223L33.4463 23.9722C34.449 23.8871 34.3673 24.0994 34.3064 21.7354C34.2772 20.6017 34.2359 19.5336 34.2148 19.362C34.1936 19.1904 34.2051 19.0063 34.2403 18.9529C34.2755 18.8994 34.5585 18.8065 34.8693 18.7462C35.18 18.686 35.8019 18.5229 36.2512 18.3838C36.7738 18.222 37.1004 18.1615 37.1575 18.2159C37.212 18.2679 37.2466 19.1215 37.2466 20.4141C37.2466 22.2865 37.2226 22.644 37.0359 23.5525C35.7505 29.8098 31.2005 34.6456 25.1246 36.2122C23.9216 36.5224 22.2006 36.7482 21.0389 36.7482C18.6965 36.7482 15.9454 36.1135 13.9728 35.1179L13.2282 34.7421L13.8968 33.583C15.0119 31.6495 16.3138 28.8445 16.9796 26.9406C17.1288 26.5139 18.1733 23.313 18.337 22.7805C18.3883 22.6136 18.3292 22.5573 17.8916 22.357C17.6141 22.2299 17.3404 22.126 17.2834 22.126C17.2265 22.126 16.969 22.343 16.7111 22.6082C15.4449 23.911 14.0791 24.5977 12.5722 24.689C11.581 24.7491 11.139 24.5973 10.6336 24.0231C9.07477 22.2522 10.1063 17.6576 13.0774 13.1379C14.2617 11.3364 15.3171 10.0339 16.7804 8.56787C18.7287 6.6158 20.4568 5.35472 22.2232 4.59597C22.9807 4.27054 23.0064 4.27081 24.6305 4.62308ZM16.8645 6.01032C11.743 11.076 8.8574 16.0916 8.40241 20.7183C8.03151 24.4908 9.80035 26.729 12.8464 26.3415C13.8034 26.2197 14.4827 25.9699 15.2436 25.4597C15.5666 25.243 15.8507 25.0855 15.8748 25.1096C16.0003 25.2351 14.6532 28.5408 13.8207 30.1504C13.0892 31.5647 11.7735 33.7167 11.6404 33.7167C11.4888 33.7167 10.407 32.7954 9.55739 31.9426C6.85424 29.2292 5.33112 26.0906 4.88042 22.3048C4.71333 20.9014 4.71325 20.0537 4.87997 18.6482C5.33103 14.8445 6.87029 11.689 9.59947 8.97292C11.0082 7.57106 12.0527 6.81276 13.7084 5.98999C15.3082 5.19504 16.8662 4.67167 18.4717 4.38975C18.4925 4.38618 17.7693 5.11542 16.8645 6.01032ZM83.5422 9.83233C82.3432 9.96269 81.1267 10.3088 80.09 10.8145C79.293 11.2033 79.0432 11.381 78.4305 11.9959C77.5002 12.9295 77.1878 13.5449 77.0447 14.7257C76.9165 15.7846 77.0746 16.7383 77.5371 17.6948C78.4009 19.4815 79.8472 20.5258 83.1639 21.7579C83.9486 22.0494 84.9917 22.437 85.4821 22.6192C87.171 23.2468 87.8224 23.6684 88.2619 24.4185C88.675 25.1234 88.5498 26.1599 87.9698 26.8374C87.2816 27.6415 86.3604 27.8862 84.3375 27.8026C82.2225 27.715 80.5923 27.3191 78.991 26.5037L78.1264 26.0635L77.8277 26.4352C77.6635 26.6396 77.2935 27.1232 77.0056 27.5097L76.482 28.2126L76.7862 28.4666C77.2116 28.8217 78.4251 29.5538 79.0626 29.8398C79.9061 30.2183 81.3045 30.6735 82.2278 30.87C83.312 31.1008 85.7078 31.1962 86.7888 31.0516C89.9419 30.6299 92.4267 29.0719 93.2025 27.0299C93.6826 25.7665 93.5391 23.753 92.8779 22.4738C92.4092 21.567 91.507 20.6519 90.5044 20.0664C89.6823 19.5862 89.0502 19.3277 86.6412 18.4861C83.8216 17.501 83.4189 17.3423 82.9966 17.0493C82.2134 16.5059 81.9603 16.0911 81.9603 15.3514C81.9603 14.4462 82.638 13.5709 83.5724 13.2691C84.9036 12.8392 87.511 13.0868 90.0631 13.8856C90.6212 14.0603 91.1068 14.1703 91.1422 14.1301C91.3293 13.9177 92.307 11.923 92.2706 11.828C92.2159 11.6855 90.5772 10.8758 89.7618 10.5884C89.017 10.3259 87.9298 10.0518 87.1316 9.92542C86.2458 9.78499 84.4134 9.73747 83.5422 9.83233ZM97.4295 9.78847C97.1843 9.80701 96.8533 9.84401 96.694 9.87067L96.4042 9.91918L96.4054 20.1016C96.4061 25.702 96.4308 30.3744 96.4604 30.4847L96.5141 30.6853H98.955H101.396L101.419 25.3134L101.442 19.9415L105.276 25.3127L109.109 30.6838L111.896 30.6846C113.428 30.685 114.682 30.6674 114.682 30.6455C114.682 30.6099 113.486 28.9429 112.632 27.7876C112.212 27.2197 110.239 24.486 109.994 24.1322C109.892 23.985 109.213 23.0421 108.486 22.0368C107.758 21.0315 107.045 20.0436 106.901 19.8415L106.639 19.474L106.938 19.0741C107.323 18.5591 108.091 17.5617 109.601 15.6173C110.267 14.7591 111.119 13.6558 111.495 13.1654C111.87 12.675 112.517 11.8325 112.931 11.293L113.685 10.3123L110.866 10.2887C108.27 10.267 108.035 10.2776 107.899 10.4225C107.818 10.509 106.71 11.964 105.436 13.6558C104.163 15.3476 102.743 17.2301 102.281 17.8391L101.442 18.9463L101.397 15.3426C101.357 12.0832 101.337 11.7026 101.187 11.3592C100.969 10.8607 100.26 10.2328 99.6629 10.0095C99.1696 9.82493 98.2073 9.72971 97.4295 9.78847ZM123.553 9.78918C122.737 9.85061 121.511 10.1027 120.751 10.3656C116.625 11.7925 114.621 15.6897 114.954 21.6356C115.188 25.8192 116.811 28.6653 119.828 30.1824C121.617 31.0824 124.289 31.4212 126.496 31.028C130.085 30.3881 132.556 28.1848 133.528 24.7562C133.911 23.4076 134.043 22.3228 134.046 20.5211C134.05 17.8776 133.716 16.2137 132.821 14.4136C132.256 13.2782 131.673 12.5115 130.871 11.85C129.714 10.8949 128.484 10.3213 126.938 10.0147C126.045 9.83759 124.382 9.72686 123.553 9.78918ZM146.69 9.78544C145.713 9.89599 144.954 10.0485 144.269 10.2722C143.492 10.5261 142.392 11.0373 141.948 11.3509L141.709 11.5201L141.299 11.1219C140.812 10.6488 140.156 10.3208 139.43 10.1868C138.858 10.0814 137.764 10.0588 137.44 10.1456L137.239 10.1993V20.4424V30.6853H139.681H142.122L142.177 30.4847C142.207 30.3744 142.231 26.7534 142.23 22.438C142.23 18.1227 142.23 14.5231 142.231 14.439C142.233 14.2583 143.51 13.8292 144.729 13.6001C145.769 13.4043 147.256 13.4676 147.957 13.7372C148.957 14.1224 149.667 15.1047 149.916 16.4507C150.007 16.9442 150.034 18.6263 150.034 23.8869V30.6852L152.513 30.6853H154.992L154.958 23.2182C154.92 14.8734 154.946 15.2282 154.273 13.7895C153.147 11.381 150.816 9.92007 147.894 9.78981C147.404 9.76796 146.862 9.766 146.69 9.78544ZM63.8608 9.91436C61.7719 10.1708 59.2886 11.0165 57.6895 12.016L57.2689 12.2789L57.9201 13.3689C58.2783 13.9684 58.5918 14.4793 58.6167 14.5043C58.6417 14.5293 58.9351 14.447 59.2687 14.3214C61.3247 13.5475 63.4443 13.1648 65.3147 13.2296C66.1606 13.2589 66.5136 13.3111 66.9054 13.4645C68.2128 13.9767 68.94 15.2145 68.942 16.9316L68.9429 17.7555L66.9591 17.7523C64.0958 17.7477 62.4896 17.9724 60.7491 18.6213C58.3984 19.4976 56.9964 20.9733 56.5186 23.0744C55.9771 25.4549 56.536 27.8324 57.9595 29.204C59.1992 30.3985 60.7361 31.0203 62.7018 31.1224C65.0709 31.2455 66.9673 30.7851 68.7268 29.6594C69.2112 29.3496 69.2561 29.337 69.3413 29.4867C69.5751 29.8972 70.1676 30.4367 70.6488 30.6772C71.3613 31.0332 71.9557 31.1428 73.0079 31.1122L73.8913 31.0865V23.1959C73.8913 15.8003 73.881 15.2689 73.7271 14.7257C72.8801 11.7364 70.0357 9.9889 65.8224 9.86907C65.1113 9.84883 64.2286 9.86925 63.8608 9.91436ZM165.236 9.92185C164.188 10.0423 163.227 10.258 162.115 10.6226C161.128 10.9461 159.263 11.8028 158.823 12.135L158.61 12.2953L159.301 13.4213C159.681 14.0407 160.007 14.5474 160.025 14.5474C160.043 14.5474 160.27 14.4636 160.529 14.361C163.081 13.3524 166.54 12.9076 168.03 13.3967C169.518 13.8853 170.311 15.1734 170.316 17.1088L170.318 17.7532L168.334 17.7498C166.322 17.7464 165.209 17.8307 163.992 18.0782C160.574 18.7737 158.575 20.3578 157.871 22.9299C157.648 23.7427 157.645 25.8669 157.865 26.6568C158.524 29.0244 160.354 30.5672 163.063 31.0397C163.924 31.19 165.89 31.1711 166.674 31.0049C167.948 30.7351 169.269 30.1954 170.258 29.5409C170.547 29.3498 170.624 29.3295 170.659 29.4356C170.753 29.7183 171.601 30.5031 172.04 30.7136C172.676 31.0192 173.292 31.1311 174.337 31.1311H175.227L175.201 23.0399L175.175 14.9486L174.968 14.3486C174.732 13.6659 174.239 12.8629 173.695 12.2719C172.051 10.4888 168.613 9.53374 165.236 9.92185ZM125.718 13.1664C126.45 13.3389 126.855 13.5532 127.329 14.0187C128.316 14.9887 128.763 16.3837 128.956 19.1006C129.153 21.862 128.808 24.4833 128.054 25.9641C127.338 27.3707 126.068 27.9992 124.144 27.8998C121.473 27.7617 120.33 26.0988 120.026 21.9119C119.87 19.7577 120.075 17.3547 120.536 15.9294C121.029 14.4063 121.921 13.4844 123.201 13.1748C123.9 13.0058 125.021 13.0021 125.718 13.1664ZM68.9429 23.2182L68.9428 26.3611L68.5194 26.5972C66.6079 27.6632 64.1896 28.0065 62.8671 27.3994C62.4754 27.2197 61.9684 26.7439 61.6918 26.2965C61.4615 25.9242 61.2751 25.0945 61.2763 24.4477C61.2813 21.6673 63.6737 20.1623 68.2074 20.0874L68.9429 20.0753L68.9429 23.2182ZM170.318 23.1947V26.3142L169.983 26.5228C169.442 26.8606 168.185 27.3581 167.465 27.5194C166.478 27.7406 165.048 27.731 164.458 27.4991C163.399 27.0832 162.796 26.2368 162.661 24.9744C162.491 23.3914 163.06 22.0901 164.259 21.3208C165.489 20.5314 167.233 20.1274 169.582 20.0877L170.318 20.0753V23.1947Z" fill="#00A3A0"/>
</svg>
