<svg width="161" height="41" viewBox="0 0 161 41" fill="none" xmlns="http://www.w3.org/2000/svg">
<path fill-rule="evenodd" clip-rule="evenodd" d="M108.85 12.0417C108.85 14.9219 108.874 16.4479 110.318 19.0392C113.016 23.8802 117.239 25.5869 123.411 25.5869H147.115C147.315 25.5869 148.532 25.2152 149.535 26.2152C150.7 27.3771 150.428 29.75 148.531 30.3885C147.558 30.7157 121.411 30.497 118.162 30.497C116.036 30.497 113.386 30.2259 111.793 30.9001C106.955 32.9483 108.367 40.4865 113.591 40.4865H148.131C151.549 40.4865 154.86 38.6768 156.812 36.6383C161.783 31.4481 161.549 22.671 154.931 17.7711C153.171 16.4681 150.325 15.4263 147.291 15.4222L121.885 15.4304C120.896 15.4386 120.359 15.4585 119.746 15.0294C118.518 14.1695 118.439 11.7725 119.877 10.878C120.935 10.2204 126.678 10.5178 128.152 10.5178H151.01C153.166 10.5205 154.427 10.3862 155.684 9.43551C158.009 7.67788 158.284 4.21618 156.284 2.02613C155.74 1.43061 154.317 0.52832 153.211 0.52832H120.363C114.657 0.52832 108.85 6.33511 108.85 12.0417V12.0417Z" fill="#EC8719"/>
<path fill-rule="evenodd" clip-rule="evenodd" d="M32.6579 30.4971H11.1548V10.518H32.9966C34.4144 10.518 35.6655 10.9656 36.7012 11.3847C39.6367 12.5731 42.4783 16.3309 42.4783 19.4917C42.4783 23.245 42.19 24.9162 39.3897 27.7473C37.9371 29.2158 35.5101 30.4971 32.6579 30.4971V30.4971ZM0.995911 40.4866H33.5045C38.742 40.4866 43.4575 37.8792 46.923 34.4339C55.3711 26.0345 54.2674 11.7329 44.607 4.49498C41.9207 2.48209 37.71 0.52832 34.0125 0.52832H0.995911V40.4866V40.4866Z" fill="#EC8719"/>
<path fill-rule="evenodd" clip-rule="evenodd" d="M54.8396 5.60792V40.4868H64.8291V15.2587C65.8039 15.7747 72.0618 20.4684 73.8038 21.6917C74.5513 22.2166 75.1957 22.7223 75.9704 23.25L87.1788 31.3436C88.6651 32.4668 90.1743 33.466 91.7038 34.6073L98.3249 39.4996C101.503 41.9133 106.311 39.684 106.311 35.746V0.528456H96.322V25.7565L72.0621 8.1953C71.6591 7.89375 71.3735 7.72416 70.9709 7.42372C68.3589 5.47437 65.6682 3.67817 63.162 1.68757C59.64 -1.11001 54.8396 1.37448 54.8396 5.60792V5.60792Z" fill="#EC8719"/>
</svg>
