<svg width="77" height="41" viewBox="0 0 77 41" fill="none" xmlns="http://www.w3.org/2000/svg">
<path fill-rule="evenodd" clip-rule="evenodd" d="M42.1038 12.4861C42.1038 22.8604 42.1188 24.579 42.2153 25.2665C42.6346 28.2547 44.0363 29.8149 46.7942 30.3631C47.609 30.525 51.6277 30.5974 51.635 30.4502C51.6396 30.358 51.6372 28.9542 51.6323 28.8494C51.6311 28.8233 50.6075 28.787 49.3576 28.7689C47.3373 28.7396 47.0361 28.7198 46.6433 28.5906C45.6005 28.2477 44.827 27.555 44.3942 26.5765C43.9408 25.5512 43.9673 26.0769 43.9406 17.5716L43.9162 9.80942L47.7815 9.79058L51.6469 9.77175V8.9863C51.6469 8.55428 51.6313 8.1853 51.6123 8.16632C51.5933 8.14727 49.8633 8.12443 47.7679 8.11549L43.9581 8.0992L43.9393 4.2996L43.9205 0.5H43.0121H42.1038V12.4861ZM74.6094 15.5166V30.5332H75.5184H76.4274V15.5166V0.5H75.5184H74.6094V15.5166ZM9.56177 7.59256C6.45577 7.99892 3.51448 9.94642 1.76776 12.7533C1.05372 13.9006 0.49262 15.3089 0.261154 16.5347C0.193234 16.8946 0.106407 17.3471 0.0683748 17.5401C-0.0263061 18.0201 -0.0190347 19.9894 0.0794277 20.5299C0.291842 21.6959 0.392777 22.1184 0.626279 22.8191C0.947918 23.7842 1.2561 24.4477 1.74354 25.2247C3.21052 27.5627 5.36156 29.2562 7.83694 30.0218C9.03579 30.3926 9.6582 30.4835 11.0162 30.4862C12.8912 30.49 14.1467 30.1969 15.8157 29.3656C17.3695 28.5916 18.8026 27.3692 19.8369 25.9354C20.2896 25.3079 21.0151 24.0154 21.0151 23.8365C21.0151 23.7796 20.9088 23.6866 20.7788 23.6299C20.6487 23.5732 20.3349 23.4343 20.0812 23.3213C19.8275 23.2083 19.582 23.1164 19.5358 23.117C19.4895 23.1177 19.3725 23.3009 19.2759 23.5242C19.0072 24.1444 18.1822 25.3468 17.5905 25.9804C16.5237 27.1228 15.0132 28.0769 13.6133 28.4928C11.6292 29.0822 9.28842 28.9552 7.5782 28.1652C7.36709 28.0678 7.17991 27.988 7.1621 27.988C7.07542 27.988 5.97379 27.2952 5.57645 26.9908C4.64404 26.2763 3.67476 25.1538 3.0778 24.0971C2.4719 23.0245 1.95712 21.478 1.8495 20.407L1.80019 19.9161H11.9167H22.0332V18.8712C22.0332 14.9467 20.0649 11.2984 16.8128 9.19494C14.6696 7.80868 12.1559 7.25318 9.56177 7.59256ZM60.3928 7.58674C57.4887 7.98714 54.9204 9.53046 53.0805 11.9809C51.4363 14.1707 50.5592 17.2531 50.8195 19.9269C51.1231 23.0471 52.2767 25.4826 54.4223 27.5334C55.9316 28.9761 57.8996 29.9855 59.9369 30.3619C60.9294 30.5453 62.922 30.5283 63.8493 30.3286C66.0021 29.8651 67.691 28.9753 69.2456 27.4857C70.325 26.4514 71.2891 25.1175 71.7361 24.04L71.8505 23.7642L71.4302 23.5787C71.199 23.4766 70.8725 23.3307 70.7048 23.2545C70.537 23.1782 70.3715 23.1158 70.3371 23.1158C70.3027 23.1158 70.1211 23.4185 69.9336 23.7885C68.8932 25.8412 66.9078 27.5979 64.7544 28.3712C62.9265 29.0278 60.7088 29.0302 58.8816 28.3776C55.6982 27.2406 53.1971 24.1549 52.683 20.7301C52.6261 20.3511 52.5969 20.0129 52.6181 19.9786C52.6393 19.9442 57.2084 19.9161 62.7717 19.9161H72.8867L72.8421 18.8072C72.7419 16.3183 72.1012 14.2736 70.8178 12.347C69.9312 11.016 68.2735 9.51854 66.8184 8.73404C64.9455 7.7244 62.5269 7.29252 60.3928 7.58674ZM33.0138 8.0656C27.5793 8.10436 27.5173 8.10647 26.9054 8.27147C25.9966 8.51661 25.1465 8.95794 24.6021 9.46713C23.2613 10.7214 22.6739 12.4864 23.011 14.2481C23.4449 16.5155 24.7014 17.8084 27.3417 18.7038C28.248 19.0112 28.8714 19.1762 30.4323 19.522C33.0802 20.1085 34.7344 20.6184 35.8591 21.1945C36.734 21.6427 37.534 22.4076 37.8689 23.1158C38.1108 23.6274 38.3231 24.5222 38.3211 25.0216C38.3192 25.4801 38.13 26.3048 37.9415 26.6756C37.5656 27.4152 36.725 28.0423 35.657 28.3798C34.349 28.7932 33.9771 28.8147 28.0325 28.8198L22.9422 28.8243V29.6606V30.4968H28.3961C34.0201 30.4968 34.2293 30.4878 35.4499 30.1935C36.8499 29.856 37.7272 29.392 38.5807 28.5378C39.6643 27.4531 40.0747 26.4453 40.0777 24.8611C40.0817 22.7931 39.2498 21.1665 37.6679 20.1493C36.5339 19.4202 34.4183 18.6952 31.5594 18.0561C28.1838 17.3015 26.6186 16.7136 25.7751 15.8835C24.3584 14.4894 24.3968 12.0554 25.8575 10.6581C26.1766 10.3528 26.8915 9.97253 27.3592 9.8593C27.549 9.81334 29.7801 9.76782 33.1229 9.74164L38.5769 9.69903L38.5977 8.90537C38.6091 8.46883 38.5927 8.09251 38.5613 8.06909C38.5298 8.0456 36.0335 8.04408 33.0138 8.0656ZM12.1792 9.26416C15.6652 9.72113 18.5982 12.2354 19.788 15.7867C20.0108 16.4518 20.3089 17.9326 20.2419 18.0411C20.2225 18.0725 16.069 18.0981 11.0119 18.0981H1.81714V17.9259C1.81714 17.2355 2.25229 15.6726 2.74104 14.6076C3.51819 12.9141 5.08472 11.2224 6.72745 10.3027C7.67324 9.77313 8.75444 9.40735 9.79113 9.26613C10.7581 9.13443 11.1868 9.13407 12.1792 9.26416ZM63.4405 9.33194C67.1613 10.0438 70.1413 13.1257 70.8974 17.0438C70.9792 17.4677 71.0462 17.8785 71.0462 17.9564C71.0462 18.0962 70.9179 18.0981 61.8514 18.0981C56.7943 18.0981 52.6416 18.0736 52.623 18.0436C52.5702 17.9582 52.7736 16.7309 52.9274 16.2074C53.4686 14.364 54.5699 12.5944 55.8815 11.4609C56.4147 11 57.3255 10.3794 57.8791 10.0999C59.5185 9.2718 61.614 8.98245 63.4405 9.33194ZM-0.000854492 32.4603C-0.000854492 32.5571 4.29367 32.5693 38.2133 32.5693C72.1329 32.5693 76.4274 32.5571 76.4274 32.4603C76.4274 32.3635 72.1329 32.3512 38.2133 32.3512C4.29367 32.3512 -0.000854492 32.3635 -0.000854492 32.4603ZM22.0772 34.5702C21.4734 34.7997 21.3534 35.0429 21.306 36.1326C21.2712 36.9318 21.2624 36.9699 21.106 36.9921C20.9595 37.0129 20.9424 37.0563 20.9424 37.4052C20.9424 37.7541 20.9595 37.7974 21.106 37.8182C21.2676 37.8412 21.2698 37.8573 21.2895 39.0959L21.3094 40.3503H21.7835H22.2574L22.2512 39.1686C22.2477 38.5188 22.2463 37.9477 22.2481 37.8997C22.2501 37.8449 22.4072 37.8043 22.6695 37.7906L23.0876 37.7688V37.4052V37.0416L22.6583 37.0052L22.229 36.9689L22.2445 36.3144C22.2649 35.455 22.3571 35.2975 22.8042 35.3588L23.124 35.4026L23.1229 35.0586C23.1222 34.8694 23.0936 34.6701 23.0591 34.6157C22.9678 34.4717 22.4051 34.4456 22.0772 34.5702ZM75.5548 37.4779V40.3503H75.9911H76.4274V37.4779V34.6055H75.9911H75.5548V37.4779ZM47.3727 35.2203C47.1482 35.4447 47.1453 35.7041 47.3645 35.9589C47.6011 36.234 47.9536 36.2306 48.1941 35.9511C48.6621 35.4069 47.8809 34.712 47.3727 35.2203ZM-0.000854492 37.7591V40.3503H0.506001H1.01286L1.03322 39.4232L1.05358 38.496L1.6717 38.4548C2.01166 38.4321 2.40485 38.3633 2.54549 38.302C3.44896 37.9078 3.6909 36.5251 2.99199 35.7505C2.59174 35.3069 2.37409 35.2437 1.10812 35.2032L-0.000854492 35.1678V37.7591ZM2.08183 36.2692C2.16255 36.3444 2.27025 36.5066 2.32123 36.6297C2.40115 36.8226 2.39533 36.8914 2.27912 37.1287C2.1123 37.4696 1.89102 37.5845 1.399 37.5859L1.01722 37.587V36.8598V36.1326H1.47615C1.82484 36.1326 1.97043 36.1655 2.08183 36.2692ZM8.99878 36.9621C8.84905 37.0058 8.66056 37.0989 8.57977 37.1689C8.3859 37.3369 8.28918 37.3296 8.28918 37.1472C8.28918 37.0107 8.25129 37.0001 7.83468 37.0199L7.38018 37.0416L7.36062 38.696L7.34106 40.3503H7.81512H8.28918V39.3978C8.28918 38.6581 8.31638 38.388 8.41077 38.189C8.56348 37.8673 8.91857 37.7031 9.31649 37.7703L9.59813 37.818L9.61115 37.557C9.63973 36.982 9.63944 36.9807 9.45269 36.9309C9.3527 36.9044 9.14843 36.9183 8.99878 36.9621ZM53.8844 36.9614C53.1029 37.1332 52.6617 37.5223 52.4595 38.2179C52.3572 38.5697 52.3529 38.6889 52.4298 39.0325C52.6412 39.9774 53.311 40.4921 54.3328 40.4947C55.5305 40.4978 56.4023 39.5104 56.1974 38.383C56.0659 37.6591 55.4915 37.0755 54.8059 36.969C54.639 36.9431 54.4534 36.911 54.3934 36.8977C54.3334 36.8843 54.1043 36.913 53.8844 36.9614ZM14.6153 36.9962C13.8186 37.257 13.3827 37.8645 13.3827 38.7141C13.3827 39.7644 14.1558 40.4916 15.2755 40.4947C16.4264 40.4978 17.1833 39.7715 17.1775 38.6696C17.1738 37.959 16.8689 37.4525 16.252 37.1315C15.9356 36.9668 14.9531 36.8857 14.6153 36.9962ZM27.8244 37.0353C27.4782 37.1633 27.1599 37.4581 26.954 37.8415C26.8304 38.0717 26.7985 38.2538 26.8009 38.7141C26.8055 39.5945 27.1075 40.0616 27.8778 40.3796C28.1888 40.5079 29.0522 40.5381 29.1233 40.4231C29.1481 40.3831 29.2365 40.3503 29.3198 40.3503C29.4964 40.3503 30.1778 39.6986 30.1778 39.5297C30.1778 39.4456 30.0711 39.4021 29.7737 39.365C29.4247 39.3214 29.3481 39.3348 29.2102 39.464C28.9545 39.7035 28.6745 39.7807 28.3642 39.6971C28.0468 39.6116 27.8717 39.4408 27.7824 39.1294C27.7317 38.9526 27.7424 38.8973 27.8342 38.8621C27.8979 38.8376 28.4537 38.8219 29.0692 38.8272C29.6849 38.8324 30.2082 38.817 30.2322 38.793C30.2563 38.769 30.238 38.5451 30.1915 38.2955C30.0892 37.7452 29.8135 37.329 29.4142 37.1218C29.0473 36.9314 28.2263 36.8868 27.8244 37.0353ZM34.8515 37.0404C34.3936 37.2393 34.1835 37.9067 34.4292 38.3817C34.5448 38.6053 34.8713 38.8257 35.2929 38.9648C35.7882 39.1283 35.9292 39.4475 35.6011 39.6625C35.4516 39.7604 35.3801 39.7644 35.1276 39.6887C34.964 39.6397 34.7937 39.5558 34.7494 39.5023C34.626 39.3536 34.5244 39.3917 34.2888 39.6747L34.0729 39.9339L34.3224 40.1421C34.4596 40.2566 34.6284 40.3503 34.6975 40.3503C34.7667 40.3503 34.8435 40.3831 34.8682 40.4231C34.9501 40.5556 35.7612 40.5069 36.0668 40.351C36.5732 40.0926 36.7505 39.7597 36.7306 39.1046C36.7195 38.7404 36.3938 38.4348 35.8399 38.269C35.6037 38.1981 35.3569 38.0812 35.2916 38.0091C35.1815 37.8875 35.1825 37.8673 35.3045 37.7324C35.4633 37.557 35.6375 37.5486 35.9341 37.702C36.1535 37.8155 36.1595 37.8137 36.3639 37.5748C36.4779 37.4415 36.5725 37.3063 36.5741 37.2744C36.5758 37.2424 36.438 37.1532 36.268 37.076C35.8989 36.9084 35.1956 36.8907 34.8515 37.0404ZM41.3075 37.0615C40.9566 37.2558 40.7657 37.648 40.826 38.0504C40.8855 38.4471 41.1397 38.7001 41.712 38.9324C42.2297 39.1424 42.3681 39.3067 42.2136 39.5273C42.0346 39.7828 41.7691 39.7994 41.3922 39.5784L41.0574 39.3822L40.814 39.6637L40.5706 39.9452L40.7373 40.0772C41.2533 40.4859 41.9546 40.6115 42.4843 40.3901C42.8209 40.2495 43.1757 39.8337 43.2368 39.5086C43.3037 39.1516 43.1589 38.7059 42.9254 38.5502C42.8206 38.4804 42.5192 38.3399 42.2557 38.2381C41.8476 38.0804 41.7765 38.0268 41.7765 37.8763C41.7765 37.6111 42.1131 37.5116 42.4182 37.6866L42.6479 37.8185L42.8485 37.5783C42.9589 37.4461 43.0491 37.316 43.0491 37.2891C43.0491 37.2622 42.9596 37.1814 42.85 37.1097C42.5448 36.9096 41.6333 36.8812 41.3075 37.0615ZM61.8322 36.9834C61.7439 37.0005 61.5974 37.0916 61.5068 37.1859C61.3246 37.3752 61.229 37.3616 61.229 37.1464C61.229 37.0212 61.1757 37.0052 60.7564 37.0052H60.2837V38.6778V40.3503H60.7564H61.229V39.3795C61.229 38.8455 61.2642 38.3077 61.3072 38.1844C61.4677 37.724 62.0737 37.5748 62.3949 37.9167C62.5586 38.0909 62.5696 38.1621 62.5982 39.2257L62.6284 40.3503H63.0993H63.5702L63.5435 39.0596C63.5215 37.9951 63.4935 37.7215 63.3842 37.4993C63.1637 37.051 62.5448 36.8453 61.8322 36.9834ZM68.6963 37.0027C67.8842 37.2614 67.4201 38.3656 67.7128 39.3426C67.9897 40.267 69.1996 40.7911 69.9554 40.314C70.2931 40.1008 70.319 40.0959 70.319 40.2446C70.319 40.337 70.4063 40.3532 70.8098 40.3355L71.3007 40.314L71.3219 38.8232C71.3336 38.0033 71.3248 37.2588 71.3024 37.1689C71.2656 37.0216 71.2174 37.0052 70.8198 37.0052C70.4393 37.0052 70.3728 37.0254 70.3401 37.1507C70.2927 37.3316 70.288 37.3313 70.0236 37.1358C69.7828 36.9578 69.0636 36.8857 68.6963 37.0027ZM47.3881 37.0537C47.3614 37.0804 47.3396 37.8346 47.3396 38.7297V40.3572L47.7841 40.3356L48.2286 40.314L48.2272 38.7505C48.2264 37.8906 48.2227 37.1462 48.219 37.0961C48.2118 36.9997 47.4795 36.9623 47.3881 37.0537ZM28.943 37.6968C29.1488 37.8033 29.3051 38.0049 29.3051 38.164C29.3051 38.2139 29.0335 38.2415 28.5416 38.2415C28.0347 38.2415 27.778 38.2146 27.778 38.1615C27.778 38.1175 27.8893 37.9702 28.0253 37.8342C28.3036 37.5559 28.5882 37.5133 28.943 37.6968ZM15.6948 37.8718C16.2901 38.1756 16.3896 38.9325 15.8939 39.3867C15.3019 39.9293 14.3855 39.5196 14.3679 38.7044C14.36 38.338 14.5487 38.045 14.9118 37.8598C15.2294 37.6979 15.3577 37.6999 15.6948 37.8718ZM54.7644 37.8983C55.3392 38.2842 55.4099 38.929 54.9275 39.384C54.7093 39.5898 54.6223 39.6231 54.3042 39.6231C53.9669 39.6231 53.9101 39.5974 53.6549 39.3292C53.4211 39.0834 53.3754 38.9851 53.3758 38.7293C53.3764 38.3595 53.5685 38.0427 53.8989 37.8665C54.2255 37.6924 54.4711 37.7014 54.7644 37.8983ZM69.8798 37.8401C70.2426 38.0276 70.3917 38.288 70.3917 38.7336C70.3917 39.1001 70.3694 39.1543 70.1237 39.3861C69.8731 39.6223 69.8302 39.6368 69.4686 39.6068C69.0239 39.5699 68.7709 39.3822 68.6428 38.994C68.4956 38.548 68.6645 38.1485 69.1191 37.8678C69.3829 37.7047 69.6028 37.6967 69.8798 37.8401Z" fill="#3F4651"/>
</svg>
