<svg width="255" height="41" viewBox="0 0 255 41" fill="none" xmlns="http://www.w3.org/2000/svg">
<path fill-rule="evenodd" clip-rule="evenodd" d="M19.3853 2.10839L17.781 3.71679L17.4115 3.45375C16.7086 2.95313 15.0562 2.24846 14.1209 2.05034C9.01695 0.969238 3.98072 4.01552 2.65624 8.98508C2.36707 10.0705 2.33354 12.5176 2.59361 13.5643C2.80574 14.4181 3.53438 16.0697 3.96671 16.6769L4.26261 17.0924L2.62796 18.7311C1.72881 19.6324 0.993164 20.4286 0.993164 20.5004C0.993164 20.5723 1.6985 21.3383 2.56048 22.2027L4.12793 23.774L3.83203 24.1897C3.39889 24.7979 2.67065 26.4495 2.45974 27.3021C2.22539 28.2493 2.22323 30.7859 2.45596 31.7466C2.79577 33.1499 3.72657 34.85 4.76162 35.9585C6.73056 38.0667 8.92806 39.0196 11.8212 39.0196C13.9053 39.0196 15.4325 38.5898 17.1854 37.5103L17.6868 37.2013L19.3415 38.8505L20.9964 40.4999L22.6408 38.8554L24.2851 37.211L24.7943 37.5182C26.7553 38.7013 28.2266 39.075 30.5816 38.9886C32.0279 38.9354 32.4706 38.8652 33.3173 38.555C35.7328 37.6699 37.7166 35.9066 38.7666 33.7114C39.0886 33.0383 39.4329 32.1541 39.5314 31.7466C39.7642 30.7859 39.762 28.2493 39.5277 27.3021C39.3169 26.4502 38.5887 24.798 38.1562 24.1907L37.8611 23.7763L38.586 23.1535C38.9845 22.811 39.7653 22.0868 40.3208 21.5443L41.331 20.5581L39.6102 18.9132L37.8894 17.2681L38.1693 16.8641C38.6332 16.1939 39.0734 15.2767 39.4028 14.2935C39.6698 13.4966 39.7147 13.0902 39.7147 11.4767C39.7147 9.85998 39.6699 9.45674 39.4003 8.64837C38.5107 5.98163 36.7553 3.97982 34.3048 2.83757C32.9657 2.21345 31.8736 1.98583 30.2074 1.98354C28.4035 1.98098 27.0795 2.30584 25.527 3.13172L24.3762 3.74386L22.7504 2.122C21.8561 1.22985 21.0942 0.5 21.057 0.5C21.0198 0.5 20.2676 1.22379 19.3853 2.10839ZM22.6991 5.84169L24.2738 7.41238L25.2419 6.51592C26.9496 4.935 29.0157 4.21404 31.0042 4.50536C32.3866 4.70793 33.3674 5.10349 34.3708 5.86311C36.7913 7.69562 37.7625 10.7548 36.8061 13.5346C36.4326 14.6202 35.9371 15.4042 35.0175 16.3649L34.2059 17.2126L35.8487 18.8552L37.4913 20.4978L35.8596 22.1334L34.228 23.7689L35.0356 24.5968C36.4258 26.022 37.1396 27.7165 37.1396 29.5917C37.1396 31.4996 36.4806 33.057 35.083 34.4515C33.6753 35.856 32.2067 36.451 30.1327 36.4573C28.2633 36.4629 26.7328 35.8286 25.1573 34.3953L24.3376 33.6496L23.2044 34.7955C22.5811 35.4258 21.8388 36.128 21.5548 36.3559L21.0384 36.7705L19.4413 35.1776L17.8444 33.5848L16.9071 34.4689C14.2913 36.9365 10.661 37.2315 7.82406 35.2071C6.88558 34.5374 5.99855 33.4822 5.58157 32.5394C4.3379 29.728 4.83381 26.9637 7.00154 24.6223L7.8448 23.7115L6.23708 22.108L4.62949 20.5046L6.26994 18.8601L7.91039 17.2157L6.97716 16.23C4.74694 13.8746 4.28995 10.8696 5.74413 8.12216C6.33014 7.01506 7.60466 5.76129 8.68226 5.23198C11.5699 3.81349 14.588 4.3432 17.0877 6.70717L17.7644 7.34719L19.379 5.8153C20.2671 4.97285 21.0231 4.28071 21.059 4.27734C21.095 4.27397 21.8329 4.97797 22.6991 5.84169ZM194.399 10.8704C191.187 11.3002 188.996 13.1988 188.622 15.8767C188.462 17.0175 188.626 18.3564 189.025 19.1809C189.855 20.8948 191.524 21.8093 195.746 22.8625C198.375 23.5184 199.182 24.0632 198.878 24.9754C198.661 25.6269 198.136 25.8829 196.915 25.9331C195.122 26.0068 193.174 25.4411 191.611 24.3934C191.125 24.0672 190.681 23.8003 190.625 23.8003C190.568 23.8003 189.874 24.5427 189.082 25.4502L187.641 27.1L188.204 27.5857C188.922 28.205 190.61 29.1062 191.831 29.5213C193.406 30.057 195.294 30.3109 197.076 30.2269C199.718 30.1024 201.207 29.5373 202.627 28.1204C203.858 26.8925 204.149 26.1348 204.156 24.137C204.161 22.4459 203.959 21.8208 203.094 20.8639C202.043 19.7007 200.674 19.0658 197.519 18.2796C195.03 17.6595 194.519 17.4634 194.142 16.9839C193.82 16.5742 193.799 16.4051 194.014 15.9341C194.587 14.6756 197.951 15.0112 200.427 16.574C200.738 16.7706 201.022 16.9314 201.057 16.9314C201.093 16.9314 201.706 16.1128 202.421 15.1122L203.72 13.2931L203.403 13.0268C202.879 12.5867 200.449 11.4359 199.584 11.2187C197.929 10.8028 195.915 10.6675 194.399 10.8704ZM217.161 11.0037C213.582 11.9561 210.861 14.592 209.929 18.0089C209.606 19.194 209.611 21.7772 209.939 22.9922C210.843 26.3468 213.529 28.9971 216.959 29.9191C218.135 30.2352 220.307 30.3374 221.563 30.1358C225.432 29.5143 228.423 27.0397 229.622 23.4674C230.399 21.1535 230.194 18.4843 229.06 16.1371C228.545 15.0717 228.264 14.6877 227.283 13.7127C225.945 12.3827 225.056 11.8169 223.391 11.2355C222.314 10.8593 222.035 10.8195 220.191 10.7791C218.502 10.7422 218.005 10.7789 217.161 11.0037ZM49.4793 20.4332V29.8611H52.1034H54.7275L54.7634 26.3256L54.7993 22.7902L58.1328 22.7542L61.4662 22.7181V26.2897V29.8611H64.1599H66.8535V20.4332V11.0053H64.2295H61.6053L61.5695 14.5408L61.5335 18.0762L58.2001 18.1122L54.8667 18.1483V14.5767V11.0053H52.173H49.4793V20.4332ZM95.2718 20.4332V29.8611H97.8965H100.521L100.557 24.7788L100.592 19.6966L104.565 24.7724L108.538 29.8481L110.929 29.8546L113.319 29.8611V20.4332V11.0053H110.695H108.07L108.035 15.9546L107.999 20.9039L104.119 15.9546L100.238 11.0053H97.755H95.2718V20.4332ZM120.188 20.4332V29.8611L124.734 29.8593C130.218 29.8572 131.008 29.7444 133.221 28.648C135.127 27.7033 136.321 26.5333 137.212 24.7377C138.244 22.6551 138.497 20.1128 137.902 17.8069C137.28 15.3999 135.654 13.4202 133.382 12.3053C131.087 11.1797 129.865 11.0053 124.266 11.0053H120.188V20.4332ZM166.115 20.4227V29.8611H168.742H171.368V27.0327V24.2043H172.493H173.617L175.489 27.0295L177.362 29.8547L180.433 29.8578L183.504 29.8611L181.652 27.1337C180.633 25.6337 179.627 24.1662 179.416 23.8728L179.033 23.3391L179.802 22.9503C181.738 21.9713 182.951 19.8933 182.951 17.5555C182.951 15.0631 181.84 13.0691 179.878 12.0377C178.174 11.1423 177.863 11.1046 171.671 11.0413L166.115 10.9845V20.4227ZM236.286 20.4332V29.8611H238.91H241.535L241.57 24.7912L241.606 19.7213L245.579 24.7882L249.552 29.8553L251.875 29.8581L254.199 29.8611V20.4332V11.0053H251.64H249.081V15.9292C249.081 18.9086 249.032 20.8227 248.956 20.7762C248.888 20.7339 247.125 18.5181 245.039 15.8523L241.246 11.0053H238.766H236.286V20.4332ZM73.7224 20.5005V29.8611H81.3994H89.0764V27.7077V25.5544L83.992 25.5191L78.9077 25.4838V24.0023V22.5208L83.4533 22.4854L87.9989 22.4498V20.4332V18.4166L83.4533 18.381L78.9077 18.3456V16.9314V15.5172L83.9247 15.482L88.9417 15.4467V13.2933V11.14H81.332H73.7224V20.5005ZM144.431 20.5005V29.8611H152.108H159.785V27.7077V25.5544L154.701 25.5191L149.617 25.4838V24.0023V22.5208L154.162 22.4854L158.708 22.4498V20.4332V18.4166L154.162 18.381L149.617 18.3456V16.9314V15.5172L154.634 15.482L159.651 15.4467V13.2933V11.14H152.041H144.431V20.5005ZM13.7881 20.4332V27.7061H15.8757H17.9633V24.8778V22.0494H21.061H24.1588V24.8778V27.7061H26.2464H28.334V20.4332V13.1603H26.2464H24.1588V15.7866V18.4129H21.061H17.9633V15.7866V13.1603H15.8757H13.7881V20.4332ZM221.603 15.7547C222.642 16.143 223.875 17.3881 224.302 18.4803C224.741 19.6057 224.747 21.3824 224.314 22.4867C223.914 23.5063 222.885 24.624 221.9 25.1075C221.224 25.4394 220.983 25.4838 219.854 25.4837C218.348 25.4836 217.682 25.2399 216.69 24.3252C214.824 22.6052 214.462 19.7408 215.837 17.5749C217.095 15.5937 219.305 14.8962 221.603 15.7547ZM128.75 15.7318C131.244 16.1915 132.714 17.9275 132.714 20.4142C132.714 22.7073 131.59 24.3252 129.555 24.9615C129.166 25.0829 128.14 25.2046 127.158 25.2457L125.441 25.3175V20.4511V15.5846H126.696C127.386 15.5846 128.31 15.6508 128.75 15.7318ZM175.994 15.7299C177.995 16.2855 178.19 18.9128 176.295 19.7738C175.833 19.9834 175.395 20.0238 173.557 20.0262L171.368 20.0291V17.8069V15.5846L173.422 15.5854C174.552 15.5858 175.709 15.6508 175.994 15.7299Z" fill="#3F4651"/>
</svg>
