<svg width="45" height="41" viewBox="0 0 45 41" fill="none" xmlns="http://www.w3.org/2000/svg">
<path fill-rule="evenodd" clip-rule="evenodd" d="M21.584 12.4903C22.2182 13.6177 22.4648 19.3957 19.7872 18.5853C18.0961 18.0921 17.92 14.1462 18.0609 12.0323C19.1178 11.997 20.8442 12.0323 21.584 12.4903ZM18.9065 8.9319C19.2235 7.20555 20.8442 7.45217 21.1613 9.17852L18.9065 8.9319ZM16.3698 7.20555L15.4185 10.0241C14.9605 14.5337 15.0662 20.5935 19.0826 21.5096C25.3538 22.9541 24.614 16.0487 24.7197 11.4686C25.4947 11.081 26.3403 10.4116 26.6574 9.67176L25.2481 7.41694L24.1207 8.05111C23.3104 6.818 22.6058 5.19735 20.7033 4.95073C18.4132 4.66888 17.2153 5.90198 16.405 7.20555H16.3698Z" fill="#3F4651"/>
<path fill-rule="evenodd" clip-rule="evenodd" d="M2.97762 21.7215L5.83138 21.8625L6.35985 14.2525L9.35453 14.3934V21.2283L12.1026 21.1578C12.2435 20.6294 12.8072 5.5855 12.8072 3.96485L10.1296 3.89439L9.56592 11.4339L6.6417 11.2578C6.7474 9.39051 7.55772 4.59902 7.3111 3.22499L4.6335 3.04883C4.28119 6.21967 2.731 19.5372 2.97762 21.6863V21.7215Z" fill="#3F4651"/>
<path fill-rule="evenodd" clip-rule="evenodd" d="M17.772 37.364C13.6851 37.5049 15.0944 27.8867 16.6798 26.7241C19.4631 24.7159 19.8154 35.074 17.772 37.364ZM16.0809 23.9056C10.9723 25.949 10.1972 41.9089 18.4062 40.2178C21.8589 39.5131 21.9998 34.475 21.9293 30.67C21.8589 27.0059 20.5201 22.144 16.0809 23.9056Z" fill="#3F4651"/>
<path fill-rule="evenodd" clip-rule="evenodd" d="M33.4558 39.9364C34.4071 40.1478 36.1334 40.2535 36.3096 39.2318L36.6266 30.6705C36.838 28.768 36.7323 26.2314 39.269 26.8303C41.8761 27.4645 40.0441 36.061 40.5373 38.5624L43.0036 38.7033C43.2502 35.462 44.8708 25.9847 41.242 24.1879C39.868 23.4833 38.8462 24.0118 37.5779 23.589C37.2961 23.4833 36.9085 23.2014 35.7106 23.2719C34.7241 23.3071 34.7594 23.2719 34.548 24.1879C33.5967 28.9794 33.2797 34.9336 33.4206 39.9364H33.4558Z" fill="#3F4651"/>
<path fill-rule="evenodd" clip-rule="evenodd" d="M10.1631 33.9819L7.62642 33.9466C7.3798 35.5673 7.52073 36.3424 6.8161 37.4345C3.4691 37.7869 3.64526 32.0794 4.03281 29.7893C4.59651 26.1605 7.55596 24.5398 8.19013 29.5075L10.7973 29.5427C10.7268 27.5697 10.6211 26.0195 9.52893 24.8217C7.55596 22.7078 0.791504 21.6156 1.00289 32.1498C1.07336 35.9548 1.95414 39.478 5.05452 40.3235C8.89476 41.3453 11.0439 37.7516 10.1631 34.0171V33.9819Z" fill="#3F4651"/>
<path fill-rule="evenodd" clip-rule="evenodd" d="M32.8927 4.35224C33.0688 6.64229 36.451 15.3445 36.3101 16.4367C36.2044 17.4936 34.9361 19.0438 34.6542 20.4178L37.1557 21.1577C37.6841 19.8894 38.7059 18.5153 39.4105 17.3175C41.8062 13.3011 43.2507 9.00281 44.2724 4.31701L41.5596 3.57715C40.7141 6.00813 39.8333 11.2929 38.3183 12.7021C37.6489 10.4473 36.451 5.40919 35.4646 3.61238L32.8574 4.31701L32.8927 4.35224Z" fill="#3F4651"/>
<path fill-rule="evenodd" clip-rule="evenodd" d="M24.821 40.1474L27.6747 39.6541C27.7804 37.8926 26.5121 33.1363 27.0053 27.4288C28.626 26.7242 30.3171 26.5832 32.3253 26.5128L32.5015 23.7647C30.599 23.659 29.8239 23.8352 28.1328 24.0466C26.7235 24.2227 27.7804 23.3419 24.2925 23.7295C23.9754 33.2068 23.9402 31.0576 24.8914 40.2178L24.821 40.1474Z" fill="#3F4651"/>
<path fill-rule="evenodd" clip-rule="evenodd" d="M28.6198 21.0164C31.8611 21.0869 31.3326 21.3335 31.2974 18.1979C31.2974 15.1327 31.544 1.81521 31.2269 0.65257L28.7255 0.546875C28.5493 3.99957 28.2322 18.3036 28.6198 20.9812V21.0164Z" fill="#3F4651"/>
<path fill-rule="evenodd" clip-rule="evenodd" d="M15.3734 10.0245L16.3246 7.206C15.3029 6.04336 16.1132 4.56363 17.0293 3.82377C18.051 2.97821 19.3898 2.80205 20.8695 2.80205C24.0756 2.80205 26.6122 4.38747 25.203 7.41739L26.6122 9.67221C29.4308 7.66401 28.2329 0.159689 20.4115 0.512004C12.6606 0.86432 12.3435 8.15725 15.3734 10.0245Z" fill="#FFD900"/>
</svg>
