<svg width="171" height="41" viewBox="0 0 171 41" fill="none" xmlns="http://www.w3.org/2000/svg">
<path fill-rule="evenodd" clip-rule="evenodd" d="M122.73 16.6789L118.591 16.6777C118.586 16.8937 119.921 20.4635 120.103 20.9677L124.727 33.7625H129.399C129.536 33.7309 129.81 32.4999 129.88 32.2324L132.462 22.6865C132.597 22.1775 132.788 21.6078 132.876 21.1224L136.36 32.2045C136.462 32.5387 136.716 33.5064 136.857 33.7631L141.61 33.7625C141.875 33.0878 142.107 32.3064 142.338 31.6178L145.909 20.9477C146.095 20.3962 147.305 16.9453 147.304 16.6789L143.347 16.6777C143.232 16.8822 142.474 19.4825 142.336 19.9363L139.845 28.1365C139.757 28.4174 139.682 28.6862 139.597 28.9641L139.324 29.7479C139.203 29.2298 138.974 28.6237 138.809 28.0934L137.257 23.1755C137.141 22.8036 135.308 16.8773 135.18 16.6795L130.614 16.6729L127.022 29.7327C126.889 29.5519 123.711 19.6287 123.271 18.2934C123.111 17.8056 122.937 17.1188 122.73 16.6795V16.6789Z" fill="#3F4651"/>
<path fill-rule="evenodd" clip-rule="evenodd" d="M26.0964 30.3796C26.3918 29.5023 26.7698 21.6182 26.768 20.7634C26.7644 19.0452 26.8105 17.3058 26.7559 15.6695C26.7007 14.0235 26.5696 12.4158 26.427 10.822C26.1516 7.74233 25.4272 4.0196 24.2162 1.43625C23.6138 0.151257 23.8382 0.423667 21.5619 0.875661C20.2338 1.13958 19.0435 1.64071 18.0375 2.51801C17.8294 2.70002 17.5528 2.90266 17.3738 3.115C15.6459 5.1608 15.0447 7.16414 15.4621 10.0351C16.0931 14.3742 19.6301 20.6706 21.8707 24.3059L23.0877 26.2783C23.1909 26.4367 23.2661 26.5477 23.3523 26.6903L25.6541 30.1831C25.7645 30.3396 25.8622 30.4179 26.0958 30.3796H26.0964ZM5.8604 35.4529C5.83553 35.6816 6.3221 36.3144 6.45801 36.531C6.68431 36.892 6.93973 37.1923 7.19151 37.5084C7.28494 37.6255 7.31649 37.6273 7.40992 37.7359C8.15617 38.6011 7.74786 38.1193 8.46559 38.7964C9.69477 39.9552 11.9614 40.9502 14.0915 40.2264C15.9456 39.5967 19.7976 37.0515 21.5109 35.8284C22.0284 35.459 22.3973 35.334 22.3488 34.9687C22.0491 34.7946 20.7829 34.9305 20.3133 34.9481C18.3415 35.0227 15.999 35.0415 14.1128 35.1629C12.8745 35.2424 11.3456 35.2866 9.99872 35.3012C8.62576 35.3158 7.23277 35.4104 5.8604 35.4529V35.4529ZM49.2676 35.4571C47.8807 35.4019 46.4761 35.3461 45.0832 35.3146C43.7072 35.2836 42.3063 35.1774 40.9333 35.1671C39.9644 35.1598 33.0607 34.7989 32.7471 34.973C32.6937 35.3443 33.1026 35.5111 33.5928 35.863C34.7468 36.6906 36.4431 37.7844 37.6723 38.524C38.8833 39.2527 39.6556 39.7022 40.9994 40.2295C41.8889 40.5783 43.0204 40.5777 43.9419 40.2962C45.1129 39.9382 45.8379 39.4711 46.6533 38.7746L47.5294 37.9428C47.6556 37.7844 47.7824 37.6661 47.8983 37.5011C48.2356 37.0212 49.0801 36.0596 49.2676 35.4565V35.4571ZM53.6043 21.0637C53.3877 21.094 48.8726 23.627 48.0451 24.0778L38.5477 29.5424C37.3568 30.2534 35.6926 31.2509 34.6011 31.9734L32.6427 33.2499C32.2568 33.526 32.4777 33.7298 32.9382 33.7274C35.797 33.7116 38.66 33.7268 41.5194 33.7262C44.8326 33.7256 47.4535 33.9568 50.2875 31.7617C51.0834 31.1453 51.5725 30.6448 52.1434 29.884C53.2348 28.4297 53.8888 26.8001 54.0533 24.8768C54.1315 23.965 54.0405 21.8027 53.6043 21.0631V21.0637ZM0.99707 24.2052C0.99707 26.2116 1.71237 28.1731 2.81172 29.711C3.06471 30.0648 3.62652 30.7279 3.94261 31.0094L4.25689 31.3231C6.05515 32.9539 8.44799 33.7341 10.9258 33.7438L21.3034 33.7147C21.6098 33.7135 22.5065 33.7675 22.6012 33.6316C22.691 33.2876 22.3554 33.199 22.1255 33.0406C21.1311 32.3575 18.4149 30.6454 17.6074 30.1897C16.7356 29.6977 15.8231 29.0831 14.9579 28.6172C14.7322 28.4958 14.4908 28.3508 14.2796 28.2143C13.5716 27.7556 11.8255 26.8104 10.9755 26.3074C10.5448 26.0526 10.0776 25.7905 9.62378 25.5478C8.70463 25.0576 7.86677 24.5231 6.94458 24.0517L5.58193 23.2988C5.11294 23.0379 4.68401 22.7801 4.2217 22.5489C3.70418 22.2905 1.80945 21.1662 1.45452 21.0898C1.17241 22.319 0.998284 22.8498 0.998284 24.2052H0.99707ZM4.80474 15.8042C4.80474 18.3936 5.89438 20.272 7.6702 21.8464L8.67065 22.7334C9.30344 23.2976 10.5551 24.1737 11.3232 24.7088C11.5434 24.8623 11.7667 24.9794 11.9754 25.1359C12.2162 25.3161 12.4025 25.4301 12.6488 25.5861C13.5303 26.1442 14.4161 26.7255 15.3389 27.2527C16.8994 28.1433 19.2995 29.5563 20.9364 30.3711L23.6586 31.7429C24.2114 31.8303 23.7224 31.0009 23.6198 30.7898C22.2638 27.9832 20.6075 24.6232 19.0253 22.0399L13.8373 13.8397C13.7463 13.7111 13.6778 13.5982 13.6007 13.489L10.2651 8.91872C10.1716 8.79617 10.1164 8.71609 10.0121 8.58807C9.80094 8.3284 9.33135 7.67074 9.12811 7.54575C8.96854 7.62099 8.87693 7.74779 8.71737 7.93404C8.65488 8.00685 8.61848 8.06085 8.55295 8.13365C8.47529 8.2198 8.42615 8.24528 8.34971 8.33204C6.66186 10.2517 4.80413 13.111 4.80413 15.8036L4.80474 15.8042ZM31.2346 31.701C31.5233 31.7933 32.4631 31.243 32.7622 31.0858C33.4915 30.7024 34.9949 29.9616 35.5889 29.6L38.3864 28.039C38.8541 27.7793 39.2916 27.513 39.7484 27.2466C40.6912 26.6969 41.5582 26.1364 42.4398 25.5776C43.9165 24.6408 44.9011 23.9176 46.2256 22.8929C46.3336 22.8092 46.4221 22.7346 46.5174 22.6472L48.2289 21.0777C48.6955 20.4861 48.8872 20.3478 49.3519 19.4978C50.9075 16.6518 50.3845 13.7311 48.7549 11.0495C48.2344 10.1928 47.4438 9.04916 46.7364 8.34357C46.4968 8.10453 46.2505 7.76174 45.9677 7.54697C45.8118 7.64222 45.0534 8.64328 44.8793 8.87504L41.7863 13.1068C39.4178 16.4837 36.7913 20.6111 34.7722 24.3381C33.7378 26.2474 32.8065 27.9892 31.8667 29.9683C31.7472 30.2201 31.615 30.5301 31.4815 30.7964C31.3504 31.0579 31.098 31.4128 31.2339 31.701H31.2346ZM31.4117 0.534694C30.1625 2.30505 29.3495 6.13699 28.9819 8.38119C28.4892 11.3904 28.3017 14.7855 28.2902 18.0502C28.2787 21.2688 28.4298 24.7682 28.7216 27.9759C28.7537 28.3314 28.8636 30.1297 28.96 30.2935C29.1881 30.683 29.537 29.995 29.6238 29.8712C32.2089 26.1885 35.8746 20.0936 37.6686 15.9959C38.2213 14.7334 38.6727 13.6128 39.0901 12.2489C39.7332 10.1503 40.019 7.73444 39.237 5.63464C38.313 3.15383 36.2247 1.51573 33.6304 0.926017C33.1008 0.80589 31.9444 0.514066 31.4111 0.5353L31.4117 0.534694Z" fill="url(#paint0_radial_9_2281)"/>
<path fill-rule="evenodd" clip-rule="evenodd" d="M68.6003 26.6309L77.2337 26.6303L77.2465 33.7633L81.1312 33.7639C81.1919 33.1415 81.1421 32.2672 81.1421 31.6174C81.1421 30.1832 81.1967 17.0214 81.119 16.6792L77.2349 16.6774L77.2143 23.5986L68.6234 23.6017C68.4772 22.9968 68.6919 17.2774 68.5797 16.6798L64.7162 16.6768C64.6483 16.9419 64.6889 20.3958 64.6889 20.9704C64.6889 22.1565 64.6361 33.1445 64.7017 33.7639L68.5973 33.7554L68.6003 26.6309Z" fill="#3F4651"/>
<path fill-rule="evenodd" clip-rule="evenodd" d="M152.568 23.6212C152.623 21.0306 154.206 19.6679 156.801 19.6679H163.315C163.316 19.1262 163.355 17.0561 163.293 16.6787L156.711 16.6799C152.81 16.6799 149.722 17.9728 148.6 21.8436C148.227 23.1304 148.156 24.4075 148.153 25.8223C148.154 29.5863 149.797 31.9452 152.433 33.11C153.943 33.7774 155.76 33.7635 157.565 33.7635C159.478 33.7635 161.391 33.7689 163.307 33.7635L163.306 30.7742C162.067 30.7797 160.826 30.7749 159.586 30.7749C157.479 30.7749 154.614 31.1383 153.336 29.5548C152.668 28.7272 152.617 27.8263 152.533 26.608C156.026 26.6135 159.861 26.5558 163.299 26.611L163.315 23.6206H152.568V23.6212Z" fill="#3F4651"/>
<path fill-rule="evenodd" clip-rule="evenodd" d="M108.197 26.629C108.336 26.1618 108.662 25.4902 108.859 25.0109C109.189 24.2083 110.717 20.3697 110.901 20.1567L113.658 26.6418L108.197 26.6296L108.197 26.629ZM106.929 29.6983C109.579 29.6825 112.304 29.7287 114.935 29.6929L116.642 33.7632L120.95 33.7638C120.92 33.5733 113.18 16.8083 113.07 16.6797L108.976 16.6821C108.793 17.0146 108.626 17.4041 108.475 17.7536C108.312 18.1303 108.148 18.4591 107.98 18.8317L105.057 25.2069C104.951 25.4417 101.208 33.5115 101.169 33.7638H105.271L106.929 29.6983V29.6983Z" fill="#3F4651"/>
<path fill-rule="evenodd" clip-rule="evenodd" d="M84.3548 16.6783C84.2729 16.9799 84.3269 25.1267 84.3269 26.1823C84.3269 27.7658 84.2262 30.3346 85.3225 31.5323C87.1214 33.4974 89.5713 33.9536 92.3797 33.9548C94.4285 33.9554 96.0593 33.7055 97.655 32.8961C98.1998 32.6195 99.0753 31.946 99.4284 31.4789C99.9016 30.8534 100.147 30.1283 100.276 29.1837C100.528 27.3369 100.4 24.9204 100.4 22.9929L100.389 16.6808H96.5301C96.4513 16.9756 96.5028 25.4628 96.5028 26.0028C96.5028 27.4146 96.5241 28.9853 95.8057 29.9676C95.1159 30.911 93.8892 31.1804 92.3354 31.1804C90.7373 31.1804 89.6101 30.8952 88.8869 29.9457C88.1437 28.9689 88.2019 27.349 88.2019 25.9573C88.2019 25.3706 88.2529 17.0284 88.1801 16.6796L84.3554 16.6777L84.3548 16.6783Z" fill="#3F4651"/>
<path fill-rule="evenodd" clip-rule="evenodd" d="M166.743 33.7643L170.808 33.7558L170.791 16.6802L166.731 16.6777L166.743 33.7643Z" fill="#3F4651"/>
<defs>
<radialGradient id="paint0_radial_9_2281" cx="0" cy="0" r="1" gradientUnits="userSpaceOnUse" gradientTransform="translate(33.3977 6.09075) rotate(126.027) scale(39.1068 40.0942)">
<stop stop-color="#FEC08F"/>
<stop offset="0.411765" stop-color="#FE0000"/>
<stop offset="0.65098" stop-color="#FE0000"/>
<stop offset="1" stop-color="#9A0000"/>
</radialGradient>
</defs>
</svg>
