<svg width="154" height="41" viewBox="0 0 154 41" fill="none" xmlns="http://www.w3.org/2000/svg">
<path fill-rule="evenodd" clip-rule="evenodd" d="M0.992188 1.52928C0.992188 2.09571 1.31361 2.75714 1.70647 2.99999C2.68004 3.60142 2.68004 36.9285 1.70647 36.9285C1.31361 36.9285 0.992188 37.4106 0.992188 37.9999C0.992188 38.8727 2.1829 39.0713 7.42074 39.0713C12.4393 39.0713 13.8493 38.8527 13.8493 38.0763C13.8493 37.5292 13.3671 36.8963 12.7779 36.6699C11.9672 36.3592 11.7064 35.0463 11.7064 31.2728C11.7064 26.4585 11.7886 26.2242 14.095 24.4649C15.4093 23.4628 16.6843 22.6428 16.93 22.6428C17.175 22.6428 19.7821 25.6349 22.7235 29.2928C26.8335 34.4027 27.9778 36.3049 27.6635 37.507C27.2607 39.047 27.3757 39.0713 35.1942 39.0713C41.7763 39.0713 43.1349 38.8877 43.1349 37.9999C43.1349 37.4106 42.6799 36.9285 42.1235 36.9285C40.9549 36.9285 24.3243 17.2499 24.6828 16.2914C24.9671 15.5307 40.7542 2.84142 41.8863 2.46357C42.3192 2.31928 42.437 1.81857 42.1478 1.35071C41.792 0.775715 39.0642 0.5 33.7299 0.5H25.8371L26.2557 2.16642C26.615 3.59785 25.7657 4.5607 20.2443 8.9814C16.7079 11.8128 13.3407 14.3114 12.7607 14.5342C11.2222 15.1242 11.2379 4.64213 12.7779 3.10214C14.9214 0.958571 13.9771 0.5 7.42074 0.5C2.29933 0.5 0.992188 0.709286 0.992188 1.52928ZM108.285 6.59855C107.536 7.44712 104.763 7.64283 93.464 7.64283C80.7348 7.64283 77.9898 8.01426 80.2776 9.42854C80.7133 9.69783 80.9919 15.15 80.9919 23.3992C80.9919 31.9428 80.7283 36.9285 80.2776 36.9285C79.8848 36.9285 79.5633 37.4106 79.5633 37.9999C79.5633 38.917 81.6619 39.0713 94.164 39.0713C103.128 39.0713 108.935 39.347 109.206 39.7856C109.449 40.1784 110.11 40.4999 110.677 40.4999C111.475 40.4999 111.706 39.377 111.706 35.4999C111.706 30.4813 111.215 29.5813 109.563 31.5713C108.854 32.4263 106.741 32.6428 99.119 32.6428H89.5633V29.4285V26.2142H95.6347C99.2061 26.2142 101.706 26.5085 101.706 26.9285C101.706 27.3213 102.188 27.6428 102.778 27.6428C103.628 27.6428 103.849 26.6113 103.849 22.6428C103.849 17.6242 103.358 16.7242 101.706 18.7142C101.053 19.5007 99.3204 19.7857 95.1904 19.7857H89.5633V16.9285V14.0714H98.8069C104.199 14.0714 108.234 14.3692 108.492 14.7857C108.735 15.1785 109.396 15.5 109.963 15.5C110.76 15.5 110.992 14.3771 110.992 10.5C110.992 5.36213 110.28 4.33641 108.285 6.59855ZM126.526 7.90712C119.677 10.455 115.98 15.7764 116.008 23.0471C116.017 25.5913 116.543 28.4299 117.324 30.1492C122.123 40.7142 139.91 43.1977 148.592 34.5156C155.72 27.3878 154.108 14.3564 145.472 9.29569C142.617 7.62212 141.199 7.30784 135.67 7.12427C131.403 6.98284 128.295 7.24855 126.526 7.90712ZM46.7063 8.31498C46.7063 8.68497 47.0277 9.18569 47.4206 9.42854C47.8563 9.69783 48.1349 15.15 48.1349 23.3992C48.1349 31.9428 47.8713 36.9285 47.4206 36.9285C47.0277 36.9285 46.7063 37.4106 46.7063 37.9999C46.7063 38.9149 48.6856 39.0713 60.2356 39.0713C68.4848 39.0713 73.9369 39.3499 74.2062 39.7856C74.4491 40.1784 75.1105 40.4999 75.6769 40.4999C76.4748 40.4999 76.7062 39.377 76.7062 35.4999C76.7062 31.702 76.4669 30.4999 75.7112 30.4999C75.1641 30.4999 74.5312 30.982 74.3048 31.5713C73.9712 32.4413 72.2798 32.6428 65.2998 32.6428H56.7063V21.6585C56.7063 12.7664 56.9106 10.5057 57.7777 9.78568C59.8313 8.0814 58.8091 7.64283 52.7777 7.64283C49.4385 7.64283 46.7063 7.94498 46.7063 8.31498ZM139.937 15.0885C148.085 20.4271 144.285 32.6485 134.479 32.6399C123.707 32.6306 120.817 18.8628 130.635 14.3278C133.192 13.1471 137.514 13.5007 139.937 15.0885Z" fill="#003466"/>
</svg>
