<svg width="85" height="41" viewBox="0 0 85 41" fill="none" xmlns="http://www.w3.org/2000/svg">
<path fill-rule="evenodd" clip-rule="evenodd" d="M46.8044 0.739619C46.565 1.18435 46.3224 1.33403 45.9354 1.27596C45.622 1.22896 45.5915 1.24272 45.2646 1.5792C44.9097 1.94429 44.6872 2.01512 44.5216 1.81564C44.3658 1.62776 44.1671 1.68002 43.7871 2.00893C43.4015 2.34263 43.274 2.37302 42.9753 2.20222C42.6547 2.01898 42.4603 2.06761 42.0475 2.43417C41.832 2.62553 41.6033 2.7821 41.5393 2.7821C41.4752 2.7821 41.2828 2.71074 41.1118 2.62345L40.8008 2.46479L40.2507 2.81674C39.6438 3.20502 39.4347 3.24531 39.2254 3.01405C39.1485 2.929 39.0417 2.85942 38.9882 2.85942C38.9348 2.85942 38.6879 3.0282 38.4396 3.23448C37.672 3.8725 37.5334 3.89577 37.26 3.43241C37.1667 3.27422 37.0435 3.16868 36.9521 3.16868C36.8683 3.16868 36.5804 3.36004 36.3122 3.59393C35.6977 4.12989 35.4042 4.16917 35.156 3.74856C35.0595 3.58504 34.9362 3.47795 34.8442 3.47795C34.7604 3.47795 34.4949 3.63838 34.2542 3.83454C33.6147 4.3555 33.3015 4.43289 33.1946 4.09633C33.0616 3.67712 32.7339 3.72552 32.1049 4.25731C31.8575 4.46653 31.6101 4.63771 31.555 4.63771C31.5001 4.63771 31.3855 4.56812 31.3004 4.48307C31.0411 4.22375 30.817 4.29017 30.2652 4.79025C29.7414 5.2649 29.6757 5.28323 29.3309 5.05012C29.0363 4.85087 28.8782 4.93166 28.2266 5.61507C27.6228 6.24814 27.5806 6.27752 27.4473 6.15691C27.1292 5.86898 26.8409 6.07379 26.1235 7.0977C25.8635 7.46874 25.7477 7.57552 25.6414 7.54227C25.5646 7.51815 25.4334 7.47733 25.35 7.45158C25.0094 7.3462 24.0412 8.61218 23.2578 10.1874C21.7724 13.174 21.5528 16.2436 22.6211 19.0822C22.8282 19.6322 22.8406 19.6471 23.0588 19.6036C23.3721 19.5413 23.4588 19.4517 23.6862 18.9551C23.7957 18.716 23.9412 18.4585 24.0096 18.3829C24.1358 18.2435 24.4192 18.1925 24.4192 18.3093C24.4192 18.3444 24.227 18.9446 23.9921 19.643C23.7572 20.3415 23.5317 21.0574 23.491 21.2339C23.386 21.6886 23.5486 22.1635 24.0738 22.9368C24.7264 23.8975 25.2209 24.1217 25.2846 23.4857C25.3255 23.077 25.5067 23.0447 26.0917 23.3419C26.7124 23.6572 26.798 23.6263 26.9942 23.0166C27.1633 22.491 27.3133 22.4191 27.7575 22.6506C27.9317 22.7414 28.12 22.7981 28.1761 22.7766C28.2322 22.755 28.355 22.5878 28.4491 22.4051C28.6785 21.9589 28.7039 20.9377 28.4935 20.6162C28.2573 20.2552 27.9196 20.1019 27.3573 20.1002C26.6024 20.098 26.5928 20.0824 26.8471 19.2757C27.2533 17.9876 27.1995 17.1847 26.6729 16.6732C26.3517 16.3611 26.0706 16.2352 25.6949 16.2352C25.3432 16.2352 25.0378 16.1104 25.0378 15.9666C25.0378 15.8035 25.8739 15.8071 26.4347 15.9725C26.9385 16.1211 27.4601 16.616 27.5842 17.063C27.6987 17.4752 27.6815 18.5077 27.551 19.0541C27.4906 19.3075 27.4504 19.5242 27.4618 19.5356C27.4732 19.547 27.7223 19.5903 28.0152 19.6318C28.6497 19.7216 28.8844 19.8746 29.1136 20.348L29.2849 20.7018L30.1574 20.8641C32.132 21.2313 33.3294 21.2579 33.9679 20.9488C34.1954 20.8386 34.3634 20.6609 34.6036 20.2761C35.438 18.9395 36.561 18.1962 38.0098 18.0218C38.4734 17.966 38.497 17.971 38.4752 18.121C38.447 18.3154 38.2528 18.4137 37.4002 18.6655C36.6617 18.8837 36.1042 19.2428 35.7592 19.7227C35.4963 20.0885 35.243 20.8048 35.2453 21.1763C35.2476 21.5598 35.4845 22.046 35.7787 22.271C36.5011 22.8233 36.6255 22.9716 36.8321 23.5268C37.1961 24.5045 37.2728 24.6584 37.4194 24.7049C37.6648 24.7828 37.853 24.6696 38.1383 24.2724C38.2896 24.0619 38.4526 23.8896 38.5007 23.8896C38.5488 23.8896 38.7253 24.0135 38.8928 24.1649C39.3325 24.5621 39.4604 24.4996 39.7324 23.7543C39.8506 23.4303 40.0717 23.4245 40.4625 23.735C40.623 23.8626 40.7796 23.9669 40.8106 23.9669C40.9432 23.9669 41.2743 23.6342 41.2743 23.501C41.2743 23.2586 41.4456 22.9618 41.5856 22.9618C41.658 22.9618 41.8127 23.0368 41.9293 23.1285C42.3598 23.4672 42.757 23.0459 42.6326 22.3828C42.5181 21.7725 41.5087 21.0698 40.3064 20.7636C39.5222 20.5639 39.3522 20.489 39.2982 20.3189C39.2717 20.2352 39.2618 20.1571 39.2764 20.1455C39.2908 20.1338 39.8072 20.194 40.4238 20.2793C41.9539 20.491 44.9009 20.5046 46.2999 20.3064C47.9968 20.0659 49.5891 19.6662 50.8801 19.1564L51.4785 18.9202L52.6584 19.0845C54.6217 19.3578 56.0345 19.4272 58.7445 19.3836C61.534 19.3387 62.4838 19.2351 63.1964 18.898C63.6254 18.6951 64.0055 18.273 64.0055 17.9995C64.0055 17.8688 63.5599 17.4723 63.4129 17.4723C63.3715 17.4723 63.2613 17.3846 63.1681 17.2775C63.0067 17.0918 62.9879 17.0882 62.7714 17.2002C62.4322 17.3756 62.3153 17.3457 62.173 17.0471C62.0307 16.7487 61.9707 16.7297 61.686 16.8924C61.4012 17.0552 61.3413 17.0362 61.199 16.7378C61.0516 16.4288 61.0347 16.4242 60.6433 16.5877C60.4846 16.654 60.3457 16.6974 60.3344 16.6844C60.3231 16.6712 60.2546 16.5439 60.1821 16.4013C60.0724 16.1858 60.0187 16.15 59.863 16.1887C59.76 16.2143 59.5915 16.2562 59.4885 16.2818C59.334 16.3201 59.2788 16.2848 59.1729 16.0801C59.0392 15.8215 59.0042 15.8161 58.4603 15.9712C58.3211 16.0109 58.2577 15.9675 58.1241 15.7411C58.0336 15.5876 57.9498 15.4621 57.9379 15.4621C57.9261 15.4621 57.7837 15.5175 57.6216 15.5852C57.372 15.6895 57.2563 15.6945 56.8658 15.6176C56.3121 15.5087 55.7115 15.2521 55.222 14.9153C54.9003 14.694 54.8539 14.6813 54.7893 14.7966C54.7244 14.9124 54.6916 14.9044 54.471 14.7188C54.3357 14.605 54.1668 14.4161 54.0956 14.299L53.9661 14.0861L54.4155 14.1269C54.7401 14.1563 54.934 14.1332 55.1139 14.0434C55.3529 13.9242 55.3765 13.9271 55.6976 14.1153L56.0323 14.3114L56.1438 14.1329C56.2052 14.0347 56.2776 13.8587 56.3047 13.7418C56.3643 13.485 56.5567 13.464 56.8361 13.6838C56.9442 13.7688 57.0825 13.8384 57.1434 13.8384C57.2549 13.8384 57.4336 13.5326 57.4336 13.3417C57.4336 13.2851 57.4872 13.1943 57.5528 13.1399C57.6517 13.0578 57.7114 13.0701 57.9042 13.2126C58.2205 13.4465 58.4582 13.402 58.5201 13.0972C58.6153 12.629 58.7603 12.5689 59.1321 12.8437C59.4223 13.0583 59.5705 12.9923 59.6757 12.6014C59.7814 12.2087 59.9119 12.1522 60.2146 12.3678C60.5417 12.6007 60.7 12.5456 60.8235 12.1561C60.9416 11.7839 61.0618 11.7486 61.4154 11.9828C61.7452 12.2012 61.8223 12.1778 61.9274 11.8273C62.0624 11.3766 62.1694 11.316 62.4854 11.5113C62.8638 11.7451 62.9814 11.7197 63.0761 11.3836C63.1291 11.1958 63.2435 11.0392 63.4011 10.939C63.5349 10.854 63.6784 10.7289 63.7203 10.6611C63.9308 10.3195 63.3945 9.60339 62.876 9.53388C62.472 9.47968 61.0358 9.7564 58.3647 10.403C57.236 10.6763 56.2544 10.9 56.1835 10.9001C56.1125 10.9003 55.9829 10.7846 55.8953 10.6429C55.6645 10.2693 55.3021 10.0965 54.8777 10.1576C53.9186 10.2958 53.5003 10.2975 53.1022 10.1653C52.3906 9.92897 51.9258 10.034 50.7139 10.7047L50.2183 10.9789L49.3974 10.9291C48.6394 10.8831 48.5311 10.8948 47.9857 11.0831C47.6608 11.1952 47.3125 11.287 47.2117 11.287C47.1108 11.287 46.56 11.145 45.9876 10.9716C43.4931 10.2157 41.6747 9.94234 39.1481 9.9435C36.7446 9.94459 35.1682 10.1745 33.1174 10.8229C30.8462 11.5409 29.3017 11.396 29.4377 10.4775C29.4938 10.0988 30.1295 9.58298 31.1215 9.11111C32.0878 8.65138 33.5931 8.17766 35.9999 7.57567C41.1673 6.28309 43.8913 5.04857 45.7992 3.13443C46.7136 2.21715 47.1043 1.55183 47.109 0.904844C47.1124 0.429655 47.0033 0.37043 46.8044 0.739619ZM31.8756 6.04704C31.873 6.24814 31.8447 6.43865 31.8129 6.4705C31.7407 6.54264 30.8857 6.09675 30.8928 5.99075C30.8997 5.88924 31.5274 5.6436 31.7257 5.66486C31.857 5.67901 31.8796 5.73669 31.8756 6.04704ZM30.3568 6.49331C30.3692 6.64215 30.3344 6.82562 30.2791 6.90101C30.1849 7.02974 30.149 7.02216 29.6912 6.77753L29.2036 6.51705L29.5755 6.35128C29.7801 6.26012 30.0344 6.19394 30.1407 6.20415C30.3014 6.21961 30.3378 6.26832 30.3568 6.49331ZM28.702 6.84735C28.7822 7.05657 28.6638 7.57575 28.5359 7.57575C28.4152 7.57575 27.5618 7.11347 27.6042 7.0711C27.6648 7.01049 28.4147 6.73323 28.5281 6.72952C28.598 6.7272 28.6762 6.78024 28.702 6.84735ZM29.7859 8.17797C29.7758 8.66236 29.6952 8.69515 29.1891 8.42106C28.947 8.28993 28.749 8.16622 28.749 8.14604C28.749 8.06153 29.4217 7.80909 29.5995 7.82695C29.7738 7.84443 29.7921 7.87883 29.7859 8.17797ZM27.8516 8.08465C27.9192 8.26093 27.9095 8.46466 27.8224 8.69352L27.7463 8.89362L27.2812 8.65881C27.0253 8.52969 26.816 8.38974 26.816 8.34784C26.816 8.30593 26.8261 8.2716 26.8383 8.2716C26.8506 8.2716 27.0507 8.20326 27.2829 8.11975C27.7999 7.93388 27.7939 7.93427 27.8516 8.08465ZM26.2294 8.70721C26.2874 8.85821 26.2072 9.33896 26.1145 9.39625C26.0785 9.41844 25.8302 9.32559 25.5627 9.1899L25.0764 8.94302L25.463 8.76295C25.9189 8.55056 26.1626 8.53286 26.2294 8.70721ZM29.0201 9.27842C29.078 9.46066 29.0013 9.87353 28.8977 9.93755C28.8585 9.96175 28.6128 9.86124 28.3517 9.71411L27.877 9.44659L28.2163 9.29087C28.6715 9.08196 28.9563 9.07755 29.0201 9.27842ZM27.2344 10.0336C27.2242 10.5218 27.1463 10.5494 26.6006 10.2579L26.122 10.0022L26.4496 9.83565C26.6299 9.74403 26.8818 9.67653 27.0093 9.68557C27.2297 9.70111 27.241 9.71859 27.2344 10.0336ZM25.3472 10.3595C25.4062 10.4698 25.4062 10.6034 25.3469 10.8234C25.3012 10.9933 25.2548 11.1323 25.2438 11.1323C25.2328 11.1323 24.9994 11.0124 24.7251 10.8658L24.2263 10.5993L24.5741 10.4496C25.2423 10.162 25.2416 10.1621 25.3472 10.3595ZM39.8814 10.6104C39.8795 11.1327 39.8112 11.178 39.3714 10.9489C38.7242 10.6117 38.7268 10.6166 39.1116 10.4461C39.3017 10.3618 39.553 10.2903 39.67 10.2873C39.8696 10.2822 39.8825 10.3019 39.8814 10.6104ZM37.9043 10.4855C37.9632 10.6389 37.8814 11.1176 37.7863 11.1764C37.7486 11.1997 37.5038 11.1046 37.2422 10.9652L36.7666 10.7117L37.1455 10.5364C37.5948 10.3286 37.8378 10.3123 37.9043 10.4855ZM41.8928 10.7122C41.8928 10.8638 41.8563 11.0562 41.8115 11.1398C41.7327 11.2871 41.7162 11.2843 41.2719 11.0475C41.0198 10.9131 40.8329 10.7719 40.8566 10.7336C40.9297 10.6153 41.3775 10.4494 41.6416 10.4428C41.8792 10.4368 41.8928 10.4514 41.8928 10.7122ZM55.5139 10.6418C55.8161 10.9152 55.6007 11.1323 55.0271 11.1323C54.8332 11.1323 54.8397 10.8977 55.0397 10.683C55.2285 10.4803 55.3261 10.4718 55.5139 10.6418ZM35.8477 10.9695C35.8834 11.466 35.7898 11.5093 35.2444 11.2487C34.9888 11.1265 34.7797 11.0069 34.7798 10.9828C34.7798 10.9132 35.5793 10.5956 35.7075 10.6142C35.7859 10.6256 35.8314 10.7409 35.8477 10.9695ZM28.8263 11.1278C28.8263 11.3379 28.7929 11.5304 28.7521 11.5556C28.7112 11.5809 28.459 11.4905 28.1915 11.3548L27.7052 11.1079L28.0918 10.9278C28.3044 10.8288 28.5567 10.7473 28.6523 10.7468C28.8094 10.7458 28.8263 10.7829 28.8263 11.1278ZM43.7601 10.881C43.7816 11.1305 43.7365 11.4796 43.6744 11.5442C43.6406 11.5793 43.3912 11.4956 43.1201 11.358L42.6274 11.1079L43.0139 10.9278C43.4821 10.7097 43.744 10.6933 43.7601 10.881ZM53.3318 10.9648C53.4771 11.0427 53.6439 11.1786 53.7024 11.2666C53.8034 11.4189 53.7904 11.4307 53.437 11.5052C52.5267 11.6971 52.3497 11.7009 52.2953 11.5295C52.2401 11.3555 52.3623 11.0708 52.5559 10.9222C52.7332 10.786 53.0287 10.8023 53.3318 10.9648ZM33.8375 11.5107C33.8732 12.0072 33.7795 12.0505 33.2342 11.7899C32.9786 11.6677 32.7694 11.5418 32.7694 11.5101C32.7694 11.4327 33.5507 11.134 33.6973 11.1554C33.7756 11.1668 33.8211 11.2821 33.8375 11.5107ZM27.0046 11.6139C27.002 11.815 26.9738 12.0055 26.9419 12.0374C26.8858 12.0935 26.0672 11.6955 25.992 11.5755C25.9352 11.485 26.5965 11.2069 26.816 11.2289C26.993 11.2467 27.009 11.2792 27.0046 11.6139ZM31.8418 11.7512C31.9009 11.8615 31.9008 11.995 31.8416 12.2148L31.7585 12.5233L31.2782 12.2826C31.014 12.1501 30.786 12.0311 30.7713 12.018C30.7144 11.9669 31.4684 11.6312 31.7036 11.6029C31.734 11.5992 31.7962 11.666 31.8418 11.7512ZM25.1912 12.2341C25.1893 12.7564 25.121 12.8017 24.6812 12.5725C24.0333 12.2349 24.0361 12.2405 24.4212 12.0659C24.6114 11.9795 24.8628 11.9081 24.9798 11.9072C25.1788 11.9056 25.1923 11.9265 25.1912 12.2341ZM39.4953 12.0206C39.5829 12.1262 39.5514 12.6038 39.4455 12.7751C39.4077 12.8363 38.4935 12.366 38.4918 12.2845C38.4907 12.2277 39.1651 11.935 39.3513 11.9116C39.378 11.9083 39.4428 11.9573 39.4953 12.0206ZM29.7541 12.3718C29.7541 12.6334 29.7188 12.7744 29.6462 12.8023C29.5868 12.825 29.3397 12.7316 29.0971 12.5947C28.6141 12.3222 28.619 12.3005 29.2129 12.087C29.7038 11.9104 29.7541 11.9369 29.7541 12.3718ZM37.5633 12.1378C37.6223 12.2481 37.6222 12.3816 37.5631 12.6014L37.48 12.9099L37.019 12.6772C36.7654 12.5492 36.558 12.4155 36.558 12.38C36.558 12.3067 37.2097 12.0127 37.4251 11.9889C37.4555 11.9856 37.5176 12.0526 37.5633 12.1378ZM41.4878 12.3754C41.5203 12.9289 41.447 12.962 40.8819 12.6488L40.3895 12.3759L40.7353 12.2271C41.4424 11.9227 41.4613 11.9265 41.4878 12.3754ZM35.5529 12.5761C35.5529 12.7231 35.5168 12.9108 35.4728 12.993C35.3949 13.1386 35.3836 13.1376 35.0283 12.9523C34.4182 12.6342 34.4173 12.6328 34.71 12.4814C35.0426 12.3094 35.3324 12.2287 35.4562 12.2736C35.5094 12.2929 35.5529 12.4289 35.5529 12.5761ZM43.3958 12.6963C43.3932 12.8974 43.3667 13.0862 43.3369 13.116C43.2776 13.1754 42.3568 12.7604 42.3568 12.6743C42.3568 12.5867 43.079 12.2927 43.2459 12.3124C43.3769 12.328 43.3998 12.3866 43.3958 12.6963ZM27.7005 13.0056C27.6978 13.2067 27.6716 13.3952 27.6423 13.4246C27.5814 13.4854 26.8506 13.1614 26.7353 13.0225C26.6807 12.9567 26.7625 12.8853 27.0277 12.7673C27.5857 12.5189 27.7062 12.5616 27.7005 13.0056ZM45.202 12.6941C45.3146 12.8067 45.3213 13.0629 45.2187 13.3325L45.1426 13.5326L44.6775 13.2978C44.4217 13.1687 44.2124 13.0312 44.2124 12.9922C44.2124 12.9533 44.395 12.8512 44.6183 12.7654C45.1088 12.5768 45.0874 12.5795 45.202 12.6941ZM33.4992 13.3148C33.4966 13.5159 33.4705 13.7044 33.4413 13.7337C33.3881 13.7869 32.5564 13.3887 32.4864 13.2765C32.4299 13.186 33.0912 12.9078 33.3107 12.9299C33.4876 12.9477 33.5036 12.9801 33.4992 13.3148ZM25.9497 13.5292C25.9622 13.678 25.9257 13.8637 25.8685 13.9418C25.7688 14.078 25.7461 14.0749 25.3238 13.8677C25.0814 13.7488 24.8831 13.6284 24.8831 13.6002C24.8831 13.514 25.6074 13.2207 25.7723 13.2402C25.8887 13.2541 25.9325 13.3253 25.9497 13.5292ZM31.489 13.7014C31.4864 13.9025 31.4599 14.0913 31.4301 14.1211C31.3708 14.1805 30.4499 13.7655 30.4499 13.6795C30.4499 13.5918 31.1722 13.2978 31.3391 13.3175C31.4701 13.3331 31.493 13.3917 31.489 13.7014ZM29.4437 13.8578C29.4417 14.4088 29.3755 14.4367 28.8179 14.1225L28.3279 13.8463L28.6737 13.6894C28.8639 13.6031 29.1152 13.5318 29.2322 13.5309C29.4312 13.5292 29.4447 13.5501 29.4437 13.8578ZM37.3301 13.8578C37.3288 14.1537 37.2562 14.4573 37.1868 14.456C37.1599 14.4555 36.9291 14.336 36.674 14.1905L36.2101 13.926L36.558 13.7679C36.7493 13.681 37.0015 13.6091 37.1185 13.6082C37.3074 13.6066 37.331 13.6345 37.3301 13.8578ZM39.2185 13.9767C39.2081 14.4769 39.1234 14.5078 38.562 14.2156L38.0736 13.9614L38.4562 13.7869C38.6666 13.691 38.9258 13.6198 39.0321 13.6288C39.2069 13.6436 39.2247 13.6768 39.2185 13.9767ZM41.197 13.9094C41.197 14.2355 41.1367 14.457 41.0479 14.457C41.0174 14.457 40.7875 14.3459 40.537 14.2102L40.0815 13.9635L40.4653 13.786C40.6763 13.6883 40.9274 13.608 41.023 13.6075C41.174 13.6066 41.197 13.6465 41.197 13.9094ZM43.078 14.0046C43.1352 14.2232 43.0538 14.6159 42.9426 14.6587C42.8942 14.6772 42.6482 14.5806 42.3959 14.444L41.9371 14.1955L42.3209 14.018C42.8089 13.7922 43.0215 13.7884 43.078 14.0046ZM35.2754 14.286C35.265 14.7837 35.1663 14.8321 34.6851 14.5755C34.4607 14.4559 34.2494 14.3333 34.2154 14.3033C34.136 14.2328 34.9239 13.9178 35.1276 13.9386C35.257 13.9518 35.2811 14.0085 35.2754 14.286ZM27.2801 14.4573C27.3392 14.5676 27.3391 14.7012 27.2799 14.9212C27.2341 15.0911 27.1812 15.2301 27.1623 15.2301C27.1434 15.2301 26.9109 15.1098 26.6456 14.9628L26.1632 14.6954L26.5089 14.5466C27.175 14.2599 27.1745 14.26 27.2801 14.4573ZM33.1878 14.9819C33.1773 15.4876 33.0874 15.5194 32.5407 15.2114L32.0659 14.9439L32.4371 14.7785C32.6411 14.6875 32.8951 14.6215 33.0014 14.6317C33.1759 14.6485 33.194 14.6825 33.1878 14.9819ZM31.1003 15.2911C31.09 15.7812 31.0125 15.8072 30.4537 15.5087L29.9625 15.2462L30.3029 15.0882C30.4901 15.0013 30.7476 14.9368 30.8752 14.9448C31.0958 14.9588 31.1068 14.9758 31.1003 15.2911ZM28.9454 15.1579C29.0286 15.2925 29.0034 15.7798 28.9083 15.8749C28.8424 15.9407 28.7122 15.9047 28.3912 15.7318C28.1553 15.6047 27.9485 15.479 27.9318 15.4526C27.9009 15.4034 28.6351 15.0896 28.8024 15.0805C28.853 15.0777 28.9174 15.1126 28.9454 15.1579ZM30.0898 27.2513C27.228 27.7706 25.1588 29.7392 24.6085 32.4662C24.4398 33.302 24.4908 34.7972 24.7163 35.6265C25.6162 38.9361 28.8369 40.8953 32.6168 40.4326C33.3679 40.3406 34.9696 39.9361 35.2172 39.7759L35.3842 39.6679L35.2359 38.9886C35.0539 38.1544 34.7722 37.554 34.5059 37.4327C34.2316 37.3077 33.8405 37.3204 33.2831 37.4722C32.544 37.6735 31.0955 37.6513 30.4499 37.4287C29.1477 36.9798 28.3924 36.0852 28.0814 34.6234C27.719 32.9195 28.5128 31.1214 29.9343 30.4259C30.8288 29.9883 32.2895 29.888 33.388 30.1887C33.9596 30.3451 34.2283 30.3362 34.533 30.1503C34.8337 29.967 34.9741 29.6707 35.2097 28.7219C35.3512 28.1523 35.3645 28.0071 35.2829 27.9213C35.1438 27.7751 33.7973 27.3857 32.9629 27.2504C32.1222 27.1141 30.8439 27.1145 30.0898 27.2513ZM41.4676 27.2517C40.1204 27.5025 39.1713 28.0045 38.1768 28.9925C37.5248 29.6403 37.3903 29.8229 37.0378 30.5389C36.4871 31.6574 36.3028 32.4618 36.3028 33.7475C36.3028 35.7742 36.9663 37.3927 38.3206 38.6703C39.0029 39.314 39.7124 39.737 40.6558 40.0625C41.3688 40.3085 41.4276 40.316 42.666 40.3177C43.7648 40.3192 44.0254 40.2952 44.5447 40.1447C47.1651 39.3853 48.9822 37.1685 49.235 34.4227C49.6044 30.411 46.6016 27.1034 42.6274 27.1445C42.2872 27.148 41.7653 27.1962 41.4676 27.2517ZM15.3396 27.4655C15.1863 27.8395 10.7173 39.988 10.6751 40.1455C10.6416 40.2704 10.7378 40.2808 11.926 40.2808C12.8436 40.2808 13.2864 40.2503 13.4678 40.1744C13.8957 39.9957 14.1482 39.5928 14.5613 38.43L14.9479 37.3418L17.376 37.3616L19.8042 37.3814L20.2754 38.8118L20.7467 40.2422L22.3123 40.2631C23.5254 40.2793 23.878 40.2623 23.878 40.1873C23.878 40.098 22.6181 36.0667 21.8292 33.6316C21.6432 33.0575 21.1417 31.5078 20.7147 30.1878C19.868 27.5702 19.8134 27.4659 19.2003 27.2992C19.021 27.2504 18.1663 27.2149 17.1668 27.2147L15.4426 27.2143L15.3396 27.4655ZM55.1171 27.3046C53.0086 27.6058 51.3994 28.9504 51.0777 30.6799C51.0101 31.0439 51.0086 31.2959 51.0719 31.6656C51.2388 32.6404 51.6922 33.2417 52.7636 33.9095C53.4343 34.3276 53.8894 34.5036 55.5631 34.9928C57.4871 35.5551 58.1294 35.9764 58.1294 36.6763C58.1294 37.0535 58.021 37.1867 57.5467 37.3925C57.3139 37.4935 57.0358 37.5237 56.3898 37.5182C55.3383 37.5093 54.5993 37.3285 53.5359 36.82C52.6342 36.3889 52.2255 36.3476 51.8951 36.6543C51.5558 36.9693 50.7843 38.1868 50.7843 38.4072C50.7843 38.4432 51.0018 38.6321 51.2675 38.8269C52.2767 39.5666 53.2938 40.0096 54.5148 40.2412C55.2963 40.3894 57.004 40.3933 57.7605 40.2486C60.4043 39.7428 61.9733 37.8296 61.4977 35.6917C61.1935 34.3244 60.0759 33.3668 58.0134 32.7065C57.5882 32.5705 56.9115 32.3538 56.5097 32.2252C55.0568 31.7601 54.4316 31.3165 54.5262 30.8177C54.6284 30.2788 55.4457 29.9203 56.5721 29.9203C57.2737 29.9203 58.1777 30.0822 58.7615 30.3123C59.2294 30.4967 59.8093 30.5064 60.0557 30.3338C60.2595 30.1911 60.7948 29.106 60.8745 28.674C60.9203 28.4261 60.9012 28.3763 60.7069 28.2388C60.3794 28.0068 59.4764 27.6427 58.8639 27.4957C57.7266 27.2225 56.2276 27.1461 55.1171 27.3046ZM0.992188 33.7869V40.2822L5.07066 40.2622L9.14912 40.2422L9.17054 39.1508C9.20634 37.3231 9.3118 37.3941 6.48532 37.3428L4.35547 37.3041L4.31682 32.623C4.27383 27.4216 4.30213 27.6809 3.75039 27.4191C3.53522 27.317 3.2333 27.2916 2.23691 27.2916H0.992188V33.7869ZM63.1871 27.4014C63.056 27.4586 62.8733 27.6011 62.7812 27.7181C62.6265 27.9147 62.6138 28.0188 62.6138 29.0803V30.2296H64.5854H66.557V35.2552V40.2808H68.1801H69.8031L69.8231 35.2745L69.8429 30.2683L71.4703 30.2296C72.9058 30.1955 73.1246 30.1734 73.3259 30.0421C73.7295 29.7789 73.7423 29.7308 73.745 28.4707L73.7474 27.2916L68.5865 27.2946C64.4421 27.2971 63.3786 27.3181 63.1871 27.4014ZM75.7577 33.7894V40.2873L79.7975 40.2647L83.8373 40.2422L84.1659 40.054C84.6849 39.7567 84.8038 39.4271 84.8038 38.2848V37.3428H81.943H79.0823V36.2217V35.1006H81.4405H83.7986V33.6316V32.1625H81.4405H79.0823V31.1961V30.2296L81.5371 30.2295C83.7193 30.2294 84.022 30.2144 84.2625 30.0942C84.7138 29.8688 84.8035 29.5803 84.8036 28.3547L84.8038 27.2916H80.2807H75.7577V33.7894ZM43.8619 30.282C44.6433 30.5552 45.3915 31.2299 45.7281 31.9651C45.9447 32.4383 46.1426 33.2893 46.1426 33.7475C46.1426 34.719 45.6747 35.8904 45.0288 36.5364C43.7905 37.7747 41.9072 37.7829 40.6095 36.5555C40.1234 36.0958 39.8831 35.7245 39.6388 35.0557C39.3994 34.4 39.4003 33.093 39.6407 32.4331C40.196 30.9093 41.5655 29.9964 43.0913 30.1332C43.3464 30.1561 43.6932 30.223 43.8619 30.282ZM17.6551 31.0801C17.8324 31.5582 18.8482 34.2014 18.9846 34.54C19.0151 34.6155 18.6742 34.6367 17.4303 34.6367C16.554 34.6367 15.8367 34.6106 15.8362 34.5787C15.8339 34.4281 17.3507 30.4013 17.3923 30.4474C17.4185 30.4765 17.5367 30.7612 17.6551 31.0801Z" fill="#03633D"/>
<path fill-rule="evenodd" clip-rule="evenodd" d="M30.0898 27.2517C27.228 27.771 25.1588 29.7396 24.6085 32.4666C24.4398 33.3024 24.4908 34.7976 24.7163 35.6269C25.6162 38.9365 28.8369 40.8957 32.6168 40.433C33.3679 40.341 34.9696 39.9365 35.2172 39.7763L35.3842 39.6683L35.2359 38.989C35.0539 38.1548 34.7722 37.5544 34.5059 37.4331C34.2316 37.3081 33.8405 37.3207 33.2831 37.4726C32.544 37.6739 31.0955 37.6517 30.4499 37.4291C29.1477 36.9802 28.3924 36.0856 28.0814 34.6238C27.719 32.9199 28.5128 31.1218 29.9343 30.4263C30.8288 29.9887 32.2895 29.8883 33.388 30.1891C33.9596 30.3455 34.2283 30.3366 34.533 30.1507C34.8337 29.9674 34.9741 29.6711 35.2097 28.7223C35.3512 28.1527 35.3645 28.0075 35.2829 27.9217C35.1438 27.7755 33.7973 27.3861 32.9629 27.2508C32.1222 27.1145 30.8439 27.1149 30.0898 27.2517ZM41.4676 27.2521C40.1204 27.5029 39.1713 28.0049 38.1768 28.9929C37.5248 29.6407 37.3903 29.8233 37.0378 30.5393C36.4871 31.6578 36.3028 32.4622 36.3028 33.7479C36.3028 35.7746 36.9663 37.3931 38.3206 38.6707C39.0029 39.3144 39.7124 39.7374 40.6558 40.0629C41.3688 40.3089 41.4276 40.3164 42.666 40.3181C43.7648 40.3196 44.0254 40.2956 44.5447 40.1451C47.1651 39.3856 48.9822 37.1689 49.235 34.4231C49.6044 30.4114 46.6016 27.1038 42.6274 27.1449C42.2872 27.1484 41.7653 27.1966 41.4676 27.2521ZM15.3396 27.4659C15.1863 27.8399 10.7173 39.9884 10.6751 40.1459C10.6416 40.2708 10.7378 40.2812 11.926 40.2812C12.8436 40.2812 13.2864 40.2507 13.4678 40.1748C13.8957 39.9961 14.1482 39.5932 14.5613 38.4304L14.9479 37.3422L17.376 37.362L19.8042 37.3818L20.2754 38.8122L20.7467 40.2426L22.3123 40.2635C23.5254 40.2797 23.878 40.2627 23.878 40.1877C23.878 40.0984 22.6181 36.0671 21.8292 33.632C21.6432 33.0579 21.1417 31.5082 20.7147 30.1882C19.868 27.5706 19.8134 27.4663 19.2003 27.2996C19.021 27.2508 18.1663 27.2153 17.1668 27.2151L15.4426 27.2146L15.3396 27.4659ZM55.1171 27.305C53.0086 27.6062 51.3994 28.9508 51.0777 30.6803C51.0101 31.0443 51.0086 31.2963 51.0719 31.666C51.2388 32.6408 51.6921 33.2421 52.7636 33.9099C53.4343 34.328 53.8894 34.504 55.5631 34.9932C57.4871 35.5555 58.1294 35.9768 58.1294 36.6767C58.1294 37.0539 58.021 37.1871 57.5467 37.3929C57.3139 37.4939 57.0358 37.5241 56.3898 37.5186C55.3383 37.5097 54.5993 37.3289 53.5359 36.8204C52.6342 36.3893 52.2255 36.348 51.8951 36.6547C51.5558 36.9697 50.7843 38.1872 50.7843 38.4076C50.7843 38.4436 51.0018 38.6325 51.2675 38.8273C52.2767 39.567 53.2938 40.01 54.5148 40.2416C55.2963 40.3898 57.004 40.3937 57.7605 40.249C60.4043 39.7432 61.9733 37.83 61.4977 35.6921C61.1935 34.3248 60.0759 33.3672 58.0134 32.7069C57.5882 32.5709 56.9115 32.3542 56.5097 32.2256C55.0568 31.7605 54.4316 31.3169 54.5262 30.8181C54.6284 30.2792 55.4457 29.9207 56.5721 29.9207C57.2737 29.9207 58.1777 30.0826 58.7615 30.3127C59.2294 30.4971 59.8093 30.5068 60.0557 30.3342C60.2595 30.1915 60.7948 29.1064 60.8745 28.6744C60.9203 28.4265 60.9012 28.3767 60.7069 28.2392C60.3794 28.0072 59.4764 27.6431 58.8639 27.4961C57.7266 27.2229 56.2276 27.1465 55.1171 27.305ZM0.992188 33.7873V40.2826L5.07066 40.2626L9.14912 40.2426L9.17054 39.1512C9.20634 37.3235 9.3118 37.3945 6.48532 37.3432L4.35547 37.3045L4.31682 32.6234C4.27383 27.422 4.30213 27.6813 3.75039 27.4195C3.53522 27.3174 3.2333 27.292 2.23691 27.292H0.992188V33.7873ZM63.1871 27.4018C63.056 27.459 62.8733 27.6015 62.7812 27.7185C62.6265 27.9151 62.6138 28.0192 62.6138 29.0807V30.23H64.5854H66.557V35.2556V40.2812H68.1801H69.8031L69.8231 35.2749L69.8429 30.2687L71.4703 30.23C72.9058 30.1959 73.1246 30.1738 73.3259 30.0425C73.7295 29.7793 73.7423 29.7312 73.745 28.471L73.7474 27.292L68.5865 27.295C64.4421 27.2975 63.3786 27.3185 63.1871 27.4018ZM75.7577 33.7898V40.2877L79.7975 40.2651L83.8373 40.2426L84.1659 40.0544C84.6849 39.7571 84.8037 39.4275 84.8037 38.2852V37.3432H81.943H79.0823V36.2221V35.101H81.4405H83.7986V33.632V32.1629H81.4405H79.0823V31.1965V30.23L81.5371 30.2299C83.7193 30.2298 84.022 30.2148 84.2625 30.0945C84.7138 29.8692 84.8035 29.5807 84.8036 28.3551L84.8037 27.292H80.2807H75.7577V33.7898ZM43.8619 30.2824C44.6433 30.5556 45.3915 31.2303 45.7281 31.9655C45.9447 32.4386 46.1426 33.2897 46.1426 33.7479C46.1426 34.7194 45.6747 35.8908 45.0288 36.5368C43.7905 37.7751 41.9072 37.7833 40.6095 36.5559C40.1234 36.0962 39.8831 35.7249 39.6388 35.0561C39.3994 34.4004 39.4003 33.0934 39.6407 32.4335C40.196 30.9097 41.5655 29.9968 43.0913 30.1336C43.3464 30.1565 43.6932 30.2234 43.8619 30.2824ZM17.6551 31.0805C17.8324 31.5585 18.8482 34.2018 18.9846 34.5404C19.0151 34.6159 18.6742 34.6371 17.4303 34.6371C16.554 34.6371 15.8367 34.611 15.8362 34.5791C15.8339 34.4285 17.3507 30.4017 17.3923 30.4478C17.4185 30.4769 17.5367 30.7616 17.6551 31.0805Z" fill="#3F4651"/>
</svg>
