<svg width="271" height="41" viewBox="0 0 271 41" fill="none" xmlns="http://www.w3.org/2000/svg">
<path fill-rule="evenodd" clip-rule="evenodd" d="M227.976 20.4999V40.4999H249.405H270.833V20.4999V0.5H249.405H227.976V20.4999ZM0.997437 29.3094C1.00029 33.2818 1.11014 36.7012 1.2422 36.9085C1.83934 37.8481 3.47426 37.9602 16.5688 37.9602H29.8815V36.8491V35.738H19.4313C13.6837 35.738 8.75519 35.6513 8.479 35.5453C8.04313 35.378 7.97678 34.4751 7.97678 28.7199V22.0872H4.48473H0.992676L0.997437 29.3094ZM45.9481 22.538C45.0303 22.878 42.8614 24.8967 37.5043 30.3983L30.2958 37.8015L33.7995 37.8919L37.3037 37.9821L39.3941 35.9078L41.4846 33.8332H50.0909H58.6976L60.6376 35.9072L62.5776 37.9811L66.1499 37.8913L69.7226 37.8015L62.7741 30.6586C58.9522 26.7301 55.3842 23.2314 54.8449 22.8834C53.5576 22.0533 47.8554 21.832 45.9481 22.538ZM72.421 23.3348V24.6269H83.5321C89.6432 24.6269 94.6432 24.745 94.6432 24.8898C94.6432 25.0342 90.179 27.0577 84.7226 29.3866C73.1524 34.3246 71.3013 35.2062 71.0324 35.9072C70.6851 36.8119 70.8083 37.0297 71.9347 37.5002C72.8442 37.8802 75.6867 37.9602 88.2838 37.9602H103.532V36.8491V35.738H91.9448C85.5718 35.738 80.3575 35.6142 80.3575 35.4627C80.3575 35.3113 85.5159 32.9285 91.8206 30.1672C98.1254 27.4063 103.482 24.9485 103.725 24.7056C104.393 24.038 104.26 23.4326 103.309 22.8088C102.523 22.2939 101.172 22.2374 87.4356 22.1444L72.421 22.0431V23.3348ZM107.342 28.0761C107.342 35.0405 107.36 35.0894 110.428 36.4669C113.239 37.7278 116.261 38.0996 123.532 38.0773C130.792 38.0551 133.959 37.5834 136.652 36.1234C138.964 34.87 139.087 34.4494 139.087 27.8174V22.0872H135.754H132.421V27.1767C132.421 33.0691 132.161 34.0669 130.414 34.8964C127.821 36.1265 120.482 36.3062 116.852 35.2285C114.166 34.4307 114.008 34.0075 114.008 27.5999V22.0872H110.675H107.342V28.0761ZM146.865 22.2806C144.335 22.6339 143.769 22.8028 143.197 23.3748C142.623 23.9488 142.58 24.4821 142.58 30.9761V37.9602H146.072H149.564V31.4862C149.564 25.8758 149.631 24.9866 150.066 24.8196C150.342 24.7136 154.135 24.6269 158.494 24.6269C164.961 24.6269 166.592 24.7158 167.352 25.1088C168.435 25.6685 168.812 26.7869 168.401 28.2196C167.927 29.8755 166.945 30.1402 160.833 30.2605C154.485 30.3856 154.008 30.4574 154.008 31.2923C154.008 32.1523 154.602 32.4786 161.5 35.4062L167.563 37.9799L171.634 37.8907L175.706 37.8015L169.381 35.2961C165.902 33.918 162.937 32.6847 162.791 32.5551C162.645 32.4256 164.502 32.2558 166.918 32.1777C171.832 32.0189 173.458 31.5624 174.803 29.9643C175.45 29.1951 175.595 28.6824 175.595 27.1666C175.595 25.5202 175.486 25.2012 174.626 24.3412C172.772 22.4875 171.584 22.3263 159.087 22.2323C152.889 22.186 147.389 22.2075 146.865 22.2806ZM178.77 30.0237V37.9602H182.103H185.437V30.0237V22.0872H182.103H178.77V30.0237ZM188.294 23.1983V24.3094H194.802H201.309V31.1348V37.9602H204.795H208.281L208.367 31.2142L208.452 24.4682L214.881 24.3821L221.309 24.2964V23.1917V22.0872H204.802H188.294V23.1983ZM53.2658 27.8056C54.6347 29.2923 56.0265 30.8278 56.3592 31.2183L56.9639 31.9285H50.0893C46.3084 31.9285 43.2198 31.8215 43.2259 31.6904C43.2322 31.5593 44.7195 29.9024 46.5316 28.0082C49.0071 25.4202 49.9443 24.6313 50.3017 24.8336C50.5633 24.9818 51.8973 26.3193 53.2658 27.8056ZM235.311 33.357L235.821 35.2618L236.385 33.2777C236.927 31.3685 236.987 31.2935 237.976 31.2935C238.917 31.2935 239.021 31.3942 239.201 32.484C239.309 33.1389 239.399 34.6488 239.401 35.8396C239.404 37.9037 239.371 37.9996 238.69 37.9031C238.047 37.8116 237.96 37.5837 237.817 35.6256L237.659 33.4497L237.064 35.5462C236.553 37.3443 236.366 37.6427 235.744 37.6427C235.14 37.6427 234.951 37.378 234.612 36.0554C234.388 35.1824 234.089 34.4681 233.948 34.4681C233.806 34.4681 233.69 35.2539 233.69 36.2142C233.69 37.8881 233.656 37.9602 232.855 37.9602C232.067 37.9602 232.031 37.8935 232.217 36.7697C232.325 36.1151 232.415 34.6062 232.417 33.4174L232.42 31.2551L233.611 31.3539C234.777 31.4504 234.812 31.4907 235.311 33.357ZM244.484 31.9285C244.484 32.4577 244.272 32.5634 243.214 32.5634C242.156 32.5634 241.944 32.6691 241.944 33.1983C241.944 33.7275 242.156 33.8332 243.214 33.8332C244.272 33.8332 244.484 33.9389 244.484 34.4681C244.484 34.9973 244.272 35.1031 243.214 35.1031C242.156 35.1031 241.944 35.2088 241.944 35.738C241.944 36.2789 242.156 36.3729 243.373 36.3729C244.685 36.3729 244.801 36.4377 244.801 37.1665C244.801 37.9377 244.738 37.9602 242.579 37.9602H240.357V34.6269V31.2935H242.42C244.272 31.2935 244.484 31.3586 244.484 31.9285ZM249.881 31.9285C249.881 32.4694 249.669 32.5634 248.452 32.5634C247.394 32.5634 247.024 32.6869 247.024 33.0396C247.024 33.3669 247.352 33.5158 248.075 33.5158C250.175 33.5158 251.315 35.8688 249.855 37.19C249.374 37.6253 248.705 37.7897 247.395 37.7948L245.595 37.8015L245.505 34.5475L245.414 31.2935H247.647C249.669 31.2935 249.881 31.3539 249.881 31.9285ZM255.595 31.9285C255.595 32.4577 255.383 32.5634 254.325 32.5634C253.267 32.5634 253.055 32.6691 253.055 33.1983C253.055 33.7123 253.267 33.8332 254.166 33.8332C255.066 33.8332 255.278 33.9542 255.278 34.4681C255.278 34.9821 255.066 35.1031 254.166 35.1031C253.267 35.1031 253.055 35.224 253.055 35.738C253.055 36.2672 253.267 36.3729 254.325 36.3729C255.474 36.3729 255.595 36.4497 255.595 37.1812C255.595 37.9764 255.561 37.9878 253.452 37.8954L251.309 37.8015L251.219 34.5475L251.128 31.2935H253.362C255.383 31.2935 255.595 31.3539 255.595 31.9285ZM261.627 34.6269V37.9602H260.833C260.049 37.9602 260.039 37.9284 260.039 35.2618C260.039 32.7751 259.99 32.5634 259.405 32.5634C258.883 32.5634 258.769 32.7758 258.768 33.7539C258.765 35.5043 258.191 37.2726 257.507 37.6389C256.041 38.4237 255.343 37.5284 256.459 36.2951C256.831 35.884 257.045 34.9894 257.13 33.4926L257.254 31.2935H259.44H261.627V34.6269ZM264.484 32.4047C264.484 33.4078 264.57 33.5158 265.365 33.5158C266.737 33.5158 267.658 34.3323 267.658 35.5481C267.658 37.1164 266.728 37.7865 264.538 37.7948L262.738 37.8015L262.647 34.5475L262.557 31.2935H263.52C264.41 31.2935 264.484 31.3789 264.484 32.4047ZM247.024 35.738C247.024 36.458 247.169 36.6904 247.62 36.6904C248.527 36.6904 249.105 35.8577 248.611 35.2618C248.393 34.9999 247.947 34.7856 247.62 34.7856C247.169 34.7856 247.024 35.018 247.024 35.738ZM264.166 35.738C264.166 36.458 264.312 36.6904 264.763 36.6904C265.09 36.6904 265.521 36.4942 265.72 36.2545C266.251 35.6154 265.802 34.7856 264.926 34.7856C264.294 34.7856 264.166 34.945 264.166 35.738Z" fill="#3F4651"/>
<path fill-rule="evenodd" clip-rule="evenodd" d="M227.977 20.4999V40.4999H249.405H270.834V20.4999V0.5H249.405H227.977V20.4999ZM235.312 33.357L235.822 35.2618L236.386 33.2777C236.928 31.3685 236.988 31.2935 237.977 31.2935C238.918 31.2935 239.022 31.3942 239.202 32.484C239.31 33.1389 239.4 34.6488 239.402 35.8396C239.405 37.9037 239.372 37.9996 238.691 37.9031C238.048 37.8116 237.961 37.5837 237.818 35.6256L237.659 33.4497L237.064 35.5462C236.554 37.3443 236.366 37.6427 235.744 37.6427C235.141 37.6427 234.952 37.378 234.613 36.0554C234.389 35.1824 234.09 34.4681 233.949 34.4681C233.807 34.4681 233.691 35.2539 233.691 36.2142C233.691 37.8881 233.656 37.9602 232.856 37.9602C232.068 37.9602 232.032 37.8935 232.217 36.7697C232.326 36.1151 232.416 34.6062 232.418 33.4174L232.421 31.2551L233.612 31.3539C234.778 31.4504 234.812 31.4907 235.312 33.357ZM244.485 31.9285C244.485 32.4577 244.273 32.5634 243.215 32.5634C242.157 32.5634 241.945 32.6691 241.945 33.1983C241.945 33.7275 242.157 33.8332 243.215 33.8332C244.273 33.8332 244.485 33.9389 244.485 34.4681C244.485 34.9973 244.273 35.1031 243.215 35.1031C242.157 35.1031 241.945 35.2088 241.945 35.738C241.945 36.2789 242.157 36.3729 243.374 36.3729C244.686 36.3729 244.802 36.4377 244.802 37.1665C244.802 37.9377 244.739 37.9602 242.58 37.9602H240.358V34.6269V31.2935H242.421C244.273 31.2935 244.485 31.3586 244.485 31.9285ZM249.881 31.9285C249.881 32.4694 249.67 32.5634 248.453 32.5634C247.395 32.5634 247.024 32.6869 247.024 33.0396C247.024 33.3669 247.353 33.5158 248.075 33.5158C250.176 33.5158 251.316 35.8688 249.856 37.19C249.375 37.6253 248.705 37.7897 247.395 37.7948L245.596 37.8015L245.505 34.5475L245.415 31.2935H247.648C249.67 31.2935 249.881 31.3539 249.881 31.9285ZM255.596 31.9285C255.596 32.4577 255.384 32.5634 254.326 32.5634C253.268 32.5634 253.056 32.6691 253.056 33.1983C253.056 33.7123 253.268 33.8332 254.167 33.8332C255.067 33.8332 255.278 33.9542 255.278 34.4681C255.278 34.9821 255.067 35.1031 254.167 35.1031C253.268 35.1031 253.056 35.224 253.056 35.738C253.056 36.2672 253.268 36.3729 254.326 36.3729C255.475 36.3729 255.596 36.4497 255.596 37.1812C255.596 37.9764 255.562 37.9878 253.453 37.8954L251.31 37.8015L251.22 34.5475L251.129 31.2935H253.362C255.384 31.2935 255.596 31.3539 255.596 31.9285ZM261.627 34.6269V37.9602H260.834C260.049 37.9602 260.04 37.9284 260.04 35.2618C260.04 32.7751 259.99 32.5634 259.405 32.5634C258.884 32.5634 258.77 32.7758 258.768 33.7539C258.766 35.5043 258.192 37.2726 257.507 37.6389C256.041 38.4237 255.344 37.5284 256.46 36.2951C256.832 35.884 257.046 34.9894 257.13 33.4926L257.255 31.2935H259.441H261.627V34.6269ZM264.485 32.4047C264.485 33.4078 264.57 33.5158 265.366 33.5158C266.738 33.5158 267.659 34.3323 267.659 35.5481C267.659 37.1164 266.728 37.7865 264.538 37.7948L262.739 37.8015L262.648 34.5475L262.558 31.2935H263.521C264.411 31.2935 264.485 31.3789 264.485 32.4047ZM247.024 35.738C247.024 36.458 247.17 36.6904 247.621 36.6904C248.528 36.6904 249.106 35.8577 248.612 35.2618C248.394 34.9999 247.948 34.7856 247.621 34.7856C247.17 34.7856 247.024 35.018 247.024 35.738ZM264.167 35.738C264.167 36.458 264.313 36.6904 264.763 36.6904C265.091 36.6904 265.522 36.4942 265.721 36.2545C266.251 35.6154 265.802 34.7856 264.927 34.7856C264.294 34.7856 264.167 34.945 264.167 35.738Z" fill="#025196"/>
</svg>
