<svg width="155" height="41" viewBox="0 0 155 41" fill="none" xmlns="http://www.w3.org/2000/svg">
<path fill-rule="evenodd" clip-rule="evenodd" d="M61.54 33.8395H81.5591V27.1411H68.2384V23.2591H80.7598V16.5607H68.2384V13.8585H81.1784V7.16016H61.54V33.8395Z" fill="#FFD602"/>
<path fill-rule="evenodd" clip-rule="evenodd" d="M85.4408 16.5607H83.4618V23.2591H85.4408V33.8395H92.1392V23.2591H101.502V33.8395H108.2V7.16016H101.502V16.5607H92.1392V7.16016H85.4408V16.5607Z" fill="#FFD602"/>
<path fill-rule="evenodd" clip-rule="evenodd" d="M32.165 33.8395H39.244L40.0861 31.3705C40.3622 30.5419 40.6425 29.7193 40.9324 28.8677L46.0184 13.8586H51.3467V33.8395H58.4257V7.16016H41.1469C41.1277 7.39221 33.381 30.1727 32.7215 32.1506C32.6161 32.4666 32.1813 33.6437 32.165 33.8395V33.8395Z" fill="#FFD602"/>
<path fill-rule="evenodd" clip-rule="evenodd" d="M141.693 14.8098L142.439 17.0697C142.509 17.2783 142.56 17.432 142.63 17.6406L143.215 19.3389H140.132C140.204 19.1902 140.269 18.9469 140.327 18.7728C140.668 17.7494 141.266 15.8809 141.63 14.9376L141.693 14.8099L141.693 14.8098ZM133.434 19.3389H128.905V25.9992H131.15C131.133 26.2028 130.915 26.7622 130.841 26.9839L128.524 33.8394H135.261C135.276 33.6507 136.087 31.3042 136.217 30.9137C136.327 30.5824 136.448 30.2614 136.56 29.9242L137.887 25.9993H145.46L147.444 31.8555C147.536 32.11 148.073 33.6804 148.087 33.8394H154.823C154.723 33.631 154.626 33.2673 154.542 33.0165L146.369 8.83957C146.281 8.57588 146.198 8.28815 146.091 8.01349C145.992 7.75663 145.864 7.42268 145.803 7.16016H137.544L135.484 13.2447C135.145 14.2612 134.798 15.264 134.457 16.2895L133.686 18.5635C133.601 18.8194 133.492 19.0912 133.434 19.339L133.434 19.3389Z" fill="#FFD602"/>
<path fill-rule="evenodd" clip-rule="evenodd" d="M10.3508 8.18778C10.7069 8.15813 11.0983 7.98905 11.4545 7.9594C11.4782 7.67471 11.5687 7.35779 11.5687 7.04601C13.0623 7.04601 12.6853 7.36468 13.3575 6.36094C13.7402 6.45012 14.1387 6.60087 14.5085 6.69898C14.706 6.75133 14.6886 6.69933 14.9961 6.51525C15.5277 6.19706 15.3452 6.0791 16.517 6.77999C16.7237 6.90361 16.8487 6.81524 17.1093 6.76359C17.3469 6.71655 17.5554 6.67785 17.7723 6.62737L18.618 7.34215C18.7679 7.49209 18.8354 7.48251 19.2569 7.50242C19.5422 7.51596 19.7231 7.54082 20.0178 7.54082C20.1254 7.70161 20.2263 7.84186 20.3448 8.0131C20.9373 8.86941 20.6396 8.40781 21.8853 8.87023C22.0263 8.92258 21.9991 8.91984 22.045 9.09108C22.0708 9.18703 22.0988 9.29658 22.1354 9.41943C22.24 9.77061 22.2185 9.85833 22.3907 9.96332L23.443 10.5095C23.443 10.8838 23.3669 11.0987 23.3669 11.461C23.3669 11.5314 24.1884 12.161 24.2803 12.2983C24.2287 12.4916 23.9323 12.8541 23.8236 13.0595C23.9149 13.2322 24.0246 13.3801 24.1357 13.5467C24.2526 13.7221 24.3577 13.8805 24.4706 14.049C24.3405 14.0837 23.7751 14.4489 23.6333 14.5438C23.7111 14.8775 23.822 15.1996 23.8997 15.5333C23.8262 15.5686 22.9208 15.7617 22.796 15.7617C22.796 16.0735 22.7055 16.3905 22.6818 16.6751C22.2076 16.6751 21.8697 16.637 21.3878 16.637C21.3473 16.7887 21.2497 16.8645 21.1666 16.9867C21.0782 17.1167 21.003 17.2242 20.9311 17.3602C20.6293 17.335 19.8442 17.0176 19.6371 17.0176C19.5626 17.0176 19.0339 17.3518 18.93 17.4174C18.715 17.5533 18.7071 17.4778 18.2031 17.1957C17.8385 16.9916 17.6512 16.8471 17.4309 16.9004L16.4782 17.0937C16.4672 17.0937 15.7005 16.4469 15.6326 16.3789C15.4199 16.1662 15.4817 16.2961 14.9835 16.2288L14.2327 16.1803C14.1231 16.0165 14.019 15.8799 13.9052 15.7086C13.4952 15.0912 13.6961 15.248 12.6859 14.9487C12.1137 14.7792 12.3373 14.9857 12.0412 13.995C11.9634 13.7346 11.7618 13.7256 11.3385 13.4798C11.2437 13.4248 10.8971 13.2326 10.8074 13.2117C10.8074 13.0589 10.8838 12.339 10.9215 12.2602L9.97004 11.4229C10.022 11.2284 10.4267 10.787 10.4267 10.6618C10.4267 10.5244 9.87735 9.92772 9.81782 9.67226L10.6171 9.17745C10.6171 9.06236 10.3936 8.27749 10.3506 8.18796L10.3508 8.18778ZM12.3679 2.21251C12.0423 2.13669 11.5701 1.75552 11.226 1.60377C10.808 1.41946 10.4291 1.25552 9.92994 1.14906C9.64338 1.08796 9.02816 0.954536 8.90134 1.25779C8.86358 1.34808 8.83475 1.4944 8.81175 1.6249C8.73885 2.0387 8.63812 2.79655 8.63812 3.20201C7.99437 3.18765 6.83258 2.66097 5.32697 3.01174C5.34092 3.63827 5.97574 4.6091 6.27847 5.18112C5.32084 5.18112 4.64896 5.39385 3.84751 5.71882C3.62485 5.80911 3.38848 5.96541 3.19565 6.09451C3.23522 6.26435 3.24952 6.40816 3.30397 6.55704C3.67143 7.56002 5.09463 8.52542 5.25081 8.7587C4.97621 8.89042 4.6562 8.99022 4.38743 9.15125C4.05739 9.34904 3.17102 9.93035 3.0739 10.3527C2.9975 10.6851 3.17656 11.0513 3.32539 11.293C3.87307 12.1822 5.2225 13.0178 6.1642 13.516C6.05553 13.9825 5.25081 14.9976 5.25081 16.5988C5.25081 16.8354 5.29773 16.9947 5.43921 17.0954C5.58231 17.1973 5.71509 17.2775 5.87512 17.3826C6.48958 17.7866 7.23605 18.049 7.99425 18.1179C8.2758 18.1435 9.12154 18.2361 9.36113 18.1211L9.11752 19.3238C9.06499 19.506 9.00301 19.6967 8.9297 19.8591C8.83206 20.0756 8.75216 20.3078 8.75216 20.5569C8.75216 21.201 10.346 21.6606 11.1118 21.6606C12.292 21.6606 12.8676 21.6543 13.9996 21.2754C14.3982 21.142 14.7932 20.9822 15.136 20.7371C15.2609 20.6479 15.3439 20.5523 15.4506 20.4808C15.6214 20.5951 15.7402 20.8898 15.8632 21.0576C16.5576 22.0042 17.6081 22.8008 18.6602 23.3226C18.922 23.4525 19.8001 23.9229 20.0557 23.9442C20.3113 23.722 20.6296 23.2348 20.8244 22.924C20.9433 22.7344 21.0356 22.5726 21.1477 22.372C21.2653 22.1618 21.3545 21.9817 21.4639 21.7748L22.187 22.3077C22.44 22.4767 22.7018 22.6252 22.9857 22.7649C23.9224 23.2259 24.5145 23.3352 25.5743 23.3352C25.913 23.3352 26.0273 23.0629 26.1351 22.7923C26.4981 21.8804 26.4877 20.782 26.4877 19.7577C27.6044 20.0179 27.7936 20.2525 29.2279 20.2525C30.6496 20.2525 30.56 19.5138 30.56 18.4256C30.56 17.4329 30.0655 16.9015 29.5486 16.24C29.4092 16.0616 29.0927 15.8534 29.0376 15.6473C29.2678 15.6473 29.8079 15.4866 29.9944 15.4244C30.3064 15.3202 30.5689 15.2044 30.8518 15.0638C31.2523 14.8649 31.6142 14.6121 31.9209 14.3062C32.2429 13.985 32.3138 13.8501 31.953 13.3789L31.5407 12.9158C31.247 12.6262 30.8961 12.3853 30.5657 12.1401C30.0668 11.7698 29.4849 11.4642 28.9104 11.2074C28.7008 11.1137 28.4612 11.0548 28.2763 10.9661C28.5677 10.531 30.9405 9.55518 30.9405 8.91091C30.9405 8.26704 30.4904 7.84898 30.0112 7.55658C28.9849 6.93028 27.0645 6.43033 25.8033 6.43623L24.8691 6.40226C24.6531 6.38534 24.6696 5.65509 24.6499 5.49646C24.5437 4.6423 24.3398 3.54658 23.739 2.98203C23.2062 2.48139 21.7547 3.13092 21.1256 3.35877C20.949 3.42274 20.4524 3.64481 20.2839 3.65882C20.2662 3.44655 20.0248 2.85678 19.9409 2.66973C19.5871 1.88088 18.8888 0.690266 17.8861 0.690266C17.2961 0.690266 16.7979 0.94444 16.4129 1.27227C16.3128 1.35748 16.2775 1.40954 16.1729 1.48897C16.0327 1.59549 16.0636 1.60237 15.9543 1.7271C15.8187 1.88194 15.5816 2.04419 15.5265 2.25074C15.357 2.20545 15.2195 1.90995 15.124 1.77787C14.6893 1.1769 14.3991 0.849949 13.7377 0.5C13.4879 0.66727 12.4503 1.85766 12.3676 2.21268L12.3679 2.21251Z" fill="#FFD602"/>
<path fill-rule="evenodd" clip-rule="evenodd" d="M110.915 13.8585H117.766V33.8395H124.464V13.8585H131.315V7.16016H110.915V13.8585Z" fill="#FFD602"/>
<path fill-rule="evenodd" clip-rule="evenodd" d="M14.7523 40.5H14.3667H14.3518C13.9275 40.5 13.4179 40.1844 13.1236 39.9013C12.9578 39.7419 12.8408 39.6003 12.6985 39.413C12.5425 39.2078 12.4768 39.0806 12.3594 38.8387C12.0048 38.1082 11.878 36.7533 11.878 35.6665C11.878 35.2629 11.933 33.5857 12.0302 33.3829C11.7254 33.3016 11.4072 32.7862 10.6879 32.4798C9.35452 31.9117 8.077 31.9814 6.87494 31.8018C5.60471 31.612 5.02557 31.3689 4.1193 30.6374L3.58048 30.0725C3.29491 29.6983 3.17112 29.4983 2.97105 29.0454C2.45786 27.8834 2.62064 28.0101 1.44157 27.2258C1.16236 27.04 1.02287 26.8146 0.993164 26.5835V26.3905C1.02725 26.1161 1.20351 25.8473 1.47175 25.6408C1.57003 25.5652 1.59629 25.5215 1.69411 25.4446C3.83863 23.7589 5.76714 23.4291 8.16133 24.7305C8.34471 24.8302 8.51975 24.9403 8.68141 25.0477C9.18322 25.3809 9.61943 25.6821 10.0807 26.0842C10.5216 26.4684 10.461 26.3904 10.9361 26.8654C11.2169 27.1463 11.4609 27.4107 11.7044 27.7336C11.8378 27.9105 11.9286 28.0356 12.053 28.2223C12.2994 28.5919 12.7961 29.4811 12.8294 29.8816C12.8572 29.8417 12.8341 29.8864 12.87 29.8079C12.8746 29.7977 12.8876 29.765 12.8919 29.7537L14.2139 25.7094C14.4533 25.0017 14.627 24.2836 14.8163 23.5334C14.903 23.1901 14.9846 22.7854 15.0484 22.3955C15.1122 22.0061 15.0914 21.5018 15.2652 21.2422C15.5222 21.2636 15.61 21.4033 15.6961 21.6105C16.1076 22.6001 15.6523 25.4149 15.4723 26.5491C15.2863 27.7206 14.9067 29.2712 14.6598 30.4941L14.3898 31.7845C14.4815 31.7232 14.5818 31.572 14.6846 31.4704C15.7555 30.4116 17.252 29.2671 18.6579 28.7453C20.001 28.2468 21.4383 28.2231 22.7739 28.8049C23.1735 28.9789 23.5322 29.1626 23.8896 29.4018L24.7195 30.0182C24.725 30.0238 24.7328 30.0319 24.7382 30.0375C24.9055 30.212 25.0844 30.4236 25.0844 30.7189C25.0844 31.3786 23.9858 31.435 23.3934 32.3391C23.1007 32.7858 22.9828 33.8664 21.4855 34.7698C20.3746 35.44 19.6457 35.4303 18.4299 35.5582C17.4262 35.6637 16.1272 35.7666 15.2535 36.1496C15.0333 36.2461 14.772 36.4448 14.592 36.5918C14.4859 36.6784 14.4079 36.7454 14.2918 36.8245C14.217 36.8754 13.9712 36.9795 13.9712 37.0367C13.9712 37.5941 14.1916 38.4181 14.327 38.8884C14.5294 39.5919 14.9318 40.3376 14.9608 40.462C14.8694 40.4832 14.8071 40.4946 14.7523 40.5V40.5ZM14.7324 33.9158L14.6944 33.9539L14.7324 33.9158ZM14.7324 33.9158C14.8092 33.628 15.3206 33.1088 15.5409 32.8594C15.6174 32.7728 15.6261 32.7378 15.7111 32.649L16.5157 31.9693C16.6713 31.8529 16.7917 31.7667 16.9621 31.6544C17.5782 31.2486 18.3574 30.9625 19.0665 30.7522C19.4607 30.6352 19.8809 30.581 20.3535 30.5169C20.7151 30.4679 22.0809 30.4104 22.5126 30.4743C22.7008 30.5023 23.0418 30.5285 23.2196 30.5285V30.5665C22.6068 30.5665 20.2407 31.145 19.5989 31.3607C18.5221 31.7225 17.4265 32.0738 16.452 32.6667C15.9933 32.9457 15.3329 33.3594 14.932 33.7346C14.8479 33.8134 14.8264 33.8529 14.7325 33.9157L14.7324 33.9158ZM11.3071 30.2621L11.2691 30.2241L11.3071 30.2621ZM11.2691 30.2241L10.4435 29.5272C9.02914 28.3376 7.20318 27.3647 5.41626 26.8665C4.70439 26.6681 3.69079 26.4182 2.78189 26.4182V26.3801C3.02352 26.3801 3.6769 26.2646 4.22815 26.2659C4.77245 26.2671 5.21105 26.2876 5.69156 26.363C6.14137 26.4336 6.55306 26.539 6.94474 26.6702C7.47433 26.8476 8.09334 27.1142 8.55196 27.4227C8.72174 27.5369 8.87139 27.6276 9.02955 27.7444C9.44609 28.0517 9.67009 28.2981 9.87699 28.4573C10.1486 28.6663 11.1951 29.9063 11.2691 30.2241V30.2241Z" fill="#38AC5A"/>
</svg>
