<svg width="172" height="41" viewBox="0 0 172 41" fill="none" xmlns="http://www.w3.org/2000/svg">
<path fill-rule="evenodd" clip-rule="evenodd" d="M2.80004 0.700577C1.94648 1.13359 1.44237 2.33002 1.26694 4.33964C0.959263 7.86278 0.896693 23.0511 1.16502 29.0834C1.34705 33.1755 1.65574 36.9179 1.89263 37.9042C2.22373 39.2828 2.9918 40.2363 3.93409 40.4384C5.07505 40.6831 6.06753 40.1816 6.34905 39.2182C6.60784 38.3322 6.48848 34.5577 5.92759 25.889C5.63614 21.3848 5.69678 14.3795 6.08782 7.3819C6.16732 5.95964 6.23314 4.31368 6.23405 3.72429C6.2375 1.48254 5.59913 0.581827 3.95397 0.507494C3.37878 0.481432 3.15984 0.518142 2.80004 0.700577ZM39.1936 2.77733C38.7177 2.98349 38.3065 3.39167 38.1903 3.77327C37.8537 4.87974 37.9805 5.41102 38.992 7.12838C40.4199 9.55297 42.2438 13.3771 43.6353 16.8636C45.4197 21.3349 46.6417 25.0696 48.0221 30.2706C48.6322 32.5689 49.2242 34.6979 49.3378 35.0015C49.7615 36.134 50.5125 36.8915 51.2105 36.8904C51.7403 36.8896 52.5708 36.4183 53.2269 35.7464C54.3767 34.5689 55.5796 32.5836 57.1412 29.2862C59.4757 24.3568 60.8661 20.5667 62.154 15.6222C63.5081 10.4232 63.8402 8.73794 63.9106 6.70845C63.9583 5.33 63.9413 5.09888 63.7436 4.44794C63.379 3.24746 62.6814 2.71902 61.4595 2.7177C60.8055 2.71689 60.1397 3.04241 59.8275 3.51528C59.5338 3.96047 59.4304 4.39947 58.7631 8.04106C57.5231 14.8063 56.0537 20.2249 54.2545 24.6667C53.5957 26.2934 52.5806 28.475 52.4825 28.475C52.4459 28.475 52.081 27.3455 51.6718 25.9651C47.4911 11.8625 44.0963 4.32169 41.299 2.92387C40.5935 2.57137 39.7972 2.5159 39.1936 2.77733ZM24.4553 4.64721C21.8364 5.05842 19.6551 6.16155 17.6581 8.08456C14.7331 10.9011 12.8892 14.5306 12.1464 18.9336C11.8916 20.4444 11.8934 24.9221 12.1495 26.3961C12.6885 29.4983 13.6601 31.6402 15.2582 33.2492C16.7472 34.7483 18.3825 35.5646 20.8386 36.0343C22.2642 36.307 25.0158 36.2942 26.3146 36.0088C28.9839 35.4224 31.2439 34.1202 33.2814 31.9945C33.9753 31.2706 34.1405 31.0326 34.2785 30.5578C34.8111 28.7255 33.1592 26.8347 31.4106 27.275C31.0096 27.376 30.7342 27.592 29.5484 28.7359C28.7829 29.4742 27.9119 30.2631 27.6128 30.489C26.5264 31.3092 25.2725 31.72 23.8553 31.72C21.968 31.72 20.4363 31.1764 19.2826 30.0973C17.7979 28.7084 17.0528 26.6591 16.8343 23.3639L16.7677 22.3601L17.5609 22.4251C19.4944 22.5838 21.9791 22.6165 23.4245 22.5022C26.9827 22.2211 32.2685 21.2493 34.8599 20.3999C36.7856 19.7686 37.7012 18.0601 37.5303 15.4163C37.3165 12.1102 36.2458 9.69443 34.0558 7.57711C32.5247 6.09695 30.9305 5.24674 28.8133 4.78147C27.9597 4.59387 25.3139 4.51233 24.4553 4.64721ZM122.091 4.67956C121.577 4.91249 120.972 5.69547 120.686 6.49904C120.14 8.03417 120.067 8.7495 120.071 12.5031C120.076 16.1597 120.148 17.3631 120.779 24.3679C121.079 27.7006 121.362 31.328 121.597 34.8637C121.681 36.1137 121.952 36.9984 122.355 37.338C123.01 37.8887 124.349 37.9499 125.085 37.4627C125.578 37.1367 126.048 36.2031 126.213 35.2224C126.399 34.1205 126.267 31.5144 125.902 29.0834C125.066 23.5058 124.934 22.1833 125.013 20.1129C125.129 17.0674 125.898 15.1017 127.673 13.3132C128.707 12.271 129.563 11.759 130.795 11.4438C133.956 10.6353 136.482 11.631 137.738 14.1814C138.571 15.8729 138.915 17.8696 138.905 20.9707C138.895 24.3028 138.578 26.284 137.302 30.9755C136.466 34.0514 136.441 34.2887 136.886 34.96C137.385 35.7143 138.67 36.0959 139.516 35.7407C139.695 35.6653 140.041 35.3871 140.284 35.1225C141.533 33.7632 142.855 29.311 143.462 24.4186C143.666 22.7779 143.635 18.0604 143.413 16.6702C142.547 11.2729 140.192 8.11306 136.17 6.95274C135.479 6.75357 135.144 6.72487 133.504 6.72386C131.409 6.72264 130.764 6.84596 129.282 7.53077C127.822 8.20524 126.257 9.47184 124.894 11.0833L124.465 11.5904L124.527 10.6427C124.561 10.1215 124.701 9.09997 124.838 8.37277C124.975 7.64557 125.086 6.81706 125.085 6.53169C125.082 5.45016 124.219 4.62997 123.023 4.57044C122.645 4.55158 122.278 4.59447 122.091 4.67956ZM98.7053 6.22219C96.5252 6.61677 94.235 7.94847 93.6466 9.16386C93.3353 9.80699 93.3935 10.7374 93.7819 11.3242C94.219 11.9846 94.7806 12.3002 95.5188 12.3002C96.0591 12.3002 96.2841 12.2289 97.3516 11.7193C99.1702 10.8511 99.6248 10.7132 100.865 10.6537C103.291 10.5371 105.217 11.4635 106.465 13.3475C107.461 14.8501 107.994 16.7232 108.298 19.7807L108.357 20.3653L107.47 19.6889C106.424 18.8904 105.089 18.2266 103.892 17.9088C103.152 17.712 102.773 17.6796 101.205 17.6778C98.7926 17.6752 97.3336 17.9986 95.6952 18.8992C92.7253 20.5316 91.0255 23.353 90.717 27.1617C90.3837 31.2783 91.6438 34.7242 94.1857 36.6465C95.0056 37.2666 96.432 37.9478 97.453 38.207C100.233 38.9126 102.896 38.7087 105.364 37.6011L106.022 37.306V37.8918C106.022 39.4182 106.708 40.2669 107.948 40.2749C109.453 40.2845 110.312 39.0628 111.151 35.7212C113.24 27.4041 113.476 19.1931 111.78 13.8721C110.374 9.4616 107.564 6.88196 103.438 6.21276C102.295 6.02739 99.7539 6.03245 98.7053 6.22219ZM156.914 6.22219C154.734 6.61677 152.444 7.94847 151.855 9.16386C151.544 9.80699 151.602 10.7374 151.991 11.3242C152.428 11.9846 152.989 12.3002 153.728 12.3002C154.268 12.3002 154.493 12.2289 155.56 11.7193C157.379 10.8511 157.833 10.7132 159.074 10.6537C161.511 10.5366 163.421 11.4604 164.691 13.3702C165.671 14.845 166.202 16.7206 166.508 19.7908L166.568 20.3856L166.185 20.0667C164.984 19.0655 163.508 18.2827 162.152 17.9263C161.114 17.6536 158.947 17.5512 157.712 17.7163C155.221 18.0495 153.136 19.0589 151.619 20.6664C150.793 21.5426 150.415 22.0963 149.915 23.1633C148.607 25.9549 148.527 30.2254 149.73 33.1412C150.29 34.5002 151.283 35.8058 152.394 36.6465C154.211 38.0203 156.763 38.714 159.515 38.5825C161.115 38.506 162.159 38.2281 164.181 37.3395C164.244 37.3117 164.269 37.4758 164.245 37.7719C164.193 38.4342 164.4 39.2696 164.707 39.6348C165.078 40.0755 165.519 40.27 166.158 40.2746C167.62 40.2847 168.507 39.07 169.295 35.9785C170.085 32.8837 170.64 29.7211 170.942 26.5989C171.11 24.8583 171.111 19.9219 170.943 18.4862C170.656 16.0263 169.949 13.3339 169.195 11.8304C167.606 8.65824 165.065 6.76716 161.647 6.21276C160.504 6.02739 157.963 6.03245 156.914 6.22219ZM69.5608 7.20616C68.6907 7.55835 68.1101 8.13608 67.8908 8.86815C67.7096 9.47296 67.9477 10.1755 68.9805 12.0834C70.0137 13.9921 70.427 14.9257 70.7783 16.1443C71.4952 18.6314 71.7737 20.8614 71.7866 24.2158C71.7979 27.1567 71.7302 27.7147 70.9626 31.0102C70.4875 33.0497 70.4083 33.839 70.6161 34.4667C70.859 35.2005 71.6415 35.675 72.6086 35.675C73.6806 35.675 74.3565 35.0894 75.0894 33.5255C76.1629 31.2346 76.6053 27.8467 76.611 21.8713C76.6138 19.0942 76.7248 18.1584 77.2095 16.8303C77.9628 14.7662 79.4059 13.4351 81.1769 13.1703C82.2696 13.0071 82.7536 13.1601 84.1785 14.1195C84.7188 14.4834 85.3137 14.8097 85.5006 14.8448C86.2641 14.988 87.0118 14.55 87.4167 13.7225C87.662 13.2212 87.6879 13.0726 87.6456 12.4138C87.5844 11.4588 87.2924 10.8451 86.5544 10.1199C85.5243 9.10768 84.0612 8.59881 82.1813 8.59881C78.9282 8.59881 76.7984 9.91429 74.8225 13.1441L74.6165 13.4807L74.1788 12.13C73.3796 9.66279 72.2857 7.87262 71.2502 7.33708C70.8153 7.11226 69.9572 7.04573 69.5608 7.20616ZM28.2634 9.30715C29.9242 9.82018 31.299 11.2426 32.0059 13.1795C32.3077 14.0065 32.602 15.446 32.602 16.0954V16.4667L30.802 16.8456C26.2692 17.7994 24.6708 17.9791 20.7169 17.9791C18.5476 17.9791 17.4665 17.9434 17.3925 17.8695C17.314 17.7909 17.3724 17.5063 17.5987 16.865C19.0801 12.6679 21.8388 9.85699 25.1053 9.21609C25.9789 9.0447 27.5615 9.09034 28.2634 9.30715ZM103.863 22.048C105.833 22.4565 107.099 23.7108 107.658 25.8065C107.917 26.7775 107.97 28.9946 107.758 29.9454C107.434 31.3937 106.622 32.6477 105.532 33.383C104.356 34.1764 103.826 34.3058 101.763 34.3033C100.084 34.3014 99.9445 34.2861 99.1769 34.0179C97.7527 33.5204 96.7955 32.7258 96.2006 31.5473C95.6729 30.502 95.5387 29.8118 95.5341 28.12C95.5296 26.4574 95.659 25.7509 96.156 24.7228C96.4918 24.0282 97.3764 23.086 98.0545 22.7006C99.4814 21.8897 101.828 21.6259 103.863 22.048ZM162.072 22.048C164.041 22.4565 165.306 23.7086 165.868 25.8065C166.15 26.8616 166.178 29.1019 165.922 30.1367C165.401 32.2372 163.908 33.7279 161.841 34.2111C160.948 34.4199 158.597 34.3656 157.707 34.1155C155.747 33.5647 154.466 32.2714 153.927 30.3003C153.673 29.3696 153.667 26.862 153.917 25.947C154.316 24.4864 155.154 23.3446 156.321 22.6704C157.668 21.8925 160.069 21.6326 162.072 22.048Z" fill="#065903"/>
</svg>
