<svg width="122" height="41" viewBox="0 0 122 41" fill="none" xmlns="http://www.w3.org/2000/svg">
<path fill-rule="evenodd" clip-rule="evenodd" d="M18.1371 0.630944C16.5777 1.02099 15.3331 1.92687 14.6814 3.14637C13.3967 5.55001 14.3198 8.51495 16.7333 9.73666C17.4345 10.0916 17.5929 10.1194 18.9144 10.1194C20.2085 10.1194 20.4063 10.0865 21.0681 9.7614C21.9766 9.31513 22.9096 8.33282 23.3462 7.36281C23.6245 6.74477 23.6801 6.42843 23.6814 5.45597C23.6827 4.43129 23.6354 4.18646 23.2908 3.43447C23.0751 2.96385 22.6904 2.34827 22.4357 2.06639C21.9085 1.48281 20.8075 0.899742 19.7589 0.648951C18.9444 0.453991 18.8487 0.452954 18.1371 0.630944ZM8.01777 4.72898C4.59995 5.61154 3.45533 9.85506 6.01208 12.1649C6.99038 13.0488 7.48613 13.2286 8.93971 13.2269C10.0531 13.2257 10.3261 13.1806 10.8828 12.9061C12.2794 12.2178 13.1506 10.9095 13.2503 9.35075C13.3739 7.4202 12.3713 5.69613 10.7108 4.98443C10.0726 4.71071 8.6213 4.57314 8.01777 4.72898ZM45.6699 7.15541C44.8477 7.84729 44.8874 7.3119 44.8874 17.7256C44.8874 26.7203 44.9001 27.2469 45.1273 27.6743C45.2592 27.9226 45.5593 28.2569 45.794 28.4171L46.2211 28.7086H55.8984H65.5756L66.0027 28.4171C67.1646 27.6241 67.1768 25.9039 66.0261 25.1228C65.7016 24.9027 65.1248 24.8829 57.2586 24.8224L48.8384 24.7576L48.7736 16.3374C48.7227 9.71593 48.6725 7.85352 48.5386 7.61879C48.0577 6.77547 46.4333 6.51302 45.6699 7.15541ZM72.9978 7.02587C72.8197 7.13741 72.5574 7.38367 72.4149 7.57306C72.1619 7.90921 72.155 8.14641 72.1211 17.7173L72.0862 27.5172L72.428 27.9232C73.1227 28.749 72.5755 28.7086 83.0764 28.7086H92.6497L93.0899 28.4123C93.6683 28.0229 93.9178 27.4982 93.9111 26.685C93.9051 25.9517 93.6633 25.4763 93.1131 25.1157C92.7918 24.905 92.1081 24.8821 84.4033 24.8224L76.042 24.7576L76.0085 17.73L75.9751 10.7024H84.2167C92.45 10.7024 92.4591 10.7021 92.9619 10.4195C93.5082 10.1123 93.9835 9.31914 93.9835 8.71419C93.9835 8.17542 93.6744 7.55389 93.2139 7.1663L92.7978 6.81615L83.0597 6.81965C74.4495 6.82263 73.2841 6.84659 72.9978 7.02587ZM100.025 7.06202C99.4479 7.44274 99.167 7.9679 99.166 8.66859C99.1655 9.01044 99.248 9.44765 99.3492 9.64014C99.4505 9.83251 101.139 11.5737 103.101 13.5095C105.28 15.6597 106.701 17.1591 106.752 17.3634C106.798 17.5472 106.797 17.858 106.749 18.0538C106.692 18.2844 105.39 19.6889 103.057 22.0372C101.075 24.0322 99.3883 25.7917 99.3092 25.9473C99.0631 26.4309 99.1352 27.3302 99.4592 27.815C99.9943 28.6161 101.186 28.9494 101.989 28.5227C102.618 28.1886 112.238 18.4464 112.36 18.0198C112.424 17.7966 112.422 17.4928 112.355 17.3078C112.217 16.9263 102.629 7.27291 102.119 7.00204C101.61 6.73195 100.477 6.76446 100.025 7.06202ZM118.143 7.06137C117.929 7.1957 116.428 8.64112 114.807 10.2735C111.883 13.2186 111.86 13.2457 111.86 13.7974C111.86 14.3083 111.928 14.421 112.69 15.1836C113.44 15.933 113.572 16.0136 114.05 16.0136C114.52 16.0136 114.69 15.915 115.584 15.1219C116.136 14.6315 117.594 13.2111 118.823 11.9654L121.058 9.70051V8.82883C121.058 7.85183 120.806 7.34934 120.147 7.00851C119.622 6.73713 118.617 6.76368 118.143 7.06137ZM3.9209 13.563C3.34509 13.6988 2.45333 14.2376 2.02882 14.7061C1.55975 15.2239 1.05934 16.397 1.00143 17.1147C0.882253 18.5901 2.06743 20.336 3.54083 20.8554C4.42754 21.168 5.85223 21.1 6.60797 20.7089C7.67682 20.1559 8.32245 19.2689 8.61508 17.9516C8.74955 17.3458 8.74203 17.1077 8.56612 16.4214C8.01375 14.265 6.05522 13.0599 3.9209 13.563ZM78.7435 15.9542C77.3353 16.5714 77.2263 18.7526 78.5689 19.4468C79.1534 19.7491 89 19.7459 89.5853 19.4432C90.5152 18.9623 90.8115 17.4366 90.1449 16.5626C89.535 15.763 89.4615 15.7533 84.0454 15.7651C80.1874 15.7734 79.0648 15.8134 78.7435 15.9542ZM112.762 20.2484C111.961 21.0497 111.86 21.2057 111.86 21.6451C111.86 22.1827 111.781 22.0933 116.135 26.4985C118.135 28.5219 118.391 28.7086 119.173 28.7086C119.87 28.7086 120.404 28.4681 120.787 27.9812C121.004 27.7056 121.058 27.4541 121.058 26.7146V25.792L117.906 22.6422C114.971 19.7092 114.717 19.4873 114.209 19.4193C113.675 19.3477 113.647 19.3636 112.762 20.2484ZM30.5458 21.3571C30.154 21.7851 30.0789 22.1655 30.3012 22.5954C30.6671 23.3031 31.7322 23.4406 32.1263 22.8309C32.4906 22.2673 32.4902 21.9089 32.125 21.4748C31.6884 20.956 30.9625 20.9018 30.5458 21.3571ZM5.42967 22.613C3.65638 23.467 3.05466 25.848 4.20913 27.4431C4.68079 28.0948 5.06125 28.3756 5.83073 28.6396C7.56722 29.2354 9.46617 28.2068 10.0009 26.3804C10.1951 25.7174 10.1946 25.6027 9.99353 24.8312C9.74118 23.8622 9.32937 23.2677 8.57311 22.7804C7.83939 22.3077 6.24046 22.2225 5.42967 22.613ZM29.3424 24.1357C29.0164 24.2534 28.7007 24.7373 28.6976 25.1238C28.6942 25.5575 29.3189 26.2473 29.715 26.2473C30.4735 26.2473 30.999 25.5823 30.8341 24.8311C30.6951 24.1981 30.0294 23.8877 29.3424 24.1357ZM26.7742 27.0653C26.4061 27.4571 26.3947 28.2222 26.7516 28.5791C27.0904 28.9178 28.047 28.9372 28.3407 28.6115C28.798 28.104 28.7291 27.3471 28.1878 26.9316C27.8347 26.6604 27.0882 26.731 26.7742 27.0653ZM11.6151 27.3308C11.0442 27.5374 10.3491 28.2105 10.1061 28.792C9.86049 29.38 9.8557 30.3591 10.0959 30.9274C10.3347 31.493 11.1514 32.2614 11.7118 32.4481C13.7272 33.1196 15.7207 31.3038 15.2271 29.2463C14.8459 27.6567 13.1699 26.768 11.6151 27.3308ZM23.1892 28.4331C21.9507 29.0072 21.9052 30.7337 23.1123 31.3579C24.1686 31.9041 25.4569 31.1325 25.4557 29.9541C25.4545 28.667 24.323 27.9075 23.1892 28.4331ZM17.8781 29.0805C17.1147 29.5546 16.8621 29.9505 16.8031 30.7657C16.7635 31.3134 16.8118 31.6576 16.9772 32.0061C17.5534 33.2204 19.3193 33.5409 20.3185 32.6127C21.4285 31.5814 21.2943 29.9877 20.0256 29.1327C19.4666 28.7559 18.4408 28.731 17.8781 29.0805ZM45.276 39.1907V40.4969H46.5714C47.3487 40.4969 47.8668 40.445 47.8668 40.3673C47.8668 40.2911 47.4134 40.2378 46.7657 40.2378C45.9753 40.2378 45.6626 40.192 45.6571 40.0758C45.653 39.9869 45.6385 39.4818 45.6247 38.9535C45.6083 38.3194 45.5448 37.9747 45.4379 37.9388C45.3155 37.8977 45.276 38.2031 45.276 39.1907ZM52.6599 38.0282C52.6599 38.0953 52.907 38.1681 53.2091 38.1901L53.7582 38.2299L53.7373 39.1367C53.7257 39.6354 53.7117 40.0871 53.7062 40.1406C53.7007 40.1941 53.463 40.2378 53.178 40.2378C52.893 40.2378 52.6599 40.2961 52.6599 40.3673C52.6599 40.445 53.1806 40.4969 53.9629 40.4969C54.7986 40.4969 55.2372 40.4504 55.1859 40.3673C55.1419 40.2961 54.8762 40.2378 54.5953 40.2378H54.0848V39.2014V38.1651H54.5953C54.8762 38.1651 55.1419 38.1068 55.1859 38.0356C55.2372 37.9525 54.7986 37.906 53.9629 37.906C53.2336 37.906 52.6599 37.9598 52.6599 38.0282ZM59.7846 39.2014C59.7846 40.2436 59.8212 40.4969 59.9716 40.4969C60.0988 40.4969 60.171 40.3212 60.1982 39.9463L60.238 39.3958L61.376 39.3583C62.8392 39.31 62.7483 39.0719 61.2667 39.0719H60.1732V38.6185V38.1651H61.2667C61.8682 38.1651 62.3962 38.1068 62.4402 38.0356C62.4916 37.9523 62.0314 37.906 61.1524 37.906H59.7846V39.2014ZM67.1685 39.2014V40.4969H68.4715C69.3072 40.4969 69.7458 40.4504 69.6945 40.3673C69.6505 40.2961 69.1187 40.2378 68.5128 40.2378H67.4111L67.4518 39.8168L67.4923 39.3958L68.6258 39.3583C70.1249 39.3088 70.098 39.0719 68.5934 39.0719H67.4276V38.6185V38.1651H68.5934C69.2843 38.1651 69.7593 38.1124 69.7593 38.0356C69.7593 37.9579 69.2411 37.906 68.4639 37.906H67.1685V39.2014ZM81.6771 39.2014V40.4969H82.9725C83.7497 40.4969 84.2679 40.445 84.2679 40.3673C84.2679 40.2905 83.7902 40.2378 83.0939 40.2378H81.9197L81.9604 39.8168L82.0009 39.3958L83.1344 39.3583C83.7579 39.3377 84.2679 39.2671 84.2679 39.2014C84.2679 39.1358 83.7579 39.0652 83.1344 39.0446L82.0009 39.0071V38.6185V38.2299L83.1344 38.1924C84.7087 38.1405 84.5762 37.906 82.9725 37.906H81.6771V39.2014ZM88.9314 37.9983C88.9314 38.049 89.1729 38.3366 89.4681 38.6374L90.0048 39.1843L89.4585 39.805C88.7736 40.583 89.0127 40.7252 89.7649 39.9871L90.3145 39.4476L90.7885 39.9722C91.2337 40.465 91.5222 40.6304 91.5222 40.3927C91.5222 40.3354 91.3182 40.0909 91.0688 39.8492C90.8195 39.6074 90.6154 39.3572 90.6154 39.293C90.6154 39.2289 90.8529 38.9066 91.1432 38.5768C91.8164 37.812 91.5467 37.6563 90.8474 38.4059C90.5722 38.701 90.2975 38.9424 90.2372 38.9424C90.1768 38.9424 89.9168 38.7092 89.6593 38.4242C89.2275 37.9462 88.9314 37.773 88.9314 37.9983ZM96.1857 39.2014C96.1857 40.2665 96.2203 40.4969 96.38 40.4969C96.5239 40.4969 96.5743 40.3457 96.5743 39.9139V39.331H97.5301C98.5716 39.331 98.8089 39.1989 98.8089 38.6185C98.8089 38.0145 98.5847 37.906 97.3358 37.906H96.1857V39.2014ZM103.526 38.1327C103.492 38.2573 103.474 38.8258 103.485 39.3958L103.505 40.4321L104.843 40.4691C105.742 40.494 106.154 40.4621 106.098 40.372C106.051 40.2956 105.516 40.2378 104.857 40.2378H103.699V39.863C103.699 39.3894 103.857 39.331 105.135 39.331C106.57 39.331 106.425 39.0898 104.962 39.0444L103.764 39.0071V38.6185V38.2299L104.864 38.1918C106.475 38.136 106.504 37.906 104.9 37.906C103.759 37.906 103.579 37.9357 103.526 38.1327ZM110.824 39.2014C110.824 39.9787 110.876 40.4969 110.953 40.4969C111.025 40.4969 111.083 40.2928 111.083 40.0435C111.083 39.7941 111.127 39.5892 111.18 39.588C111.334 39.5849 112.698 40.2919 112.745 40.3997C112.769 40.4532 112.941 40.4969 113.127 40.4969C113.551 40.4969 113.423 40.3695 112.541 39.9143C111.777 39.5199 111.766 39.331 112.506 39.331C113.074 39.331 113.415 39.0676 113.415 38.6294C113.415 38.0823 113.041 37.906 111.882 37.906H110.824V39.2014ZM118.078 38.0356C118.078 38.1068 118.34 38.1651 118.661 38.1651H119.244V39.331C119.244 40.8356 119.481 40.8624 119.53 39.3634L119.568 38.2299L120.118 38.1901C121.195 38.1121 120.654 37.906 119.374 37.906C118.596 37.906 118.078 37.9579 118.078 38.0356ZM98.5001 38.3884C98.5794 38.5302 98.58 38.696 98.5019 38.8418C98.402 39.0284 98.2082 39.0719 97.4766 39.0719H96.5743V38.6185V38.1651H97.4746C98.1923 38.1651 98.4003 38.2105 98.5001 38.3884ZM113.07 38.4457C113.33 38.8595 112.958 39.0719 111.974 39.0719H111.083V38.6128V38.1537L112.009 38.1918C112.702 38.2203 112.968 38.2839 113.07 38.4457Z" fill="#3F4651"/>
<path fill-rule="evenodd" clip-rule="evenodd" d="M45.2744 39.1906V40.4967H46.5698C47.347 40.4967 47.8652 40.4449 47.8652 40.3672C47.8652 40.291 47.4118 40.2376 46.7641 40.2376C45.9736 40.2376 45.6609 40.1919 45.6555 40.0757C45.6513 39.9867 45.6368 39.4816 45.6231 38.9534C45.6066 38.3193 45.5432 37.9746 45.4363 37.9387C45.3139 37.8976 45.2744 38.2029 45.2744 39.1906ZM52.6582 38.0281C52.6582 38.0952 52.9054 38.168 53.2075 38.19L53.7566 38.2298L53.7356 39.1365C53.7241 39.6353 53.7101 40.087 53.7045 40.1405C53.6991 40.194 53.4614 40.2376 53.1764 40.2376C52.8914 40.2376 52.6582 40.2959 52.6582 40.3672C52.6582 40.4449 53.179 40.4967 53.9613 40.4967C54.7969 40.4967 55.2356 40.4502 55.1843 40.3672C55.1402 40.2959 54.8745 40.2376 54.5937 40.2376H54.0832V39.2013V38.165H54.5937C54.8745 38.165 55.1402 38.1067 55.1843 38.0354C55.2356 37.9524 54.7969 37.9059 53.9613 37.9059C53.2319 37.9059 52.6582 37.9597 52.6582 38.0281ZM59.783 39.2013C59.783 40.2435 59.8195 40.4967 59.9699 40.4967C60.0971 40.4967 60.1694 40.3211 60.1966 39.9462L60.2364 39.3956L61.3744 39.3582C62.8375 39.3099 62.7466 39.0718 61.265 39.0718H60.1716V38.6184V38.165H61.265C61.8665 38.165 62.3945 38.1067 62.4386 38.0354C62.49 37.9522 62.0297 37.9059 61.1508 37.9059H59.783V39.2013ZM67.1668 39.2013V40.4967H68.4699C69.3055 40.4967 69.7442 40.4502 69.6929 40.3672C69.6488 40.2959 69.1171 40.2376 68.5112 40.2376H67.4094L67.4501 39.8166L67.4907 39.3956L68.6242 39.3582C70.1232 39.3087 70.0964 39.0718 68.5918 39.0718H67.4259V38.6184V38.165H68.5918C69.2826 38.165 69.7576 38.1123 69.7576 38.0354C69.7576 37.9577 69.2395 37.9059 68.4622 37.9059H67.1668V39.2013ZM81.6754 39.2013V40.4967H82.9708C83.7481 40.4967 84.2663 40.4449 84.2663 40.3672C84.2663 40.2904 83.7885 40.2376 83.0922 40.2376H81.9181L81.9587 39.8166L81.9993 39.3956L83.1328 39.3582C83.7563 39.3376 84.2663 39.267 84.2663 39.2013C84.2663 39.1356 83.7563 39.065 83.1328 39.0444L81.9993 39.007V38.6184V38.2298L83.1328 38.1923C84.7071 38.1404 84.5746 37.9059 82.9708 37.9059H81.6754V39.2013ZM88.9297 37.9981C88.9297 38.0489 89.1712 38.3365 89.4664 38.6373L90.0031 39.1842L89.4568 39.8048C88.772 40.5829 89.0111 40.7251 89.7632 39.987L90.3129 39.4474L90.7868 39.9721C91.2321 40.4649 91.5206 40.6303 91.5206 40.3926C91.5206 40.3353 91.3165 40.0907 91.0672 39.849C90.8178 39.6073 90.6138 39.357 90.6138 39.2929C90.6138 39.2288 90.8512 38.9065 91.1415 38.5767C91.8147 37.8119 91.545 37.6562 90.8458 38.4058C90.5705 38.7009 90.2959 38.9422 90.2355 38.9422C90.1751 38.9422 89.9152 38.7091 89.6576 38.4241C89.2259 37.9461 88.9297 37.7729 88.9297 37.9981ZM96.184 39.2013C96.184 40.2664 96.2186 40.4967 96.3784 40.4967C96.5223 40.4967 96.5727 40.3456 96.5727 39.9138V39.3309H97.5284C98.5699 39.3309 98.8073 39.1987 98.8073 38.6184C98.8073 38.0143 98.583 37.9059 97.3341 37.9059H96.184V39.2013ZM103.524 38.1326C103.491 38.2572 103.472 38.8256 103.483 39.3956L103.503 40.432L104.841 40.469C105.74 40.4939 106.152 40.462 106.097 40.3719C106.05 40.2954 105.515 40.2376 104.856 40.2376H103.697V39.8629C103.697 39.3893 103.855 39.3309 105.133 39.3309C106.568 39.3309 106.423 39.0897 104.96 39.0443L103.762 39.007V38.6184V38.2298L104.863 38.1917C106.474 38.1358 106.502 37.9059 104.898 37.9059C103.758 37.9059 103.577 37.9356 103.524 38.1326ZM110.822 39.2013C110.822 39.9786 110.874 40.4967 110.952 40.4967C111.023 40.4967 111.081 40.2927 111.081 40.0433C111.081 39.794 111.125 39.589 111.178 39.5879C111.332 39.5848 112.696 40.2918 112.744 40.3996C112.768 40.4531 112.939 40.4967 113.126 40.4967C113.549 40.4967 113.421 40.3694 112.539 39.9142C111.775 39.5197 111.764 39.3309 112.505 39.3309C113.072 39.3309 113.413 39.0675 113.413 38.6293C113.413 38.0822 113.039 37.9059 111.881 37.9059H110.822V39.2013ZM118.077 38.0354C118.077 38.1067 118.339 38.165 118.659 38.165H119.242V39.3309C119.242 40.8355 119.479 40.8623 119.529 39.3632L119.566 38.2298L120.117 38.19C121.193 38.112 120.653 37.9059 119.372 37.9059C118.595 37.9059 118.077 37.9577 118.077 38.0354ZM98.4984 38.3883C98.5777 38.53 98.5784 38.6958 98.5002 38.8417C98.4004 39.0283 98.2066 39.0718 97.4749 39.0718H96.5727V38.6184V38.165H97.473C98.1906 38.165 98.3987 38.2103 98.4984 38.3883ZM113.068 38.4456C113.328 38.8593 112.956 39.0718 111.972 39.0718H111.081V38.6127V38.1536L112.007 38.1917C112.701 38.2202 112.966 38.2838 113.068 38.4456Z" fill="#E35B63"/>
<path fill-rule="evenodd" clip-rule="evenodd" d="M18.138 0.630944C16.5786 1.02099 15.3339 1.92687 14.6822 3.14637C13.3975 5.55001 14.3207 8.51495 16.7341 9.73666C17.4353 10.0916 17.5938 10.1194 18.9152 10.1194C20.2093 10.1194 20.4071 10.0865 21.069 9.7614C21.9774 9.31513 22.9104 8.33282 23.3471 7.36281C23.6253 6.74477 23.6809 6.42843 23.6822 5.45597C23.6835 4.4313 23.6362 4.18646 23.2916 3.43447C23.076 2.96385 22.6912 2.34827 22.4365 2.06639C21.9093 1.48281 20.8083 0.899742 19.7597 0.648951C18.9453 0.453991 18.8495 0.452954 18.138 0.630944Z" fill="#E35B63"/>
</svg>
