<svg width="442" height="41" viewBox="0 0 442 41" fill="none" xmlns="http://www.w3.org/2000/svg">
<path fill-rule="evenodd" clip-rule="evenodd" d="M52.8388 0.600737C52.7876 0.651466 52.2931 0.738393 51.74 0.793592C50.4747 0.92008 47.1265 1.78829 46.3806 2.18317C46.0711 2.34721 45.3653 2.7003 44.8122 2.96825C43.1746 3.76114 41.6581 4.84343 40.2309 6.23793C38.6402 7.79198 36.9043 10.2413 37.0761 10.6889C37.1432 10.8634 37.0922 10.9826 36.9628 10.9533C36.7036 10.8945 35.421 13.8969 35.0288 15.4814C34.4033 18.0069 34.2838 22.7254 34.7996 24.5259C34.9415 25.0209 35.0373 25.5439 35.0125 25.6878C34.9493 26.057 35.8376 28.5583 36.5056 29.892C37.1849 31.2483 38.4945 33.1912 39.4427 34.2496C40.0262 34.9006 40.1784 34.9737 40.3742 34.6965C40.5758 34.4112 40.5927 34.4145 40.4962 34.7207C40.3594 35.1538 40.4705 35.3192 41.4232 36.1022C41.833 36.439 42.2856 36.6475 42.4288 36.5655C42.5721 36.4837 42.6143 36.4991 42.5227 36.6001C42.3003 36.8455 43.4418 37.5993 45.4844 38.5555C47.7438 39.6135 49.0145 39.9854 51.4602 40.3045C55.2859 40.8037 61.2818 40.1315 61.8101 39.1444C61.9341 38.9127 62.1578 38.7245 62.3071 38.7263C62.4805 38.7285 62.4597 38.8049 62.2499 38.9377C62.0691 39.0521 61.9687 39.1931 62.0271 39.2515C62.1889 39.4132 65.2132 37.9598 66.3681 37.1653C66.9536 36.7624 67.3279 36.3559 67.2417 36.2162C67.1514 36.07 67.1943 36.0361 67.3485 36.1313C67.6752 36.3333 69.423 34.9055 69.2916 34.5441C69.2353 34.3897 69.324 34.326 69.5006 34.3937C69.6693 34.4585 69.9149 34.3104 70.0465 34.0648C70.1779 33.819 70.4152 33.4842 70.5737 33.3211C72.4473 31.3916 74.3435 26.7397 74.7619 23.0458C75.0238 20.7333 74.7549 17.1979 74.1779 15.3696C73.0563 11.8155 71.599 8.85484 71.1179 9.15229C70.9887 9.23207 70.9579 9.18313 71.0466 9.03943C71.1328 8.89998 70.8718 8.33526 70.4666 7.78461C69.7205 6.77048 69.2243 6.44665 69.4943 7.15015C69.5754 7.36134 69.5609 7.45298 69.4623 7.35331C69.3636 7.25386 69.2829 6.99529 69.2829 6.77897C69.2829 6.56264 68.7358 5.91813 68.0672 5.34648C66.807 4.26954 66.1022 3.94775 66.8459 4.78914L67.2716 5.27072L66.6264 4.85506C66.2718 4.62666 66.0957 4.40162 66.2353 4.35491C66.3752 4.30843 66.4894 4.19424 66.4894 4.10127C66.4894 3.81522 65.4002 3.41832 64.9837 3.5524C64.6887 3.64738 64.665 3.62548 64.8891 3.46503C65.2409 3.21317 63.0656 2.12015 61.0424 1.53196C58.822 0.886338 53.1948 0.247644 52.8388 0.600737ZM423.94 0.662635C423.211 0.757389 420.175 1.36905 419.497 1.55766C419.231 1.63185 419.168 1.7313 419.326 1.82896C419.464 1.91388 419.251 1.98562 418.853 1.9883C418.227 1.99255 414.534 3.63443 414.22 4.04853C414.158 4.13032 413.688 4.48118 413.176 4.82846C411.655 5.86025 408.705 9.11585 408.819 9.63745C408.856 9.80349 408.799 9.88596 408.693 9.82048C408.428 9.6569 407.018 12.3156 407.208 12.6218C407.292 12.7576 407.265 12.8099 407.149 12.738C406.943 12.6108 406.009 15.2744 405.819 16.5313C405.767 16.8756 405.653 17.5094 405.565 17.9396C405.478 18.3698 405.408 19.9788 405.41 21.5152C405.416 25.743 406.382 28.9192 408.708 32.3538C411.082 35.86 415.502 38.7663 420.029 39.7983C423.181 40.5166 423.672 40.5653 426.652 40.4549C429.993 40.3313 431.963 39.8475 434.415 38.5493C435.936 37.7439 437.696 36.4643 437.568 36.2571C437.511 36.1661 437.64 36.1056 437.854 36.1223C438.068 36.1391 438.218 36.0274 438.187 35.8736C438.156 35.7201 438.236 35.5943 438.364 35.5943C438.789 35.5943 439.526 34.7453 439.349 34.4594C439.237 34.2775 439.272 34.2416 439.452 34.3531C439.625 34.4597 440.029 34.1714 440.549 33.5711C441.682 32.2609 441.772 32.0718 441.437 31.6988C441.19 31.4233 440.993 31.5422 440.092 32.5107C439.512 33.1349 439.1 33.7474 439.177 33.8721C439.254 33.9968 439.208 34.0313 439.074 33.9484C438.813 33.787 437.541 34.9124 437.637 35.2197C437.669 35.3212 437.604 35.3475 437.492 35.2787C437.381 35.2099 437.05 35.3417 436.757 35.5719C435.816 36.313 434.028 37.2891 432.825 37.7202C432.029 38.0051 431.742 38.2018 431.931 38.3332C432.1 38.4512 431.947 38.4776 431.538 38.4011C431.17 38.3323 430.365 38.4081 429.751 38.5696C428.081 39.0088 424.149 38.8318 422.418 38.2398C420.756 37.6717 419.196 36.9063 418.551 36.3427C418.29 36.1154 417.756 35.6832 417.363 35.3822C416.633 34.8228 414.442 31.9762 414.442 31.5862C414.442 31.4675 414.313 31.2901 414.154 31.1918C413.874 31.0181 412.763 27.5587 412.202 25.113C411.787 23.2999 411.844 17.774 412.303 15.3696C413.461 9.30984 417.073 4.69974 421.928 3.08289C423.664 2.50498 426.223 2.29356 428.557 2.53514C430.32 2.71749 430.954 2.90366 432.697 3.75175C434.904 4.82533 436.932 6.58789 438.125 8.468C438.462 9.00032 438.793 9.38157 438.859 9.31497C438.926 9.2486 438.967 9.32659 438.951 9.48839C438.934 9.65019 439.163 10.5045 439.459 11.3871C439.844 12.5373 440.123 13.0245 440.443 13.1083C440.689 13.1724 440.955 13.1851 441.033 13.1364C441.112 13.0877 441.095 12.3131 440.995 11.4152C440.895 10.5173 440.71 8.87763 440.584 7.77142C440.458 6.66522 440.294 4.85505 440.218 3.74885C440.026 0.912928 439.57 0.199142 438.931 1.72951C438.407 2.98277 437.143 3.04735 433.722 1.99545C429.732 0.768114 426.507 0.328761 423.94 0.662635ZM55.8184 1.11897C55.2962 1.16613 54.4411 1.16613 53.9189 1.11897C53.3966 1.07204 53.8239 1.03338 54.8687 1.03338C55.9134 1.03338 56.3407 1.07204 55.8184 1.11897ZM425.899 1.11271C425.624 1.16568 425.121 1.16703 424.781 1.11585C424.442 1.06445 424.666 1.02109 425.281 1.01931C425.896 1.01774 426.174 1.05975 425.899 1.11271ZM427.12 1.09037C427.046 1.16456 426.853 1.1726 426.692 1.10802C426.514 1.03673 426.566 0.983766 426.827 0.973039C427.062 0.963429 427.194 1.01618 427.12 1.09037ZM58.5044 1.32547C58.3531 1.3867 58.0514 1.3905 57.834 1.33373C57.6165 1.27697 57.7403 1.22691 58.1091 1.22244C58.4778 1.21798 58.6557 1.26423 58.5044 1.32547ZM423.214 1.3268C423.06 1.38893 422.809 1.38893 422.655 1.3268C422.502 1.2649 422.627 1.21418 422.935 1.21418C423.242 1.21418 423.368 1.2649 423.214 1.3268ZM429.248 1.3268C429.094 1.38893 428.843 1.38893 428.689 1.3268C428.536 1.2649 428.661 1.21418 428.968 1.21418C429.276 1.21418 429.402 1.2649 429.248 1.3268ZM1.15986 1.5514C0.763863 1.94718 1.09952 2.25825 2.07232 2.39703C5.0859 2.82723 5.9664 3.47173 6.3662 5.54023C6.55056 6.49291 6.60487 11.0887 6.55548 21.5152C6.49 35.3002 6.46184 36.1921 6.07232 36.8234C5.49419 37.7604 4.26887 38.4945 3.05025 38.6338C1.35742 38.8271 1.0108 38.9379 1.0108 39.2859C1.0108 39.5748 2.94946 39.6191 16.2631 39.6341C24.6519 39.6434 31.6854 39.6839 31.8935 39.7239C32.1013 39.7641 32.42 39.681 32.6012 39.5393C33.0582 39.1824 34.564 34.596 34.381 34.1189C34.2876 33.8759 34.3202 33.787 34.4688 33.8791C34.5987 33.9593 34.7643 33.85 34.8364 33.6364C36.0589 30.0272 36.0618 30.0073 35.4023 30.0073C35.0686 30.0073 34.9701 30.1084 35.0646 30.3542C35.1377 30.545 35.1098 30.6467 35.0027 30.5806C34.8954 30.5142 34.6791 30.7705 34.5218 31.15C34.3647 31.5297 33.9939 32.197 33.698 32.6327C33.3331 33.1704 33.2404 33.475 33.4098 33.5798C33.5825 33.6864 33.5512 33.8241 33.3085 34.0254C33.0071 34.2755 32.9776 34.257 33.098 33.8938C33.1832 33.6375 32.9434 33.7888 32.4886 34.2782C31.3545 35.4988 30.0961 36.3666 28.6102 36.9523C27.3182 37.4619 27.0219 37.4833 20.4991 37.5383C16.1341 37.5749 13.7769 37.5177 13.8638 37.3769C13.938 37.2569 13.8536 37.1586 13.6761 37.1586C13.4987 37.1586 13.1659 36.8822 12.9366 36.544C12.5415 35.9614 12.5167 35.137 12.4579 20.7382C12.4117 9.40124 12.4633 5.37531 12.6618 4.87137C13.2846 3.28804 14.3644 2.62946 16.7366 2.38631C18.336 2.2225 18.741 1.78627 17.5201 1.54201C16.58 1.35407 1.34848 1.36256 1.15986 1.5514ZM25.258 1.54873C25.0122 1.6008 24.5789 1.69308 24.2951 1.75387C23.4713 1.93042 21.8538 3.57744 21.4399 4.6613C21.0184 5.76528 21.1157 7.6094 21.65 8.63918C23.1298 11.4919 27.0664 12.0865 29.4288 9.81422C30.0525 9.21441 30.9582 7.10121 30.9544 6.25446C30.9508 5.43721 29.8996 3.43553 29.1344 2.78969C28.3898 2.16082 26.623 1.38379 26.0402 1.42849C25.8558 1.44257 25.5038 1.49666 25.258 1.54873ZM49.617 1.62582C49.541 1.74873 49.3591 1.84773 49.2127 1.84594C49.0527 1.8437 49.0804 1.75588 49.2817 1.62582C49.711 1.34826 49.7884 1.34826 49.617 1.62582ZM53.0203 1.53732C52.9461 1.61152 52.7532 1.61956 52.5921 1.55497C52.4138 1.48368 52.4667 1.43072 52.7271 1.41999C52.9626 1.41038 53.0945 1.46313 53.0203 1.53732ZM55.595 1.55028C55.4414 1.61241 55.19 1.61241 55.0363 1.55028C54.8827 1.48838 55.0083 1.43766 55.3156 1.43766C55.6229 1.43766 55.7487 1.48838 55.595 1.55028ZM70.6673 1.55878C69.9618 1.74158 70.3784 2.11859 71.7516 2.54006C73.6664 3.12803 74.6278 4.21256 76.4878 7.88316C77.3285 9.54248 78.3026 11.5538 78.6526 12.3527C79.0023 13.1516 79.627 14.5434 80.0404 15.4454C80.4536 16.3476 80.7919 17.1771 80.7919 17.2891C80.7919 17.401 80.8925 17.4927 81.0154 17.4927C81.1383 17.4927 81.2389 17.6998 81.2389 17.9528C81.2389 18.2058 81.3383 18.3515 81.4599 18.2764C81.5868 18.198 81.6237 18.2885 81.5466 18.4896C81.4726 18.6818 81.5138 18.9636 81.6376 19.1158C81.7614 19.2677 82.1285 20.0271 82.4535 20.8032C82.7786 21.5794 83.4321 23.0376 83.9059 24.0437C85.8957 28.2696 86.8258 30.2874 86.8258 30.3783C86.8258 30.4315 87.1778 31.2269 87.608 32.1456C88.0382 33.0645 88.3901 33.9206 88.3901 34.048C88.3901 34.1754 88.5064 34.208 88.6483 34.1204C88.7899 34.0326 88.8476 34.0558 88.7759 34.1718C88.7041 34.2878 88.9902 35.1156 89.4116 36.0115C89.8331 36.9074 90.178 37.7392 90.178 37.8596C90.178 37.9803 90.2942 38.0071 90.4361 37.9195C90.5909 37.8237 90.6334 37.8578 90.5427 38.0049C90.319 38.3667 91.1221 40.0642 91.5157 40.0613C91.7018 40.0598 92.027 39.6828 92.2384 39.2233C92.4496 38.7636 93.0782 37.3979 93.6351 36.1883C94.1918 34.9784 94.6475 33.9557 94.6475 33.9155C94.6475 33.8753 95.1865 32.7029 95.8451 31.3102C96.5039 29.9177 97.3712 28.024 97.7726 27.1021C98.1739 26.1803 98.938 24.5138 99.4705 23.3987C100.684 20.8578 100.99 20.116 100.929 19.8597C100.903 19.748 100.977 19.5971 101.093 19.5245C101.341 19.3701 102.518 16.8783 104.851 11.5705C107.44 5.68192 108.725 3.54928 110.119 2.82834C110.733 2.51078 110.879 2.51302 111.768 2.85248C112.973 3.31285 113.536 4.07423 113.84 5.65644C114.101 7.01898 114.199 32.2868 113.953 34.7004C113.66 37.5669 112.667 38.4595 109.341 38.8479C108.467 38.9498 108.056 39.097 108.056 39.3073C108.056 39.5679 110.687 39.6222 124.705 39.6504C133.862 39.6687 141.48 39.6939 141.633 39.7062C141.967 39.7328 144.703 31.7286 144.638 30.9185C144.57 30.0677 144.157 30.143 143.83 31.0655C143.371 32.3637 141.712 34.7413 140.695 35.5581C140.192 35.9626 139.204 36.5637 138.5 36.8938L137.22 37.4938L129.398 37.5521C123.354 37.5973 121.449 37.545 121.018 37.3222C119.896 36.7432 119.845 36.3418 119.885 28.4359C119.915 22.6096 119.863 21.0891 119.632 20.9965C119.412 20.9083 119.409 20.8759 119.621 20.8625C119.775 20.8528 119.9 20.6365 119.9 20.382C119.9 19.9578 119.93 19.9491 120.257 20.2758C120.569 20.5874 121.442 20.63 127.14 20.611C133.939 20.5887 134.48 20.6517 135.399 21.576C135.627 21.8051 135.948 21.9405 136.114 21.877C136.304 21.804 136.371 21.8768 136.295 22.075C136.228 22.2473 136.331 22.6123 136.523 22.886C136.715 23.1598 136.938 23.9744 137.02 24.696C137.152 25.8665 137.219 26.0006 137.641 25.9405C138.107 25.8739 138.114 25.7921 138.163 19.9509C138.19 16.6937 138.158 13.8527 138.092 13.6377C138.025 13.4196 137.756 13.2482 137.484 13.25C137.087 13.2529 137.059 13.2938 137.332 13.4701C137.555 13.6144 137.574 13.6877 137.387 13.6902C137.234 13.692 137.108 13.9429 137.108 14.2478C137.108 15.1077 136.424 16.6479 135.748 17.3078C135.412 17.6363 135.203 17.9794 135.284 18.0699C135.366 18.1606 135.309 18.1638 135.158 18.0773C135.007 17.9906 134.477 18.029 133.981 18.1626C133.427 18.3117 130.524 18.4065 126.477 18.4076L119.876 18.4094L119.894 11.5846C119.904 7.83109 119.972 4.60409 120.045 4.41368C120.36 3.59196 121.301 3.51688 129.063 3.69388C138.081 3.8997 138.077 3.89948 137.768 4.09077C137.62 4.18195 137.843 4.43313 138.32 4.71493C139.363 5.33039 140.419 7.01675 140.596 8.3509C140.7 9.13262 140.847 9.43811 141.162 9.52035C141.57 9.62695 141.582 9.50202 141.464 6.5785C141.285 2.15635 141.201 1.65152 140.614 1.50693C139.898 1.33016 100.746 1.48659 100.566 1.66671C100.482 1.75074 100.486 1.93756 100.575 2.08171C100.695 2.27613 100.787 2.26563 100.929 2.04081C101.085 1.79544 101.122 1.80303 101.125 2.08104C101.127 2.30809 101.375 2.4424 101.855 2.47681C103.861 2.62096 104.834 3.40447 104.778 4.83293C104.74 5.82115 104.079 7.95065 103.242 9.78271C100.545 15.6885 100.231 16.4633 100.354 16.9047C100.448 17.2426 100.426 17.2929 100.277 17.0777C100.012 16.6953 100.14 16.4586 98.1123 21.0683C97.1658 23.2192 96.318 25.0797 96.2281 25.2026C96.1381 25.3255 95.833 25.9792 95.5501 26.6552C95.2672 27.3312 94.7932 28.4151 94.4969 29.0638C94.2008 29.7124 94.0289 30.366 94.1152 30.5164C94.2016 30.6666 94.1858 30.7108 94.0803 30.615C93.9748 30.5189 93.7652 30.6697 93.6144 30.9502L93.3404 31.4599L93.1247 30.9013C93.006 30.594 92.6579 29.7895 92.3508 29.1134C91.7372 27.7627 91.3213 26.8232 90.0758 23.9735C89.6193 22.9287 88.9922 21.5208 88.6822 20.8448C88.3725 20.1688 87.9646 19.2304 87.776 18.7595C87.5219 18.1249 87.3798 17.9803 87.2267 18.2009C87.0855 18.4038 87.0647 18.3396 87.1606 17.9982C87.2403 17.7144 87.155 17.231 86.9635 16.8808C86.778 16.5413 86.1505 15.1801 85.5692 13.8558C84.8425 12.2001 84.4502 11.537 84.3135 11.7328C84.1861 11.9154 84.1669 11.8331 84.2596 11.5039C84.3394 11.2215 84.3088 10.8695 84.1917 10.7218C84.0746 10.574 83.852 10.0509 83.6971 9.55924C83.5423 9.06759 83.3333 8.56074 83.2327 8.43314C83.1324 8.30531 82.7422 7.36582 82.3659 6.34497C81.7667 4.71963 81.7167 4.41525 81.963 3.89545C82.3152 3.15306 83.6171 2.50185 84.992 2.38095C86.3829 2.25849 86.6202 2.15591 86.4629 1.74605C86.3476 1.44526 85.3763 1.4057 78.7009 1.42827C74.5042 1.44257 70.8892 1.50134 70.6673 1.55878ZM172.473 1.54626C172.197 1.60704 171.97 1.78695 171.97 1.94562C171.97 2.13692 172.462 2.28485 173.425 2.38363C175.152 2.5604 175.921 2.82477 176.627 3.48448C177.802 4.58152 177.787 4.36296 177.792 20.3228C177.797 35.5109 177.745 36.5286 176.922 37.4703C176.341 38.1345 174.884 38.6867 173.277 38.8514C171.965 38.9857 171.816 39.0499 171.916 39.434C171.985 39.6986 172.155 39.8175 172.353 39.7413C172.532 39.6727 176.491 39.6168 181.151 39.6168C187.906 39.6168 189.625 39.5585 189.625 39.3297C189.625 39.1399 189.031 38.9627 187.879 38.8085C186.684 38.6485 185.915 38.4136 185.442 38.0639C185.035 37.7629 184.636 37.6239 184.472 37.7256C184.294 37.8355 184.249 37.8069 184.348 37.6467C184.433 37.5083 184.323 37.0654 184.103 36.6623C183.746 36.009 183.697 35.1723 183.649 28.9458C183.618 24.8772 183.68 21.9622 183.798 21.9622C183.91 21.9622 184.034 22.0558 184.075 22.1703C184.116 22.2847 185.256 22.4377 186.608 22.5106L189.066 22.6429L189.81 23.4758C190.22 23.9339 190.498 24.1275 190.428 23.906C190.349 23.6557 190.39 23.5585 190.537 23.6492C190.667 23.7294 190.717 23.9402 190.649 24.1174C190.521 24.4526 191.837 26.0824 192.058 25.8616C192.126 25.793 192.034 25.6435 191.853 25.5291C191.643 25.3964 191.623 25.3199 191.796 25.3177C191.945 25.3159 192.182 25.5275 192.321 25.7883C192.499 26.1213 192.502 26.217 192.329 26.1104C191.923 25.8596 192.052 26.3133 192.532 26.8288C192.778 27.0937 193.114 27.259 193.278 27.196C193.442 27.1332 193.705 27.2371 193.863 27.4271C194.057 27.6613 194.068 27.7726 193.898 27.7726C193.76 27.7726 193.648 27.672 193.648 27.5491C193.648 27.4262 193.547 27.3256 193.424 27.3256C193.04 27.3256 193.177 27.6331 193.928 28.4533C194.604 29.1921 197.894 33.0136 198.899 34.2282C199.145 34.5252 199.547 34.9956 199.793 35.2736C200.039 35.5516 200.944 36.6366 201.804 37.6847L203.369 39.5902L206.051 39.6157C207.525 39.6296 216.526 39.6358 226.052 39.6296L243.371 39.618L243.726 38.6675C243.921 38.145 244.139 37.5664 244.21 37.3821C244.281 37.1977 244.654 35.9909 245.04 34.7004C245.426 33.4098 245.827 32.1527 245.933 31.9069C246.353 30.9249 246.394 30.5958 246.116 30.4197C245.705 30.1589 245.495 30.1893 245.489 30.5102C245.486 30.6639 245.192 31.3886 244.834 32.1212C244.477 32.8535 244.235 33.5349 244.297 33.6353C244.359 33.7354 244.321 33.7899 244.213 33.7562C244.104 33.7224 243.509 34.2127 242.891 34.8461C241.627 36.1404 240.117 36.9874 238.439 37.3434C236.779 37.6954 223.137 37.7358 222.492 37.3903C221.456 36.8361 221.371 36.1514 221.359 28.2962C221.352 24.2593 221.362 20.856 221.379 20.7331C221.397 20.6102 221.394 20.4171 221.373 20.3042C221.351 20.1911 221.465 20.2063 221.626 20.3377C221.817 20.4942 224.214 20.5849 228.576 20.6003C235.56 20.6249 235.998 20.6801 237.137 21.6799C237.818 22.2773 238.187 23.0145 238.566 24.5322C238.79 25.4261 239.013 25.873 239.237 25.873C239.526 25.873 239.575 25.0126 239.594 19.5598C239.615 13.6656 239.59 13.2466 239.222 13.2466C238.929 13.2466 238.765 13.5358 238.586 14.3671C238.454 14.9835 238.179 15.8633 237.975 16.3225C237.771 16.7818 237.619 17.233 237.638 17.325C237.657 17.4173 237.597 17.477 237.505 17.4578C237.413 17.4388 236.885 17.6332 236.332 17.89C235.386 18.3289 234.917 18.3588 228.51 18.3879C224.761 18.4049 221.593 18.4116 221.47 18.4029C221.324 18.3924 221.285 15.9511 221.359 11.3184C221.47 4.26731 221.472 4.24898 221.979 3.91198C222.41 3.6266 223.609 3.57833 229.705 3.60046C236.238 3.62415 237.058 3.66885 238.364 4.07222C239.347 4.37593 240.024 4.75159 240.487 5.25083C241.371 6.20217 241.918 7.09653 241.922 7.596C241.925 7.93859 241.959 7.94752 242.16 7.65969C242.342 7.39956 242.362 7.44068 242.248 7.84339C242.043 8.57125 242.306 9.4475 242.731 9.4475C243.05 9.4475 243.07 9.04055 242.925 5.59253C242.835 3.47241 242.716 1.66023 242.66 1.56593C242.603 1.47162 235.173 1.39988 226.148 1.40658C209.995 1.41888 209.738 1.42603 209.738 1.85756C209.738 2.09892 209.864 2.30094 210.017 2.30675C210.171 2.31256 210.799 2.37805 211.414 2.45202C212.029 2.52621 212.883 2.58833 213.314 2.59034C213.744 2.59213 213.962 2.63839 213.799 2.69269C213.602 2.75884 213.761 3.02859 214.276 3.50012C215.546 4.66354 215.568 4.98266 215.499 21.3016C215.429 37.5881 215.493 36.9217 213.899 38.006C211.854 39.3974 209.541 38.4586 206.764 35.1095C206.296 34.5455 205.754 34.0967 205.559 34.1128C205.364 34.1287 205.161 33.9908 205.108 33.8064C205.023 33.5137 205.04 33.5128 205.239 33.8C205.365 33.9808 205.542 34.0543 205.633 33.9636C205.724 33.8726 205.447 33.423 205.019 32.9644C204.59 32.5056 203.778 31.5773 203.216 30.9013C202.653 30.2252 201.954 29.416 201.663 29.1032C201.372 28.7901 200.686 27.9855 200.139 27.3153C199.591 26.6449 198.988 25.9349 198.798 25.7374C198.608 25.54 197.799 24.5661 197 23.573C196.201 22.5801 195.426 21.8064 195.279 21.8536C195.091 21.9137 195.065 21.7926 195.192 21.448C195.296 21.1655 195.599 20.9277 195.907 20.8886C196.844 20.7693 199.235 19.9221 199.235 19.7091C199.235 19.5962 199.416 19.5039 199.638 19.5039C200.513 19.5039 203.667 17.0819 203.386 16.6262C203.311 16.5051 203.367 16.3335 203.511 16.2445C203.675 16.1435 203.713 16.1795 203.614 16.3406C203.526 16.4825 203.509 16.5987 203.575 16.5987C203.641 16.5987 204.014 15.9198 204.404 15.0903C205.002 13.8171 205.129 13.247 205.219 11.436C205.289 10.0165 205.228 8.99563 205.037 8.41906C204.879 7.93993 204.755 7.49767 204.762 7.43621C204.768 7.37475 204.585 6.95417 204.354 6.50163C203.898 5.60862 203.401 5.13842 203.616 5.80438C203.721 6.12932 203.702 6.14429 203.516 5.88259C203.39 5.70404 203.341 5.47029 203.407 5.36324C203.579 5.08501 202.628 4.12966 201.581 3.52806C200.315 2.80064 198.265 2.12618 196.441 1.83722C194.87 1.58805 173.463 1.32837 172.473 1.54626ZM247.561 1.54693C246.38 1.80504 247.505 2.51972 249.091 2.51972C249.579 2.51972 250.319 2.66207 250.735 2.83594C251.151 3.0098 251.55 3.09361 251.621 3.0221C251.693 2.95058 251.752 3.05987 251.752 3.26457C251.752 3.4695 251.902 3.63711 252.087 3.63711C252.271 3.63711 252.401 3.71242 252.376 3.80472C252.351 3.89701 252.477 4.37458 252.655 4.86623C252.928 5.61488 252.981 8.17435 252.981 20.6213C252.981 28.795 252.904 35.7572 252.81 36.0931C252.556 36.9995 251.391 38.2127 250.488 38.5109C250.051 38.655 249.126 38.7904 248.432 38.8119C247.34 38.8454 247.17 38.9098 247.17 39.2897C247.17 39.5949 247.306 39.7147 247.617 39.6828C247.863 39.6575 251.81 39.6278 256.389 39.6166C263.514 39.5994 264.713 39.5496 264.713 39.2713C264.713 39.0926 264.638 38.9417 264.546 38.9359C263.471 38.868 262.015 38.7028 261.495 38.59C260.529 38.3803 259.218 36.9331 259.056 35.8977C258.981 35.4235 258.911 32.2198 258.9 28.7782C258.875 21.109 258.863 21.5526 259.099 21.9253C259.249 22.1618 260.092 22.2026 263.174 22.1224C267.738 22.0035 268.55 21.8981 270.635 21.153C272.565 20.4638 273.674 19.8251 275.053 18.6105C278.4 15.6602 279.121 10.0111 276.616 6.34766C275.825 5.1905 274.463 3.89701 274.191 4.04317C274.118 4.08205 273.942 3.97344 273.799 3.80181C273.408 3.33005 271.017 2.35032 269.277 1.94784C268.016 1.65665 265.911 1.57621 257.897 1.51386C252.489 1.47162 247.838 1.48659 247.561 1.54693ZM276.402 1.54246C275.76 1.81287 276.447 2.2654 277.726 2.41402C280.432 2.728 281.366 3.5524 281.71 5.93087C281.821 6.69739 281.914 12.2211 281.916 18.2058C281.919 25.214 282 29.1362 282.144 29.2252C282.267 29.3012 282.368 29.707 282.368 30.1271C282.368 31.1721 283.344 33.6802 284.277 35.0347C285.257 36.4562 287.188 38.1374 287.64 37.9638C287.835 37.8889 287.919 37.9294 287.839 38.0588C287.635 38.3886 290.832 39.8343 291.905 39.8978C292.411 39.9275 292.78 40.0274 292.723 40.1197C292.667 40.212 292.652 40.2906 292.69 40.2946C292.728 40.2987 294.368 40.3579 296.335 40.4258C300.029 40.5539 304.282 40.1337 304.452 39.624C304.495 39.4957 304.628 39.4512 304.748 39.5254C305.299 39.8658 308.596 37.9953 310.097 36.4904C311.219 35.3652 312.841 32.5737 312.696 32.0177C312.631 31.7719 312.667 31.6255 312.775 31.6924C312.883 31.7589 313.033 31.5328 313.108 31.1898C313.184 30.8467 313.402 30.0632 313.594 29.4487C313.881 28.5279 313.966 26.345 314.082 17.0457C314.211 6.65561 314.255 5.69801 314.636 4.97797C315.65 3.0592 316.812 2.45224 319.403 2.48755C321.773 2.51995 322.798 2.99237 323.455 4.35603C323.906 5.29217 323.916 5.64505 323.944 20.5096C323.974 37.2263 324.014 36.7112 322.609 37.8932C321.923 38.4708 320.406 38.8633 318.611 38.9279C318.247 38.9408 318.113 39.0604 318.165 39.3274C318.229 39.6595 318.512 39.7015 320.36 39.6539C321.527 39.624 326.856 39.5721 332.203 39.5386C342.299 39.4756 342.531 39.4609 344.976 38.724C346.133 38.3756 346.451 38.1888 346.405 37.8849C346.373 37.6697 346.389 37.6196 346.442 37.7732C346.587 38.1949 346.908 38.118 348.122 37.3711C349.306 36.6426 349.618 36.4079 350.337 35.706C351.451 34.6172 352.781 32.1947 352.061 32.5659C351.894 32.652 351.915 32.5889 352.107 32.4262C352.656 31.9614 353.064 30.1403 352.914 28.8283C352.585 25.9553 352.076 24.8149 350.35 23.089C348.805 21.5441 346.731 20.5286 343.195 19.5853C342.715 19.4572 343.095 19.1175 343.886 18.9694C344.563 18.8422 346.375 17.9964 347.573 17.2484C347.844 17.0794 348.041 16.7885 348.012 16.6023C347.982 16.4115 348.105 16.2839 348.293 16.31C348.813 16.3822 349.999 14.6208 350.43 13.1349C350.957 11.3191 350.911 9.5047 350.296 7.85947C349.442 5.57509 346.861 3.3752 343.995 2.48822C340.928 1.53889 341.503 1.56861 324.381 1.47028C315.347 1.41844 307.529 1.43854 307.006 1.51475C305.529 1.73018 305.916 2.50252 307.509 2.51794C308.435 2.52688 309.67 3.01383 310.406 3.65968C311.851 4.92858 311.872 5.13507 311.81 17.4927L311.755 28.5547L311.03 30.6304C310.631 31.7721 309.968 33.2334 309.556 33.8777C308.727 35.1732 307.005 36.8006 305.898 37.3338C305.504 37.5238 305.244 37.7803 305.32 37.9039C305.404 38.0389 305.307 38.0701 305.079 37.9823C304.869 37.9021 304.526 37.9229 304.315 38.0286C303.607 38.3855 302.375 38.6762 301.475 38.6988C300.983 38.7111 300.346 38.7678 300.058 38.8248C299.77 38.882 298.714 38.8188 297.711 38.6847C296.708 38.5504 295.563 38.4338 295.165 38.4253C294.763 38.4168 294.559 38.3377 294.706 38.2467C294.87 38.1452 294.72 38.0228 294.312 37.9244C292.751 37.5481 290.83 36.1096 289.811 34.5535C289.623 34.2677 289.39 34.0833 289.292 34.1439C289.194 34.2045 289.162 34.0677 289.222 33.84C289.281 33.6125 289.188 33.2842 289.015 33.1108C288.841 32.9374 288.687 32.6459 288.673 32.4629C288.658 32.2801 288.471 31.5773 288.257 30.9013C287.913 29.8127 287.859 28.3069 287.786 17.7298C287.711 7.0335 287.741 5.68661 288.072 4.82019C288.613 3.40492 289.612 2.74119 291.642 2.44866C292.99 2.25446 293.318 2.13155 293.318 1.82002C293.318 1.45956 292.741 1.43251 284.994 1.43139C280.415 1.43072 276.549 1.48079 276.402 1.54246ZM354.718 1.56235C354.184 1.64347 353.811 2.26876 354.271 2.31189C356.209 2.49403 356.824 2.6194 357.605 2.99171C358.705 3.51598 359.151 4.12765 359.469 5.54627C359.786 6.95909 359.771 34.3044 359.453 35.788C359.094 37.4607 358.183 38.2049 355.921 38.6724C354.67 38.9312 354.111 39.1435 354.153 39.3438C354.242 39.761 385.614 39.7505 385.879 39.3332C385.976 39.182 386.264 38.4045 386.521 37.6055C386.777 36.8066 387.079 35.9518 387.192 35.706C387.687 34.6266 389.118 30.2342 389.011 30.1265C388.945 30.061 388.723 30.0073 388.517 30.0073C388.061 30.0073 386.859 32.1217 387.089 32.5208C387.177 32.6748 387.167 32.7259 387.067 32.6345C386.788 32.3827 386.266 33.2659 386.417 33.7325C386.502 33.9931 386.48 34.0456 386.357 33.8771C386.222 33.6911 385.847 33.9367 385.098 34.7024C383.877 35.9491 381.905 37.0153 380.144 37.381C379.367 37.5423 376.775 37.6076 372.909 37.5631C369.595 37.5251 366.925 37.56 366.975 37.6406C367.025 37.7213 366.845 37.7296 366.575 37.659C366.117 37.5392 366.112 37.5204 366.509 37.3814C366.867 37.2556 366.882 37.2002 366.603 37.0279C366.421 36.9154 366.095 36.5443 365.878 36.2032C365.511 35.626 365.484 34.5493 365.496 20.5988C365.508 7.71868 365.557 5.50024 365.849 4.80143C366.537 3.1544 367.533 2.56263 369.948 2.36508C371.617 2.22875 371.639 2.2196 371.458 1.74717C371.342 1.44436 370.351 1.40637 363.329 1.43587C358.931 1.45419 355.056 1.51118 354.718 1.56235ZM387.849 1.84482C387.849 2.17914 388.1 2.28038 389.245 2.40799C391.405 2.64867 392.375 3.16446 392.944 4.37503C393.42 5.38581 393.424 5.54336 393.45 20.5509C393.469 31.5321 393.405 35.8906 393.218 36.3764C392.61 37.9564 391.381 38.6521 389.022 38.7527C388.058 38.794 387.849 38.8747 387.849 39.207C387.849 39.59 388.304 39.6108 396.564 39.6061C403.741 39.6021 405.28 39.5478 405.28 39.2986C405.28 38.9214 403.653 38.5748 403.536 38.927C403.491 39.0606 403.357 39.1699 403.237 39.1699C403.117 39.1699 403.081 39.0693 403.157 38.9464C403.233 38.8228 403.064 38.7182 402.779 38.7122C401.518 38.6861 399.594 36.993 399.521 35.8457C399.508 35.6459 399.493 28.7715 399.488 20.5693C399.481 10.9242 399.558 5.44369 399.706 5.05484C399.832 4.72432 399.881 4.31514 399.816 4.14574C399.751 3.97612 399.783 3.88986 399.887 3.95377C399.99 4.01791 400.306 3.82482 400.587 3.52492C401.166 2.90879 402.011 2.59057 403.524 2.41849C404.867 2.26585 405.28 2.09847 405.28 1.70582C405.28 1.43429 403.979 1.3905 396.564 1.41196C388.288 1.43609 387.849 1.45798 387.849 1.84482ZM425.34 1.55587C425.126 1.61174 424.724 1.61374 424.446 1.56033C424.168 1.50692 424.342 1.46112 424.834 1.45866C425.326 1.4562 425.553 1.5 425.34 1.55587ZM430.533 1.62582C430.348 1.74493 430.097 1.84237 429.974 1.84237C429.851 1.84237 429.901 1.74493 430.086 1.62582C430.27 1.50671 430.522 1.40927 430.644 1.40927C430.767 1.40927 430.717 1.50671 430.533 1.62582ZM27.4928 2.09535C29.3226 2.59415 30.3712 4.24542 30.3084 6.52868C30.2527 8.55337 29.6484 9.59633 28.0673 10.3973C27.4 10.7354 26.5452 11.0112 26.1678 11.0105C24.0848 11.0067 22.2409 9.69376 21.6837 7.81768C21.2428 6.33357 21.2647 5.74002 21.8035 4.55247C22.8311 2.28753 24.9076 1.39072 27.4928 2.09535ZM61.5124 1.98428C61.4382 2.05847 61.2453 2.06651 61.0842 2.00193C60.9059 1.93064 60.9588 1.87767 61.2192 1.86695C61.4547 1.85734 61.5866 1.91008 61.5124 1.98428ZM172.804 1.98428C172.73 2.05847 172.537 2.06651 172.376 2.00193C172.197 1.93064 172.25 1.87767 172.511 1.86695C172.746 1.85734 172.878 1.91008 172.804 1.98428ZM421.705 2.07277C421.781 2.19568 421.737 2.29625 421.607 2.29625C421.477 2.29625 421.37 2.19568 421.37 2.07277C421.37 1.94986 421.414 1.8493 421.469 1.8493C421.523 1.8493 421.629 1.94986 421.705 2.07277ZM109.173 2.54364C109.173 2.86499 108.786 2.77293 108.65 2.41939C108.567 2.20284 108.633 2.13669 108.85 2.21982C109.028 2.28821 109.173 2.43391 109.173 2.54364ZM111.855 2.29625C112.04 2.41536 112.09 2.5128 111.967 2.5128C111.844 2.5128 111.593 2.41536 111.408 2.29625C111.224 2.17714 111.174 2.0797 111.296 2.0797C111.419 2.0797 111.671 2.17714 111.855 2.29625ZM317.617 2.20775C317.542 2.28195 317.349 2.28999 317.188 2.2254C317.01 2.15411 317.063 2.10115 317.323 2.09042C317.559 2.08081 317.691 2.13356 317.617 2.20775ZM51.1254 2.44419C50.9719 2.50631 50.7205 2.50631 50.5667 2.44419C50.4132 2.38228 50.5388 2.33156 50.8461 2.33156C51.1534 2.33156 51.2792 2.38228 51.1254 2.44419ZM58.8912 3.01338C63.7936 4.57839 67.1094 9.25039 68.0576 15.9283C68.412 18.4263 68.3669 23.5851 67.9742 25.4191C67.791 26.2757 67.6868 27.051 67.7431 27.1419C67.7995 27.2329 67.7487 27.4874 67.6305 27.7075C67.5123 27.9277 67.2486 28.6609 67.0448 29.3369C65.615 34.0746 62.4899 37.3014 58.2423 38.4259C56.618 38.8559 53.3141 38.9265 51.6859 38.566C50.1781 38.2322 47.9201 37.2263 46.8461 36.41C46.4282 36.0924 45.9852 35.8951 45.8617 35.9715C45.7381 36.0477 45.7019 36.0055 45.7808 35.8776C45.8599 35.7496 45.7749 35.5207 45.5919 35.3688C45.343 35.1621 45.2592 35.1589 45.2592 35.3567C45.2592 35.5017 45.1479 35.5518 45.0118 35.4678C44.8395 35.3612 44.8565 35.2579 45.0676 35.1267C45.3079 34.9777 45.2616 34.8327 44.8446 34.4284L44.3185 33.9182L44.4643 34.4769C44.5867 34.9457 44.5704 34.9723 44.3639 34.6427C44.2285 34.4266 44.1733 34.1598 44.2415 34.0496C44.3094 33.9394 44.0133 33.2265 43.5831 32.4656C43.1529 31.7044 42.8009 30.9895 42.8009 30.8767C42.8009 30.764 42.7077 30.497 42.5938 30.2836C41.6205 28.4604 40.7074 22.2022 40.9067 18.7218C40.9829 17.391 41.5941 13.6343 41.8885 12.6879C42.385 11.0914 43.061 9.51901 43.7435 8.3737C44.6426 6.86523 46.7408 4.74041 48.0589 4.00361C51.0725 2.31949 55.4606 1.91835 58.8912 3.01338ZM58.8307 2.43123C58.7565 2.50542 58.5636 2.51346 58.4025 2.44888C58.2242 2.37759 58.2771 2.32463 58.5375 2.3139C58.773 2.30429 58.9049 2.35703 58.8307 2.43123ZM175.932 2.43123C175.858 2.50542 175.665 2.51346 175.504 2.44888C175.326 2.37759 175.379 2.32463 175.639 2.3139C175.875 2.30429 176.007 2.35703 175.932 2.43123ZM189.564 2.43123C189.49 2.50542 189.297 2.51346 189.136 2.44888C188.958 2.37759 189.011 2.32463 189.271 2.3139C189.507 2.30429 189.639 2.35703 189.564 2.43123ZM262.646 2.45023C262.431 2.50655 262.079 2.50655 261.864 2.45023C261.649 2.39414 261.825 2.34809 262.255 2.34809C262.685 2.34809 262.861 2.39414 262.646 2.45023ZM289.743 2.51972C289.558 2.63884 289.307 2.73627 289.184 2.73627C289.061 2.73627 289.111 2.63884 289.296 2.51972C289.48 2.40061 289.731 2.30318 289.854 2.30318C289.977 2.30318 289.927 2.40061 289.743 2.51972ZM322.594 2.51972C322.594 2.64264 322.493 2.7432 322.37 2.7432C322.247 2.7432 322.147 2.64264 322.147 2.51972C322.147 2.39681 322.247 2.29625 322.37 2.29625C322.493 2.29625 322.594 2.39681 322.594 2.51972ZM337.18 2.44285C337.028 2.50408 336.727 2.50788 336.509 2.45112C336.292 2.39435 336.416 2.3443 336.784 2.33983C337.153 2.33536 337.331 2.38162 337.18 2.44285ZM357.842 2.43123C357.768 2.50542 357.575 2.51346 357.414 2.44888C357.236 2.37759 357.289 2.32463 357.549 2.3139C357.785 2.30429 357.917 2.35703 357.842 2.43123ZM422.651 2.43123C422.576 2.50542 422.383 2.51346 422.222 2.44888C422.044 2.37759 422.097 2.32463 422.357 2.3139C422.593 2.30429 422.725 2.35703 422.651 2.43123ZM431.538 2.51972C431.462 2.64264 431.3 2.7432 431.177 2.7432C431.054 2.7432 431.015 2.64264 431.091 2.51972C431.167 2.39681 431.33 2.29625 431.453 2.29625C431.576 2.29625 431.614 2.39681 431.538 2.51972ZM135.26 2.65471C135.185 2.7289 134.993 2.73694 134.831 2.67236C134.653 2.60107 134.706 2.5481 134.966 2.53737C135.202 2.52777 135.334 2.58051 135.26 2.65471ZM185.211 2.66766C185.058 2.72979 184.806 2.72979 184.653 2.66766C184.499 2.60576 184.625 2.55504 184.932 2.55504C185.239 2.55504 185.365 2.60576 185.211 2.66766ZM260.63 2.65471C260.556 2.7289 260.363 2.73694 260.202 2.67236C260.023 2.60107 260.076 2.5481 260.337 2.53737C260.572 2.52777 260.704 2.58051 260.63 2.65471ZM432.93 2.65471C432.856 2.7289 432.663 2.73694 432.502 2.67236C432.324 2.60107 432.377 2.5481 432.637 2.53737C432.873 2.52777 433.005 2.58051 432.93 2.65471ZM186.999 2.89114C186.846 2.95327 186.594 2.95327 186.44 2.89114C186.287 2.82924 186.413 2.77852 186.72 2.77852C187.027 2.77852 187.153 2.82924 186.999 2.89114ZM263.428 2.90478C263.029 2.95439 262.375 2.95439 261.976 2.90478C261.576 2.85539 261.903 2.81472 262.702 2.81472C263.501 2.81472 263.828 2.85539 263.428 2.90478ZM336.952 2.90097C336.676 2.95416 336.223 2.95416 335.946 2.90097C335.67 2.84756 335.896 2.80398 336.449 2.80398C337.002 2.80398 337.228 2.84756 336.952 2.90097ZM12.489 3.30189C12.4182 3.48626 12.3207 3.63711 12.2725 3.63711C12.2242 3.63711 12.1846 3.48626 12.1846 3.30189C12.1846 3.11752 12.2821 2.96668 12.4012 2.96668C12.5201 2.96668 12.5596 3.11752 12.489 3.30189ZM13.302 3.19015C13.302 3.31307 13.1954 3.41363 13.0654 3.41363C12.9353 3.41363 12.8908 3.31307 12.9668 3.19015C13.0428 3.06724 13.1492 2.96668 13.2035 2.96668C13.2578 2.96668 13.302 3.06724 13.302 3.19015ZM130.92 3.13362C129.421 3.17206 126.907 3.17227 125.333 3.13384C123.758 3.0954 124.984 3.06367 128.057 3.06367C131.13 3.06345 132.418 3.09496 130.92 3.13362ZM177.334 3.19015C177.334 3.31307 177.29 3.41363 177.235 3.41363C177.181 3.41363 177.075 3.31307 176.999 3.19015C176.923 3.06724 176.967 2.96668 177.097 2.96668C177.227 2.96668 177.334 3.06724 177.334 3.19015ZM223.533 3.10166C223.459 3.17585 223.266 3.18389 223.105 3.11931C222.926 3.04802 222.979 2.99505 223.24 2.98433C223.475 2.97472 223.607 3.02746 223.533 3.10166ZM232.812 3.13362C231.306 3.17228 228.842 3.17228 227.337 3.13362C225.831 3.09496 227.063 3.06322 230.074 3.06322C233.086 3.06322 234.317 3.09496 232.812 3.13362ZM252.422 3.19015C252.422 3.31307 252.378 3.41363 252.323 3.41363C252.269 3.41363 252.163 3.31307 252.087 3.19015C252.011 3.06724 252.055 2.96668 252.185 2.96668C252.315 2.96668 252.422 3.06724 252.422 3.19015ZM271.306 3.19015C271.23 3.31307 271.341 3.41363 271.553 3.41363C271.765 3.41363 271.884 3.46883 271.816 3.53632C271.749 3.60359 271.409 3.5875 271.061 3.50012C270.494 3.35799 270.474 3.32313 270.867 3.1696C271.463 2.93674 271.462 2.93673 271.306 3.19015ZM288.625 3.06523C288.625 3.11953 288.525 3.22591 288.402 3.30189C288.279 3.37787 288.178 3.33341 288.178 3.20334C288.178 3.07328 288.279 2.96668 288.402 2.96668C288.525 2.96668 288.625 3.01092 288.625 3.06523ZM339.07 3.10166C338.996 3.17585 338.803 3.18389 338.642 3.11931C338.464 3.04802 338.517 2.99505 338.777 2.98433C339.013 2.97472 339.144 3.02746 339.07 3.10166ZM436.399 3.11462C436.245 3.17674 435.994 3.17674 435.84 3.11462C435.687 3.05271 435.812 3.00199 436.12 3.00199C436.427 3.00199 436.553 3.05271 436.399 3.11462ZM45.2592 3.27999C45.2592 3.32938 44.9575 3.47508 44.5887 3.60358C43.8126 3.87421 43.6727 3.72136 44.4211 3.42056C44.9872 3.19306 45.2592 3.14747 45.2592 3.27999ZM265.942 3.5323C266.21 3.55465 266.733 3.76292 268.026 4.36229C271.596 6.01736 273.072 11.4161 271.127 15.7066C269.872 18.4735 267.745 19.7212 263.149 20.3851C261.103 20.6805 258.782 20.5898 258.813 20.2153C258.826 20.0698 258.851 16.405 258.869 12.0713L258.903 4.19156L259.406 3.85858C259.896 3.53364 264.968 3.1582 265.495 3.40782C265.618 3.46592 265.819 3.52202 265.942 3.5323ZM338.737 3.62213C339.113 3.75331 339.632 3.86148 339.89 3.86282C340.52 3.86573 342.472 4.80611 343.1 5.40928C343.379 5.67633 343.721 5.82382 343.861 5.73711C344.006 5.6475 344.056 5.67767 343.976 5.80684C343.898 5.93221 344.038 6.45404 344.286 6.96691C344.934 8.30867 345.234 10.2225 345.074 11.9846C344.932 13.536 344.254 15.4789 343.69 15.9466C343.521 16.0872 343.437 16.2917 343.504 16.4005C343.572 16.5096 343.482 16.5987 343.306 16.5987C343.129 16.5987 342.847 16.7659 342.678 16.9702C342.277 17.4556 340.221 18.3691 338.741 18.72C338.096 18.8728 335.94 19.017 333.95 19.0405C331.959 19.0639 330.249 19.1334 330.149 19.1949C330.05 19.2566 329.967 19.2255 329.964 19.1261C329.962 19.0266 329.956 15.6952 329.95 11.7229C329.938 3.96696 329.927 4.04473 331.109 3.54704C331.846 3.23663 337.8 3.29541 338.737 3.62213ZM178.09 3.76047C178.166 3.95936 178.128 4.04897 178.002 3.97075C177.88 3.89567 177.781 3.73968 177.781 3.62392C177.781 3.30256 177.941 3.37341 178.09 3.76047ZM192.898 3.8854C194.873 4.49348 195.389 4.76857 196.578 5.84439C197.522 6.69874 198.034 6.91461 197.451 6.21245C197.258 5.97959 197.248 5.87187 197.419 5.87187C197.557 5.87187 197.685 5.99769 197.703 6.15122C197.721 6.30497 197.757 6.58141 197.782 6.76578C197.807 6.95015 197.842 7.23263 197.861 7.39353C197.879 7.55443 197.969 7.63936 198.061 7.58259C198.153 7.52561 198.244 7.69566 198.261 7.96026C198.28 8.22507 198.414 8.89439 198.561 9.4475C198.903 10.7408 198.735 13.5143 198.237 14.8109C198.024 15.364 197.838 15.9853 197.824 16.1918C197.809 16.3981 197.744 16.5505 197.678 16.5306C197.612 16.5105 197.085 16.9572 196.506 17.523C195.928 18.0891 194.979 18.7752 194.399 19.0481C192.441 19.9683 188.223 20.6714 185.33 20.5599L183.703 20.4973L183.669 12.1641C183.651 7.5808 183.689 3.88428 183.755 3.94953C183.82 4.01479 184.084 3.92093 184.341 3.74103C184.7 3.48962 185.569 3.41363 188.087 3.41363C190.79 3.41363 191.635 3.49632 192.898 3.8854ZM314.353 3.92026C314.132 4.13927 314.106 4.11355 314.227 3.7951C314.312 3.57475 314.436 3.45073 314.505 3.51956C314.574 3.58817 314.506 3.76852 314.353 3.92026ZM437.559 3.61632C437.628 3.72761 437.483 3.76627 437.237 3.70191C436.715 3.56537 436.65 3.41363 437.112 3.41363C437.289 3.41363 437.49 3.50481 437.559 3.61632ZM24.2524 4.09725C24.2524 4.22731 24.3782 4.25837 24.5317 4.16608C24.7462 4.03713 24.7447 4.08004 24.525 4.35157C24.1531 4.81059 24.1824 8.77707 24.5574 8.77707C24.6969 8.77685 24.8305 8.42264 24.8542 7.98954C24.8779 7.55644 24.824 7.24737 24.7344 7.3028C24.645 7.358 24.5717 7.21698 24.5717 6.98926C24.5717 6.76153 24.6506 6.62388 24.7471 6.68354C24.8437 6.74344 24.9228 6.62946 24.9228 6.43056C24.9228 6.21424 24.8191 6.13289 24.6647 6.22831C24.4935 6.33424 24.468 6.28888 24.5891 6.09289C24.6893 5.93065 24.797 5.36213 24.828 4.82936C24.8698 4.11625 24.8012 3.86058 24.5686 3.86058C24.3947 3.86058 24.2524 3.96719 24.2524 4.09725ZM26.9254 4.34978C27.4358 4.89752 27.4861 5.11027 27.154 5.31542C27.0291 5.39274 26.9846 5.54939 27.0554 5.66381C27.1261 5.77823 27.0606 5.87187 26.9099 5.87187C26.7593 5.87187 26.6945 5.9302 26.766 6.00171C26.8373 6.07322 27.1055 6.01937 27.3618 5.88216C27.9545 5.56504 27.9627 4.74577 27.3786 4.24541C26.7314 3.69141 26.3861 3.77098 26.9254 4.34978ZM195.64 4.22352C195.692 4.26977 195.673 4.3681 195.599 4.44207C195.525 4.51604 195.232 4.40608 194.947 4.1978L194.43 3.81924L194.988 3.97947C195.296 4.06752 195.589 4.17748 195.64 4.22352ZM268.853 4.26441C268.785 4.33324 268.604 4.26463 268.453 4.11178C268.234 3.89098 268.259 3.86551 268.578 3.98663C268.798 4.07066 268.922 4.19558 268.853 4.26441ZM324.365 5.20144C324.364 5.38581 324.217 5.19832 324.037 4.78466C323.858 4.37123 323.715 3.96897 323.719 3.89076C323.735 3.60001 324.366 4.87941 324.365 5.20144ZM324.821 4.64275C324.821 4.76566 324.724 4.71538 324.605 4.53101C324.486 4.34665 324.388 4.09523 324.388 3.97232C324.388 3.84941 324.486 3.89969 324.605 4.08406C324.724 4.26843 324.821 4.51984 324.821 4.64275ZM328.78 4.34955C328.709 4.52766 328.656 4.4747 328.645 4.21435C328.635 3.9788 328.688 3.84695 328.762 3.92115C328.837 3.99534 328.845 4.1882 328.78 4.34955ZM342.036 4.08406C342.22 4.20317 342.271 4.30061 342.148 4.30061C342.025 4.30061 341.773 4.20317 341.589 4.08406C341.405 3.96495 341.354 3.86751 341.477 3.86751C341.6 3.86751 341.852 3.96495 342.036 4.08406ZM439.843 4.58688C439.781 4.74063 439.731 4.61482 439.731 4.30754C439.731 4.00026 439.781 3.87466 439.843 4.02819C439.905 4.18194 439.905 4.43335 439.843 4.58688ZM346.953 4.55738C346.953 4.68029 346.852 4.71873 346.729 4.64275C346.606 4.56677 346.506 4.40408 346.506 4.28117C346.506 4.15826 346.606 4.11982 346.729 4.1958C346.852 4.27178 346.953 4.43447 346.953 4.55738ZM177.933 4.7965C177.862 4.97461 177.809 4.92165 177.798 4.6613C177.789 4.42576 177.842 4.2939 177.916 4.3681C177.99 4.44229 177.998 4.63515 177.933 4.7965ZM287.66 4.7965C287.589 4.97461 287.536 4.92165 287.525 4.6613C287.516 4.42576 287.569 4.2939 287.643 4.3681C287.717 4.44229 287.725 4.63515 287.66 4.7965ZM394.035 4.7965C393.964 4.97461 393.911 4.92165 393.9 4.6613C393.891 4.42576 393.943 4.2939 394.018 4.3681C394.092 4.44229 394.1 4.63515 394.035 4.7965ZM329.446 5.48079C329.384 5.63454 329.333 5.50872 329.333 5.20144C329.333 4.89416 329.384 4.76857 329.446 4.9221C329.508 5.07585 329.508 5.32726 329.446 5.48079ZM107.386 5.42492C107.254 5.67074 107.096 5.87187 107.035 5.87187C106.973 5.87187 107.031 5.67074 107.162 5.42492C107.294 5.1791 107.452 4.97797 107.513 4.97797C107.574 4.97797 107.517 5.1791 107.386 5.42492ZM141.06 5.46693C140.988 5.64504 140.936 5.59208 140.925 5.33173C140.915 5.09619 140.968 4.96433 141.042 5.03853C141.116 5.11272 141.124 5.30558 141.06 5.46693ZM273.876 5.20144C273.876 5.32436 273.769 5.42492 273.639 5.42492C273.509 5.42492 273.464 5.32436 273.54 5.20144C273.616 5.07853 273.723 4.97797 273.777 4.97797C273.831 4.97797 273.876 5.07853 273.876 5.20144ZM42.2407 5.42246C42.3189 5.54895 42.2293 5.5865 42.0304 5.51029C41.6433 5.36168 41.5725 5.20144 41.8938 5.20144C42.0096 5.20144 42.1656 5.30089 42.2407 5.42246ZM399.17 6.15122C399.109 6.30497 399.058 6.17915 399.058 5.87187C399.058 5.56459 399.109 5.439 399.17 5.59253C399.233 5.74628 399.233 5.99769 399.17 6.15122ZM439.62 6.15122C439.558 6.30497 439.507 6.17915 439.507 5.87187C439.507 5.56459 439.558 5.439 439.62 5.59253C439.682 5.74628 439.682 5.99769 439.62 6.15122ZM394.259 6.13736C394.187 6.31547 394.134 6.26251 394.124 6.00216C394.114 5.76662 394.167 5.63476 394.241 5.70896C394.315 5.78315 394.323 5.97601 394.259 6.13736ZM398.73 6.48219C398.674 6.69963 398.624 6.57582 398.619 6.20709C398.615 5.83835 398.661 5.66047 398.722 5.81176C398.783 5.96306 398.787 6.26475 398.73 6.48219ZM140.636 6.7964C140.58 6.96379 140.479 6.86233 140.4 6.56018C140.303 6.18854 140.332 6.10116 140.498 6.26698C140.628 6.39704 140.69 6.63505 140.636 6.7964ZM25.957 6.59817C26.0489 6.75192 26.3546 7.12893 26.6364 7.43621C26.9184 7.74349 27.2854 8.18463 27.4521 8.41682C27.6188 8.64879 27.8689 8.79964 28.0077 8.75204C28.1471 8.70399 27.8635 8.22352 27.3734 7.67757C26.886 7.1343 26.4871 6.60644 26.4871 6.50432C26.4871 6.40241 26.3303 6.31883 26.1387 6.31883C25.9199 6.31883 25.8525 6.42274 25.957 6.59817ZM40.5662 6.6194C40.5662 6.66186 40.34 6.88801 40.0633 7.12222L39.5605 7.54795L39.9862 7.04513C40.3863 6.5727 40.5662 6.44061 40.5662 6.6194ZM204.368 7.32447C204.368 7.44738 204.27 7.3971 204.151 7.21273C204.032 7.02836 203.934 6.77695 203.934 6.65404C203.934 6.53113 204.032 6.58141 204.151 6.76578C204.27 6.95015 204.368 7.20156 204.368 7.32447ZM364.979 7.2686C364.917 7.42235 364.866 7.29654 364.866 6.98926C364.866 6.68198 364.917 6.55638 364.979 6.70991C365.041 6.86366 365.041 7.11507 364.979 7.2686ZM415.336 7.53476C415.336 7.58906 415.236 7.69544 415.113 7.77142C414.99 7.84741 414.889 7.80294 414.889 7.67288C414.889 7.54281 414.99 7.43621 415.113 7.43621C415.236 7.43621 415.336 7.48045 415.336 7.53476ZM345.317 8.37213C345.246 8.55024 345.193 8.49728 345.182 8.23693C345.173 8.00138 345.225 7.86953 345.3 7.94372C345.374 8.01792 345.382 8.21078 345.317 8.37213ZM414.62 8.54354C414.47 8.78378 414.304 8.93686 414.251 8.88411C414.156 8.78824 414.643 8.10664 414.807 8.10664C414.854 8.10664 414.771 8.3033 414.62 8.54354ZM272.535 8.55359C272.535 8.6765 272.428 8.77707 272.298 8.77707C272.168 8.77707 272.124 8.6765 272.2 8.55359C272.276 8.43068 272.382 8.33012 272.436 8.33012C272.491 8.33012 272.535 8.43068 272.535 8.55359ZM67.089 9.04256C67.0177 9.22067 66.9648 9.16771 66.954 8.90736C66.9444 8.67181 66.9972 8.53996 67.0714 8.61415C67.1456 8.68835 67.1536 8.88121 67.089 9.04256ZM350.239 9.94763C350.186 10.2256 350.14 10.0509 350.137 9.55924C350.135 9.06759 350.179 8.84008 350.235 9.05373C350.291 9.26737 350.293 9.66963 350.239 9.94763ZM78.0336 9.60639C78.0624 10.1032 78.0302 10.143 77.8539 9.82786C77.7357 9.61668 77.7008 9.34425 77.7761 9.22223C77.9735 8.90266 77.9947 8.93417 78.0336 9.60639ZM272.264 9.7016C272.208 9.86898 272.107 9.76752 272.028 9.46538C271.931 9.09374 271.96 9.00636 272.125 9.17218C272.255 9.30224 272.318 9.54025 272.264 9.7016ZM199.387 9.71299C199.316 9.8911 199.263 9.83814 199.252 9.57779C199.243 9.34224 199.295 9.21039 199.369 9.28458C199.444 9.35878 199.452 9.55164 199.387 9.71299ZM345.543 10.0578C345.486 10.2753 345.436 10.1514 345.432 9.78271C345.427 9.41398 345.474 9.23609 345.535 9.38739C345.596 9.53868 345.6 9.84037 345.543 10.0578ZM37.9121 10.848C37.6913 11.067 37.6659 11.0413 37.787 10.7229C37.871 10.5025 37.996 10.3785 38.0648 10.4473C38.1336 10.5159 38.065 10.6963 37.9121 10.848ZM277.157 11.0538C277.086 11.232 277.033 11.179 277.022 10.9186C277.012 10.6831 277.065 10.5512 277.139 10.6254C277.214 10.6996 277.222 10.8925 277.157 11.0538ZM78.9972 11.794C78.9972 11.9169 78.8998 11.8666 78.7806 11.6823C78.6615 11.4979 78.5641 11.2465 78.5641 11.1236C78.5641 11.0007 78.6615 11.0509 78.7806 11.2353C78.8998 11.4197 78.9972 11.6711 78.9972 11.794ZM102.845 12.1712C102.774 12.3493 102.721 12.2964 102.71 12.036C102.701 11.8005 102.753 11.6686 102.828 11.7428C102.902 11.817 102.91 12.0099 102.845 12.1712ZM272.459 12.4086C272.397 12.5623 272.347 12.4365 272.347 12.1292C272.347 11.8219 272.397 11.6963 272.459 11.8499C272.521 12.0036 272.521 12.255 272.459 12.4086ZM440.742 12.1712C440.671 12.3493 440.618 12.2964 440.607 12.036C440.597 11.8005 440.65 11.6686 440.724 11.7428C440.798 11.817 440.806 12.0099 440.742 12.1712ZM277.599 12.632C277.537 12.7858 277.487 12.66 277.487 12.3527C277.487 12.0454 277.537 11.9198 277.599 12.0733C277.661 12.2271 277.661 12.4785 277.599 12.632ZM277.137 13.1889C277.064 13.2616 277.004 13.1979 277.004 13.0473C277.004 12.8966 276.905 12.8347 276.783 12.9098C276.654 12.99 276.621 12.8933 276.705 12.675C276.837 12.3303 276.862 12.3308 277.058 12.6803C277.174 12.8873 277.209 13.1161 277.137 13.1889ZM79.7633 12.7623C79.8265 12.8649 79.7365 12.9487 79.5628 12.9487C79.3892 12.9487 79.2991 12.8649 79.3624 12.7623C79.4256 12.66 79.5159 12.5762 79.5628 12.5762C79.6097 12.5762 79.7 12.66 79.7633 12.7623ZM41.3892 13.2886C41.3179 13.4667 41.265 13.4138 41.2542 13.1534C41.2446 12.9179 41.2974 12.786 41.3716 12.8602C41.4458 12.9344 41.4538 13.1273 41.3892 13.2886ZM345.317 13.2886C345.246 13.4667 345.193 13.4138 345.182 13.1534C345.173 12.9179 345.225 12.786 345.3 12.8602C345.374 12.9344 345.382 13.1273 345.317 13.2886ZM277.604 13.5121C277.533 13.6902 277.48 13.6372 277.469 13.3769C277.459 13.1413 277.512 13.0095 277.586 13.0837C277.66 13.1579 277.669 13.3507 277.604 13.5121ZM36.0258 13.959C35.9545 14.1372 35.9015 14.0842 35.8908 13.8238C35.8812 13.5883 35.9339 13.4564 36.0081 13.5306C36.0823 13.6048 36.0904 13.7977 36.0258 13.959ZM68.4958 14.4786C68.5986 14.4154 68.6248 14.5843 68.5541 14.8545C68.4315 15.3231 68.4178 15.3258 68.2554 14.9106C68.1617 14.6715 68.0918 14.2746 68.0998 14.0288C68.1121 13.6567 68.1309 13.6665 68.212 14.088C68.2654 14.3662 68.3932 14.5421 68.4958 14.4786ZM73.4172 13.917C73.4172 14.0399 73.373 14.1405 73.3187 14.1405C73.2644 14.1405 73.158 14.0399 73.082 13.917C73.006 13.7941 73.0505 13.6936 73.1806 13.6936C73.3106 13.6936 73.4172 13.7941 73.4172 13.917ZM277.265 14.3443C277.428 14.111 277.465 14.1059 277.407 14.3249C277.269 14.8449 276.894 14.7193 276.856 14.1405L276.819 13.5818L276.932 14.1208C277.022 14.5499 277.09 14.5955 277.265 14.3443ZM406.648 14.7383C406.385 15.1913 406.321 15.0463 406.537 14.4844C406.613 14.2846 406.723 14.1682 406.781 14.2259C406.838 14.2833 406.779 14.5139 406.648 14.7383ZM203.921 15.3696C203.921 15.4925 203.823 15.4423 203.704 15.2579C203.585 15.0735 203.487 14.8221 203.487 14.6992C203.487 14.5763 203.585 14.6266 203.704 14.8109C203.823 14.9953 203.921 15.2467 203.921 15.3696ZM73.7933 15.7469C73.722 15.925 73.6691 15.872 73.6583 15.6117C73.6487 15.3761 73.7015 15.2443 73.7757 15.3185C73.8499 15.3926 73.8579 15.5855 73.7933 15.7469ZM85.4141 15.7469C85.3428 15.925 85.2898 15.872 85.2791 15.6117C85.2695 15.3761 85.3223 15.2443 85.3964 15.3185C85.4706 15.3926 85.4787 15.5855 85.4141 15.7469ZM406.326 16.1938C406.255 16.3719 406.202 16.319 406.191 16.0586C406.182 15.8231 406.235 15.6912 406.309 15.7654C406.383 15.8396 406.391 16.0325 406.326 16.1938ZM238.496 16.4173C238.424 16.5954 238.371 16.5424 238.361 16.2821C238.351 16.0465 238.404 15.9147 238.478 15.9889C238.552 16.0631 238.56 16.2559 238.496 16.4173ZM102.246 16.5987C102.114 16.8446 101.956 17.0457 101.895 17.0457C101.833 17.0457 101.891 16.8446 102.022 16.5987C102.154 16.3529 102.312 16.1518 102.373 16.1518C102.435 16.1518 102.377 16.3529 102.246 16.5987ZM344.271 16.3753C344.271 16.4982 344.227 16.5987 344.172 16.5987C344.118 16.5987 344.012 16.4982 343.936 16.3753C343.86 16.2524 343.904 16.1518 344.034 16.1518C344.164 16.1518 344.271 16.2524 344.271 16.3753ZM276.334 16.6832C276.334 16.7295 276.158 16.9056 275.943 17.0743C275.588 17.3521 275.581 17.3443 275.858 16.9898C276.15 16.6175 276.334 16.4993 276.334 16.6832ZM238.566 17.5771C238.566 17.6234 238.413 17.7885 238.226 17.9439C237.942 18.1801 237.909 18.1662 238.026 17.8594C238.147 17.5463 238.566 17.3266 238.566 17.5771ZM411.466 17.9816C411.395 18.1597 411.342 18.1068 411.331 17.8464C411.322 17.6109 411.375 17.479 411.449 17.5532C411.523 17.6274 411.531 17.8203 411.466 17.9816ZM329.446 18.8894C329.384 19.0431 329.333 18.9173 329.333 18.61C329.333 18.3028 329.384 18.1772 329.446 18.3307C329.508 18.4844 329.508 18.7359 329.446 18.8894ZM410.796 18.8755C410.725 19.0536 410.672 19.0007 410.661 18.7403C410.651 18.5048 410.704 18.3729 410.778 18.4471C410.853 18.5213 410.861 18.7142 410.796 18.8755ZM343.763 18.745C343.689 18.8192 343.496 18.8273 343.335 18.7627C343.157 18.6914 343.21 18.6384 343.47 18.6277C343.706 18.6181 343.837 18.6708 343.763 18.745ZM120.063 18.9685C119.989 19.0427 119.796 19.0507 119.635 18.9861C119.457 18.9149 119.51 18.8619 119.77 18.8512C120.006 18.8416 120.137 18.8943 120.063 18.9685ZM132.247 18.9815C132.094 19.0436 131.842 19.0436 131.689 18.9815C131.535 18.9196 131.661 18.8688 131.968 18.8688C132.275 18.8688 132.401 18.9196 132.247 18.9815ZM224.212 18.9933C223.876 19.0443 223.273 19.0451 222.871 18.9955C222.47 18.9457 222.744 18.9039 223.482 18.9028C224.219 18.9015 224.548 18.9421 224.212 18.9933ZM273.987 19.057C273.911 19.1799 273.73 19.2789 273.583 19.2771C273.423 19.2749 273.451 19.1871 273.652 19.057C274.082 18.7794 274.159 18.7794 273.987 19.057ZM339.07 19.192C338.996 19.2662 338.803 19.2742 338.642 19.2096C338.464 19.1383 338.517 19.0854 338.777 19.0746C339.013 19.065 339.144 19.1178 339.07 19.192ZM120.957 19.4154C120.883 19.4896 120.69 19.4977 120.529 19.4331C120.351 19.3618 120.404 19.3088 120.664 19.2981C120.899 19.2885 121.031 19.3413 120.957 19.4154ZM87.8314 19.7274C87.9074 19.8503 87.863 19.9509 87.7329 19.9509C87.6028 19.9509 87.4962 19.8503 87.4962 19.7274C87.4962 19.6045 87.5405 19.5039 87.5948 19.5039C87.6491 19.5039 87.7555 19.6045 87.8314 19.7274ZM339.23 19.7066C339.299 19.8179 339.154 19.8566 338.908 19.7922C338.386 19.6557 338.32 19.5039 338.782 19.5039C338.96 19.5039 339.161 19.5951 339.23 19.7066ZM83.0091 20.8316C82.9939 21.1326 82.9744 21.1344 82.8671 20.8448C82.7988 20.6604 82.6504 20.3085 82.5373 20.0626C82.3348 19.6228 82.3373 19.6226 82.6792 20.0494C82.8703 20.2881 83.0187 20.6401 83.0091 20.8316ZM411.469 20.7847C411.412 21.0021 411.362 20.8783 411.357 20.5096C411.353 20.1409 411.399 19.963 411.46 20.1143C411.522 20.2656 411.525 20.5673 411.469 20.7847ZM133.593 20.321C133.441 20.3822 133.14 20.386 132.922 20.3292C132.705 20.2725 132.828 20.2224 133.197 20.218C133.566 20.2135 133.744 20.2597 133.593 20.321ZM235.377 20.3094C235.303 20.3835 235.11 20.3916 234.949 20.327C234.771 20.2557 234.824 20.2028 235.084 20.192C235.319 20.1824 235.451 20.2352 235.377 20.3094ZM271.756 20.3907C271.368 20.5319 270.524 20.4577 270.524 20.2823C270.524 20.2477 270.901 20.2213 271.362 20.2242C271.969 20.228 272.078 20.2738 271.756 20.3907ZM99.7166 20.8868C99.6453 21.0649 99.5923 21.012 99.5816 20.7516C99.572 20.5161 99.6248 20.3842 99.6989 20.4584C99.7731 20.5326 99.7812 20.7255 99.7166 20.8868ZM337.066 20.5514C336.853 20.6073 336.45 20.6093 336.172 20.5558C335.894 20.5024 336.069 20.4566 336.561 20.4542C337.053 20.4517 337.28 20.4955 337.066 20.5514ZM263.982 20.7563C263.908 20.8305 263.715 20.8385 263.554 20.774C263.376 20.7027 263.429 20.6497 263.689 20.639C263.924 20.6294 264.056 20.6821 263.982 20.7563ZM339.112 21.1539C340.439 21.465 341.85 22.0364 343 22.7285C343.684 23.1408 344.309 23.4137 344.388 23.3348C344.467 23.2559 344.503 23.2919 344.468 23.4148C344.433 23.5377 344.722 24.1288 345.11 24.7284C346.034 26.1553 346.357 27.6879 346.224 30.0156C346.093 32.327 346.004 32.6971 345.287 33.9209C344.389 35.4517 342.143 37.1586 341.025 37.1586C340.691 37.1586 340.681 37.21 340.947 37.5497C341.219 37.8958 341.213 37.9088 340.897 37.6625C340.623 37.4487 340.24 37.44 339.236 37.6257C338.519 37.7584 336.343 37.8333 334.403 37.7922C331.204 37.7242 330.831 37.6746 330.418 37.2609C329.976 36.8191 329.962 36.5561 329.959 28.9923C329.958 24.6955 329.959 21.0795 329.962 20.9565C329.968 20.7273 338.033 20.9011 339.112 21.1539ZM237.226 21.0683C237.226 21.1912 237.181 21.2918 237.127 21.2918C237.073 21.2918 236.966 21.1912 236.89 21.0683C236.814 20.9454 236.859 20.8448 236.989 20.8448C237.119 20.8448 237.226 20.9454 237.226 21.0683ZM264.769 21.2162C264.615 21.2783 264.364 21.2783 264.21 21.2162C264.057 21.1543 264.182 21.1036 264.49 21.1036C264.797 21.1036 264.923 21.1543 264.769 21.2162ZM329.451 21.5572C329.379 21.7354 329.326 21.6824 329.316 21.422C329.306 21.1865 329.359 21.0546 329.433 21.1288C329.507 21.203 329.515 21.3959 329.451 21.5572ZM347.455 21.4397C347.302 21.5018 347.05 21.5018 346.897 21.4397C346.743 21.3778 346.869 21.3271 347.176 21.3271C347.483 21.3271 347.609 21.3778 347.455 21.4397ZM34.9084 22.2277C34.8371 22.4058 34.7841 22.3528 34.7734 22.0925C34.7638 21.8569 34.8165 21.7251 34.8907 21.7993C34.9649 21.8735 34.973 22.0663 34.9084 22.2277ZM137.101 22.9678C137.101 23.0907 137.004 23.0405 136.885 22.8561C136.765 22.6717 136.668 22.4203 136.668 22.2974C136.668 22.1745 136.765 22.2248 136.885 22.4091C137.004 22.5935 137.101 22.8449 137.101 22.9678ZM411.245 23.2429C411.188 23.4604 411.138 23.3366 411.134 22.9678C411.129 22.5991 411.176 22.4212 411.237 22.5725C411.298 22.7238 411.302 23.0255 411.245 23.2429ZM97.7762 23.1913C97.7762 23.3757 97.6787 23.5265 97.5596 23.5265C97.4407 23.5265 97.4012 23.3757 97.4718 23.1913C97.5426 23.0069 97.6401 22.8561 97.6883 22.8561C97.7366 22.8561 97.7762 23.0069 97.7762 23.1913ZM411.692 23.9134C411.635 24.1308 411.585 24.007 411.581 23.6383C411.576 23.2695 411.623 23.0916 411.684 23.2429C411.745 23.3942 411.749 23.6959 411.692 23.9134ZM406.103 24.0155C406.032 24.1936 405.979 24.1406 405.968 23.8803C405.958 23.6447 406.011 23.5129 406.085 23.5871C406.16 23.6613 406.168 23.8541 406.103 24.0155ZM345.612 24.197C345.612 24.3199 345.567 24.4204 345.513 24.4204C345.459 24.4204 345.352 24.3199 345.276 24.197C345.2 24.074 345.245 23.9735 345.375 23.9735C345.505 23.9735 345.612 24.074 345.612 24.197ZM84.7437 24.6859C84.6724 24.864 84.6194 24.8111 84.6087 24.5507C84.5991 24.3152 84.6518 24.1833 84.726 24.2575C84.8002 24.3317 84.8083 24.5246 84.7437 24.6859ZM40.9423 25.1329C40.871 25.311 40.818 25.258 40.8073 24.9977C40.7977 24.7621 40.8504 24.6303 40.9246 24.7045C40.9988 24.7787 41.0069 24.9715 40.9423 25.1329ZM96.9593 24.9887C96.8865 25.1785 96.779 25.2857 96.7205 25.2272C96.6619 25.1686 96.6802 25.0133 96.7613 24.8824C96.9817 24.5257 97.1104 24.595 96.9593 24.9887ZM197.699 25.035C197.977 25.3894 197.969 25.3972 197.614 25.1195C197.242 24.8274 197.124 24.6439 197.308 24.6439C197.354 24.6439 197.53 24.82 197.699 25.035ZM406.825 25.6496C406.832 25.7725 406.74 25.7222 406.621 25.5378C406.428 25.2399 406.403 25.2399 406.397 25.5378C406.391 25.8357 406.366 25.8357 406.174 25.5378C406.055 25.3534 405.957 25.102 405.957 24.9791C405.957 24.8562 406.055 24.9065 406.174 25.0909C406.354 25.3698 406.394 25.351 406.41 24.9791L406.429 24.5322L406.621 24.9791C406.726 25.2249 406.818 25.5266 406.825 25.6496ZM68.4252 25.5937C68.3633 25.7474 68.3126 25.6216 68.3126 25.3143C68.3126 25.0071 68.3633 24.8815 68.4252 25.035C68.4873 25.1887 68.4873 25.4402 68.4252 25.5937ZM68.8768 26.0268C68.8056 26.2049 68.7526 26.1519 68.7419 25.8916C68.7322 25.656 68.785 25.5242 68.8592 25.5984C68.9334 25.6726 68.9414 25.8654 68.8768 26.0268ZM41.3237 26.9904C41.4332 27.48 41.4125 27.5703 41.2469 27.3256C41.1219 27.1413 41.0185 26.7978 41.0165 26.562C41.012 25.9904 41.1398 26.1687 41.3237 26.9904ZM199.096 26.5551C199.173 26.754 199.135 26.8436 199.009 26.7654C198.887 26.6903 198.788 26.5343 198.788 26.4185C198.788 26.0972 198.948 26.168 199.096 26.5551ZM91.2522 27.4432C91.1834 27.512 91.0585 27.388 90.9744 27.1676C90.8533 26.8492 90.8788 26.8235 91.0996 27.0425C91.2524 27.1942 91.321 27.3746 91.2522 27.4432ZM406.773 27.8146C406.702 27.9927 406.649 27.9397 406.638 27.6794C406.629 27.4438 406.682 27.312 406.756 27.3862C406.83 27.4604 406.838 27.6532 406.773 27.8146ZM91.7231 28.7782C91.73 28.9011 91.6379 28.8509 91.5188 28.6665C91.3997 28.4821 91.3076 28.1804 91.3146 27.9961C91.3275 27.6421 91.6998 28.355 91.7231 28.7782ZM96.91 28.2792C96.6892 28.4982 96.6637 28.4725 96.7848 28.154C96.8688 27.9337 96.9938 27.8097 97.0626 27.8785C97.1314 27.9471 97.0628 28.1275 96.91 28.2792ZM412.875 28.9831C412.879 29.5548 412.751 29.3765 412.567 28.5547C412.458 28.0651 412.479 27.9748 412.644 28.2195C412.769 28.4039 412.873 28.7474 412.875 28.9831ZM311.866 29.0491C311.622 29.429 311.616 29.4283 311.738 29.0393C311.809 28.8142 311.875 28.5125 311.884 28.3688C311.897 28.1804 311.933 28.1831 312.012 28.3786C312.072 28.5277 312.007 28.8294 311.866 29.0491ZM352.335 29.1369C352.217 29.4312 352.114 29.5546 352.107 29.4111C352.088 29.0623 352.348 28.4006 352.46 28.5127C352.509 28.5617 352.453 28.8424 352.335 29.1369ZM95.6893 29.6163C95.6274 29.77 95.5767 29.6442 95.5767 29.3369C95.5767 29.0296 95.6274 28.904 95.6893 29.0576C95.7515 29.2113 95.7515 29.4627 95.6893 29.6163ZM195.435 29.1134C195.435 29.2363 195.391 29.3369 195.337 29.3369C195.283 29.3369 195.176 29.2363 195.1 29.1134C195.024 28.9905 195.069 28.89 195.199 28.89C195.329 28.89 195.435 28.9905 195.435 29.1134ZM287.666 30.0605C287.612 30.3385 287.567 30.1638 287.564 29.6721C287.562 29.1805 287.605 28.953 287.661 29.1666C287.717 29.3803 287.719 29.7825 287.666 30.0605ZM312.243 29.8259C312.172 30.004 312.119 29.951 312.108 29.6907C312.098 29.4551 312.151 29.3233 312.225 29.3975C312.299 29.4717 312.307 29.6645 312.243 29.8259ZM196.063 30.1249C195.994 30.1937 195.869 30.0697 195.785 29.8494C195.664 29.5309 195.689 29.5052 195.91 29.7242C196.063 29.8759 196.132 30.0563 196.063 30.1249ZM312.984 29.7839C312.984 29.9068 312.884 30.0073 312.761 30.0073C312.638 30.0073 312.537 29.9068 312.537 29.7839C312.537 29.661 312.638 29.5604 312.761 29.5604C312.884 29.5604 312.984 29.661 312.984 29.7839ZM413.187 29.9072C413.263 30.1061 413.226 30.1957 413.099 30.1175C412.978 30.0424 412.878 29.8864 412.878 29.7707C412.878 29.4493 413.038 29.5202 413.187 29.9072ZM202.392 30.3984C202.67 30.7529 202.662 30.7607 202.307 30.4829C201.935 30.1908 201.817 30.0073 202.001 30.0073C202.047 30.0073 202.223 30.1834 202.392 30.3984ZM311.933 30.701C311.763 30.8709 311.644 30.8599 311.522 30.6628C311.412 30.4838 311.442 30.442 311.609 30.5448C311.75 30.6324 311.867 30.5808 311.867 30.4302C311.867 30.2795 311.935 30.225 312.019 30.309C312.103 30.3931 312.064 30.5694 311.933 30.701ZM283.115 30.7991C283.042 30.9889 282.935 31.0961 282.876 31.0376C282.818 30.979 282.836 30.8237 282.917 30.6928C283.138 30.3361 283.266 30.4054 283.115 30.7991ZM408.413 30.7949C408.569 30.9821 408.651 31.1804 408.596 31.2351C408.541 31.2899 408.327 31.1368 408.119 30.8945C407.912 30.6525 407.83 30.4543 407.936 30.4543C408.043 30.4543 408.258 30.6076 408.413 30.7949ZM71.6191 31.1439C71.4819 31.4003 71.3132 31.5536 71.2441 31.4845C71.1753 31.4155 71.2459 31.2056 71.4015 31.0183C71.8033 30.5343 71.9119 30.5969 71.6191 31.1439ZM197.599 31.3902C197.528 31.5683 197.475 31.5154 197.464 31.255C197.455 31.0195 197.507 30.8876 197.582 30.9618C197.656 31.036 197.664 31.2289 197.599 31.3902ZM245.617 31.7744C245.126 32.7237 244.967 32.65 245.426 31.6863C245.63 31.2575 245.837 30.9466 245.886 30.9951C245.934 31.0436 245.813 31.3942 245.617 31.7744ZM388.358 31.5806C388.293 31.8311 388.189 31.9865 388.128 31.9254C388.007 31.8045 388.221 31.1247 388.379 31.1247C388.433 31.1247 388.424 31.3299 388.358 31.5806ZM88.4755 31.695C88.5517 31.8939 88.5142 31.9835 88.3877 31.9053C88.2661 31.8302 88.1667 31.6743 88.1667 31.5585C88.1667 31.2371 88.3269 31.308 88.4755 31.695ZM287.66 31.8372C287.589 32.0153 287.536 31.9623 287.525 31.702C287.516 31.4664 287.569 31.3346 287.643 31.4088C287.717 31.483 287.725 31.6758 287.66 31.8372ZM66.5665 32.14C66.4937 32.3297 66.3862 32.437 66.3276 32.3784C66.2691 32.3199 66.2874 32.1646 66.3685 32.0336C66.5889 31.6769 66.7176 31.7462 66.5665 32.14ZM283.327 32.2423C283.391 32.4884 283.352 32.6334 283.241 32.5644C283.129 32.4955 283.038 32.2944 283.038 32.1172C283.038 31.6546 283.19 31.7205 283.327 32.2423ZM441.077 32.2906C440.917 32.4508 440.813 32.464 440.813 32.3241C440.813 32.0258 441.077 31.7614 441.226 31.9107C441.29 31.9742 441.223 32.1451 441.077 32.2906ZM43.2479 32.3299C43.2479 32.3782 43.0919 32.4777 42.901 32.551C42.7021 32.6272 42.6125 32.5896 42.6907 32.4631C42.8219 32.2506 43.2479 32.1489 43.2479 32.3299ZM88.6067 33.2478C88.6067 33.3707 88.5093 33.3204 88.3901 33.136C88.271 32.9516 88.1736 32.7002 88.1736 32.5773C88.1736 32.4544 88.271 32.5047 88.3901 32.6891C88.5093 32.8734 88.6067 33.1248 88.6067 33.2478ZM311.806 32.6006C311.732 32.6748 311.539 32.6828 311.378 32.6182C311.2 32.5469 311.253 32.494 311.513 32.4832C311.748 32.4736 311.88 32.5264 311.806 32.6006ZM398.73 33.2994C398.674 33.5168 398.624 33.393 398.619 33.0243C398.615 32.6555 398.661 32.4777 398.722 32.629C398.783 32.7802 398.787 33.0819 398.73 33.2994ZM409.827 32.8104C409.754 33.0001 409.646 33.1074 409.588 33.0489C409.529 32.9903 409.547 32.835 409.629 32.704C409.849 32.3474 409.978 32.4167 409.827 32.8104ZM346.086 33.5103C345.822 33.9633 345.759 33.8183 345.975 33.2565C346.051 33.0567 346.161 32.9403 346.218 32.9979C346.276 33.0553 346.216 33.286 346.086 33.5103ZM439.935 33.6451L439.418 34.1417L439.81 33.5202C440.026 33.1783 440.259 32.9548 440.328 33.0236C440.396 33.0922 440.22 33.372 439.935 33.6451ZM39.6291 33.7005C39.5603 33.7693 39.4354 33.6453 39.3513 33.425C39.2302 33.1065 39.2557 33.0808 39.4765 33.2998C39.6293 33.4516 39.6979 33.6319 39.6291 33.7005ZM40.5662 33.3595C40.5662 33.4824 40.5219 33.583 40.4676 33.583C40.4133 33.583 40.3069 33.4824 40.2309 33.3595C40.155 33.2366 40.1994 33.136 40.3295 33.136C40.4596 33.136 40.5662 33.2366 40.5662 33.3595ZM414.47 34.0896C414.249 34.3086 414.224 34.2829 414.345 33.9644C414.429 33.7441 414.554 33.6201 414.623 33.6889C414.692 33.7575 414.623 33.9379 414.47 34.0896ZM244.712 34.7004C244.511 35.6168 244.33 35.4363 244.516 34.5048C244.595 34.1122 244.706 33.8375 244.763 33.8945C244.82 33.9515 244.797 34.314 244.712 34.7004ZM34.3088 34.4769C34.3088 34.5998 34.2082 34.7004 34.0853 34.7004C33.9624 34.7004 33.8619 34.5998 33.8619 34.4769C33.8619 34.354 33.9624 34.2534 34.0853 34.2534C34.2082 34.2534 34.3088 34.354 34.3088 34.4769ZM350.833 34.5886C350.762 34.773 350.544 34.9238 350.35 34.9238C350.063 34.9238 350.078 34.8615 350.43 34.5958C350.976 34.1828 350.988 34.1826 350.833 34.5886ZM360.067 34.7424C359.996 34.9205 359.943 34.8675 359.932 34.6072C359.922 34.3716 359.975 34.2398 360.049 34.314C360.123 34.3882 360.131 34.581 360.067 34.7424ZM394.031 34.9797C393.969 35.1334 393.918 35.0076 393.918 34.7004C393.918 34.3931 393.969 34.2675 394.031 34.421C394.093 34.5748 394.093 34.8262 394.031 34.9797ZM398.947 34.9797C398.885 35.1334 398.834 35.0076 398.834 34.7004C398.834 34.3931 398.885 34.2675 398.947 34.421C399.009 34.5748 399.009 34.8262 398.947 34.9797ZM310.777 35.0747C310.513 35.5277 310.45 35.3826 310.665 34.8208C310.742 34.621 310.852 34.5046 310.909 34.5622C310.967 34.6197 310.907 34.8503 310.777 35.0747ZM33.791 35.4128C33.7197 35.5909 33.6668 35.5379 33.656 35.2776C33.6464 35.042 33.6992 34.9102 33.7734 34.9844C33.8476 35.0586 33.8556 35.2514 33.791 35.4128ZM243.259 35.2318C243.259 35.278 243.084 35.4541 242.868 35.6229C242.514 35.9006 242.506 35.8928 242.784 35.5384C243.076 35.1661 243.259 35.0479 243.259 35.2318ZM393.647 36.3442C393.432 36.5427 393.402 36.5081 393.515 36.1905C393.594 35.9655 393.671 35.6638 393.685 35.5201C393.699 35.3766 393.759 35.4457 393.818 35.6738C393.877 35.902 393.8 36.2037 393.647 36.3442ZM44.7005 35.8177C44.7765 35.9406 44.732 36.0412 44.6019 36.0412C44.4719 36.0412 44.3653 35.9406 44.3653 35.8177C44.3653 35.6948 44.4095 35.5943 44.4638 35.5943C44.5181 35.5943 44.6245 35.6948 44.7005 35.8177ZM207.28 36.2647C207.411 36.5105 207.468 36.7116 207.407 36.7116C207.346 36.7116 207.188 36.5105 207.056 36.2647C206.925 36.0189 206.867 35.8177 206.929 35.8177C206.99 35.8177 207.148 36.0189 207.28 36.2647ZM243.412 36.3067C243.341 36.4848 243.288 36.4319 243.277 36.1715C243.267 35.936 243.32 35.8041 243.394 35.8783C243.469 35.9525 243.477 36.1453 243.412 36.3067ZM309.408 36.0173C309.408 36.127 309.263 36.2727 309.085 36.3411C308.868 36.4242 308.802 36.3581 308.885 36.1415C309.021 35.788 309.408 35.6959 309.408 36.0173ZM201.426 36.6057C201.357 36.6745 201.232 36.5505 201.148 36.3302C201.027 36.0117 201.053 35.986 201.274 36.205C201.426 36.3568 201.495 36.5371 201.426 36.6057ZM202.516 36.5302C202.445 36.7083 202.392 36.6553 202.381 36.395C202.371 36.1594 202.424 36.0276 202.498 36.1018C202.572 36.176 202.58 36.3688 202.516 36.5302ZM328.999 36.7675C328.937 36.9213 328.886 36.7954 328.886 36.4882C328.886 36.1809 328.937 36.0553 328.999 36.2088C329.061 36.3626 329.061 36.614 328.999 36.7675ZM287.154 36.6314C287.272 36.9382 287.239 36.9521 286.954 36.7159C286.566 36.3941 286.526 36.2647 286.813 36.2647C286.923 36.2647 287.076 36.4298 287.154 36.6314ZM348.74 36.576C348.74 36.6243 348.584 36.7237 348.393 36.797C348.195 36.8732 348.105 36.8357 348.183 36.7092C348.314 36.4967 348.74 36.395 348.74 36.576ZM140.237 36.9351C140.237 37.058 140.13 37.1586 140 37.1586C139.87 37.1586 139.826 37.058 139.901 36.9351C139.977 36.8122 140.084 36.7116 140.138 36.7116C140.192 36.7116 140.237 36.8122 140.237 36.9351ZM343.54 36.8466C343.466 36.9208 343.273 36.9289 343.112 36.8643C342.933 36.793 342.986 36.74 343.247 36.7293C343.482 36.7197 343.614 36.7724 343.54 36.8466ZM29.1624 37.3908C28.9816 37.5052 28.6828 37.5988 28.4984 37.5988C28.3136 37.5988 28.4139 37.4668 28.7219 37.3045C29.3315 36.9832 29.6945 37.0545 29.1624 37.3908ZM215.548 37.1586C215.548 37.2815 215.442 37.3821 215.312 37.3821C215.182 37.3821 215.137 37.2815 215.213 37.1586C215.289 37.0357 215.395 36.9351 215.45 36.9351C215.504 36.9351 215.548 37.0357 215.548 37.1586ZM240.801 37.1586C240.801 37.2815 240.701 37.3821 240.578 37.3821C240.455 37.3821 240.354 37.2815 240.354 37.1586C240.354 37.0357 240.455 36.9351 240.578 36.9351C240.701 36.9351 240.801 37.0357 240.801 37.1586ZM342.476 37.3908C342.296 37.5052 341.997 37.5988 341.813 37.5988C341.628 37.5988 341.728 37.4668 342.036 37.3045C342.646 36.9832 343.009 37.0545 342.476 37.3908ZM359.691 37.1586C359.691 37.2815 359.584 37.3821 359.454 37.3821C359.324 37.3821 359.279 37.2815 359.355 37.1586C359.431 37.0357 359.538 36.9351 359.592 36.9351C359.646 36.9351 359.691 37.0357 359.691 37.1586ZM381.531 37.5171C381.457 37.5912 381.264 37.5993 381.103 37.5347C380.924 37.4634 380.977 37.4104 381.238 37.3997C381.473 37.3901 381.605 37.4429 381.531 37.5171ZM307.844 37.829C307.844 37.9519 307.738 38.0525 307.607 38.0525C307.477 38.0525 307.433 37.9519 307.509 37.829C307.585 37.7061 307.691 37.6055 307.746 37.6055C307.8 37.6055 307.844 37.7061 307.844 37.829ZM46.0067 38.1739C45.9338 38.3636 45.8263 38.4708 45.7678 38.4123C45.7092 38.3537 45.7276 38.1984 45.8087 38.0675C46.029 37.7108 46.1578 37.7801 46.0067 38.1739ZM385.856 38.5229C385.739 38.8172 385.636 38.9406 385.628 38.7971C385.609 38.4483 385.87 37.7866 385.982 37.8988C386.031 37.9477 385.974 38.2284 385.856 38.5229ZM32.0032 38.7649C31.9319 38.9431 31.879 38.8901 31.8682 38.6297C31.8586 38.3942 31.9114 38.2623 31.9855 38.3365C32.0597 38.4107 32.0678 38.6036 32.0032 38.7649ZM289.413 38.6798C289.345 38.7486 289.164 38.68 289.012 38.5272C288.793 38.3064 288.819 38.2809 289.138 38.402C289.358 38.4861 289.482 38.611 289.413 38.6798ZM260.914 38.598C260.914 38.6523 260.813 38.7587 260.691 38.8347C260.568 38.9107 260.467 38.8662 260.467 38.7361C260.467 38.6061 260.568 38.4995 260.691 38.4995C260.813 38.4995 260.914 38.5437 260.914 38.598ZM342.818 38.7229C342.742 38.8458 342.56 38.9448 342.414 38.9431C342.254 38.9408 342.282 38.853 342.483 38.7229C342.912 38.4454 342.99 38.4454 342.818 38.7229ZM422.427 38.6344C422.353 38.7086 422.16 38.7167 421.999 38.6521C421.821 38.5808 421.873 38.5278 422.134 38.5171C422.369 38.5075 422.501 38.5602 422.427 38.6344ZM51.5165 38.9464C51.7009 39.0655 51.7512 39.163 51.6282 39.163C51.5053 39.163 51.2539 39.0655 51.0696 38.9464C50.8852 38.8273 50.8349 38.7299 50.9578 38.7299C51.0807 38.7299 51.3321 38.8273 51.5165 38.9464ZM430.421 38.9464C430.345 39.0693 430.163 39.1683 430.017 39.1665C429.857 39.1643 429.884 39.0765 430.086 38.9464C430.515 38.6688 430.592 38.6688 430.421 38.9464ZM174.592 39.0814C174.517 39.1556 174.324 39.1636 174.163 39.099C173.985 39.0277 174.038 38.9748 174.298 38.9641C174.534 38.9544 174.666 39.0072 174.592 39.0814ZM261.971 39.0814C261.897 39.1556 261.704 39.1636 261.543 39.099C261.364 39.0277 261.417 38.9748 261.678 38.9641C261.913 38.9544 262.045 39.0072 261.971 39.0814ZM302.197 39.0814C302.122 39.1556 301.93 39.1636 301.768 39.099C301.59 39.0277 301.643 38.9748 301.903 38.9641C302.139 38.9544 302.271 39.0072 302.197 39.0814ZM390.917 39.0814C390.843 39.1556 390.65 39.1636 390.489 39.099C390.31 39.0277 390.363 38.9748 390.624 38.9641C390.859 38.9544 390.991 39.0072 390.917 39.0814ZM431.366 39.0814C431.292 39.1556 431.099 39.1636 430.938 39.099C430.76 39.0277 430.813 38.9748 431.073 38.9641C431.308 38.9544 431.44 39.0072 431.366 39.0814ZM172.804 39.3049C172.73 39.3791 172.537 39.3871 172.376 39.3225C172.197 39.2512 172.25 39.1983 172.511 39.1875C172.746 39.1779 172.878 39.2307 172.804 39.3049ZM189.234 39.3178C189.08 39.3799 188.829 39.3799 188.675 39.3178C188.522 39.2559 188.647 39.2052 188.955 39.2052C189.262 39.2052 189.388 39.2559 189.234 39.3178ZM263.982 39.3049C263.908 39.3791 263.715 39.3871 263.554 39.3225C263.376 39.2512 263.429 39.1983 263.689 39.1875C263.924 39.1779 264.056 39.2307 263.982 39.3049ZM319.744 39.3178C319.591 39.3799 319.339 39.3799 319.186 39.3178C319.032 39.2559 319.158 39.2052 319.465 39.2052C319.772 39.2052 319.898 39.2559 319.744 39.3178ZM389.799 39.3049C389.725 39.3791 389.532 39.3871 389.371 39.3225C389.193 39.2512 389.246 39.1983 389.506 39.1875C389.742 39.1779 389.874 39.2307 389.799 39.3049ZM59.5011 39.7518C59.4269 39.826 59.234 39.8341 59.0729 39.7695C58.8946 39.6982 58.9475 39.6452 59.2079 39.6345C59.4434 39.6249 59.5753 39.6776 59.5011 39.7518ZM51.9029 39.9753C51.8287 40.0495 51.6358 40.0575 51.4747 39.9929C51.2964 39.9217 51.3493 39.8687 51.6097 39.858C51.8452 39.8484 51.9771 39.9011 51.9029 39.9753ZM58.0532 39.9981C57.7765 40.0513 57.3242 40.0513 57.0475 39.9981C56.7709 39.9447 56.9973 39.9011 57.5504 39.9011C58.1035 39.9011 58.3299 39.9447 58.0532 39.9981ZM301.526 39.9753C301.452 40.0495 301.259 40.0575 301.098 39.9929C300.92 39.9217 300.973 39.8687 301.233 39.858C301.469 39.8484 301.6 39.9011 301.526 39.9753ZM423.549 39.9943C423.334 40.0506 422.982 40.0506 422.767 39.9943C422.552 39.9382 422.728 39.8922 423.158 39.8922C423.588 39.8922 423.764 39.9382 423.549 39.9943ZM429.578 39.9753C429.504 40.0495 429.311 40.0575 429.15 39.9929C428.972 39.9217 429.025 39.8687 429.285 39.858C429.521 39.8484 429.652 39.9011 429.578 39.9753ZM297.508 40.2238C297.17 40.275 296.617 40.275 296.279 40.2238C295.941 40.1726 296.218 40.1308 296.894 40.1308C297.57 40.1308 297.846 40.1726 297.508 40.2238ZM427.795 40.2178C427.58 40.2741 427.228 40.2741 427.013 40.2178C426.798 40.1617 426.974 40.1156 427.404 40.1156C427.834 40.1156 428.01 40.1617 427.795 40.2178Z" fill="#3F4651"/>
</svg>
