<svg width="163" height="41" viewBox="0 0 163 41" fill="none" xmlns="http://www.w3.org/2000/svg">
<path fill-rule="evenodd" clip-rule="evenodd" d="M39.429 0.507973C37.0571 0.697843 34.9413 1.26148 33.0488 2.20754C31.6108 2.92643 30.4743 3.75044 29.1922 5.00369C27.8115 6.3533 26.8112 7.69968 25.9887 9.31551C25.0526 11.1543 24.533 12.8871 24.2735 15.0347C24.1708 15.8843 24.1709 17.6676 24.2737 18.5551C24.5337 20.7989 25.1772 22.934 26.0976 24.6069C28.0876 28.2239 31.6448 31.1867 35.4801 32.4217C37.7906 33.1657 40.8247 33.3466 43.334 32.8902C46.019 32.4017 48.3978 31.3203 50.5464 29.6114C51.2396 29.06 52.4987 27.7971 53.073 27.0773C54.6639 25.0832 55.6241 23.1775 56.1769 20.9171C56.5335 19.4589 56.6679 18.1478 56.6355 16.4426C56.5989 14.5132 56.3569 13.0506 55.8024 11.4067C55.4447 10.3461 55.1277 9.66077 54.4843 8.55676C53.7023 7.21474 53.1214 6.46661 51.9567 5.3014C50.3781 3.72197 49.0134 2.77041 47.0469 1.87769C45.8765 1.3464 45.0312 1.0635 43.8937 0.822372C42.8132 0.593325 42.1113 0.520987 40.816 0.505196C40.1705 0.497301 39.5464 0.498541 39.429 0.507973ZM99.3048 1.80287C96.7228 2.26613 94.5719 2.65539 94.525 2.66794C94.478 2.68044 96.6433 2.6929 99.3368 2.69564L104.234 2.70059V1.82571V0.95083L104.117 0.955696C104.052 0.958384 101.887 1.33962 99.3048 1.80287ZM41.3808 2.06137C43.4558 2.17643 45.0552 2.59675 46.8387 3.4957C47.9188 4.04013 48.8198 4.6251 49.6501 5.32112C51.4952 6.86757 52.7386 8.45579 53.8651 10.7045C55.533 14.0343 55.6222 18.7056 54.0907 22.522C53.6926 23.514 52.9158 24.8186 52.1115 25.8459C50.3046 28.1536 47.9993 29.8462 45.3596 30.8031C43.9206 31.3247 42.5124 31.5796 40.8374 31.6216C39.4913 31.6554 38.5472 31.5745 37.2468 31.314C33.0816 30.4798 28.848 26.9982 26.9777 22.869C26.0795 20.8859 25.6052 18.2305 25.749 15.9902C25.9205 13.3168 26.6854 11.0215 28.1435 8.8048C29.5254 6.70381 31.6165 4.78463 33.753 3.65638C35.5525 2.70609 37.7562 2.14233 40.0478 2.04588C40.2004 2.03944 40.3924 2.03086 40.4746 2.0268C40.5568 2.02271 40.9645 2.03828 41.3808 2.06137ZM0.998413 17.0827V29.8431H11.3903H21.7821V29.0323V28.2214H12.2438H2.70549V16.2719V4.32231H1.85195H0.998413V17.0827ZM21.8295 4.50369C21.4903 5.29697 19.9043 9.4747 19.9043 9.57503C19.9043 9.59731 20.2088 9.61425 20.6084 9.61425H21.3125L22.6142 7.01109C23.3302 5.57936 23.9159 4.38867 23.9159 4.36512C23.9159 4.33772 23.5548 4.32231 22.9115 4.32231H21.9071L21.8295 4.50369ZM87.6753 17.0827V29.8431L99.8276 29.8427L111.98 29.8423L113.987 26.1619L115.994 22.4814H124.248H132.502L134.492 26.1516L136.483 29.8218L137.413 29.8333C138.151 29.8424 138.338 29.8337 138.321 29.7906C138.309 29.7608 135.341 24.0231 131.725 17.04L125.151 4.34365L124.41 4.33204L123.67 4.32043L116.929 17.057C111.372 27.555 110.181 29.7773 110.151 29.701C110.131 29.6501 110.128 29.2964 110.143 28.9149L110.172 28.2214H99.7985H89.4251V22.9721V17.7229H97.8751H106.325V16.8907V16.0585H97.8751H89.4251V11.0013V5.94403H99.7742H110.123V5.13317V4.32231H98.8994H87.6753V17.0827ZM139.685 4.34988C139.669 4.36601 139.656 10.1086 139.656 17.1112V29.8431H150.048H160.44V29.0323V28.2214H150.923H141.406L141.395 16.2825L141.384 4.34365L140.549 4.33208C140.09 4.32577 139.701 4.33375 139.685 4.34988ZM58.8684 17.1041V29.8431H59.7006H60.5328V24.1458V18.4484L67.7132 18.4489L74.8936 18.4494L78.9198 24.1463L82.9459 29.8431H83.9913H85.0366L84.8894 29.6404C84.4058 28.9747 77.0809 18.5561 77.0623 18.5075C77.0437 18.459 77.1384 18.4483 77.5883 18.4483C79.1128 18.4478 80.6503 18.1419 81.6591 17.6382C82.2279 17.3541 82.7032 17.017 83.1737 16.5639C84.1078 15.6641 84.6935 14.5421 85.0191 13.0284C85.1261 12.5312 85.1339 12.4238 85.1338 11.4494C85.1336 10.2802 85.0858 9.94773 84.7907 9.0621C84.3602 7.77031 83.5039 6.5413 82.5117 5.79087C81.805 5.25638 80.9276 4.82808 80.0744 4.60099C79.1465 4.35398 79.6951 4.3655 68.8441 4.36524L58.8684 4.36499V17.1041ZM79.2039 6.05892C80.6105 6.3883 81.8129 7.20262 82.5403 8.31854C83.5359 9.84595 83.7254 12.1015 83.0062 13.8654C82.3769 15.4089 81.2099 16.3446 79.5027 16.6743C78.7489 16.8199 78.3014 16.8267 69.4051 16.8267H60.5328V11.3839V5.94126L69.6763 5.95513C78.8012 5.96896 78.8206 5.96917 79.2039 6.05892ZM127.514 12.6763C129.25 16.0739 130.897 19.3003 131.175 19.8461L131.681 20.8383H124.249C118.064 20.8383 116.82 20.8287 116.831 20.7812C116.854 20.6863 124.306 6.49883 124.333 6.49883C124.347 6.49883 125.778 9.27873 127.514 12.6763ZM157.176 31.51C156.036 31.687 154.911 32.267 154.527 32.8766C154.12 33.5215 154.142 34.5904 154.574 35.1448C155.071 35.7839 155.91 36.0093 158.033 36.0748C159.617 36.1236 160.086 36.1945 160.628 36.4663C161.324 36.8152 161.532 37.1092 161.498 37.6955C161.45 38.5135 160.865 39.0461 159.757 39.2807C159.119 39.4156 157.99 39.418 157.423 39.2857C156.444 39.0577 155.603 38.5596 155.037 37.8738C154.908 37.7172 154.789 37.589 154.772 37.589C154.69 37.589 153.697 38.06 153.697 38.0988C153.697 38.1924 154.048 38.6672 154.325 38.9499C155.207 39.8477 156.372 40.3213 158.071 40.4723C159.863 40.6317 161.512 40.0904 162.344 39.0699C162.595 38.7611 162.694 38.5609 162.768 38.214C162.883 37.671 162.814 37.052 162.587 36.5868C162.347 36.0964 161.647 35.5255 160.945 35.248C160.284 34.9864 160.068 34.9577 158.476 34.9196C156.948 34.8829 156.652 34.8507 156.166 34.6681C155.884 34.5623 155.601 34.3679 155.526 34.2295C155.438 34.0655 155.458 33.6443 155.564 33.4423C155.777 33.0378 156.32 32.7483 157.123 32.6112C157.816 32.493 158.899 32.5148 159.458 32.6582C159.984 32.7933 160.693 33.1534 161.082 33.4824L161.404 33.7552L161.847 33.5169C162.09 33.3858 162.296 33.2579 162.305 33.2327C162.333 33.146 161.799 32.6182 161.445 32.3829C160.877 32.0053 160.289 31.7737 159.415 31.5846C158.954 31.4849 157.623 31.4405 157.176 31.51ZM134.872 33.267C134.423 34.1653 133.442 36.1151 132.692 37.5997L131.327 40.299H132.013H132.699L133.212 39.2747L133.724 38.2505H136.403H139.081L139.592 39.2747L140.103 40.299H140.816H141.529L139.384 35.9779L137.239 31.6569L136.464 31.6453L135.688 31.6336L134.872 33.267ZM151.435 35.9662V40.299H152.096H152.758L152.747 35.9779L152.736 31.6569L152.086 31.6451L151.435 31.6333V35.9662ZM124.804 35.9886V40.299H125.423H126.042V38.5919V36.8848H128.023C130.118 36.8848 130.445 36.8633 130.996 36.689C131.599 36.4985 132.257 35.9685 132.54 35.4454C132.706 35.1392 132.828 34.6288 132.828 34.2389C132.828 33.8525 132.705 33.333 132.553 33.0757C132.29 32.6287 131.842 32.203 131.382 31.9619C130.832 31.6738 130.891 31.6782 127.689 31.6782H124.804V35.9886ZM142.131 35.9886V40.299H142.771H143.411V38.1651V36.0313L145.044 36.0334L146.676 36.0356L148.043 38.1566L149.41 40.2776L150.107 40.2894C150.659 40.2987 150.8 40.2898 150.783 40.2467C150.772 40.2168 150.392 39.6162 149.94 38.912C149.488 38.2078 148.901 37.2723 148.635 36.8331L148.152 36.0345L148.31 36.0103C149.263 35.8645 149.938 35.5289 150.28 35.0317C150.662 34.4773 150.684 33.6116 150.335 32.874C150.192 32.5718 149.7 32.0803 149.381 31.9211C148.886 31.6744 148.966 31.6793 145.407 31.6787L142.131 31.6782V35.9886ZM130.701 32.8373C131.011 32.9825 131.31 33.259 131.455 33.533C131.559 33.7298 131.569 33.7898 131.569 34.2389C131.569 34.6874 131.559 34.7481 131.455 34.9439C131.316 35.2084 130.971 35.5371 130.703 35.6609C130.505 35.7521 130.46 35.7541 128.272 35.766L126.042 35.7781V34.2375V32.697L128.25 32.7104L130.459 32.7238L130.701 32.8373ZM136.889 33.5667C137.128 34.042 137.616 35.0454 137.972 35.7966L138.621 37.1622L136.443 37.1733C135.245 37.1794 134.258 37.1776 134.25 37.1694C134.235 37.1541 136.419 32.7025 136.442 32.7025C136.449 32.7025 136.65 33.0914 136.889 33.5667ZM148.538 32.7459C149.197 32.8703 149.554 33.4448 149.369 34.0822C149.28 34.3863 149.119 34.5718 148.802 34.7319L148.554 34.8577L145.961 34.8699L143.369 34.8821V33.8207C143.369 33.237 143.382 32.7466 143.397 32.731C143.444 32.6837 148.283 32.6978 148.538 32.7459Z" fill="#3F4651"/>
</svg>
