<svg width="159" height="41" viewBox="0 0 159 41" fill="none" xmlns="http://www.w3.org/2000/svg">
<path fill-rule="evenodd" clip-rule="evenodd" d="M7.25327 34.9862C5.72606 35.2419 4.84491 36.0681 4.68821 37.3915C4.54311 38.6167 5.18739 39.7332 6.32079 40.2208C6.8176 40.4345 7.14861 40.4841 8.04124 40.4787C9.40359 40.4703 9.9794 40.306 10.5563 39.7613C11.0109 39.332 11.3376 38.742 11.1762 38.6422C11.0572 38.5687 9.47053 38.2024 9.44699 38.243C8.99217 39.0309 8.45988 39.3397 7.77716 39.2117C6.79336 39.0271 6.44177 37.4587 7.18941 36.5902C7.43622 36.3034 7.55058 36.2653 8.14602 36.271C8.73412 36.2768 8.85912 36.3203 9.10404 36.6051L9.38574 36.9325L10.2363 36.8006C10.7041 36.728 11.1084 36.6471 11.1348 36.6206C11.2312 36.5242 10.6564 35.7297 10.3137 35.4856C9.664 35.023 8.33204 34.8056 7.25327 34.9862ZM33.5303 35.0812C32.6777 35.321 32.4683 35.448 32.2002 35.8877C31.9104 36.3631 31.9107 36.6395 32.202 37.1171C32.5026 37.6102 33.0996 37.9056 34.3295 38.1699C34.9248 38.2979 35.4434 38.4852 35.6182 38.6355L35.9105 38.887L35.6548 39.1427C35.2 39.5975 34.1377 39.4245 33.8774 38.8532C33.7572 38.5896 33.685 38.5706 32.8069 38.5706C32.289 38.5706 31.8338 38.6214 31.7954 38.6836C31.6757 38.8775 32.0382 39.5721 32.4319 39.9034C32.9457 40.3357 33.5688 40.4801 34.9358 40.4833C35.9293 40.4857 36.1894 40.4431 36.7494 40.1867C37.5108 39.8382 37.8815 39.3337 37.8821 38.6453C37.8825 38.2737 37.799 38.1044 37.4364 37.7418C36.9695 37.2749 36.6236 37.1394 35.1679 36.8537C34.683 36.7585 34.204 36.5969 34.1036 36.4949C33.9388 36.3273 33.9432 36.2926 34.1504 36.139C34.5764 35.8233 35.4897 36.0147 35.6017 36.4433C35.6696 36.7029 35.9377 36.7323 37.0336 36.6008C37.6399 36.528 37.6602 36.5139 37.5861 36.2174C37.477 35.78 37.192 35.4964 36.5914 35.2278C35.8957 34.9167 34.3743 34.8438 33.5303 35.0812ZM71.1137 34.9732C70.2877 35.2787 70.0455 35.4422 69.8692 35.8139C69.6588 36.2574 69.7519 36.7575 70.121 37.1653C70.2945 37.357 70.2743 37.389 69.8387 37.6112C68.4062 38.3421 68.4079 39.7087 69.8419 40.2836C70.5718 40.5761 72.4135 40.5482 73.3164 40.2309C73.9951 39.9924 73.9961 39.9924 74.3944 40.2275C74.9223 40.5389 74.9979 40.5271 75.528 40.0495C76.0259 39.6011 76.0212 39.5004 75.4918 39.2812C75.087 39.1135 75.0488 38.9297 75.3295 38.5012C75.5755 38.1257 75.4727 38.0262 74.6943 37.8868C74.1362 37.7869 74.0614 37.7994 73.9165 38.0176C73.7578 38.2566 73.7518 38.2556 73.3067 37.916C72.8955 37.6025 72.8758 37.5626 73.0777 37.451C73.5516 37.1887 74.1884 36.4638 74.1884 36.1864C74.1884 35.8091 73.9013 35.4186 73.4536 35.187C73.0871 34.9976 71.4519 34.8481 71.1137 34.9732ZM94.8995 35.0245C94.114 35.1902 93.3999 35.5809 93.0541 36.0344C92.3303 36.9832 92.3909 38.6396 93.1813 39.5145C93.8104 40.2108 94.5904 40.4876 95.9554 40.4987C96.9937 40.5072 97.1622 40.4761 97.7946 40.1601C98.221 39.9471 98.594 39.6565 98.7569 39.4104C99.196 38.7474 99.1306 38.6353 98.1688 38.4031C97.5671 38.2579 97.3015 38.236 97.2705 38.329C97.1591 38.663 96.6273 39.1384 96.2893 39.206C95.2194 39.42 94.5733 38.7571 94.6735 37.5481C94.736 36.7939 95.0552 36.3844 95.67 36.269C96.1778 36.1738 96.8552 36.3843 97.0177 36.6879C97.0845 36.8127 97.2261 36.9149 97.3322 36.9149C97.8092 36.9149 99.023 36.6425 99.023 36.5354C99.023 36.2392 98.273 35.5075 97.7297 35.2738C97.052 34.9822 95.6747 34.861 94.8995 35.0245ZM19.9158 35.994C19.6667 36.5331 19.1104 37.7119 18.6797 38.6136C18.2491 39.5153 17.8967 40.3024 17.8967 40.3626C17.8967 40.4238 18.3516 40.4569 18.9309 40.4378L19.965 40.4036L20.1735 39.9601L20.382 39.5166H21.5055H22.629L22.8183 39.9897L23.0075 40.4627H24.0591C24.8222 40.4627 25.1102 40.4222 25.1091 40.3149C25.1083 40.2337 24.5609 39.0229 23.8927 37.6245L22.6778 35.0819L21.5234 35.048L20.3689 35.014L19.9158 35.994ZM45.2147 37.7427V40.472L46.2495 40.4378L47.2843 40.4036L47.3183 39.3053L47.3524 38.207L48.4418 38.241L49.5312 38.2749L49.5653 39.3733L49.5993 40.4718L50.6296 40.4377L51.6599 40.4036V37.7427V35.0819L50.6302 35.0478L49.6005 35.0137L49.5659 35.9348L49.5312 36.8558L48.4424 36.8897L47.3535 36.9237L47.3189 36.0028L47.2843 35.0819L46.2495 35.0477L45.2147 35.0135V37.7427ZM108.088 35.3437C107.649 36.1928 105.764 40.2572 105.764 40.3537C105.764 40.4136 106.215 40.4627 106.767 40.4627H107.769L108.013 39.9854L108.256 39.5083L109.395 39.542L110.533 39.5758L110.672 39.9897L110.81 40.4036L111.894 40.4377C112.719 40.4636 112.976 40.4353 112.97 40.3194C112.966 40.2356 112.42 39.0229 111.756 37.6245L110.549 35.0819L109.404 35.0481L108.258 35.0144L108.088 35.3437ZM120.011 35.1648C119.978 35.2525 119.965 36.4671 119.982 37.864L120.014 40.4036L121.049 40.4378L122.084 40.472V39.41C122.084 38.8259 122.132 38.3178 122.192 38.2811C122.454 38.1195 122.939 38.5011 123.493 39.3041C123.821 39.7787 124.146 40.2337 124.215 40.3149C124.361 40.4876 126.578 40.5272 126.578 40.3571C126.578 40.1008 125.29 38.3778 124.99 38.2325L124.658 38.0717L125.125 37.8629C126.358 37.3107 126.449 35.8995 125.289 35.3043C124.925 35.1176 124.513 35.0798 122.468 35.0455C120.539 35.0132 120.061 35.0364 120.011 35.1648ZM133.612 35.163C133.578 35.2517 133.565 36.4671 133.582 37.864L133.614 40.4036L134.649 40.4378L135.684 40.472V39.41C135.684 38.8259 135.737 38.3152 135.801 38.2753C136.067 38.1114 136.597 38.5664 137.213 39.4871L137.866 40.4627H139.022C139.658 40.4627 140.177 40.4259 140.177 40.3809C140.177 40.1328 138.906 38.4122 138.609 38.2588L138.262 38.0794L138.734 37.846C139.375 37.5289 139.594 37.2571 139.671 36.688C139.749 36.1033 139.394 35.5011 138.828 35.2585C138.283 35.0248 133.697 34.9408 133.612 35.163ZM146.564 35.0998C146.564 35.1421 147.109 35.8197 147.776 36.6058L148.988 38.0348L149.047 39.2192L149.106 40.4036L150.141 40.4378L151.176 40.472V39.363V38.2541L152.477 36.689C153.192 35.8282 153.777 35.1012 153.777 35.0734C153.777 35.0456 153.275 35.0228 152.661 35.0228H151.544L150.976 35.7561C150.663 36.1595 150.351 36.5637 150.282 36.6544C150.183 36.7852 150.017 36.6331 149.481 35.9211L148.805 35.0228H147.684C147.068 35.0228 146.564 35.0574 146.564 35.0998ZM72.5813 36.043C72.663 36.2557 72.4947 36.5089 72.1483 36.6943C71.7678 36.8979 71.2446 36.2321 71.5473 35.9295C71.715 35.7617 72.5068 35.8487 72.5813 36.043ZM123.828 36.3502C124.049 36.5307 124.006 36.8903 123.747 37.029C123.621 37.0963 123.196 37.1514 122.801 37.1514H122.084V36.687C122.084 36.3507 122.137 36.2122 122.278 36.1844C122.63 36.1153 123.677 36.2272 123.828 36.3502ZM137.428 36.3526C137.649 36.5296 137.606 36.8903 137.347 37.029C137.221 37.0963 136.795 37.1514 136.401 37.1514H135.684V36.6882C135.684 36.4335 135.747 36.2038 135.825 36.1778C136.068 36.0969 137.273 36.2282 137.428 36.3526ZM21.8483 37.4316C22.0165 37.8784 22.154 38.2643 22.154 38.289C22.154 38.3138 21.8613 38.334 21.5036 38.334C21.1459 38.334 20.8532 38.2953 20.8532 38.2478C20.8532 38.1076 21.4671 36.5432 21.5066 36.583C21.5264 36.603 21.6803 36.9848 21.8483 37.4316ZM109.681 37.3333C110.091 38.4106 110.114 38.334 109.379 38.334C109.017 38.334 108.72 38.2942 108.72 38.2454C108.72 37.9998 109.265 36.6824 109.354 36.7122C109.411 36.7312 109.558 37.0106 109.681 37.3333ZM71.9664 38.7159L72.6794 39.216L72.34 39.361C71.6114 39.6722 70.6406 39.4181 70.6406 38.9164C70.6406 38.7315 71.0568 38.2158 71.2059 38.2158C71.232 38.2158 71.5743 38.4408 71.9664 38.7159Z" fill="#0237A9"/>
<path fill-rule="evenodd" clip-rule="evenodd" d="M1.05701 0.610809C1.02129 0.66852 0.993976 7.40165 0.996223 15.5732L1.00024 30.4307L5.22213 30.3997L9.44389 30.3686L9.50302 21.2625C9.53554 16.2542 9.59491 12.2364 9.63488 12.3339C9.67485 12.4315 10.1717 13.8151 10.7391 15.4087C11.3065 17.0022 11.8713 18.5721 11.9942 18.8974C12.2508 19.576 13.7153 23.6758 14.2968 25.3425C15.0385 27.4691 15.7438 29.4246 15.9284 29.8666L16.1135 30.3094H20.2545C24.0782 30.3094 24.4038 30.2936 24.5036 30.1025C24.5631 29.9887 24.9139 29.0174 25.2835 27.9442C25.653 26.871 26.0821 25.647 26.2373 25.2243C26.3923 24.8015 26.8181 23.6041 27.1834 22.5634C27.5487 21.5227 28.1595 19.7932 28.5409 18.72C28.9221 17.6468 29.5881 15.7575 30.0205 14.5217C30.453 13.2859 30.8562 12.2242 30.9166 12.1624C30.9841 12.0934 31.0263 15.5968 31.0262 21.2685V30.4868L35.1949 30.4277L39.3637 30.3686V15.4678V0.567054H33.3484H27.3331L26.8104 1.86791C26.5229 2.58339 25.92 4.04685 25.4707 5.12006C25.0214 6.19327 24.3536 7.81639 23.9869 8.72699C23.6201 9.63759 23.0374 11.0745 22.6921 11.92C22.3468 12.7656 21.7069 14.3355 21.27 15.4087C20.8332 16.4819 20.406 17.493 20.3206 17.6556L20.1653 17.9513L20.0485 17.6556C19.8978 17.2747 18.3969 13.5729 17.3152 10.9148C16.852 9.77655 16.2356 8.25987 15.9452 7.54439C15.6549 6.82892 14.8941 4.96632 14.2546 3.40529L13.0917 0.567054L7.10672 0.536424C3.71076 0.51904 1.09379 0.551206 1.05701 0.610809ZM41.788 15.4678V30.4277H54.974H68.16V26.7321V23.0364L59.4294 23.0603C54.6277 23.0735 50.5819 23.0537 50.4388 23.0162C50.1829 22.9493 50.1791 22.9176 50.2111 21.1002L50.2436 19.2521L59.2018 19.2219L68.16 19.1915V15.5269V11.8624L59.2018 11.832L50.2436 11.8018L50.2111 9.93987L50.1784 8.0781L59.1397 8.04771L68.1008 8.01743L68.1321 4.26268L68.1633 0.507924H54.9756H41.788V15.4678ZM69.9339 4.29224V8.07656H74.4277H78.9216V19.2521V30.4277H83.4155H87.9094V19.2521V8.07656H92.3906C96.3678 8.07656 96.8799 8.05551 96.9436 7.88948C97.0373 7.64539 97.0373 0.9391 96.9436 0.695011C96.8787 0.525899 95.5757 0.507924 83.4028 0.507924H69.9339V4.29224ZM98.4345 15.4639V30.4277H102.928H107.422V24.8104V19.193H108.722H110.022L110.357 19.6554C110.542 19.9097 112.232 22.4356 114.113 25.2686L117.534 30.4194L122.412 30.4236C125.095 30.4258 127.29 30.403 127.29 30.3727C127.29 30.3424 126.562 29.0786 125.673 27.564C124.784 26.0495 123.889 24.5177 123.684 24.1599C123.479 23.8022 123.073 23.1104 122.781 22.6225C121.466 20.4262 120.904 19.439 120.904 19.329C120.904 19.2552 121.592 19.2064 122.722 19.1996C125.066 19.1859 125.589 19.0447 126.405 18.2062C126.731 17.8709 127.074 17.3836 127.167 17.1235C127.39 16.5014 127.497 4.66807 127.29 3.47507C127.027 1.95874 126.457 1.30192 124.942 0.768923C124.449 0.595318 123.063 0.571666 111.414 0.537725L98.4345 0.5V15.4639ZM130.612 0.634699C129.993 0.757926 129.6 1.09473 129.393 1.67834C129.273 2.01491 129.241 4.93853 129.241 15.5861C129.241 30.456 129.201 29.6518 129.965 30.1524C130.279 30.3578 130.934 30.3703 143.191 30.4051C152.258 30.4309 156.266 30.4031 156.691 30.3116C157.393 30.1604 157.725 29.853 157.907 29.186C158.079 28.5562 158.085 2.56979 157.913 1.82664C157.775 1.22848 157.62 1.04719 157.007 0.769752C156.594 0.582783 155.575 0.565634 143.846 0.54896C136.854 0.538908 130.899 0.577461 130.612 0.634699ZM118.032 8.34655C118.307 8.62103 118.399 10.804 118.155 11.2696C117.872 11.8106 117.285 11.8656 112.153 11.8323L107.481 11.8018L107.449 9.93561L107.416 8.06935L112.619 8.10258C117.427 8.13321 117.837 8.15166 118.032 8.34655ZM149.405 8.31308C149.636 8.54416 149.641 8.70724 149.641 15.4031C149.641 20.389 149.603 22.3395 149.503 22.5607C149.426 22.7279 149.227 22.9034 149.059 22.9506C148.891 22.9978 146.401 23.0364 143.524 23.0364H138.295L138.025 22.7671L137.756 22.4978V15.5132V8.52879L138.035 8.30267C138.301 8.08732 138.574 8.07656 143.741 8.07656C149.01 8.07656 149.175 8.08342 149.405 8.31308Z" fill="#F7E315"/>
</svg>
