<svg width="64" height="41" viewBox="0 0 64 41" fill="none" xmlns="http://www.w3.org/2000/svg">
<path fill-rule="evenodd" clip-rule="evenodd" d="M0.998086 1.04334V39.9143C0.998086 40.2222 1.33974 40.4995 1.66711 40.4995H10.1098C10.4092 40.4995 10.6353 40.3372 10.7464 40.1326C10.8912 39.8656 10.8204 37.5201 10.8204 37.1142V10.4058C10.8204 10.1265 10.7899 9.6166 10.8237 9.36458C10.8548 9.13009 11.1004 8.85989 11.3634 8.85989H30.1721C32.7949 8.85989 34.9949 10.411 35.8517 12.7935C36.1076 13.5047 36.3206 14.4427 36.3174 15.2955C36.3063 17.9248 36.2791 39.8162 36.333 40.0234C36.4116 40.3242 36.6974 40.5002 37.0682 40.5002H45.4278C45.839 40.5002 46.1384 40.2008 46.1384 39.7896V12.4129C46.1384 10.396 45.8675 8.90795 45.2907 7.45104L44.8146 6.46374C43.6805 4.3378 41.6624 2.61977 39.5345 1.54543C38.3465 0.94591 36.5187 0.500977 34.728 0.500977H1.5411C1.28453 0.500977 0.997437 0.788072 0.997437 1.04399L0.998086 1.04334Z" fill="#FE6600"/>
<path fill-rule="evenodd" clip-rule="evenodd" d="M53.7473 1.37753V39.6217C53.7473 40.1127 53.95 40.4992 54.4579 40.4992H62.8175C63.1305 40.4992 63.252 40.4284 63.415 40.2615C63.5748 40.0978 63.6112 39.9244 63.6112 39.6217V1.29439C63.6112 0.903363 63.3904 0.5 63.026 0.5H54.3325C53.9188 0.5 53.7473 0.958574 53.7473 1.37753V1.37753Z" fill="#FE6600"/>
<path fill-rule="evenodd" clip-rule="evenodd" d="M18.4193 16.5915V39.7884C18.4193 40.1996 18.7187 40.499 19.1299 40.499H27.9909C28.4988 40.499 28.7015 40.1125 28.7015 39.6215V16.7168C28.7015 16.1913 28.4352 15.8809 27.9071 15.8809H19.1299C18.7285 15.8809 18.4193 16.1855 18.4193 16.5915V16.5915Z" fill="#FE6600"/>
</svg>
