<svg width="191" height="41" viewBox="0 0 191 41" fill="none" xmlns="http://www.w3.org/2000/svg">
<path fill-rule="evenodd" clip-rule="evenodd" d="M46.7711 0.523973C44.9166 0.797539 43.1039 1.74626 42.0841 2.97697C40.896 4.4108 40.3435 5.92889 40.3466 7.75131C40.3494 9.36501 40.908 10.9887 41.8885 12.2334C42.7649 13.3459 44.2261 14.2977 45.696 14.7137C46.6408 14.9811 48.4674 14.9838 49.3891 14.7191C51.1582 14.2111 52.5761 13.1851 53.577 11.6885C55.1117 9.39404 55.1494 6.21594 53.6696 3.88178C52.7064 2.36236 51.0439 1.14942 49.3348 0.719142C48.6929 0.55755 47.2751 0.449627 46.7711 0.523973ZM17.868 4.19686C15.5186 4.37276 13.3795 4.95578 11.2108 6.01151C4.93499 9.06663 0.997559 15.3812 0.997559 22.3909C0.997559 29.1884 4.8604 35.4558 10.9627 38.5591C13.5839 39.8921 16.1517 40.5001 19.1498 40.4978C21.2005 40.4962 22.6995 40.2831 24.4398 39.746C28.5573 38.475 31.9747 35.9251 34.3467 32.3541C37.4168 27.7317 38.1915 21.8942 36.4342 16.6229C34.4782 10.7552 29.664 6.26035 23.6982 4.73134C21.8832 4.26616 19.6623 4.06256 17.868 4.19686ZM72.3249 4.20058C68.4958 4.37499 65.369 5.54443 63.0993 7.651C60.5877 9.9821 59.6505 13.3069 60.5439 16.7173C61.5745 20.6525 65.3123 22.995 73.0278 24.5413C77.9875 25.5353 80.163 26.3235 81.5139 27.6161C82.1477 28.2225 82.4896 28.9257 82.6192 29.8897C83.12 33.6163 79.4702 36.1864 74.0616 35.9157C71.1621 35.7706 69.1263 35.2784 66.8668 34.176C65.8562 33.683 63.9665 32.5026 63.2281 31.9032C62.505 31.3162 61.8981 31.1738 61.4041 31.4751C61.0966 31.6626 59.6132 33.2385 59.2871 33.7239C58.9357 34.2472 58.9542 34.7679 59.3395 35.1943C60.2558 36.2086 63.569 38.1141 65.9571 39.0002C68.8129 40.0599 71.3285 40.4999 74.5324 40.4999C77.1206 40.4999 78.7148 40.2669 80.7247 39.5949C85.7654 37.9095 88.5784 34.0251 88.1636 29.3223C87.842 25.6756 85.683 23.2609 81.1935 21.5268C79.5264 20.8828 77.9979 20.4679 74.9442 19.8303C71.0996 19.0277 68.9812 18.3183 67.5697 17.3606C66.2629 16.474 65.7412 15.496 65.7303 13.9123C65.7211 12.5706 66.091 11.6788 67.0339 10.7698C69.2799 8.60451 73.7323 8.14463 78.2153 9.61501C79.6055 10.0709 80.5113 10.4781 82.166 11.3911C82.8937 11.7926 83.6107 12.1458 83.7591 12.1759C84.2531 12.2762 84.6644 11.9858 85.6354 10.8514C86.6136 9.70862 86.7545 9.48707 86.7553 9.09103C86.7565 8.43383 86.3241 8.02968 84.4816 6.96568C82.6057 5.88258 80.3557 5.03145 78.2654 4.6144C76.2145 4.20513 74.6371 4.0953 72.3249 4.20058ZM97.0947 5.12564C96.4088 5.47612 96.3901 5.53872 96.3901 7.4885C96.3901 9.41777 96.4342 9.62137 96.9167 9.9214L97.2171 10.1082L103.295 10.1496L109.374 10.1909L109.415 24.5804L109.456 38.9699L109.64 39.2278C109.952 39.6646 110.19 39.7142 111.979 39.7142C113.802 39.7142 114.017 39.6659 114.314 39.1876L114.501 38.8872L114.542 24.5391L114.584 10.1909L120.624 10.1496C127.342 10.1036 126.918 10.142 127.282 9.54554C127.428 9.30571 127.443 9.12039 127.443 7.54457C127.443 5.54947 127.399 5.39218 126.759 5.10199C126.419 4.94734 126.03 4.94313 111.934 4.94139L97.4589 4.93957L97.0947 5.12564ZM141.334 5.01739C140.965 5.12936 140.748 5.30394 140.586 5.61852C140.431 5.91789 140.427 6.3251 140.427 22.3734V38.8214L140.613 39.098C140.983 39.6459 141.207 39.711 142.834 39.7414C143.725 39.7581 144.421 39.7332 144.628 39.6773C145.087 39.5538 145.422 39.2536 145.54 38.8619C145.666 38.4402 145.68 6.29797 145.554 5.84454C145.457 5.49381 145.123 5.16294 144.736 5.03351C144.419 4.92774 141.672 4.91468 141.334 5.01739ZM159.479 5.06304C159.104 5.23191 158.804 5.63093 158.746 6.03574C158.719 6.22884 158.707 13.6808 158.72 22.5957C158.744 38.0173 158.752 38.8178 158.893 39.077C159.197 39.6323 159.361 39.6722 161.351 39.6725C163.379 39.673 163.562 39.6272 163.868 39.045C164.036 38.7241 164.038 38.6309 164.079 25.3775L164.12 12.0332L167.282 16.2393C169.022 18.5527 172.534 23.218 175.087 26.6065C177.64 29.9951 180.72 34.0873 181.931 35.7001C183.142 37.3131 184.268 38.7648 184.433 38.9261C184.597 39.0875 184.914 39.3122 185.136 39.4255C185.532 39.628 185.577 39.6319 187.772 39.6545C189.83 39.6758 190.027 39.6654 190.294 39.5211C190.453 39.4351 190.658 39.2387 190.749 39.0847C190.913 38.8071 190.914 38.656 190.914 22.3476C190.914 6.03929 190.913 5.88804 190.749 5.60984C190.393 5.00573 190.313 4.98356 188.407 4.95793C186.485 4.93204 186.291 4.97538 185.933 5.51002L185.746 5.79103V19.2586C185.746 26.6658 185.718 32.7243 185.684 32.722C185.65 32.7197 185.226 32.1894 184.742 31.5435C184.257 30.8978 179.743 24.8616 174.709 18.13C169.675 11.3983 165.438 5.78541 165.293 5.65681C165.148 5.5283 164.844 5.32362 164.616 5.20197L164.203 4.98092L161.97 4.96388C160.201 4.9504 159.683 4.971 159.479 5.06304ZM20.9279 9.27867C23.8455 9.6762 26.3321 10.9178 28.4604 13.04C30.3553 14.9295 31.4315 16.8716 32.0616 19.5391C32.2819 20.4718 32.295 20.632 32.2912 22.3476C32.2878 23.8873 32.2603 24.2877 32.1122 24.9526C31.5477 27.4874 30.4085 29.6551 28.7118 31.4226C24.764 35.5358 18.7513 36.6813 13.6091 34.2999C8.68776 32.0209 5.54928 26.6414 6.03513 21.3178C6.20954 19.406 6.61278 17.9975 7.45671 16.3519C10.0161 11.3613 15.4131 8.52744 20.9279 9.27867Z" fill="#3F4651"/>
<path fill-rule="evenodd" clip-rule="evenodd" d="M46.7658 0.523973C44.9113 0.797539 43.0986 1.74626 42.0788 2.97697C40.8907 4.4108 40.3382 5.92889 40.3413 7.75131C40.3441 9.36501 40.9027 10.9887 41.8832 12.2334C42.7596 13.3459 44.2208 14.2977 45.6907 14.7137C46.6355 14.9811 48.4621 14.9838 49.3838 14.7191C51.1529 14.2111 52.5708 13.1851 53.5717 11.6885C55.1064 9.39404 55.1442 6.21594 53.6644 3.88178C52.7012 2.36236 51.0386 1.14942 49.3295 0.719142C48.6877 0.55755 47.2698 0.449627 46.7658 0.523973Z" fill="#E35B63"/>
</svg>
