<svg width="78" height="41" viewBox="0 0 78 41" fill="none" xmlns="http://www.w3.org/2000/svg">
<path fill-rule="evenodd" clip-rule="evenodd" d="M33.3871 11.8291C36.214 11.8291 38.6299 13.6337 38.6299 16.791H28.0509C28.0509 14.7566 29.3838 12.8882 31.1971 12.2601C31.8092 12.0478 32.6169 11.8291 33.3871 11.8291ZM22.6206 18.289V19.8805C22.6206 23.1703 23.9367 26.5997 25.5928 28.2367C26.1147 28.7522 26.4459 29.1345 27.0605 29.5775C30.5187 32.0748 35.8876 32.232 39.6898 30.1146C41.1862 29.2814 42.3084 28.1624 43.4042 26.9014C43.0362 26.3523 42.6348 25.9046 42.2086 25.3818L40.9699 23.8119L38.3896 25.8192C36.4311 27.0012 35.7726 26.9956 33.6672 26.9956C31.3663 26.9956 29.2058 25.3874 28.3686 23.3067C27.841 21.9962 28.0701 21.1558 27.8626 20.7233H41.0633C43.9269 20.7233 43.6212 20.9523 43.7066 20.0896C44.2015 15.0798 42.9899 9.89053 38.3098 7.93596C35.2618 6.66298 31.6145 6.5257 28.6431 8.02215C26.1299 9.28795 24.5608 11.1276 23.5289 13.7677C23.0683 14.9457 22.6206 16.7016 22.6206 18.2898V18.289Z" fill="#38AC5A"/>
<path fill-rule="evenodd" clip-rule="evenodd" d="M66.7251 27.2766C65.5192 27.2766 64.9302 27.3133 63.8998 26.4514C62.3515 25.156 62.3475 21.0043 66.8193 21.0043C67.9981 21.0043 71.426 20.8846 72.343 21.0977C72.2903 21.733 71.9424 22.8407 71.7165 23.3731C70.8897 25.3228 69.1761 27.2766 66.7259 27.2766H66.7251ZM59.2357 15.0121H64.01C64.01 12.684 65.8281 11.4549 67.9422 11.4549C69.5728 11.4549 70.8889 11.605 71.932 13.1756C72.671 14.289 72.6279 14.7391 72.7748 15.9906C72.8211 16.3864 72.7173 16.5644 72.7173 17.072C70.833 17.072 69.2703 17.1654 67.3812 17.1654C64.5806 17.1654 62.9349 17.5461 60.8838 18.9061C55.3441 22.5797 58.3035 31.5824 65.6022 31.5824C70.8019 31.5824 72.5641 28.0659 73.1858 27.6501V31.4882C74.521 31.4882 75.3407 31.355 76.3822 31.4747L77.5858 31.4882V16.7903C77.5858 14.2267 77.0519 11.6943 75.316 9.97841C74.9169 9.58334 74.624 9.22978 74.1627 8.8842C72.766 7.83708 70.9192 7.01104 69.1594 6.95996L67.101 6.96156C66.4969 6.98869 65.6636 7.19221 65.1441 7.34545C62.8184 8.03022 61.1208 9.19786 59.9436 11.32C59.4935 12.1325 58.9635 13.8468 59.2349 15.0113L59.2357 15.0121Z" fill="#38AC5A"/>
<path fill-rule="evenodd" clip-rule="evenodd" d="M1.93179 13.7953C1.93179 14.9669 1.93977 15.7682 2.52239 16.8552C2.90867 17.5767 3.24148 17.8608 3.78021 18.4059C4.72597 19.3629 6.0612 19.8585 7.44353 20.3597C8.10755 20.6007 8.85219 20.7979 9.57368 21.0381C11.5139 21.6854 16.5148 22.4691 14.3599 25.4724C13.4317 26.7661 11.7557 27.0878 10.0773 27.0878C7.96708 27.0878 5.82576 25.7062 4.34367 24.3957C4.09307 24.1739 3.98452 23.9943 3.71077 23.8115C3.35402 24.0502 3.29895 24.2066 3.02679 24.5314C2.77858 24.8275 2.59102 25.0526 2.33004 25.3327L0.995605 26.901C1.24382 27.2713 2.39868 28.3911 2.77379 28.6808C5.33173 30.6561 7.61193 31.5819 11.2944 31.5819C14.4286 31.5819 17.4813 29.9538 18.8748 27.5531C19.997 25.6192 20.084 22.5713 18.704 20.7085C18.2818 20.1378 18.222 20.0939 17.6904 19.6629C16.1413 18.4059 14.1253 17.9422 12.2426 17.3405C10.4803 16.777 6.80105 15.9869 6.80105 14.3563C6.80105 12.8519 8.58322 11.5478 10.4524 11.5478H11.1076C13.0423 11.5478 14.9457 13.0889 14.9457 15.0116H19.6267C19.7416 13.6292 19.8661 12.5071 18.8972 10.966C18.4343 10.2301 17.8221 9.51021 17.1397 8.97867C14.3256 6.78626 10.3119 6.40477 6.97583 7.60352C5.18647 8.2468 3.76823 9.3019 2.79135 10.9085C2.41305 11.5302 1.93259 12.8224 1.93259 13.7945L1.93179 13.7953Z" fill="#38AC5A"/>
<path fill-rule="evenodd" clip-rule="evenodd" d="M47.5267 26.9014C47.5267 27.5455 47.7398 28.3316 47.9386 28.8297C48.9362 31.3262 51.9323 32.0229 54.3434 31.3772C55.6076 31.0388 55.2971 31.3174 55.2971 27.7434C55.2971 27.3069 55.0824 27.5631 53.8039 27.4585C53.3697 27.4226 52.9371 27.235 52.6985 26.9717C52.2204 26.4449 52.1143 25.4457 52.1143 24.4664V0.5H47.5267V26.9006V26.9014Z" fill="#38AC5A"/>
<path fill-rule="evenodd" clip-rule="evenodd" d="M2.02591 37.3873C1.9445 37.0808 2.01553 37.1064 1.46404 37.1064C1.24855 37.1064 1.18311 37.1718 1.18311 37.3873V40.1958C1.18311 40.5869 1.50794 40.4768 2.30684 40.4768C2.30684 38.3602 2.12408 37.9476 3.3364 38.2301L3.42978 40.4768H4.27258C5.03238 40.4768 4.04512 38.1359 4.92783 38.1359H5.20877C6.11542 38.1359 5.08905 40.4768 5.86401 40.4768H6.70682C6.70682 39.1623 6.98057 37.6507 5.89354 37.171C5.04914 36.7983 4.65328 37.1638 4.17921 37.4815C3.24462 36.8558 2.96049 36.8933 2.02591 37.3881V37.3873Z" fill="#5D5D5E"/>
<path fill-rule="evenodd" clip-rule="evenodd" d="M38.6357 37.387V37.106H37.8862V40.4765H39.01C39.01 38.4309 38.8056 38.1356 39.6652 38.1356C40.5719 38.1356 39.5455 40.4765 40.3205 40.4765H41.1633C41.1633 38.3599 40.9805 37.9473 42.1928 38.2298C42.3604 38.9497 42.2862 39.6145 42.2862 40.4765H43.4099C43.4099 39.553 43.5456 38.1843 43.0564 37.5538C42.4203 36.7349 41.4945 37.0079 40.789 37.4812C40.5743 37.3375 40.6062 37.2872 40.3484 37.1723C39.4481 36.7708 39.0802 37.2689 38.6357 37.3878V37.387Z" fill="#5D5D5E"/>
<path fill-rule="evenodd" clip-rule="evenodd" d="M14.4786 37.3872V37.1063H13.73V40.4767H14.8537C14.8537 39.6148 14.7795 38.9491 14.9471 38.23L15.509 38.1367C16.4156 38.1367 15.3892 40.4775 16.1642 40.4775H17.007C17.007 38.3609 16.8242 37.9483 18.0366 38.2308C18.2042 38.9507 18.13 39.6156 18.13 40.4775H19.2537C19.2537 39.5102 19.3926 38.2189 18.8993 37.5548C18.2808 36.7216 17.3406 37.0065 16.6327 37.4814C15.3565 36.6266 15.4499 37.1287 14.4794 37.388L14.4786 37.3872Z" fill="#5D5D5E"/>
<path fill-rule="evenodd" clip-rule="evenodd" d="M30.3858 38.7919C30.7314 38.8845 30.9588 39.1854 31.1344 39.4472C30.5646 39.4344 30.452 39.3099 30.3858 38.7919ZM29.4496 37.1071C29.4496 37.5469 29.7353 37.8637 29.9181 38.1367C28.7265 38.7672 29.2636 40.4776 30.6667 40.4776C32.0147 40.4776 31.2023 40.4592 31.6731 40.3522C32.2773 40.2158 31.6572 40.452 32.5319 40.4831C32.737 40.4903 32.9828 40.4776 33.1935 40.4776C33.0004 40.1894 32.6915 40.0051 32.5479 39.7162C32.3882 39.3953 32.6325 39.1679 32.6325 38.6052C32.5271 38.6052 32.2318 38.5868 32.1536 38.5948C31.5845 38.6539 31.903 38.511 31.7897 38.7927C31.5127 38.6068 31.3028 38.3713 31.0626 38.1151C30.5326 37.5485 30.5725 37.5469 30.5725 37.1071C31.555 36.8781 30.9333 37.4814 31.5087 37.4814C32.1113 37.4814 32.3515 37.5645 32.3515 37.2005C32.3515 36.7161 31.8663 35.9834 31.041 35.9834C30.3164 35.9834 29.4496 36.1127 29.4496 37.1071V37.1071Z" fill="#5D5D5E"/>
<path fill-rule="evenodd" clip-rule="evenodd" d="M66.6178 38.0422C66.9051 38.0422 67.02 38.1714 67.0855 38.4165H66.0559C66.1716 38.2441 66.3281 38.0422 66.6178 38.0422ZM64.933 38.604V39.0717C64.933 39.7022 65.7072 40.4764 66.3377 40.4764C66.9578 40.4764 67.637 40.49 68.0225 39.9145C67.8285 39.6248 67.7423 39.7062 67.6482 39.3526C66.9354 39.3686 66.4063 39.6879 66.0567 39.1651C67.5548 39.1651 68.21 39.3886 68.21 38.6032C68.21 36.4411 64.933 36.5744 64.933 38.6032V38.604Z" fill="#5D5D5E"/>
<path fill-rule="evenodd" clip-rule="evenodd" d="M51.3695 37.3871C51.2793 37.0487 51.3679 37.1061 50.5267 37.1061V40.4765H51.6505C51.6505 39.6146 51.5762 38.949 51.7438 38.2299C52.9274 37.9537 52.7734 38.3448 52.7734 40.4765C54.111 40.4765 53.8971 40.696 53.8971 39.2594C53.8971 38.6928 53.8173 38.0431 53.6034 37.6808C53.1932 36.9832 52.2347 36.8076 51.3695 37.3871V37.3871Z" fill="#5D5D5E"/>
<path fill-rule="evenodd" clip-rule="evenodd" d="M46.9688 38.1366C47.7517 38.1366 47.7318 39.4471 46.9688 39.4471C46.2042 39.4471 46.0637 38.1366 46.9688 38.1366ZM46.8754 40.4775C49.4573 40.4775 49.0399 37.0137 46.9688 37.0137C44.7612 37.0137 44.6559 40.4775 46.8754 40.4775Z" fill="#5D5D5E"/>
<path fill-rule="evenodd" clip-rule="evenodd" d="M9.60372 38.792C9.60372 37.9372 10.8208 37.8143 10.8208 38.8854C10.8208 39.4289 9.60372 39.8296 9.60372 38.792ZM8.47998 38.6986C8.47998 41.1129 11.9438 41.0515 11.9438 38.6986C11.9438 38.1104 11.4513 37.4273 10.9174 37.1974C9.5247 36.5996 8.47998 37.7904 8.47998 38.6986Z" fill="#5D5D5E"/>
<path fill-rule="evenodd" clip-rule="evenodd" d="M74.3901 38.0428C74.3901 38.8537 74.6774 39.1003 75.7197 39.2408C76.2121 39.307 76.035 39.137 76.2624 39.4475C75.8091 39.7021 75.2393 39.4618 74.8578 39.2599L74.2767 39.8968C75.0006 40.39 74.9759 40.477 76.0741 40.477C77.5402 40.477 77.7054 38.8696 76.6974 38.449C76.4731 38.3557 75.7892 38.2359 75.5122 38.2304V37.9494C76.2074 37.9494 76.1818 37.9901 76.6359 38.2304C76.853 38.0851 77.0605 37.9167 77.2912 37.7627C76.5035 36.5863 74.3893 36.9382 74.3893 38.0436L74.3901 38.0428Z" fill="#5D5D5E"/>
<path fill-rule="evenodd" clip-rule="evenodd" d="M22.8992 39.5404C22.6638 39.5404 22.398 39.5659 22.1697 39.5212L21.6821 39.2595C21.4634 39.4055 21.1697 39.6082 21.0269 39.8213C21.5999 40.6777 24.023 40.9538 24.023 39.2595C24.023 38.4813 23.24 38.3743 22.7348 38.3009C22.1306 38.2131 22.2208 38.2171 22.1506 38.0431C22.5776 37.8029 22.9902 38.0304 23.3677 38.2307L23.9511 37.6904C23.1291 36.498 20.7914 37.0447 21.0763 38.3624C21.2312 39.0759 21.8082 39.1262 22.4531 39.2387C22.8777 39.3129 22.7891 39.1262 22.9 39.5412L22.8992 39.5404Z" fill="#5D5D5E"/>
<path fill-rule="evenodd" clip-rule="evenodd" d="M55.8588 38.1362C55.8588 38.9869 56.5045 39.1538 57.1901 39.2392C57.6761 39.299 57.6202 39.1242 57.7312 39.5408C56.8325 39.5408 56.9347 39.5815 56.3265 39.2599L55.7455 39.8968C58.6306 41.8689 60.3913 38.3062 56.9818 38.2303V37.9494C57.6769 37.9494 57.6514 37.9901 58.1055 38.2303C58.3361 38.0755 58.5437 37.9079 58.7607 37.7627C58.6051 37.5304 58.4654 37.362 58.1653 37.2343C56.9626 36.7243 55.8588 37.2423 55.8588 38.137V38.1362Z" fill="#5D5D5E"/>
<path fill-rule="evenodd" clip-rule="evenodd" d="M61.1042 36.2638V37.1066H60.7299V37.9494H61.1042C61.1042 39.8952 60.9565 40.477 62.8832 40.477V39.3533C62.0866 39.3533 62.2279 39.5129 62.2279 37.9486C62.7211 37.9374 62.6964 37.9502 62.6964 37.3867C62.6964 37.0755 62.528 37.1122 62.2279 37.1058V35.9821C61.429 35.9821 61.1042 35.8719 61.1042 36.263V36.2638Z" fill="#5D5D5E"/>
<path fill-rule="evenodd" clip-rule="evenodd" d="M71.025 37.5747C70.9061 37.3265 70.9396 37.475 70.9316 37.107H70.183V40.4775H71.2125V39.2603C71.2125 37.4079 72.4297 38.5931 72.4297 37.8557C72.4297 37.1605 72.5462 36.8229 71.6978 37.1174C71.2868 37.2603 71.3434 37.3624 71.0258 37.5747H71.025Z" fill="#5D5D5E"/>
</svg>
