<svg width="105" height="41" viewBox="0 0 105 41" fill="none" xmlns="http://www.w3.org/2000/svg">
<path fill-rule="evenodd" clip-rule="evenodd" d="M67.3175 2.47031L66.7449 12.8922C66.7495 13.3562 66.6769 13.5282 66.6815 13.9726C66.6848 14.3113 66.4789 17.8563 66.3726 18.3669C66.1462 19.4566 65.2252 19.8204 65.856 19.8204H70.6858C71.223 19.8204 70.4953 19.5283 70.4953 18.6767L70.5586 14.609C70.5572 14.0472 70.6253 13.7485 70.6225 13.2114C70.6197 12.683 70.6271 12.2409 70.6765 11.8034C70.7254 11.3683 70.67 10.8018 70.6835 10.3489C70.6928 10.0354 70.7417 10.0312 70.7511 9.71766C70.7716 9.03746 70.7907 6.4597 70.8759 6.09305C70.8843 6.10656 70.8941 6.11308 70.8969 6.13591C70.8997 6.15874 70.9132 6.16946 70.9169 6.17924L74.2853 18.3179C74.8173 20.1535 74.2587 19.8209 77.0405 19.8209C77.4435 19.8209 77.4696 19.5325 77.574 19.2101C77.6765 18.8938 77.7417 18.6464 77.8437 18.3356C78.7443 15.5944 79.6104 12.3122 80.5128 9.56531L81.3062 6.92699C81.3877 6.67122 81.5266 6.34463 81.5527 6.02969C81.5615 6.0432 81.5694 6.05065 81.5722 6.07395L81.7427 8.63633C81.7399 9.04538 81.7991 9.18468 81.8094 9.52292C81.8471 10.7771 81.8951 11.8952 81.9324 13.1499C81.9421 13.4811 82.0013 13.5831 81.9994 13.9726L82.06 15.8185C82.0582 16.2252 82.1229 16.337 82.1276 16.7041C82.1411 17.7966 82.299 18.3063 81.8727 19.1239C81.733 19.3918 81.6337 19.4212 81.4893 19.6937C81.9915 19.9346 85.6236 19.8209 86.5102 19.8209C86.6816 19.8209 86.6853 19.7906 86.8279 19.7571C86.8041 19.4724 86.765 19.5684 86.6103 19.3392C86.5134 19.1952 86.4701 19.082 86.4221 18.8919C86.3243 18.5057 86.3443 18.1763 86.2828 17.7603L85.9418 12.9537C85.9255 12.7487 85.952 12.5377 85.9292 12.3308L85.802 10.4878C85.632 8.95034 85.6101 7.24333 85.4391 5.70264L85.3045 3.29493C85.2886 2.77034 85.2215 2.76335 85.3278 2.1782C85.4102 1.72582 85.6753 1.57673 85.6837 1.19983H79.0741C78.7457 1.19983 78.6488 1.94572 78.5784 2.22944L76.2141 10.7962C76.2075 10.5106 75.1038 6.29198 75.0065 5.9025L74.0784 2.2546C73.9978 1.93267 73.9177 1.19983 73.6079 1.19983H66.935C66.9448 1.64429 67.3165 1.77753 67.3165 2.47077L67.3175 2.47031ZM6.43385 13.3777C6.53216 13.2957 7.37914 12.2143 7.93262 11.6856L8.74093 10.942C9.35078 10.423 10.359 9.71579 11.0736 9.33423C11.1696 9.28298 11.2213 9.26155 11.3173 9.20052C11.3192 9.19912 11.4165 9.13483 11.4342 9.11992C11.56 9.0123 11.4836 9.10921 11.5819 8.95919C11.8265 9.00764 11.779 8.9331 12.2537 8.7351C12.8352 8.49237 13.9025 7.98642 14.5054 7.9361C14.4946 7.45903 13.7627 6.11821 13.5321 5.73152L12.5505 4.36181C12.4 4.19176 12.278 4.11769 12.1536 3.93226L13.4259 3.86704C13.8149 3.86564 14.298 3.92481 14.6204 4.00681C16.8926 4.58497 18.0004 5.62437 19.2076 7.42735C22.1268 7.42735 25.6228 8.39593 27.9779 9.96924C29.937 11.2779 30.9577 12.6299 31.773 14.6905C31.965 15.1765 32.2995 16.3789 32.2995 17.0004C32.4122 18.5672 32.4747 19.6364 31.8737 21.1738C31.5382 22.032 31.0653 22.6842 30.4415 23.3011C30.2617 23.4791 29.9752 23.7087 29.7571 23.8243C28.9544 22.3069 27.2292 20.5696 25.7174 19.6658C22.3449 17.6499 18.204 17.2431 14.6083 18.8034C14.1173 18.9422 12.9148 19.676 12.5072 19.9835L11.1505 21.1054C10.9567 21.295 10.9096 21.3919 10.755 21.5824C10.2593 22.0008 9.30885 23.459 9.0391 24.1071C8.49122 24.8609 7.88789 27.5588 7.89441 28.6527C7.90513 30.4995 7.97734 31.3488 8.52243 32.9836C8.59045 33.1877 8.6785 33.3615 8.72136 33.5469C8.51358 33.4914 8.50193 33.4285 8.35611 33.2767C8.20563 33.1206 8.17022 33.1099 8.01321 32.9841C7.49375 32.5699 7.35957 32.2857 7.0861 32.0048C6.65888 31.5659 6.05229 30.698 5.73782 30.1757L4.8722 28.4995C3.96884 26.3373 3.36459 23.3407 3.68325 20.8817C3.73869 20.455 3.76805 20.1046 3.81743 19.745L4.01916 18.6585C4.1538 18.154 4.30195 17.6699 4.45616 17.2059C5.18807 15.0022 5.66095 14.814 6.43432 13.3767L6.43385 13.3777ZM6.66074 8.06329C6.33043 8.19374 6.40171 8.20539 6.16411 8.42901C5.9866 8.59627 5.87246 8.65264 5.68657 8.84086C5.39865 9.13204 5.10701 9.39946 4.84518 9.69017L3.2565 11.686C2.42536 12.8568 2.34336 13.2929 1.92173 13.9558C0.943368 16.1166 0.421573 17.5045 0.130859 20.0636C-0.873594 28.902 3.93344 36.6972 12.0977 39.4515C13.3793 39.8839 14.7229 40.1695 16.1057 40.3372C16.4537 40.3791 16.6713 40.3838 17.0375 40.4225C18.703 40.5976 20.8424 40.5105 22.1841 39.7022C22.3831 39.5825 23.3591 39.0434 22.9398 38.6549C22.8061 38.531 21.7084 38.5789 21.1247 38.496C19.0077 38.1946 17.4018 36.7345 17.1744 34.5313C17.1744 32.7358 17.5127 31.2552 18.7175 30.0709C18.9308 29.8612 18.9541 29.8175 18.9541 29.4177C18.7226 29.2626 18.7081 29.1708 18.3666 29.1154C18.0722 29.0674 17.7936 29.0324 17.5304 29.0702C16.8096 29.1727 16.5879 29.1689 16.0307 29.4177C15.2992 29.7443 14.4317 30.5447 14.1238 31.2911C14.0576 31.3409 14.1191 31.2696 14.0427 31.3763C13.6281 31.9563 13.3961 33.0931 13.3583 33.8031C13.3374 34.201 13.3374 34.1036 13.3583 34.5015C13.3779 34.8667 13.3695 34.9287 13.4394 35.2497C13.4851 35.4608 13.5433 35.6755 13.6244 35.8912C13.6947 36.0781 13.821 36.3259 13.8699 36.5356C13.1347 36.0431 12.1773 33.9065 11.9248 32.8881C11.5898 31.5375 11.266 29.1032 11.6457 27.8603C11.6793 27.3711 11.9486 26.5567 12.1168 26.1393C12.2146 25.8965 12.3297 25.6096 12.4508 25.3929C12.5943 25.1371 12.735 24.9559 12.8529 24.6978L13.0178 24.4998C13.3956 23.985 14.0343 23.3206 14.5319 22.9619C15.9468 21.9416 16.4714 22.0124 16.8329 21.7911C18.6611 21.4301 18.0023 21.4468 20.0368 21.4711C22.22 21.4967 24.5569 22.8142 25.8269 24.5147C28.0212 27.4531 27.4137 29.8855 28.2491 30.9267C29.1007 31.988 30.7807 30.6724 31.0229 28.1351C31.0518 27.8309 30.9656 27.6865 30.9656 27.3208C31.3602 27.2155 32.2976 26.4123 32.6452 26.1402C34.1696 24.9489 35.3678 22.6665 35.7801 20.632C36.3867 17.6378 35.6963 13.6754 34.0796 11.2132C33.9282 11.0026 33.8309 10.8106 33.6622 10.5786C33.4833 10.3322 33.3547 10.1491 33.1814 9.91566C32.3349 8.7747 30.6852 7.39334 29.5405 6.69265C27.6075 5.50883 25.5474 4.71495 22.9212 4.22391L20.9826 3.93832C20.5857 3.85679 20.7464 3.78924 20.3336 3.44355C20.1091 3.25533 19.9264 3.11463 19.7023 2.93107C18.0065 1.54133 15.2988 0.490284 12.9819 0.500068C11.8181 0.504727 10.9176 0.48283 9.85813 0.810815C9.69367 0.861597 9.59118 0.899799 9.42579 0.952911C9.23151 1.01534 9.14113 1.02606 9.0978 1.13694C8.74559 1.15837 8.49867 1.32888 8.25082 1.49148C8.04676 1.62565 7.74952 1.82039 7.59252 1.97693C7.08936 2.47823 6.9426 3.00701 7.52822 3.4743C7.7444 3.64714 7.96057 3.79948 8.16556 3.98072C8.37055 4.16148 8.5392 4.35529 8.73814 4.55189C9.03537 4.84587 9.57301 5.52653 9.67504 5.96633C9.42346 6.13451 9.1593 6.26822 8.8765 6.43874C8.57973 6.61717 6.75252 7.7586 6.66074 8.06376V8.06329ZM70.5586 36.6921C70.5586 37.3779 70.6215 38.428 70.5517 39.07C70.4296 40.1942 69.4349 40.4844 70.4254 40.4802C72.0159 40.4732 73.6069 40.4751 75.198 40.4751C75.1579 39.9938 74.7046 40.0381 74.5238 39.179C74.4427 38.7942 74.4991 37.6127 74.4991 37.1407V26.3662C74.5578 26.4337 74.4982 26.3452 74.5807 26.4752L78.5482 35.4724C78.6246 35.649 78.7415 35.9308 78.8207 36.0771L80.2207 39.2657C80.8827 40.7779 80.4266 40.4751 83.5872 40.4751C84.6042 40.4751 85.6208 40.4751 86.6378 40.4751C86.6089 40.1262 86.5153 40.1816 86.362 39.9249C85.9847 39.2917 86.0657 38.5337 86.0657 37.7427C86.0657 36.6152 86.0657 35.4873 86.0657 34.3599C86.0657 33.1322 85.9744 23.9035 86.1319 23.1916C86.369 22.1201 87.2486 21.9649 86.1971 21.978C84.6736 21.9966 83.1418 21.9817 81.6174 21.9817C81.6291 22.4988 81.8536 22.1895 82.1527 23.0355C82.347 23.5853 82.2529 27.0286 82.2529 27.7652C82.2529 29.926 82.2529 32.0868 82.2529 34.2476L79.6202 28.2372C79.486 27.9166 79.3602 27.6697 79.2293 27.3571L77.3606 23.0612C76.7661 21.738 77.177 21.9817 74.6268 21.9817H70.9407C70.5433 21.9812 69.8631 21.8531 70.0424 22.2281C70.1165 22.3828 70.3364 22.5114 70.4697 23.0243C70.6709 23.7982 70.5591 35.7603 70.5591 36.6921H70.5586ZM55.0516 35.0825C55.0222 35.4114 54.8088 36.1489 54.7068 36.5081C54.3849 37.6416 54.2074 38.9246 53.4722 39.8489C53.3133 40.0488 53.1526 40.1308 53.1452 40.4751H58.166C58.1562 40.0404 57.7574 39.6454 57.9685 38.6251C58.0668 38.1494 58.2932 37.2772 58.2932 36.7932C58.3915 36.632 58.4838 36.0212 58.4838 35.8358H63.5042C63.5331 36.1838 63.6393 36.6068 63.7106 36.9637C63.8652 37.7361 64.0735 38.5291 64.0115 39.3304C63.9957 39.5368 63.9463 39.6537 63.8657 39.8205C63.6374 40.2929 63.3122 40.4718 63.9402 40.4816L68.7151 40.4751C68.7067 40.1024 68.6294 40.265 68.3117 39.6076C67.7577 38.462 66.5077 32.7246 66.3004 32.4423C66.2748 32.0579 65.1119 27.7759 64.9787 27.2434C64.783 26.4598 64.1196 24.0372 64.0278 23.363C63.9114 22.5067 64.2976 22.435 64.3302 22.0446C62.5803 21.8992 59.4878 21.9812 57.7206 21.9812C57.7556 22.4033 58.2625 22.4956 57.9596 23.8727C57.6317 25.3664 56.7665 28.1952 56.5131 29.5076L55.0516 35.082V35.0825ZM41.6419 27.0058C41.6419 27.5421 41.709 27.8617 41.7071 28.335C41.7053 28.8228 41.7058 29.3106 41.7058 29.7984C41.7058 30.7735 41.7058 31.7486 41.7058 32.7237L41.7081 38.0623C41.6983 38.3898 41.6424 38.4508 41.6429 38.8231C41.6433 39.3845 41.5082 39.6421 41.2739 39.9799C40.8453 40.5976 40.9799 40.4779 41.8329 40.4751H49.5229C50.846 40.4751 51.7279 40.3265 52.3117 38.5612C52.4174 38.2416 53.0948 36.3576 52.8908 36.1535C52.6373 36.0319 52.4114 36.2365 52.1924 36.345C51.55 36.6641 50.4719 36.9809 49.7153 36.9819C48.3167 36.9828 46.9172 36.9795 45.5186 36.9795V35.3298V29.6758C45.5186 28.874 45.4538 23.9626 45.5521 23.4129C45.6281 22.9875 45.7851 22.6828 46.0464 22.3819C46.1988 22.2058 46.2188 22.2771 46.2812 22.0446C45.8969 21.8601 41.941 21.9812 41.1336 21.9812C41.1444 22.4611 41.2571 22.1098 41.5418 22.9079C41.7323 23.4436 41.6424 26.3093 41.6424 27.0058H41.6419ZM48.4416 3.93226C49.0854 3.93226 49.8942 4.04594 50.4057 4.19316C51.9651 4.64181 52.9723 5.19342 53.8901 6.42849C54.2516 6.91488 54.0779 6.91954 54.5433 6.91954L55.0148 5.61179C55.1895 5.15988 55.3572 4.7075 55.5049 4.25885C55.6507 3.81579 56.4865 1.74492 56.3225 1.58093C56.0332 1.44209 55.5333 1.67178 55.0516 1.64708C54.8703 1.63777 52.2749 0.938468 51.338 0.78193C49.3235 0.445093 47.8415 0.368222 45.8987 0.818269C42.9902 1.4994 41.0596 4.08181 41.7947 7.40173C42.8495 12.1673 49.6734 11.4773 51.9231 13.8603C52.3965 14.3616 52.3895 15.3195 52.0671 15.9466C51.7517 16.5602 51.1232 16.8709 50.2851 16.9608C47.4907 17.2599 45.411 15.7817 43.4575 14.2549C43.1929 14.0481 42.9818 13.7425 42.6585 13.6558C42.2322 13.9409 41.2469 16.5494 40.9217 17.1938L40.4767 18.2681C40.4199 18.7759 40.9552 18.6557 41.6238 18.7573C42.0244 18.8183 42.4619 18.9362 42.8416 19.0648C43.1756 19.1775 43.5558 19.3173 43.9103 19.4575C46.6926 20.5589 49.9459 21.0234 52.8903 20.1382C53.4871 19.9588 53.898 19.7408 54.3909 19.4142C56.6989 17.8851 57.0479 14.2931 56.111 12.2777C54.4534 8.71134 48.1774 8.82735 46.325 7.00153C45.6928 6.37864 45.5186 4.81419 47.179 4.19456C47.6346 4.02451 47.9664 4.04314 48.4411 3.9318L48.4416 3.93226ZM62.8687 10.1193C62.8687 7.71714 62.8687 5.31502 62.8664 2.9129C62.864 0.796838 65.7446 1.19937 58.4838 1.19937C58.4963 1.77287 59.0018 1.66153 58.993 2.9143L58.992 9.73629C58.992 12.3564 58.9916 14.9761 58.992 17.5958C58.992 18.3552 59.0144 18.8034 58.6846 19.259C58.2261 19.8926 58.3077 19.8204 59.5637 19.8204H62.551C62.9568 19.8218 63.2051 19.7636 63.5042 19.7566C63.4585 19.2097 62.8622 19.39 62.8682 17.8502V10.1193H62.8687ZM93.3741 30.0038V25.2224C93.9676 25.2224 94.5621 25.2196 95.1557 25.2201C95.7664 25.221 96.4937 25.406 96.8128 25.413L97.8415 25.7754C101.397 27.2965 101.342 33.9508 98.0395 36.243C96.6679 37.1948 95.615 37.2339 93.3741 37.2339V30.0038V30.0038ZM97.5759 22.299L97.0611 22.1708C94.9972 21.8396 91.4933 21.9891 89.2375 21.9761C88.4674 21.9714 88.9142 22.2337 89.0907 22.6423C89.5659 23.7399 89.3064 26.9881 89.3064 28.464C89.3064 30.2698 89.3064 32.0756 89.3064 33.8809C89.3064 34.4703 89.3493 38.81 89.2827 39.1804C89.237 39.4352 89.148 39.664 89.0549 39.8424C88.9086 40.1234 88.7632 40.1289 88.7343 40.4751C90.4078 40.4751 92.0813 40.4751 93.7552 40.4751C96.4737 40.4751 97.8215 40.3339 100.006 39.2261C100.954 38.7448 101.44 38.2333 102.13 37.5367C103.147 36.5095 103.846 34.6548 104.097 33.2128C104.24 32.3906 104.241 31.77 104.241 30.8149C104.241 28.7506 103.733 26.4151 102.446 25.0472C102.219 24.8059 102.089 24.5972 101.842 24.3805C101.135 23.7609 100.415 23.2722 99.521 22.8883C99.104 22.7094 98.081 22.3106 97.5759 22.299V22.299ZM95.7706 12.0671H93.819L94.5179 9.27413C94.6245 9.04538 94.734 8.53384 94.81 8.22868L95.3439 6.09352C95.4082 5.83541 95.5088 5.29685 95.6616 5.07648C95.6835 5.34064 95.7972 5.68167 95.8652 5.95328C95.9318 6.21977 96.0241 6.55288 96.0935 6.80539L97.4413 12.0671H95.7706V12.0671ZM92.4843 3.42491L90.3235 11.8128C90.071 12.8219 88.9803 17.2166 88.6798 18.0501C88.5605 18.3808 88.4021 18.6674 88.227 18.932C87.8953 19.4342 87.7485 19.382 87.7178 19.7571C88.3826 19.9122 91.1499 19.8055 92.2322 19.8228C92.8835 19.833 92.8831 19.8344 92.6361 19.2241C92.2592 18.2933 93.102 15.9848 93.1197 15.1811H95.9043H98.1406C98.1476 15.4956 98.2808 15.9783 98.347 16.309C98.5678 17.4127 98.9387 18.3664 98.4867 19.15C97.9915 20.0087 97.89 19.8204 100.682 19.8204L102.782 19.8223C103.102 19.813 103.1 19.7566 103.415 19.7566C103.394 19.505 103.168 19.3382 102.933 18.7768C102.785 18.4214 102.661 18.0836 102.552 17.6969C101.933 15.51 101.344 12.923 100.746 10.6681C100.546 9.911 100.358 9.13017 100.137 8.354C99.7335 6.93305 99.3533 5.13472 98.9531 3.6914C98.3819 1.62985 98.9517 1.86978 98.9661 1.19937H93.1826C92.7298 1.19797 92.235 1.06333 92.4302 1.49241C92.5933 1.85114 92.7209 1.8395 92.6734 2.40275C92.6445 2.74565 92.5117 3.08575 92.4838 3.42491H92.4843ZM59.6275 30.9663C59.8022 30.6234 60.6706 26.7491 60.9497 25.9087L61.0047 25.7731C61.0089 25.7638 61.0173 25.7437 61.0256 25.7302L62.4871 31.5501C62.5854 31.6871 62.7513 32.4916 62.8049 32.7209H59.246C59.246 32.3906 59.3596 32.0761 59.4235 31.8184C59.4868 31.5636 59.621 31.2011 59.6271 30.9659L59.6275 30.9663Z" fill="url(#paint0_linear_9_2261)"/>
<defs>
<linearGradient id="paint0_linear_9_2261" x1="3.68279" y1="20.8827" x2="96.0749" y2="1.19937" gradientUnits="userSpaceOnUse">
<stop stop-color="#A06933"/>
<stop offset="0.419608" stop-color="#FEC955"/>
<stop offset="0.74902" stop-color="#FBD381"/>
<stop offset="1" stop-color="#E0A648"/>
</linearGradient>
</defs>
</svg>
