<svg width="78" height="41" viewBox="0 0 78 41" fill="none" xmlns="http://www.w3.org/2000/svg">
<path fill-rule="evenodd" clip-rule="evenodd" d="M73.4753 0.68613C72.7962 0.954729 72.0789 1.65142 71.75 2.36163C71.5285 2.83962 71.4832 3.06773 71.4832 3.70511C71.4832 4.68719 71.795 5.41612 72.4968 6.07548C73.1875 6.72428 73.8412 6.9495 74.8845 6.89806C75.8918 6.84845 76.4814 6.57602 77.1208 5.86493C77.6748 5.24876 77.9553 4.5228 77.9553 3.70511C77.9553 2.51335 77.2453 1.34616 76.1903 0.803396C75.508 0.45227 74.2082 0.396227 73.4753 0.68613ZM75.9522 1.04704C76.5364 1.33215 77.0337 1.82588 77.3551 2.43965C77.5753 2.86045 77.6157 3.05611 77.6157 3.70511C77.6157 4.3541 77.5753 4.54977 77.3551 4.97056C77.0345 5.5829 76.5378 6.07672 75.9522 6.36519C75.5955 6.54099 75.3478 6.58398 74.6925 6.58398C73.9677 6.58398 73.8196 6.55222 73.363 6.29935C72.3447 5.73538 71.8137 4.8461 71.8137 3.70511C71.8137 2.38908 72.5342 1.38253 73.8175 0.905885C74.3375 0.712712 75.413 0.783916 75.9522 1.04704ZM73.2531 3.69609C73.2531 5.32044 73.2604 5.38445 73.445 5.38445C73.6199 5.38445 73.637 5.32044 73.637 4.66473V3.94501H74.0256C74.5903 3.94501 74.9498 4.16995 75.1852 4.67059C75.3999 5.12737 75.6794 5.38445 75.9615 5.38445C76.2144 5.38445 76.1766 5.26977 75.6876 4.55553L75.2432 3.90634L75.598 3.60847C75.9211 3.33719 75.9502 3.27299 75.9225 2.89279C75.8949 2.51489 75.8556 2.45606 75.5082 2.2745C75.2142 2.12067 74.9054 2.06607 74.1887 2.04074L73.2531 2.00782V3.69609ZM75.0545 2.5123C75.4589 2.65326 75.5544 2.96495 75.265 3.19919C75.0884 3.34237 74.9128 3.37154 74.3652 3.34918L73.6849 3.32126L73.6545 2.95132C73.6044 2.34081 73.6646 2.2792 74.2447 2.34734C74.524 2.38025 74.8884 2.45443 75.0545 2.5123ZM5.35971 5.1385C3.52433 5.4997 2.17885 6.40635 1.54521 7.70875C1.01223 8.80436 0.978259 9.17074 1.01808 13.3894C1.05311 17.0935 1.06261 17.2607 1.27526 17.9075C1.77897 19.4397 2.64724 20.8811 4.68567 23.5689C6.69935 26.2241 7.38375 27.3507 7.92133 28.8952L8.23858 29.8069V32.4938C8.23858 34.8376 8.2168 35.2371 8.06825 35.6221C7.70225 36.5704 6.97351 36.8034 6.15965 36.2322C5.51584 35.7803 5.47669 35.5817 5.46537 32.71C5.46009 31.351 5.4312 30.2391 5.40136 30.239C5.2959 30.2385 2.66374 31.8054 1.98778 32.271C0.898995 33.021 0.965209 32.8475 1.01492 34.8164C1.05378 36.3588 1.082 36.5882 1.30616 37.1844C1.94067 38.8719 3.26149 39.9772 5.11242 40.3696C5.94595 40.5462 7.71511 40.5427 8.5922 40.3625C10.6794 39.9336 12.1881 38.5184 12.6509 36.5553C12.8628 35.6564 12.8621 28.5187 12.6501 27.6919C12.2898 26.2877 11.2518 24.551 8.58434 20.8896C7.03263 18.7597 6.24535 17.515 5.81831 16.5161L5.55164 15.8923V12.9655C5.55164 10.0471 5.55231 10.0375 5.78329 9.63424C6.19007 8.92412 6.83791 8.78392 7.59314 9.24252C8.19415 9.60756 8.23206 9.78241 8.26987 12.3657C8.28867 13.6456 8.32725 14.6928 8.35556 14.6928C8.44605 14.6928 9.46335 14.0976 10.1578 13.6385C10.5273 13.3941 11.186 12.9875 11.6216 12.7347C12.8217 12.0384 12.824 12.0336 12.7749 10.4225C12.7424 9.35566 12.6899 8.95281 12.52 8.46609C11.9725 6.89759 10.8853 5.84161 9.24619 5.28628C8.44692 5.01547 6.38315 4.93698 5.35971 5.1385ZM15.9636 22.7057V39.835H18.2184H20.4732L20.4975 24.7928L20.5218 9.75074L21.1455 9.72377C22.4517 9.66744 23.0806 10.3631 23.2593 12.062C23.383 13.2383 23.3744 20.767 23.2487 21.3142C23.0822 22.0394 22.8051 22.2406 21.4467 22.6231C21.3473 22.6511 21.3323 22.7688 21.3838 23.1147C21.4949 23.8602 21.9756 25.6729 22.1918 26.1617L22.3932 26.6169L22.9929 26.5499C24.3089 26.4029 25.6669 25.7539 26.3893 24.9267C26.8738 24.3719 27.4321 23.1445 27.6397 22.1779C27.7974 21.4441 27.8149 20.8322 27.8149 16.0843C27.8149 11.3013 27.7983 10.7344 27.6383 10.0386C27.2411 8.31159 26.397 7.15093 25.0622 6.49627C23.6161 5.78701 22.0819 5.57724 18.3386 5.57666L15.9636 5.57637V22.7057ZM30.9749 5.66437C30.9522 5.68635 30.9337 13.3837 30.9337 22.7697V39.835H35.6748H40.416L40.3644 39.619C40.0522 38.3127 39.2421 35.5506 39.1549 35.4951C39.0931 35.4558 38.2546 35.423 37.2915 35.4221L35.5405 35.4207L35.5162 20.5225L35.4919 5.62436H33.254C32.0231 5.62436 30.9975 5.6424 30.9749 5.66437ZM45.3825 5.68865C45.3597 5.7588 45.2063 7.17655 45.0415 8.8391C44.7559 11.7203 44.3843 15.3973 43.6498 22.6097C43.467 24.4042 43.0999 28.0316 42.8341 30.6705C42.0634 38.3198 41.9741 39.1932 41.9285 39.5231L41.8855 39.835H43.9317H45.978L46.0369 39.4271C46.0693 39.2028 46.2903 37.2919 46.5279 35.1808C46.7656 33.0696 46.9864 31.1587 47.0186 30.9344L47.0772 30.5266H48.6407H50.2041L50.261 30.9824C50.2923 31.2332 50.4276 32.6474 50.5615 34.1252C50.6956 35.603 50.8683 37.4552 50.9455 38.241C51.0227 39.0269 51.0858 39.707 51.0858 39.7524C51.0858 39.7978 52.1241 39.835 53.3932 39.835H55.7007L55.6486 39.5231C55.6199 39.3515 55.4862 38.11 55.3514 36.7642C55.2166 35.4183 54.8927 32.2227 54.6316 29.6629C54.3706 27.1031 53.9611 23.0871 53.7218 20.7384C53.4825 18.3898 53.1824 15.4533 53.0549 14.213C52.9274 12.9727 52.6855 10.576 52.5173 8.88708C52.3489 7.19814 52.1719 5.7731 52.1236 5.72032C52.0696 5.66111 50.7698 5.61226 48.7299 5.59269C46.0425 5.56697 45.4161 5.58491 45.3825 5.68865ZM55.1601 5.67973C55.0741 5.81714 55.4147 9.44654 55.5423 9.75189L55.6822 10.0866H57.6063H59.5305V24.9608V39.835H61.8336H64.1367V24.9608V10.0866H66.1021C68.0629 10.0866 68.0676 10.0861 68.1128 9.87069C68.204 9.43541 68.449 5.74037 68.3927 5.64921C68.3304 5.54845 55.2233 5.57868 55.1601 5.67973ZM48.9587 13.8051C49.0064 13.8975 49.0737 14.5129 49.1081 15.1726C49.1426 15.8324 49.2136 16.9767 49.266 17.7156C49.4648 20.5209 49.7423 25.1553 49.7423 25.6709V26.2083H48.5784H47.4145L47.4779 25.4646C47.5128 25.0556 47.5832 24.1487 47.6342 23.4494C47.7894 21.3251 47.9032 19.8654 48.156 16.756C48.2891 15.1198 48.3981 13.7488 48.3984 13.7092C48.3993 13.562 48.8751 13.6435 48.9587 13.8051Z" fill="#E35B63"/>
</svg>
