<svg width="392" height="41" viewBox="0 0 392 41" fill="none" xmlns="http://www.w3.org/2000/svg">
<path fill-rule="evenodd" clip-rule="evenodd" d="M239.657 3.17017C237.59 4.63192 233.462 7.54221 230.482 9.63785L225.065 13.4481L219.637 7.16707C216.652 3.71245 214.169 0.926269 214.12 0.975624C213.994 1.10175 220.231 30.1415 220.384 30.1415C220.453 30.1415 225.572 23.6358 231.759 15.6847C243.156 1.03837 243.588 0.478616 243.477 0.500551C243.443 0.507253 241.724 1.70863 239.657 3.17017ZM27.8054 2.46844C24.2137 4.29009 24.1296 9.39737 27.6618 11.2152C29.6557 12.2412 31.6447 11.9935 33.2903 10.514C34.437 9.48308 34.9562 8.34854 34.9562 6.87379C34.9562 3.12691 31.1412 0.776779 27.8054 2.46844ZM166.085 7.40045C163.577 7.8227 161.765 8.71635 159.989 10.4062C159.347 11.0175 158.821 11.4333 158.821 11.3303C158.821 11.2274 159.004 10.4834 159.227 9.67725C159.451 8.87092 159.634 8.11882 159.634 8.0057C159.634 7.87347 158.158 7.79995 155.51 7.79995H151.387L147.15 22.8805C144.82 31.1749 142.752 38.5324 142.554 39.2305L142.195 40.4999L146.903 40.4995L151.611 40.4992L152.253 38.2145C152.606 36.9581 153.281 34.5377 153.753 32.8359L154.61 29.7418L155.177 30.6346C155.51 31.1607 156.143 31.7623 156.717 32.0986C157.561 32.5932 157.952 32.6799 159.638 32.7478C162.08 32.8459 163.557 32.4989 166.093 31.2312C170.056 29.2497 172.994 25.6167 174.658 20.6409C176.586 14.8727 175.321 9.65898 171.595 8.01606C170.716 7.62853 168.357 7.17439 167.453 7.21846C167.23 7.22943 166.614 7.31128 166.085 7.40045ZM381.698 7.40532C379.353 7.81417 376.579 9.29501 375.339 10.7998C375.006 11.204 374.691 11.4928 374.64 11.4416C374.561 11.3628 375.007 9.54746 375.441 8.18138C375.56 7.80442 375.425 7.79345 371.36 7.84646L367.156 7.9015L362.612 24.0484C360.113 32.9291 358.068 40.2639 358.068 40.3475C358.068 40.4312 360.166 40.4999 362.731 40.4999H367.394L367.676 39.5351C367.83 39.0046 368.497 36.6283 369.156 34.2546C369.815 31.8807 370.401 29.9441 370.457 29.951C370.513 29.9577 370.832 30.346 371.168 30.814C371.549 31.3467 372.189 31.8736 372.88 32.2233C374.943 33.2687 378.583 32.9096 381.746 31.3488C385.801 29.3476 388.844 25.572 390.576 20.3925C391.333 18.1303 391.586 15.1603 391.186 13.2393C390.845 11.6 389.867 9.75788 388.897 8.9282C387.432 7.67402 384.144 6.97859 381.698 7.40532ZM66.8146 7.70753C62.9556 8.53031 59.2073 10.9225 56.7215 14.1488C54.151 17.4852 52.5046 23.0978 53.1769 26.2328C53.8681 29.4556 56.2607 31.7424 59.9649 32.7205C60.8074 32.9429 62.0427 33.053 63.6665 33.0506C66.8197 33.0457 68.9677 32.5278 72.0787 31.0218C74.1116 30.0377 74.6004 29.6947 76.0392 28.2431C77.2168 27.0551 77.9247 26.1212 78.5439 24.9382C79.0186 24.0313 79.4071 23.186 79.4071 23.0594C79.4071 22.8953 78.0845 22.8297 74.7684 22.8297H70.1295L69.8892 23.357C69.4556 24.3087 68.5564 25.3293 67.638 25.9124C66.9123 26.3731 66.5018 26.4856 65.5462 26.4856C63.3752 26.4856 62.5494 25.5794 62.5494 23.1971C62.5494 21.4356 62.9875 19.8323 64.0743 17.6166C65.2085 15.3045 66.3117 14.238 67.9475 13.8718C70.0905 13.3922 71.486 14.2926 71.486 16.1547V17.1428H76.2815H81.0769L81.0019 14.9594C80.9369 13.0687 80.8506 12.62 80.3573 11.6122C79.0188 8.87844 75.5071 7.37647 70.532 7.40978C69.2135 7.41872 67.5407 7.55277 66.8146 7.70753ZM129.777 7.69881C123.381 8.99218 118.622 13.2663 116.55 19.58C115.797 21.8723 115.555 24.76 115.968 26.5124C116.555 29.0041 118.069 30.9925 120.108 31.9491C122.093 32.8804 123.283 33.0871 126.629 33.0811C129.183 33.0766 129.938 33.0006 131.298 32.6115C138.112 30.6619 143.162 24.7698 144.052 17.7292C144.716 12.4744 142.16 8.75494 137.157 7.69494C135.451 7.33341 131.574 7.33545 129.777 7.69881ZM257.165 7.61777C255.04 7.90476 252.082 8.69056 250.744 9.32385C249.039 10.1304 247.324 11.8168 246.467 13.5308C246.073 14.3186 245.75 15.088 245.75 15.2405C245.75 15.4666 246.582 15.5179 250.25 15.5179H254.749L255.449 14.7002C256.628 13.3226 258.149 12.8475 259.977 13.286C261.591 13.6733 262.047 14.7429 261.085 15.8862C260.322 16.7932 259.403 17.0619 254.345 17.8569C248.967 18.7018 247.968 18.9531 246.107 19.9271C243.382 21.3542 241.592 23.828 241.042 26.927C240.628 29.2623 241.75 31.2454 244.112 32.3531C245.169 32.8491 245.433 32.8832 248.187 32.8802C250.846 32.8771 251.274 32.8256 252.585 32.3489C253.384 32.0584 254.736 31.3973 255.588 30.8796C256.441 30.3619 257.18 29.9384 257.23 29.9384C257.28 29.9384 257.264 30.4868 257.194 31.157L257.066 32.3757H262.173C267.415 32.3757 267.753 32.3216 267.032 31.6002C266.499 31.0677 266.85 29.1867 268.686 22.7282C269.702 19.1535 270.683 15.4192 270.866 14.4297C271.559 10.6769 270.376 8.95989 266.365 7.89501C264.87 7.49814 259.296 7.33017 257.165 7.61777ZM287.488 7.73089C283.553 8.57235 279.501 11.2458 277.032 14.63C275.44 16.8123 274.043 20.4745 273.806 23.0883C273.508 26.3824 274.222 28.5782 276.174 30.3666C278.284 32.2993 280.709 33.0737 284.543 33.0386C291.632 32.9736 297.788 29.1006 299.984 23.3249L300.172 22.8297H295.511H290.85L290.529 23.4512C290.036 24.4046 288.82 25.6594 287.967 26.094C287.463 26.3512 286.784 26.4856 285.989 26.4856C284.985 26.4856 284.671 26.3965 284.159 25.9649C282.666 24.7085 282.837 21.6166 284.605 17.8823C286.005 14.9269 287.351 13.8198 289.566 13.8019C290.73 13.7924 290.884 13.8446 291.495 14.4555C292.068 15.0278 292.16 15.2592 292.16 16.1311V17.1428H296.878H301.596L301.729 16.6127C301.95 15.7343 301.668 13.2568 301.208 12.0333C300.441 9.99085 298.096 8.35707 294.985 7.6982C293.191 7.31819 289.34 7.33483 287.488 7.73089ZM345.576 7.71749C338.191 9.35959 332.633 15.1745 331.452 22.4946C330.446 28.7324 334.684 32.9677 341.945 32.9815C346.621 32.9903 351.114 31.4964 353.998 28.9735C354.931 28.1572 357.045 25.5542 357.05 25.2162C357.051 25.1325 355.057 25.0639 352.619 25.0639H348.186L347.693 25.5984C346.916 26.4423 345.337 27.0907 344.053 27.0927C341.674 27.0962 340.277 25.5361 340.555 23.1852L340.645 22.4235H349.631H358.618L358.993 20.7479C359.508 18.4449 359.504 15.208 358.984 13.5951C358.105 10.8693 356.181 8.92394 353.458 8.00976C351.63 7.39618 347.68 7.24953 345.576 7.71749ZM89.0766 7.96771C88.9336 8.19905 82.2506 31.886 82.2506 32.1614C82.2506 32.317 83.6264 32.3669 86.8481 32.3288L91.4458 32.2741L92.702 27.8058C93.3929 25.3482 94.4893 21.4411 95.1384 19.1231L96.3185 14.9086H100.063C103.534 14.9086 103.799 14.9346 103.7 15.2641C103.641 15.4594 102.583 19.2297 101.348 23.6421C100.113 28.0546 99.051 31.8265 98.9887 32.0241C98.8823 32.3617 99.1609 32.3799 103.611 32.3288L108.346 32.2741L111.741 20.2909C113.609 13.7002 115.14 8.19357 115.145 8.05383C115.152 7.85337 112.426 7.79995 102.167 7.79995C95.0241 7.79995 89.1334 7.8755 89.0766 7.96771ZM180.97 8.56159C180.855 8.9806 180.409 10.5571 179.977 12.0652L179.192 14.8071L183.282 14.9086L187.372 15.0102L185.088 23.1344C183.832 27.6027 182.748 31.5098 182.678 31.8171L182.552 32.3757H187.13H191.709L191.989 31.4109C192.144 30.8804 193.262 26.9501 194.473 22.6774L196.676 14.9086H200.786H204.895L205.107 14.2485C205.504 13.0132 206.754 8.31279 206.754 8.05586C206.754 7.85276 204.114 7.79995 193.966 7.79995H181.178L180.97 8.56159ZM306.692 8.56159C306.578 8.9806 306.131 10.5571 305.699 12.0652L304.915 14.8071L308.959 14.8621C312.683 14.9127 312.994 14.945 312.896 15.2683C312.838 15.4615 311.791 19.1948 310.57 23.5644C309.35 27.934 308.289 31.7042 308.214 31.9424L308.076 32.3757H312.752H317.427L317.806 31.1063C318.014 30.4082 319.137 26.4781 320.303 22.3727L322.422 14.9086H326.486H330.55L331.447 11.6082C331.94 9.79302 332.383 8.19357 332.432 8.05383C332.501 7.85255 329.869 7.79995 319.71 7.79995H306.9L306.692 8.56159ZM1.00856 8.05708C1.2072 8.2614 32.0457 23.8452 32.2516 23.8452C32.4744 23.8452 46.352 8.1895 46.2338 8.0713C46.1954 8.03291 42.6674 9.41504 38.3937 11.1429L30.6235 14.2845L16.1716 11.2381C8.22286 9.56269 1.53664 8.13812 1.31322 8.07231C1.08981 8.00651 0.95271 7.9996 1.00856 8.05708ZM211.645 8.94729C211.527 9.37746 209.981 14.802 208.208 21.0018L204.985 32.2741L210.876 32.3279C214.117 32.3576 216.81 32.3399 216.861 32.2885C216.948 32.2018 212.057 8.39322 211.921 8.23642C211.886 8.19722 211.762 8.51711 211.645 8.94729ZM232.207 20.2568L223.031 32.2741L228.734 32.3281C231.871 32.3578 234.481 32.3387 234.534 32.2857C234.641 32.1793 241.479 8.33554 241.42 8.27644C241.399 8.25613 237.254 13.6473 232.207 20.2568ZM349.128 13.6396C350.07 14.1123 350.748 15.3414 350.752 16.5842L350.756 17.549H346.49C343.691 17.549 342.225 17.4769 342.225 17.3392C342.225 16.8091 343.301 15.0914 343.988 14.5256C345.438 13.3303 347.725 12.9359 349.128 13.6396ZM133.419 14.0458C134.409 14.551 134.859 15.272 134.993 16.5715C135.244 19.0055 133.744 23.228 131.974 25.0692C130.707 26.3871 129.779 26.7903 128.016 26.7903C126.745 26.7903 126.49 26.7257 126.01 26.2825C125.225 25.5584 124.903 24.6569 124.903 23.1876C124.903 20.1739 126.623 16.2522 128.63 14.6885C129.916 13.6865 132.131 13.3894 133.419 14.0458ZM165.03 15.1578C165.921 16.1299 166.096 17.3103 165.655 19.3607C164.798 23.3411 162.617 25.5377 159.522 25.5377C158.403 25.5377 157.668 25.0486 157.184 23.9817C156.168 21.7451 157.451 17.4803 159.692 15.6443C161.003 14.5696 161.782 14.282 163.167 14.3619C164.24 14.4238 164.433 14.5063 165.03 15.1578ZM380.37 14.7108C381.35 15.3081 381.696 16.2995 381.572 18.1567C381.285 22.4806 378.843 25.4813 375.6 25.4967C374.168 25.5036 373.688 25.2637 373.134 24.263C372.259 22.6823 372.459 20.4268 373.69 17.9881C374.373 16.6342 376.152 14.8899 377.187 14.5591C378.322 14.1961 379.628 14.2583 380.37 14.7108ZM12.1562 29.8815C7.75653 34.8854 4.03341 39.1364 3.8827 39.3279C3.72591 39.5272 7.59425 38.0685 12.9209 35.9196L22.233 32.1632L39.5918 35.8136C49.1392 37.8213 56.9677 39.4457 56.9886 39.4234C57.0229 39.3868 20.6988 20.9823 20.3153 20.8417C20.2276 20.8096 16.5561 24.8774 12.1562 29.8815ZM259.466 22.5647C259.388 22.9774 259.109 23.7413 258.845 24.262C257.715 26.4929 256.26 27.5133 254.004 27.6581C251.359 27.8277 250.361 26.9783 251.149 25.2294C251.677 24.0591 252.618 23.5276 255.198 22.9412C256.425 22.6624 257.84 22.3037 258.343 22.1442C259.63 21.736 259.622 21.7332 259.466 22.5647Z" fill="#0B54A0"/>
<path fill-rule="evenodd" clip-rule="evenodd" d="M239.657 3.17017C237.59 4.63192 233.462 7.54221 230.482 9.63785L225.065 13.4481L219.637 7.16707C216.652 3.71245 214.169 0.926269 214.12 0.975624C213.994 1.10175 220.231 30.1415 220.384 30.1415C220.453 30.1415 225.572 23.6358 231.759 15.6847C243.156 1.03837 243.588 0.478616 243.477 0.500551C243.442 0.507253 241.724 1.70863 239.657 3.17017ZM1.00856 8.05708C1.2072 8.2614 32.0457 23.8452 32.2516 23.8452C32.4744 23.8452 46.352 8.1895 46.2338 8.0713C46.1954 8.03291 42.6674 9.41504 38.3937 11.1429L30.6235 14.2845L16.1716 11.2381C8.22286 9.56269 1.53664 8.13812 1.31322 8.07231C1.08981 8.00651 0.95271 7.9996 1.00856 8.05708Z" fill="#E35B63"/>
</svg>
