<svg width="115" height="41" viewBox="0 0 115 41" fill="none" xmlns="http://www.w3.org/2000/svg">
<path fill-rule="evenodd" clip-rule="evenodd" d="M74.8085 20.1748L74.9103 22.5541C74.923 22.7432 74.9482 22.9261 74.9736 23.1059C75.1677 24.4747 75.468 25.7803 75.9027 27.0571C76.106 27.6544 76.3603 28.2358 76.6069 28.8134C76.6388 28.888 76.669 28.9321 76.7008 29.0066L77.0025 29.6277C77.1995 30.022 77.4309 30.419 77.6576 30.7977C77.8851 31.1779 78.1164 31.5648 78.3821 31.9186C78.4281 31.9797 78.4584 32.0302 78.4994 32.0883L78.8918 32.6187C79.1083 32.9079 79.3352 33.203 79.581 33.4674C79.6171 33.5063 79.6154 33.5109 79.6447 33.5472C79.8885 33.8499 80.1861 34.1572 80.4629 34.4309C80.5266 34.4938 80.5472 34.5346 80.6059 34.5955C80.8543 34.8537 81.1337 35.0807 81.3852 35.3337C81.603 35.5527 81.9639 35.8371 82.2044 36.0318C82.7464 36.4707 83.0886 36.6929 83.602 37.0743C83.7237 37.1647 83.8505 37.2347 83.9745 37.317C84.2168 37.4779 84.4797 37.6423 84.734 37.7878C84.8684 37.8647 84.9884 37.9297 85.1291 38.0078C85.5224 38.2263 85.9353 38.4645 86.35 38.6324C86.4799 38.685 86.6164 38.7592 86.7571 38.82L87.63 39.1774C87.7773 39.2367 87.9357 39.2974 88.0777 39.3448C88.3919 39.4498 88.6791 39.5505 89.0054 39.6474C89.3336 39.7448 89.6251 39.8268 89.97 39.9131C90.4579 40.035 90.9762 40.1453 91.4792 40.2289C93.5458 40.5721 95.7215 40.5878 97.7889 40.2845C97.9236 40.2647 98.1096 40.2377 98.2477 40.2102C99.1219 40.0358 99.9966 39.8603 100.838 39.5807C100.98 39.5334 101.099 39.4932 101.237 39.4471C101.367 39.4038 101.506 39.3503 101.632 39.3087C102.405 39.0521 103.152 38.6987 103.878 38.3356C104.008 38.2707 104.101 38.2129 104.227 38.151C104.347 38.0917 104.456 38.0298 104.57 37.9615C105.022 37.6919 105.466 37.4389 105.907 37.1449C106.332 36.8611 106.733 36.5531 107.142 36.248C107.241 36.1746 107.345 36.0927 107.438 36.0101C107.486 35.9667 107.531 35.9324 107.585 35.8907L108.024 35.5096C108.089 35.4573 108.105 35.4427 108.165 35.3841L108.586 35.0054C108.852 34.7383 109.437 34.1778 109.635 33.9219L109.898 33.6315C110.071 33.4542 110.228 33.2432 110.382 33.0493C110.818 32.502 111.228 31.9334 111.616 31.3503L111.929 30.8439C111.999 30.7273 112.066 30.6236 112.128 30.5093C112.191 30.3927 112.253 30.2926 112.319 30.1676C112.569 29.6993 112.834 29.2407 113.033 28.7488L113.203 28.3651C113.767 27.0189 113.803 26.7729 114.16 25.57C114.19 25.4721 114.261 25.232 114.261 25.1165H104.521C104.485 25.2686 104.219 25.7195 104.13 25.8743C103.821 26.4127 103.458 26.9339 103.058 27.4067L102.362 28.1666C101.792 28.7391 101.086 29.2798 100.4 29.6903C99.7762 30.0637 99.1182 30.3874 98.4331 30.635C95.3389 31.7533 91.818 31.3313 89.1046 29.6236C88.6402 29.3313 87.9956 28.89 87.6192 28.5049C87.5588 28.443 87.5241 28.4266 87.4651 28.3719C86.773 27.7318 86.1174 26.9353 85.6341 26.1224C85.3688 25.6762 85.2518 25.4364 85.0267 24.9868C84.9613 24.8561 84.9029 24.7114 84.8471 24.5718C84.7375 24.2966 84.6274 24.0229 84.5411 23.7295C84.1919 22.5426 84.0564 21.6192 84.0564 20.2977C84.0564 18.9018 84.4137 17.2942 85.013 16.0461L85.2212 15.6186C85.2667 15.5439 85.2932 15.4858 85.3343 15.4036L85.5726 14.9857C85.6143 14.9161 85.6531 14.847 85.6966 14.7816C85.9574 14.3899 86.2195 14.0009 86.5234 13.6399C86.7308 13.3933 86.921 13.1783 87.1476 12.9517L87.5568 12.5612C87.5903 12.5331 87.6086 12.5111 87.6394 12.4798L87.905 12.2533C87.9438 12.2207 87.955 12.2074 87.9933 12.1775L88.3625 11.8905C89.7756 10.8318 91.4511 10.1112 93.2051 9.86391C94.9734 9.61469 96.7533 9.78321 98.418 10.3653C98.891 10.5306 99.3141 10.7329 99.7565 10.9542C100.388 11.2701 100.978 11.6555 101.522 12.1003L101.779 12.3151C101.837 12.364 101.855 12.3745 101.911 12.4291C102.115 12.6278 102.338 12.8058 102.537 13.0128L103.103 13.6567C103.614 14.3015 103.965 14.8433 104.363 15.5545C104.404 15.6279 104.504 15.8161 104.521 15.8891H114.261C114.261 15.7768 114.197 15.5583 114.165 15.4512L113.802 14.2151C113.422 13.051 112.861 11.7412 112.239 10.6926C112.069 10.4054 111.919 10.1183 111.734 9.84419C111.448 9.42003 111.173 8.99069 110.865 8.58046C110.707 8.36875 110.566 8.18081 110.401 7.97878L109.784 7.24193C109.526 6.93338 108.729 6.11883 108.464 5.897C108.317 5.77472 108.197 5.62802 108.047 5.51343L107.608 5.13242C107.553 5.08909 107.511 5.05902 107.459 5.01501C107.169 4.76954 106.873 4.53227 106.559 4.31588C105.209 3.38647 104.663 3.06159 103.188 2.33483C103.07 2.27681 102.937 2.22875 102.819 2.17108C102.011 1.77923 100.928 1.4511 100.043 1.19398C99.7546 1.11006 99.4706 1.04843 99.173 0.977501C98.8898 0.910041 98.574 0.859634 98.2817 0.802556C97.9824 0.744107 97.6401 0.693673 97.34 0.657414C96.2805 0.529298 95.0974 0.476713 94.0007 0.509528L93.1402 0.57169C92.3058 0.597862 90.8108 0.88239 89.9865 1.08848C89.6701 1.16756 89.3385 1.25189 89.0366 1.34835C88.7151 1.45107 88.4281 1.54513 88.1086 1.65065L86.3648 2.36754C86.0868 2.48226 85.8157 2.63518 85.5532 2.76577C84.9258 3.07773 84.2195 3.50267 83.6379 3.90568L82.5798 4.67252C82.2241 4.94465 81.7329 5.33642 81.4057 5.65148L80.6162 6.39997C80.5585 6.45836 80.5415 6.49616 80.4838 6.55455C80.4282 6.61069 80.3857 6.65179 80.3295 6.70792C80.0991 6.93833 79.8963 7.18585 79.6734 7.42562L79.4579 7.68174C79.1732 8.00148 78.8984 8.35075 78.6552 8.70406L78.1591 9.41767C77.8259 9.91738 77.5303 10.4299 77.229 10.9482C77.1907 11.0143 77.1631 11.0854 77.1247 11.1515C76.6594 11.9521 76.2201 13.0691 75.9132 13.918C75.6919 14.5302 75.5185 15.1817 75.358 15.8234C75.1965 16.4692 74.9556 17.7061 74.911 18.4318C74.8883 18.8027 74.827 19.1977 74.8295 19.5805C74.8303 19.7119 74.8092 19.7476 74.8077 19.8663C74.8064 19.9683 74.8085 20.0724 74.8085 20.1747L74.8085 20.1748Z" fill="#FFD24F"/>
<path fill-rule="evenodd" clip-rule="evenodd" d="M0.996116 20.1742L1.0458 21.9906C1.10258 22.3701 1.10887 22.7351 1.16132 23.1053C1.35542 24.4741 1.65574 25.7797 2.09041 27.0565C2.29373 27.6538 2.54805 28.2352 2.79466 28.8128L3.84522 30.7971C3.88519 30.8638 3.91776 30.918 3.96047 30.9894C4.00553 31.0645 4.03528 31.1059 4.07848 31.179C4.15731 31.3124 4.23742 31.4235 4.32206 31.5505C4.40537 31.6755 4.48006 31.7984 4.5698 31.9179C4.61574 31.9791 4.64613 32.0296 4.68713 32.0876C4.73 32.1484 4.77212 32.1968 4.81833 32.264C4.90702 32.3929 4.98857 32.4965 5.07951 32.618L6.34305 34.1227C6.39193 34.1782 6.44319 34.2232 6.49669 34.2766L6.7936 34.5949C6.89901 34.7045 6.9949 34.7745 7.10161 34.8815C7.20721 34.9875 7.29872 35.0958 7.4143 35.184L8.0659 35.7627C8.49998 36.141 8.96395 36.5037 9.44023 36.8285L10.1622 37.3163C10.6456 37.6373 11.1886 37.9658 11.7135 38.2257C11.9825 38.3589 12.2652 38.5214 12.5377 38.6318C12.6677 38.6844 12.8041 38.7586 12.9448 38.8193C13.0971 38.8851 13.2264 38.9384 13.3786 39.0007C13.9748 39.2448 14.5741 39.463 15.1931 39.6468C15.5212 39.7442 15.8127 39.8263 16.1577 39.9125C16.492 39.9961 16.7958 40.0638 17.1457 40.1343C17.326 40.1707 17.4901 40.1989 17.6669 40.2283C17.8381 40.2568 18.0243 40.2916 18.1999 40.3104C18.9492 40.3904 19.7108 40.4949 20.4761 40.4949H21.5218C22.2297 40.4949 22.8637 40.4092 23.509 40.3495C23.6576 40.3358 23.8169 40.3073 23.9765 40.2839C25.152 40.1114 26.3041 39.8199 27.4247 39.4465C27.5547 39.4032 27.694 39.3497 27.8195 39.3081L28.6031 39.005C28.7345 38.9461 28.8491 38.9082 28.9788 38.8476L30.7579 37.9609C31.2094 37.6914 31.6532 37.4384 32.0943 37.1443C32.5748 36.824 33.2079 36.3819 33.6252 36.0095C33.9118 35.7538 34.2251 35.5302 34.4969 35.2613C34.5453 35.2134 34.58 35.1732 34.6295 35.1273C34.9045 34.873 35.3627 34.4686 35.5679 34.1998C35.6474 34.0956 35.7362 34.0333 35.8226 33.9213L36.3312 33.3431C36.7459 32.8674 37.1239 32.3482 37.4833 31.8295C37.6375 31.6068 37.7643 31.4009 37.9138 31.1733L38.6984 29.8254L39.3057 28.5668C39.6612 27.7381 39.9847 26.8656 40.2342 25.9889C40.2759 25.8423 40.306 25.7112 40.348 25.5695C40.3771 25.4716 40.4481 25.2315 40.4481 25.116H30.7081C30.6475 25.3762 30.0076 26.371 29.8634 26.5883C29.6513 26.9078 29.4122 27.1844 29.179 27.4828L28.9808 27.7153C28.7056 28.0128 28.5204 28.1742 28.2529 28.4432C27.926 28.7721 27.3044 29.2237 26.9393 29.4672C26.8175 29.5484 26.7131 29.6148 26.5878 29.6898C26.2229 29.9081 25.8406 30.1169 25.4521 30.2971L24.6207 30.6345C22.7692 31.3037 20.4438 31.4307 18.5648 30.9848C17.3106 30.6871 16.2443 30.2223 15.2922 29.6232C14.5761 29.1725 13.946 28.6643 13.3556 28.0739C12.8734 27.5917 12.4327 27.0552 12.0524 26.4858C12.0103 26.4226 11.9829 26.373 11.9419 26.3093C11.8979 26.2405 11.8632 26.1919 11.8217 26.1219C11.7489 25.9996 11.6833 25.894 11.611 25.7585C11.51 25.5692 11.3882 25.3802 11.3074 25.1804C11.28 25.1129 11.2501 25.0579 11.2143 24.9864C11.1488 24.8556 11.0904 24.711 11.0347 24.5713C10.211 22.5051 9.99245 20.1676 10.5349 17.9841C10.6208 17.6382 10.7123 17.3156 10.8256 16.9829C10.936 16.6586 11.0516 16.3559 11.2006 16.0456C11.2376 15.9685 11.2682 15.9199 11.3016 15.839C11.4643 15.4447 11.895 14.72 12.1452 14.386C12.3348 14.1329 12.5068 13.8821 12.7109 13.6395C13.0299 13.2603 13.3645 12.8783 13.7443 12.5608L14.7386 11.7507L15.5331 11.2328C16.087 10.8993 16.6982 10.6212 17.3007 10.3962C18.2972 10.0242 19.5169 9.7576 20.5991 9.7576C21.5211 9.7576 22.1911 9.76857 23.0922 9.95067C24.1286 10.1601 25.0216 10.4925 25.9441 10.9538C26.3704 11.1669 26.7771 11.4129 27.1607 11.6852C27.7143 12.0783 28.2536 12.5229 28.7247 13.0124L29.0727 13.4026C29.2664 13.6095 29.4445 13.8417 29.6156 14.0695C29.7588 14.2602 29.8803 14.4424 30.011 14.6378C30.0722 14.7293 30.1382 14.8322 30.1946 14.9258L30.5507 15.554C30.5918 15.6275 30.6911 15.8157 30.7081 15.8887H40.4481C40.4481 15.5392 39.8378 13.7902 39.7076 13.4304C39.4319 12.6691 39.0745 11.9198 38.7123 11.2063L37.4997 9.19965C37.0917 8.59019 36.6173 8.03254 36.1595 7.46403C35.8201 7.04237 35.009 6.19565 34.6512 5.89657C34.505 5.77429 34.385 5.62758 34.235 5.513C34.136 5.43733 34.0443 5.33679 33.9393 5.2551C33.5379 4.94279 33.1667 4.60479 32.7464 4.31544C32.1038 3.87308 31.4682 3.43913 30.7837 3.05892L29.3756 2.3344C29.2578 2.27638 29.125 2.22831 29.0062 2.17064C28.8811 2.11001 28.7465 2.06329 28.6172 2.00608C27.5867 1.5504 26.4644 1.2401 25.3606 0.977066C24.1998 0.700473 22.7061 0.509766 21.5218 0.509766L19.3277 0.571255C18.9504 0.58309 18.5699 0.653832 18.2188 0.692619C17.8739 0.73068 17.5109 0.796446 17.1798 0.863395C16.5282 0.995142 15.8552 1.14628 15.2242 1.34794C14.9027 1.45066 14.6157 1.54472 14.2962 1.65024C13.8459 1.79899 13.4102 1.99481 12.974 2.17357C12.5589 2.34368 12.1393 2.5672 11.7409 2.76536C11.4697 2.90017 11.2172 3.05648 10.9482 3.20302C10.8171 3.27443 10.7025 3.34921 10.576 3.42538C9.6949 3.95581 8.886 4.57869 8.08807 5.22312C8.05606 5.24891 8.04374 5.26457 8.01178 5.29036C7.68796 5.55171 7.07845 6.12173 6.80382 6.39953C6.74607 6.45793 6.72912 6.49572 6.67134 6.55412L6.36293 6.86086C6.30408 6.922 6.28398 6.96254 6.21999 7.02548C6.01484 7.22719 5.8371 7.46618 5.6455 7.68131C5.54784 7.79103 5.47115 7.89294 5.37781 8.00823C5.10141 8.34959 4.8487 8.71207 4.58766 9.06355C4.50026 9.18123 4.4306 9.29135 4.34668 9.41723C4.2609 9.54588 4.18112 9.65547 4.10107 9.78678L3.41665 10.9478C2.89926 11.8383 2.44533 12.9646 2.10079 13.9176C1.87945 14.5298 1.70617 15.1813 1.54564 15.823C1.38412 16.4688 1.14314 17.7057 1.09865 18.4313C1.0759 18.8022 1.01468 19.1973 1.0171 19.5801C1.0179 19.7115 0.996788 19.7472 0.995282 19.8659C0.994018 19.9679 0.996089 20.072 0.996089 20.1743L0.996116 20.1742Z" fill="#FFD24F"/>
<path fill-rule="evenodd" clip-rule="evenodd" d="M44.0573 9.7371H53.2846V40.4949H62.5325V9.7371H71.7598V0.509766H44.0573V9.7371Z" fill="#FFD24F"/>
</svg>
