<svg width="272" height="41" viewBox="0 0 272 41" fill="none" xmlns="http://www.w3.org/2000/svg">
<path fill-rule="evenodd" clip-rule="evenodd" d="M-0.000366211 5.542V10.584H12.1151H24.2303L24.3 25.4159L24.3694 40.2478L32.47 40.2923L40.5706 40.3368V25.4604V10.584H52.6874H64.8042V5.542V0.5H32.4019H-0.000366211V5.542ZM69.1609 20.4999V40.4999H101.155H133.149V20.4999V0.5H101.155H69.1609V20.4999ZM138.05 20.4999V40.4999H170.044H202.038V20.4999V0.5H170.044H138.05V20.4999ZM206.666 20.4999V40.4999H238.933H271.199V35.4579V30.4159H247.101H223.004V27.8108V25.2058H247.101H271.199V20.1638V15.1218H247.101H223.004V12.8529V10.584H247.101H271.199V5.542V0.5H238.933H206.666V20.4999ZM117.084 12.8529V15.1218H100.882H84.6813L84.6832 13.9873C84.6843 13.3633 84.7632 12.3425 84.8588 11.7184L85.0323 10.584H101.058H117.084V12.8529ZM185.973 20.4999V30.4159H169.908H153.842V20.4999V10.584H169.908H185.973V20.4999ZM117.084 27.8108V30.4159H101.019H84.9536V27.8108V25.2058H101.019H117.084V27.8108Z" fill="#E35B63"/>
</svg>
