<svg width="158" height="41" viewBox="0 0 158 41" fill="none" xmlns="http://www.w3.org/2000/svg">
<path fill-rule="evenodd" clip-rule="evenodd" d="M50.7823 10.684C47.3619 12.5438 45.669 15.3114 45.363 19.5413C44.8827 26.1808 49.2147 31.0528 55.5696 31.0196C58.5091 31.0045 62.828 29.4357 62.7822 28.3999C62.7716 28.1503 62.3728 27.4324 61.8969 26.8041C61.0924 25.7432 60.8961 25.7319 59.1261 26.6473C56.7434 27.8794 55.0906 27.892 52.7769 26.6956C50.1672 25.3463 49.0078 23.3536 49.0078 20.2191C49.0078 17.9343 49.3646 17.1179 51.1397 15.3428C52.837 13.6455 53.7713 13.2109 55.7226 13.2109C57.0707 13.2109 58.721 13.6254 59.3907 14.1314C61.0379 15.3773 61.2372 15.3328 62.0593 13.5288C62.6888 12.1475 62.5841 11.8428 61.1614 10.911C58.6909 9.29205 53.5487 9.17919 50.7823 10.684ZM68.3871 10.9066C59.7725 15.4513 61.4943 28.4983 71.0106 30.7813C80.0729 32.9552 87.3238 23.1555 82.7171 14.9591C79.8334 9.82878 73.7118 8.09758 68.3871 10.9066ZM122.695 10.8828C119.439 12.7269 117.377 16.3673 117.363 20.2963C117.352 23.7173 118.334 25.9539 120.903 28.3585C127.589 34.6168 138.672 29.5448 138.672 20.2267C138.672 12.2096 129.66 6.93884 122.695 10.8828ZM83.603 11.9224C84.7392 13.3602 85.5813 13.7765 87.4128 13.8035L89.7641 13.8379V22.3027V30.7675H91.6452H93.5263V22.3027V13.8379H96.6614C99.7269 13.8379 99.7965 13.7959 99.7965 11.9569V10.0758H90.9705H82.1446L83.603 11.9224ZM101.678 11.9569C101.678 13.7959 101.747 13.8379 104.813 13.8379H107.948V22.3027V30.7675H109.829H111.71V22.3027V13.8379L114.061 13.8035C115.893 13.7765 116.735 13.3602 117.871 11.9224L119.329 10.0758H110.503H101.678V11.9569ZM141.18 20.4217V30.7675H143.04H144.899L145.077 24.1462L145.255 17.5255L149.549 24.1462C153.377 30.0496 154.04 30.7675 155.663 30.7675H157.482V20.4217V10.0758H155.623H153.763L153.585 16.8163L153.407 23.5568L149.106 16.8163C145.263 10.7925 144.613 10.0758 142.992 10.0758H141.18V20.4217ZM78.227 15.3428C79.8729 16.9887 80.3588 17.9963 80.3588 19.7633C80.3588 22.7861 78.8866 25.5074 76.6174 26.6812C71.7135 29.2169 66.5644 25.6736 66.5644 19.7633C66.5644 16.3523 69.8707 13.2109 73.4616 13.2109C75.6205 13.2109 76.4795 13.5953 78.227 15.3428ZM132.43 14.9352C137.206 19.2034 134.187 27.6405 127.887 27.6299C125.797 27.6267 122.436 25.382 121.726 23.5154C120.484 20.2473 120.973 17.6164 123.247 15.3428C126.069 12.5206 129.555 12.3657 132.43 14.9352Z" fill="#3F4651"/>
<path fill-rule="evenodd" clip-rule="evenodd" d="M20.1569 13.4705C20.1569 29.9348 19.5757 31.3945 13.0227 31.3945C7.32058 31.3945 5.81322 28.3021 5.76306 16.5028L5.73547 10.0759H7.93004H10.1246V17.7938C10.1246 26.273 10.6544 27.9096 13.2791 27.5352C15.9521 27.154 16.3754 25.1306 16.3854 12.6987L16.3948 1.21292L14.984 1.64933C11.8464 2.61933 8.99472 4.47154 6.54433 7.12948C3.25624 10.6972 2.27495 12.6259 1.34508 17.3512C0.0509082 23.9299 2.42794 30.7079 7.6993 35.4708C13.5983 40.7998 22.8368 42.0514 29.8174 38.4667C31.6784 37.5111 37.7122 32.1614 37.7148 31.4654C37.7154 31.2541 34.3295 31.1682 30.1905 31.2748C23.8839 31.4372 22.665 31.318 22.665 30.5424C22.665 30.0326 24.1949 26.2072 26.0653 22.0406L29.4657 14.465H26.0653H22.665V12.2704V10.0759H28.9352C32.3838 10.0759 35.2054 10.3085 35.2054 10.5931C35.2054 10.8772 33.6535 14.5948 31.7568 18.8541C29.8601 23.1135 28.3082 26.69 28.3082 26.8016C28.3082 26.9139 30.8564 27.0054 33.9708 27.0054C40.6066 27.0054 40.5483 27.0643 40.5031 20.4217C40.436 10.496 33.0993 2.27384 23.0845 0.901292L20.1569 0.5V13.4705Z" fill="#E35B63"/>
</svg>
