<svg width="192" height="41" viewBox="0 0 192 41" fill="none" xmlns="http://www.w3.org/2000/svg">
<path fill-rule="evenodd" clip-rule="evenodd" d="M175.937 0.644115C174.338 0.919351 172.795 1.61933 172.188 2.3451C171.716 2.91046 171.551 3.68784 171.777 4.28596C171.886 4.57221 172.052 4.89335 172.146 4.99966C172.441 5.33249 173.339 5.80478 173.814 5.87726L174.27 5.94675L173.865 5.61816C173.318 5.17361 173.068 4.49683 173.159 3.70534C173.297 2.51713 174.338 1.49041 175.968 0.937326C177.75 0.332252 180.31 0.686155 181.938 1.76284C183.089 2.52351 183.359 2.97608 183.359 4.1437C183.359 5.10017 183.343 5.14259 182.72 5.89678L182.082 6.66963L182.953 6.48427C185.893 5.85851 188.398 6.13597 190.047 7.27006C191.028 7.94529 191.45 8.6646 191.378 9.54181C191.33 10.1203 191.247 10.2859 190.801 10.6848C189.745 11.6306 187.672 12.1995 185.281 12.1995C183.619 12.1995 182.816 12.0853 179.358 11.357L176.763 10.8106L177.561 10.1916C178 9.85126 178.679 9.32824 179.07 9.02952L179.781 8.48639L180.733 8.47866C181.279 8.47421 181.792 8.41604 181.936 8.3422C182.314 8.14815 182.244 7.85919 181.792 7.75298C181.403 7.66146 181.116 7.70301 179.759 8.04696C179.317 8.15907 179.142 8.12631 177.181 7.56346C171.696 5.98917 169.993 5.64358 168.303 5.76216C166.408 5.89495 164.626 6.71031 163.774 7.83367C163.399 8.32896 163.359 8.48997 163.362 9.49349C163.364 10.5206 163.399 10.6484 163.817 11.1787C165.303 13.0658 168.931 13.7102 172.221 12.6718C172.546 12.5693 172.812 12.5025 172.812 12.5235C172.812 12.5444 172.655 12.7735 172.462 13.0328C172.162 13.4371 172.112 13.6692 172.111 14.6638C172.108 16.0283 172.332 16.4325 173.523 17.2203C174.508 17.8713 175.651 18.1974 177.173 18.2617C180.523 18.4032 183.185 17.165 183.543 15.2999C183.702 14.4658 182.806 13.6436 181.571 13.4908L181.086 13.4307L181.5 13.9407C181.834 14.3526 181.916 14.5918 181.925 15.1854C181.934 15.8254 181.873 15.9957 181.449 16.5058C180.92 17.1418 179.958 17.7445 179.128 17.959C178.396 18.148 176.646 18.1311 175.71 17.926C174.665 17.6966 173.27 16.8886 172.793 16.2352C172.47 15.7937 172.422 15.5809 172.424 14.6155C172.426 13.5695 172.456 13.4658 172.923 12.8518C173.197 12.4931 173.392 12.1995 173.358 12.1995C173.324 12.1995 172.748 12.3465 172.077 12.5263C171.407 12.7061 170.481 12.9073 170.02 12.9736C168.191 13.2361 166.365 12.8634 165.02 11.9532C163.987 11.254 163.561 10.5583 163.544 9.54181C163.532 8.86271 163.586 8.70596 163.985 8.25329C164.87 7.24754 166.266 6.78086 168.596 6.71147C170.44 6.65658 171.976 6.83247 174.425 7.37956C175.386 7.59391 176.804 7.90335 177.578 8.06716C178.351 8.23106 179.001 8.37226 179.022 8.38105C179.043 8.38985 178.751 8.59666 178.373 8.84058C177.995 9.0846 177.322 9.58134 176.877 9.94452L176.069 10.6049H174.818C173.694 10.6049 173.536 10.628 173.27 10.8313C172.391 11.5014 174.572 11.7376 175.966 11.1234L176.39 10.937L179.075 11.7687C182.539 12.8414 184.117 13.1659 185.867 13.1659C187.572 13.1659 188.616 12.9287 189.761 12.2817C191.001 11.5805 191.623 10.7574 191.695 9.72244C191.759 8.78327 191.484 8.10263 190.769 7.43503C189.476 6.22749 186.626 5.72089 183.826 6.20101C183.228 6.30364 182.719 6.37554 182.695 6.36066C182.671 6.34587 182.845 6.07711 183.083 5.76332C183.447 5.28146 183.523 5.03918 183.568 4.20169C183.618 3.26929 183.594 3.17477 183.16 2.6071C181.915 0.979655 178.841 0.144285 175.937 0.644115ZM13.1953 4.34733C13.7529 9.72911 18.8288 12.8084 28.9312 13.8933C32.499 14.2764 34.0213 14.3447 40.1171 14.3953C43.49 14.4233 46.2486 14.4516 46.2472 14.4584C46.2456 14.465 45.1031 15.1889 43.7081 16.0669C39.7692 18.5459 36.0228 21.4018 33.0505 24.1911C28.4532 28.5055 27.9716 28.9276 26.0016 30.3681C24.6632 31.3468 22.1487 32.8808 21.8829 32.8808C21.7791 32.8808 20.9088 32.7954 19.9487 32.6912C14.146 32.061 8.02263 32.0457 4.14061 32.6518C2.69624 32.8774 1.02703 33.4106 0.47953 33.8213C0.115312 34.0946 0 34.2773 0 34.581C0 35.5857 1.87452 36.1159 5.93357 36.2589C11.9146 36.4698 16.8014 35.7137 21.7187 33.8166C22.2773 33.6011 22.8415 33.4294 22.9723 33.435C23.5059 33.458 26.9308 34.1977 29.134 34.7658C30.4266 35.0991 33.5233 35.9808 36.0155 36.7253C42.7514 38.7375 45.465 39.4101 48.9401 39.9292C53.6803 40.6373 58.7478 40.6864 64.1404 40.0765C71.451 39.2497 75.9071 37.4315 76.3287 35.1035C76.4385 34.4969 76.1949 34.6135 76.0255 35.2485C75.7966 36.1073 74.4499 37.2425 72.8551 37.9212C71.7529 38.3902 69.6865 38.9489 68.1837 39.1841C67.0006 39.3693 66.3946 39.4007 64.0623 39.3974C58.3118 39.3893 53.1065 38.6419 38.7635 35.7646C34.503 34.91 29.3816 33.9799 26.6405 33.563C25.1796 33.3408 23.8877 33.1392 23.7698 33.115C23.634 33.0872 23.8349 32.941 24.3166 32.7171C29.1115 30.4882 34.0204 26.9867 43.0467 19.3568C44.7655 17.904 46.8928 16.1777 47.7742 15.5205L49.3766 14.3256L50.2742 14.3253C52.6355 14.3244 57.8948 13.8981 60.4078 13.5038C63.0735 13.0856 64.7385 12.4976 65.3045 11.7746C66.0807 10.7828 65.357 10.0571 63.2582 9.72331C59.6621 9.15119 54.1412 10.4745 48.6512 13.2243C46.993 14.055 47.2642 14.0261 43.278 13.7979C33.5193 13.2395 25.2698 11.7138 19.8437 9.46382C18.3893 8.86078 16.2642 7.60067 15.434 6.84909C14.3453 5.86354 13.4375 4.39004 13.4375 3.6086C13.4375 3.44353 13.3587 3.30843 13.2626 3.30843C13.1376 3.30843 13.1184 3.6056 13.1953 4.34733ZM182.031 8.04387C182.031 8.19318 181.461 8.33379 180.856 8.33379C180.155 8.33379 180.187 8.16177 180.932 7.9278C181.451 7.76448 182.031 7.82565 182.031 8.04387ZM63.1579 9.9163C64.2537 10.0759 64.7601 10.273 65.0912 10.669C65.4173 11.0592 65.2981 11.5346 64.7657 11.9663C64.3049 12.3399 62.3646 12.9521 60.8592 13.1989C58.059 13.658 50.1561 14.1432 50.1561 13.8562C50.1561 13.7122 52.8629 12.1525 54.0731 11.5992C57.3434 10.104 60.469 9.525 63.1579 9.9163ZM175.624 10.8479C175.624 10.9019 175.396 11.0321 175.117 11.1375C174.177 11.4918 172.727 11.2993 173.365 10.905C173.651 10.7278 175.624 10.6779 175.624 10.8479ZM108.437 14.3828C107.734 14.5709 106.928 15.05 106.548 15.5056C105.513 16.7481 107.69 17.2097 109.505 16.1327C110.2 15.7205 110.468 15.3813 110.468 14.9157C110.468 14.2815 109.634 14.0626 108.437 14.3828ZM57.4217 19.0625C54.1237 19.4246 49.4081 21.1582 45.812 23.3305C43.5689 24.6856 42.265 25.918 41.5363 27.3722C41.2381 27.9669 41.1728 28.3138 41.1724 29.305C41.1716 30.7483 41.4406 31.3568 42.2811 31.8132C43.8649 32.6734 46.6553 31.6637 52.377 28.16C53.7275 27.3332 54.8748 26.6828 54.9265 26.7148C54.9784 26.7469 54.849 26.984 54.639 27.2418C53.587 28.5333 53.0253 30.0173 53.2773 30.8392C53.465 31.451 53.6276 31.6475 54.1606 31.9068C55.684 32.6481 57.9581 31.5711 66.3917 26.1145C70.4248 23.5051 73.3049 21.7861 75.2776 20.8115C78.3901 19.2735 80.4705 18.8243 81.1018 19.5539C81.3646 19.8575 81.1044 20.3153 80.1736 21.1871C79.5933 21.7307 72.7354 27.1624 67.1482 31.5036C67.0256 31.599 67.4002 31.6239 68.926 31.6216L70.8591 31.6189L72.8732 30.1217C77.6027 26.6061 83.0333 22.9323 85.5466 21.5481C87.3383 20.5614 89.3392 19.7041 90.4722 19.4378C91.9156 19.0986 93.3255 19.2485 93.7192 19.7831C93.9952 20.1576 93.9642 20.1905 93.2814 20.2471C92.0498 20.3493 90.3558 21.332 90.2039 22.0324C90.1333 22.3583 90.1763 22.4413 90.4855 22.5753C90.9603 22.7809 91.5142 22.7739 93.0767 22.5422C95.5964 22.1686 98.2266 21.3793 100.175 20.412C100.709 20.1472 101.175 19.9491 101.212 19.9718C101.248 19.9944 100.194 20.8533 98.8683 21.8805C94.0603 25.6063 92.5325 26.9486 91.7447 28.1391C90.8224 29.5332 90.9091 31.0179 91.9481 31.6217C92.4797 31.9306 93.4753 31.9793 94.4684 31.7452C96.6575 31.2292 98.9109 29.9861 105.764 25.5135C112.398 21.1841 115.016 19.7876 117.324 19.3467C118.358 19.1492 118.78 19.1665 119.257 19.4256C119.976 19.8157 119.205 20.7181 115.978 23.2649C113.969 24.8509 107.353 30.0265 105.807 31.2217L105.286 31.6244H107.231H109.176L110.174 30.8756C116.847 25.866 123.198 21.7025 126.171 20.3895C128.895 19.1864 131.232 18.9357 131.806 19.785C132.312 20.5337 131.51 21.2924 126.953 24.3763C124.16 26.2666 123.457 26.8266 122.827 27.6635C121.585 29.3137 121.557 30.7709 122.753 31.5106C123.262 31.8254 123.329 31.8388 124.209 31.7994C126.229 31.7091 128.68 30.6847 132.695 28.2528C134.134 27.3809 135.312 26.6951 135.312 26.7289C135.312 26.7626 135.158 27.1277 134.97 27.5403C134.464 28.6509 134.482 30.2918 135.009 31.0894C135.708 32.1462 136.776 32.3486 138.676 31.7839C140.496 31.2429 143.814 29.5516 146.936 27.5726C147.701 27.0882 148.362 26.7136 148.405 26.7403C148.448 26.7668 148.222 27.1425 147.902 27.5748C146.5 29.4715 146.346 31.119 147.502 31.8342C148.742 32.6008 150.789 31.8321 155.749 28.7376C159.284 26.5323 160.689 25.5722 160.493 25.4973C160.415 25.4675 159.98 25.6923 159.527 25.9969C159.073 26.3015 157.359 27.395 155.718 28.4269C150.745 31.5537 148.987 32.2636 147.893 31.5869C147.358 31.2558 147.245 30.7492 147.583 30.1948C147.982 29.5417 148.521 29.0542 151.737 26.438C158.486 20.9488 160.781 19.065 160.781 19.0131C160.781 18.9826 160.025 18.9702 159.102 18.9852L157.424 19.0127L155.938 20.2207L154.453 21.4287L154.374 20.5896C154.283 19.6068 153.992 19.2793 153.031 19.0783C151.808 18.8224 148.875 19.2726 146.406 20.0952C142.556 21.3774 138.633 23.4431 136.724 25.1925C135.609 26.2142 131.077 29.059 129.104 29.9759C127.12 30.8977 125.377 31.4522 124.288 31.5081C123.562 31.5453 123.455 31.5243 123.15 31.2839C122.964 31.1379 122.814 30.883 122.816 30.7174C122.823 30.0674 123.511 29.452 126.557 27.3722C129.926 25.0713 131.271 23.9272 132.058 22.6913C132.468 22.0479 132.566 21.7433 132.619 20.9455C132.679 20.052 132.656 19.9536 132.312 19.6409C131.822 19.1947 131.206 19.0197 130.143 19.0253C127.995 19.0367 124.347 20.7635 118.89 24.3515C117.739 25.1086 116.774 25.6857 116.745 25.6339C116.717 25.5822 117.086 25.1753 117.566 24.7299C119.254 23.1605 120.156 21.6766 120.156 20.4677C120.156 19.0509 118.846 18.5931 116.64 19.239C114.241 19.9416 111.66 21.4109 101.484 27.8668C98.4995 29.7603 97.463 30.3541 96.4059 30.7758C94.1527 31.675 92.9933 31.8419 92.2398 31.3759C91.8867 31.1575 91.8461 31.0658 91.9056 30.6216C91.943 30.3435 92.1281 29.9227 92.3173 29.6864C92.5066 29.4501 95.6398 26.9518 99.2803 24.1347L105.899 19.0127L104.124 18.9854L102.349 18.9583L101.057 19.6525C98.9431 20.7885 96.7717 21.5967 94.5814 22.0628C94.097 22.1658 93.5589 22.2502 93.3855 22.2502C93.0742 22.2502 93.0745 22.2474 93.4023 22.0316C94.3086 21.4348 94.7175 20.1239 94.1611 19.5986C93.56 19.0312 91.8828 18.869 90.3619 19.2312C88.0869 19.773 84.4432 21.7155 79.7244 24.9021C79.0207 25.3774 78.4007 25.7389 78.3466 25.7054C78.2925 25.672 78.6363 25.2832 79.1104 24.8413C80.7169 23.3446 81.6569 21.9622 81.825 20.8497C81.9497 20.0235 81.7941 19.6059 81.2318 19.2581C80.8383 19.0146 80.6319 18.9644 80.0268 18.9645C77.97 18.9647 74.0823 20.8158 68.4716 24.4662C66.8729 25.5063 63.9435 27.3594 61.962 28.584C56.9025 31.7108 55.5167 32.2489 54.3628 31.5352C53.6928 31.1208 53.7303 30.5875 54.492 29.6952C54.8143 29.3176 56.8006 27.608 58.9061 25.8959C64.272 21.5326 67.1304 19.1962 67.2551 19.0713C67.3307 18.9957 66.8662 18.9644 65.6693 18.9644H63.9767L62.4998 20.1724C61.6875 20.8368 60.971 21.3804 60.9078 21.3804C60.8446 21.3804 60.8317 21.1087 60.8792 20.7764C60.9823 20.0549 60.7193 19.4969 60.1539 19.2375C59.682 19.0211 58.4923 18.9449 57.4217 19.0625ZM59.5125 19.3614C60.7793 19.6346 60.786 21.0088 59.5279 22.5401C58.139 24.2308 51.2886 28.8455 47.7341 30.4851C45.9072 31.3278 44.3749 31.8177 43.5655 31.8177C42.8586 31.8177 42.1233 31.4504 41.9436 31.0074C41.4174 29.7106 44.942 26.3567 50.7508 22.6269C54.8462 19.9972 57.637 18.957 59.5125 19.3614ZM153.057 19.3958C154.715 19.8242 154.126 21.7954 151.751 23.7655C148.924 26.1113 143.424 29.5593 140.592 30.7619C137.591 32.0361 136.291 32.1444 135.6 31.1777C135.331 30.8022 135.314 30.6821 135.465 30.2332C135.81 29.2061 137.345 27.636 139.996 25.5984C144.644 22.0263 148.832 19.7118 151.309 19.346C152.077 19.2327 152.469 19.2438 153.057 19.3958ZM15.2343 32.5407C18.5576 32.7524 21.0901 33.044 21.1391 33.2205C21.1848 33.3845 19.0643 34.2251 17.1093 34.818C13.972 35.7693 11.5871 36.0863 7.60185 36.0813C3.76139 36.0766 1.52234 35.7848 0.702498 35.1821C-0.182499 34.5316 0.564686 33.7042 2.50015 33.1916C5.16389 32.486 10.2747 32.2248 15.2343 32.5407Z" fill="#3F4651"/>
</svg>
