<svg width="46" height="18" viewBox="0 0 46 18" fill="none" xmlns="http://www.w3.org/2000/svg">
<path d="M21.7282 8.79127V14.0607H20.0245V1.05186H24.5381C25.0732 1.03437 25.6061 1.12932 26.1019 1.33053C26.6049 1.51836 27.0636 1.80725 27.4497 2.17922C27.8454 2.52848 28.1582 2.96119 28.3651 3.4459C28.5793 3.91461 28.6837 4.42573 28.6703 4.94057C28.6751 5.46565 28.5636 5.98532 28.3439 6.4626C28.1241 6.93989 27.8015 7.36304 27.3988 7.70191C27.0114 8.06995 26.5546 8.35793 26.0549 8.54925C25.5552 8.74056 25.0224 8.83142 24.4873 8.81659L21.7282 8.79127ZM21.7282 2.64789V7.19525H24.6144C24.9276 7.20337 25.2392 7.14732 25.5298 7.03057C25.8148 6.91288 26.074 6.74076 26.2927 6.52391C26.5099 6.31545 26.6828 6.06559 26.8012 5.78922C26.9187 5.51714 26.9793 5.22407 26.9792 4.92789C26.9766 4.63199 26.9161 4.33944 26.8012 4.06656C26.6826 3.79403 26.5096 3.54838 26.2927 3.34454C26.0775 3.11727 25.8178 2.93625 25.5298 2.81256C25.2374 2.70206 24.9271 2.64623 24.6144 2.64789H21.7282Z" fill="#8B9097"/>
<path d="M32.5991 4.86456C33.681 4.80365 34.7453 5.15711 35.5742 5.85256C35.9415 6.20205 36.2293 6.62605 36.4179 7.09589C36.6065 7.56573 36.6917 8.07045 36.6676 8.57591V14.0606H35.0402V12.794H34.9639C34.668 13.2691 34.2537 13.66 33.7613 13.9285C33.269 14.1971 32.7153 14.3342 32.154 14.3266C31.226 14.366 30.3174 14.0537 29.6111 13.4526C29.2845 13.1938 29.027 12.8588 28.861 12.4773C28.6194 11.9044 28.5705 11.269 28.7218 10.6661C28.8731 10.0633 29.2164 9.52547 29.7002 9.13325C30.5304 8.56046 31.5267 8.27558 32.5354 8.32256C33.4161 8.28146 34.2924 8.46919 35.0783 8.86726V8.48724C35.0803 8.2017 35.015 7.91969 34.8876 7.6639C34.7701 7.40545 34.5912 7.1794 34.3663 7.00525C33.9157 6.6044 33.3302 6.38731 32.7262 6.39723C32.2803 6.3796 31.8376 6.47917 31.4426 6.68595C31.0475 6.89273 30.7141 7.19942 30.4757 7.57523L28.9373 6.5999C29.3508 6.02594 29.9034 5.56576 30.5438 5.26229C31.1841 4.95882 31.8913 4.82198 32.5991 4.86456ZM30.3994 11.3373C30.4006 11.5477 30.4484 11.7553 30.5393 11.9453C30.6399 12.1359 30.7836 12.3006 30.9589 12.4266C31.3225 12.7077 31.7701 12.8593 32.2303 12.8573C32.9433 12.8599 33.6286 12.5822 34.1375 12.0846C34.4041 11.8578 34.6183 11.5763 34.7653 11.2592C34.9124 10.9422 34.9888 10.5972 34.9893 10.2479C34.3392 9.79674 33.555 9.578 32.7643 9.62727C32.1522 9.60895 31.5491 9.77682 31.0352 10.1086C30.8377 10.2473 30.6769 10.4314 30.5662 10.6453C30.4555 10.8592 30.3983 11.0966 30.3994 11.3373Z" fill="#8B9097"/>
<path d="M46 5.15588L40.3166 18H38.6002L40.7108 13.516L36.9727 5.18124H38.8163L41.5245 11.5779L44.1437 5.18124L46 5.15588Z" fill="#8B9097"/>
<path d="M14.8497 7.65124C14.8453 7.14213 14.8028 6.63407 14.7226 6.13125H7.53897V9.01927H11.6584C11.5679 9.47303 11.3863 9.90388 11.1244 10.2859C10.864 10.6784 10.5266 11.0145 10.1327 11.274C9.37248 11.7521 8.48868 11.9986 7.5898 11.9833C6.64594 11.9783 5.72741 11.6787 4.96338 11.1266C4.19934 10.5745 3.62828 9.79759 3.3305 8.90527C3.01276 7.9773 3.01276 6.97055 3.3305 6.04257C3.62943 5.14994 4.2004 4.37244 4.96388 3.81843C5.72737 3.26442 6.64531 2.9615 7.5898 2.95188C8.67418 2.93703 9.72223 3.34107 10.5141 4.07924L12.6883 1.93855C11.3026 0.670953 9.48363 -0.0221845 7.60252 0.000541675C6.19829 0.000120774 4.82119 0.385849 3.62291 1.11522C2.42166 1.83287 1.4478 2.87333 0.813041 4.11724C0.278716 5.15382 0 6.30231 0 7.46758C0 8.63286 0.278716 9.78135 0.813041 10.8179C1.4478 12.0618 2.42166 13.1023 3.62291 13.82C4.82119 14.5494 6.19829 14.935 7.60252 14.9346C9.46539 14.9993 11.2833 14.3564 12.6883 13.136C13.4147 12.4241 13.9827 11.5678 14.3551 10.6228C14.7275 9.67787 14.896 8.66537 14.8497 7.65124Z" fill="#8B9097"/>
</svg>
