<svg width="55" height="16" viewBox="0 0 55 16" fill="none" xmlns="http://www.w3.org/2000/svg">
<path d="M43.5988 4.80614L45.6274 3.20001H38.8275V12.8368H45.6274V11.2061H40.7655V8.75402H44.9134V7.16017H40.7655V4.80614H43.5988Z" fill="#8B9097"/>
<path d="M33.6823 6.95173H31.3136V4.80614H35.0876L37.1275 3.20001H29.3757V12.8368H33.4329C35.6995 12.8368 37.0142 11.7333 37.0142 9.80841C37.0142 7.88351 35.8242 6.95173 33.6823 6.95173ZM33.3423 11.2306H31.3136V8.55785H33.3423C34.5776 8.55785 35.1556 9.01148 35.1556 9.89424C35.1556 10.777 34.5436 11.2061 33.3423 11.2061V11.2306Z" fill="#8B9097"/>
<path d="M51.1694 3.20001H47.4634V12.8368H49.4014V10.1027H51.1694C53.5267 10.1027 55 8.77854 55 6.64521C55 4.51188 53.504 3.20001 51.1694 3.20001ZM51.1694 8.49656H49.4467V4.81841H51.1694C52.416 4.81841 53.096 5.46819 53.096 6.66972C53.096 7.87125 52.3027 8.49656 51.1014 8.49656H51.1694Z" fill="#8B9097"/>
<path d="M26.0437 10.7525C25.5284 11.053 24.9517 11.2089 24.3664 11.2061C23.9648 11.2331 23.5624 11.1708 23.1839 11.0232C22.8054 10.8755 22.4589 10.6455 22.1657 10.3474C21.8725 10.0493 21.6389 9.68943 21.4792 9.28993C21.3195 8.89043 21.2371 8.45978 21.2371 8.02451C21.2371 7.58925 21.3195 7.1586 21.4792 6.7591C21.6389 6.3596 21.8725 5.99973 22.1657 5.70165C22.4589 5.40356 22.8054 5.17356 23.1839 5.02588C23.5624 4.87819 23.9648 4.81593 24.3664 4.84291C24.9986 4.83042 25.618 5.03661 26.1344 5.43143L27.5283 4.32799L27.4377 4.24216C26.5523 3.45429 25.4329 3.04044 24.287 3.07739C23.0337 3.05201 21.8184 3.54287 20.8871 4.45057C20.4445 4.90139 20.094 5.4473 19.8578 6.05325C19.6217 6.6592 19.5052 7.31182 19.5158 7.96933C19.5076 8.63261 19.624 9.29079 19.8577 9.90404C20.0915 10.5173 20.4378 11.0729 20.8757 11.5371C21.7976 12.467 23.0154 12.9764 24.2757 12.9594C24.9145 12.9852 25.5514 12.8679 26.1462 12.6147C26.7411 12.3615 27.2811 11.978 27.7323 11.4881L26.4744 10.495L26.0437 10.7525Z" fill="#8B9097"/>
<path d="M4.70327 5.88507V8.19005L7.55922 10.1027L14.3591 4.7203C14.1181 4.15366 13.8177 3.61888 13.4638 3.12645L7.54791 7.7977L4.70327 5.88507Z" fill="#8B9097"/>
<path d="M14.9711 8.0184C14.9733 7.53752 14.9354 7.05744 14.8578 6.58394L13.2485 7.80999V7.96934C13.2469 8.77956 13.0968 9.58139 12.8069 10.3285C12.5171 11.0755 12.0932 11.7531 11.5598 12.3218C10.474 13.4756 9.01322 14.1227 7.49123 14.1241H7.40058C5.885 14.1001 4.43931 13.4304 3.37727 12.2605C2.3304 11.1187 1.74024 9.57755 1.73398 7.96934C1.737 7.14946 1.89202 6.33859 2.18986 5.58467C2.4877 4.83074 2.9223 4.1491 3.46796 3.5801C4.54401 2.44502 5.98831 1.81122 7.49123 1.81458C8.64255 1.81058 9.76822 2.18232 10.7212 2.88124L12.1832 1.74102C10.9479 0.677421 9.43141 0.0675441 7.8539 1.31281e-05H7.47992C5.62731 -0.00358966 3.83895 0.734467 2.45928 2.07204L2.30064 2.24371L2.1873 2.35405C0.874916 3.749 0.0943407 5.62605 0 7.61382V8.0184C0.000123942 10.0045 0.692087 11.9175 1.93797 13.3762L2.07396 13.5234L2.19864 13.6705C3.51641 15.0768 5.26821 15.9065 7.11725 16H7.49123C9.33934 15.9971 11.1221 15.2597 12.5005 13.928C12.5892 13.8443 12.6725 13.7542 12.7498 13.6582C13.4479 12.925 14.0039 12.0486 14.3853 11.0802C14.7667 10.1119 14.9659 9.07098 14.9711 8.0184Z" fill="#8B9097"/>
</svg>
