<svg xmlns="http://www.w3.org/2000/svg" width="27" height="27" fill="none" xmlns:v="https://vecta.io/nano"><path fill-rule="evenodd" d="M.803 2.239v16.875c0 3.797 3.077 6.875 6.875 6.875h16.875a1.25 1.25 0 1 0 0-2.5H7.678c-2.416 0-4.375-1.959-4.375-4.375V2.239a1.25 1.25 0 0 0-2.5 0zm5 8.75v8.75a1.25 1.25 0 1 0 2.5 0v-8.75a1.25 1.25 0 1 0-2.5 0zm5-6.25v15a1.25 1.25 0 1 0 2.5 0v-15a1.25 1.25 0 1 0-2.5 0z" fill="#394252" stroke="#fff"/><path d="M15.803 19.739V8.489a1.25 1.25 0 1 1 2.5 0v11.25a1.25 1.25 0 1 1-2.5 0zm5 0v-17.5a1.25 1.25 0 1 1 2.5 0v17.5a1.25 1.25 0 1 1-2.5 0z" fill="#0cbd68"/><path d="M15.803 19.739V8.489a1.25 1.25 0 1 1 2.5 0v11.25a1.25 1.25 0 1 1-2.5 0zm5 0v-17.5a1.25 1.25 0 1 1 2.5 0v17.5a1.25 1.25 0 1 1-2.5 0z" stroke="#fff"/></svg>