<svg xmlns="http://www.w3.org/2000/svg" width="37" height="39" fill="#21aa68" stroke="#fff" stroke-width=".1" xmlns:v="https://vecta.io/nano"><path d="M35.786 10.918h-2.36a.59.59 0 0 0 0 1.18h1.06l-3.057 3.494-1.57-.262a1.77 1.77 0 0 0-.563-1.01V1.479a.59.59 0 0 0-.59-.59h-4.72a.59.59 0 0 0-.59.59v13.868c-.388-.1-.782-.175-1.18-.225V4.428a.59.59 0 0 0-.59-.59h-4.72a.59.59 0 0 0-.59.59v11.886a9.48 9.48 0 0 0-1.18.809V9.148a.59.59 0 0 0-.59-.59h-4.72a.59.59 0 0 0-.59.59v14.159a1.76 1.76 0 0 0-1.18.452V13.278a.59.59 0 0 0-.59-.59h-4.72a.59.59 0 0 0-.59.59v13.62L1.1 28.255a.59.59 0 0 0 .101.831.59.59 0 0 0 .83-.107l3.833-4.928 1.615.808a1.77 1.77 0 0 0 1.943 1.98 1.77 1.77 0 0 0 1.485-2.343l.705-.564-.017.556a9.43 9.43 0 0 0 1.351 4.869 9.44 9.44 0 0 0 3.669 3.474 9.43 9.43 0 0 0 4.936 1.082c1.713-.095 3.368-.655 4.786-1.62l5.835 5.835a1.77 1.77 0 0 0 2.507.004 1.77 1.77 0 0 0-.004-2.506l-5.835-5.835c1.3-1.91 1.853-4.23 1.555-6.52a9.43 9.43 0 0 0-3.173-5.905l.13-.13a1.77 1.77 0 0 0 2.311-.741l1.894.316c.032.005.064.008.097.008a.59.59 0 0 0 .444-.201l3.096-3.538v.79a.59.59 0 1 0 1.18 0v-2.36a.59.59 0 0 0-.59-.59zm-18.289-5.9h3.54v10.029c-1.213-.001-2.415.233-3.54.689V5.018zM5.232 22.945L3.338 25.38V13.868h3.54v9.37l-.916-.458a.59.59 0 0 0-.73.166zm4.005 2.722a.59.59 0 0 1-.417-1.007.59.59 0 0 1 1.007.417.59.59 0 0 1-.59.59h0zm1.18-2.289V9.738h3.54v8.513c-1.002 1.134-1.716 2.492-2.082 3.96l-1.458 1.167zM33.843 36.46a.59.59 0 0 1 .004.839.59.59 0 0 1-.84-.005l-5.731-5.731a9.52 9.52 0 0 0 .834-.834l5.731 5.731zm-4.547-11.972a8.26 8.26 0 0 1-14.1 5.841 8.26 8.26 0 0 1 5.841-14.1 8.27 8.27 0 0 1 8.26 8.259h0zm-4.72-8.75V2.068h3.54v11.799a1.77 1.77 0 0 0-1.597 2.533l-.241.241c-.535-.359-1.105-.661-1.702-.904zm3.54.49a.59.59 0 0 1-.417-1.007.59.59 0 0 1 1.007.417.59.59 0 0 1-.59.59zm-7.079 1.179a7.08 7.08 0 0 0-5.006 12.085 7.08 7.08 0 0 0 12.085-5.006 7.09 7.09 0 0 0-7.08-7.08h0zm0 12.979a5.9 5.9 0 0 1-4.171-10.071 5.9 5.9 0 0 1 10.071 4.172 5.91 5.91 0 0 1-5.9 5.9h0zm0-2.359c-.938-.001-1.838-.374-2.502-1.038a3.54 3.54 0 0 1-1.038-2.502.59.59 0 0 0-1.18 0c.001 1.251.499 2.451 1.384 3.336a4.72 4.72 0 0 0 3.336 1.384.59.59 0 1 0 0-1.18z"/></svg>