<svg xmlns="http://www.w3.org/2000/svg" width="45" height="40" fill="#21aa68" stroke="#fff" xmlns:v="https://vecta.io/nano"><path d="M25.03 16.366h3.305a1.24 1.24 0 0 0 1.239-1.239 1.24 1.24 0 0 0-1.239-1.239H25.03a1.24 1.24 0 0 0-1.239 1.239 1.24 1.24 0 0 0 1.239 1.239h0zm17.763 2.478h-9.088V1.908a1.24 1.24 0 0 0-1.239-1.24H12.638a1.24 1.24 0 0 0-1.239 1.239v16.937H2.31a1.24 1.24 0 0 0-1.239 1.239V38.26a1.24 1.24 0 0 0 1.239 1.239h40.483a1.24 1.24 0 0 0 1.239-1.239V20.083a1.24 1.24 0 0 0-1.239-1.239h0zM30.4 21.323h4.131v5.784H30.4v-5.783zM24.617 3.147V8.93h-4.131V3.147h4.131zm-10.74 0h4.131v7.022a1.24 1.24 0 0 0 1.239 1.239h6.609a1.24 1.24 0 0 0 1.239-1.239V3.147h4.131v15.698H13.877V3.147zm.413 18.176v5.784h-4.131v-5.783h4.131zm-10.74 0h4.13v7.023a1.24 1.24 0 0 0 1.239 1.239h6.609a1.24 1.24 0 0 0 1.239-1.239v-7.023h4.544V37.02H3.549V21.323zM41.554 37.02H23.791V21.323h4.131v7.023a1.24 1.24 0 0 0 1.239 1.239h6.609a1.24 1.24 0 0 0 1.239-1.239v-7.023h4.544V37.02zm-6.196-4.957a1.24 1.24 0 0 0-1.239 1.239 1.24 1.24 0 0 0 1.239 1.239h3.304a1.24 1.24 0 0 0 1.239-1.239 1.24 1.24 0 0 0-1.239-1.239h-3.304zm-17.35 0h-3.305a1.24 1.24 0 0 0-1.239 1.239 1.24 1.24 0 0 0 1.239 1.239h3.305a1.24 1.24 0 0 0 1.239-1.239 1.24 1.24 0 0 0-1.239-1.239h0z"/></svg>