<svg xmlns="http://www.w3.org/2000/svg" width="33" height="36" fill="#21aa68" stroke="#fff" stroke-width=".2" xmlns:v="https://vecta.io/nano"><path d="M32.06 21.162a6.03 6.03 0 0 0-2.618-4.998c.742-.936 1.155-2.102 1.155-3.312a5.35 5.35 0 0 0-2.565-4.556 4.23 4.23 0 0 0 .081-.827A4.26 4.26 0 0 0 23 3.303a3.79 3.79 0 0 0-3.722-3.11A3.78 3.78 0 0 0 16.186 1.8 3.78 3.78 0 0 0 13.093.193a3.79 3.79 0 0 0-3.723 3.11l-.364-.059a.69.69 0 0 0-.16 1.371c.297.035.585.115.857.24.551.254.995.66 1.293 1.176a.69.69 0 0 0 .943.252.69.69 0 0 0 .253-.943c-.365-.632-.877-1.15-1.496-1.52.08-1.253 1.124-2.248 2.397-2.248 1.324 0 2.402 1.078 2.402 2.402v14.09a5.28 5.28 0 0 1-3.076-1.515.69.69 0 1 0-.976.976c1.103 1.103 2.522 1.774 4.052 1.929v11.341a3.36 3.36 0 0 1-3.354 3.354c-1.276 0-2.415-.725-2.98-1.814a5.33 5.33 0 0 0 1.143-.176.69.69 0 1 0-.357-1.333c-.539.144-1.11.173-1.66.083a3.93 3.93 0 0 1-3.309-3.841 6.03 6.03 0 0 0 1.407.166c.53 0 1.059-.07 1.572-.207a.69.69 0 1 0-.357-1.333 4.7 4.7 0 0 1-1.215.16 4.67 4.67 0 0 1-1.759-.342 4.68 4.68 0 0 1-2.934-4.351c0-1.804 1.005-3.417 2.625-4.214.282-.136.565-.242.854-.32a.69.69 0 1 0-.357-1.333 6.11 6.11 0 0 0-.634.209 3.95 3.95 0 0 1-1.025-2.652c0-1.297.645-2.505 1.688-3.236.37.633.9 1.164 1.543 1.535a.69.69 0 0 0 .69-1.196c-.595-.344-1.048-.89-1.275-1.538a2.87 2.87 0 0 1-.142-.612.69.69 0 1 0-1.371.16l.052.331c-1.575.958-2.566 2.689-2.566 4.556a5.33 5.33 0 0 0 1.155 3.312A6.03 6.03 0 0 0 .31 21.161c0 2.306 1.28 4.374 3.304 5.407l-.019.446a5.33 5.33 0 0 0 1.284 3.469 5.34 5.34 0 0 0 2.732 1.696 4.75 4.75 0 0 0 4.53 3.352c1.711 0 3.213-.912 4.045-2.275.832 1.363 2.334 2.275 4.045 2.275a4.75 4.75 0 0 0 4.529-3.352 5.34 5.34 0 0 0 2.732-1.696 5.33 5.33 0 0 0 1.284-3.469l-.019-.446c2.024-1.033 3.304-3.101 3.304-5.407zm-4.315 4.352a.69.69 0 0 0-.419.767 3.99 3.99 0 0 1 .068.734 3.93 3.93 0 0 1-3.309 3.896.69.69 0 0 0-.566.546 3.36 3.36 0 0 1-3.289 2.694 3.36 3.36 0 0 1-3.355-3.354v-2.855h.891l.692.692c-.367.77-.232 1.72.404 2.356.404.404.934.605 1.464.605s1.061-.202 1.464-.605c.807-.807.807-2.121 0-2.928-.636-.636-1.587-.771-2.356-.404l-.894-.894a.69.69 0 0 0-.488-.202h-1.177v-2.239h2.269a2.06 2.06 0 0 0 .488.774c.404.404.934.605 1.464.605s1.061-.202 1.464-.605c.807-.807.807-2.121 0-2.928s-2.121-.807-2.928 0a2.06 2.06 0 0 0-.488.774h-2.269v-3.451h6.838l.691.691a2.06 2.06 0 0 0-.201.893c0 .553.215 1.073.607 1.464.404.404.934.605 1.464.605s1.061-.202 1.464-.605c.391-.391.606-.911.606-1.464s-.215-1.073-.606-1.464c-.636-.636-1.587-.771-2.356-.404l-.894-.894a.69.69 0 0 0-.488-.202h-7.124v-2.156h5.438a.69.69 0 0 0 .488-.202l.893-.893a2.06 2.06 0 0 0 .893.202c.553 0 1.073-.215 1.464-.606s.607-.911.607-1.464-.216-1.073-.607-1.464-.911-.607-1.464-.607-1.073.215-1.464.607a2.06 2.06 0 0 0-.606 1.464c0 .314.07.618.201.893l-.691.691h-5.152V11.35h2.021a.69.69 0 0 0 .488-.202l.893-.893a2.06 2.06 0 0 0 .893.201c.553 0 1.073-.215 1.464-.607a2.06 2.06 0 0 0 .606-1.464c0-.553-.215-1.073-.606-1.464s-.911-.606-1.464-.606-1.073.215-1.464.606-.607.911-.607 1.464c0 .314.07.618.201.893l-.691.691h-1.735V3.976c0-1.324 1.078-2.402 2.402-2.402s2.402 1.078 2.402 2.402v.257a.69.69 0 0 0 .979.627 2.85 2.85 0 0 1 1.202-.263c1.583 0 2.871 1.288 2.871 2.871 0 .325-.054.644-.16.949a.69.69 0 0 0 .36.854c1.388.646 2.285 2.052 2.285 3.582a3.95 3.95 0 0 1-1.329 2.954.69.69 0 0 0 .155 1.136c1.627.794 2.637 2.412 2.637 4.22 0 1.923-1.152 3.631-2.934 4.352h0zm-7.419 3.322a.69.69 0 1 1-.488.202.69.69 0 0 1 .488-.202h0zm.282-5.692a.69.69 0 1 1 .976.976.69.69 0 1 1-.976-.976zm5.177-2.557a.69.69 0 0 1 .976 0c.13.13.202.304.202.488s-.072.358-.202.488a.69.69 0 0 1-.976 0c-.13-.13-.202-.304-.202-.488s.072-.358.202-.488h0zM24.1 13.478c-.13-.13-.202-.304-.202-.488s.072-.358.202-.488.304-.202.488-.202.358.072.488.202.202.304.202.488-.072.358-.202.488-.304.202-.488.202-.358-.072-.488-.202zm-3.417-4.607c-.13-.13-.202-.304-.202-.488s.072-.358.202-.488.304-.202.488-.202.358.072.488.202.202.304.202.488-.072.358-.202.488-.304.202-.488.202-.358-.072-.488-.202zm-12.67 6.907c0 .963-.65 1.81-1.581 2.06a.69.69 0 1 0 .357 1.333 3.52 3.52 0 0 0 2.133-5.15.69.69 0 1 0-1.195.69c.187.324.286.692.286 1.066h0zm3.562 11.754c.06.016.12.024.179.024a.69.69 0 0 0 .666-.512 3.53 3.53 0 0 0 .12-.909 3.52 3.52 0 0 0-3.513-3.513.69.69 0 0 0 0 1.38c1.176 0 2.132.957 2.132 2.133 0 .186-.024.372-.073.552a.69.69 0 0 0 .488.846zm2.641-18.196a.69.69 0 1 0-.976-.976 2.12 2.12 0 0 1-3.016 0 .69.69 0 1 0-.976.976 3.49 3.49 0 0 0 2.484 1.029 3.49 3.49 0 0 0 2.484-1.029zM5.992 5.64a.69.69 0 1 0 0-1.38h0a.69.69 0 1 0 0 1.38z"/></svg>