<svg xmlns="http://www.w3.org/2000/svg" xmlns:xlink="http://www.w3.org/1999/xlink" width="37" height="38" fill="none" xmlns:v="https://vecta.io/nano"><g fill="#21aa68" stroke="#fff" stroke-width=".1"><path d="M33.801 3.883h-3.066V2.657c0-.651-.259-1.275-.718-1.735S28.932.203 28.282.203s-1.275.258-1.735.718-.719 1.084-.719 1.735v1.227h-4.906V2.657c0-.651-.259-1.275-.718-1.735S19.12.203 18.469.203s-1.275.258-1.735.718-.719 1.084-.719 1.735v1.227H11.11V2.657c0-.651-.258-1.275-.719-1.735S9.307.203 8.657.203 7.382.462 6.922.922s-.718 1.084-.718 1.735v1.227H3.137c-.813 0-1.593.323-2.168.898S.071 6.136.071 6.95v24.531c0 .813.323 1.593.898 2.168s1.355.898 2.168.898h17.172c.163 0 .319-.065.434-.18s.18-.271.18-.434-.065-.319-.18-.434-.271-.18-.434-.18H3.137c-.488-.001-.955-.196-1.299-.54s-.539-.812-.54-1.299V12.469h34.343v10.426c0 .163.065.319.18.434s.271.18.434.18.319-.065.434-.18.18-.271.18-.434V6.95c0-.813-.323-1.593-.898-2.168s-1.355-.898-2.168-.898zm-6.746-1.227c0-.325.129-.637.359-.867s.542-.359.867-.359.637.129.867.359.359.542.359.867v3.68c0 .325-.129.637-.359.867s-.542.359-.867.359-.637-.129-.867-.359-.359-.542-.359-.867v-3.68zm-9.812 0c0-.325.129-.637.359-.867s.542-.359.867-.359.637.129.867.359.359.542.359.867v3.68c0 .325-.129.637-.359.867s-.542.359-.867.359-.637-.129-.867-.359-.359-.542-.359-.867v-3.68zm-9.812 0c0-.325.129-.637.359-.867s.542-.359.867-.359.637.129.867.359.359.542.359.867v3.68c0 .325-.129.637-.359.867s-.542.359-.867.359-.637-.129-.867-.359-.359-.542-.359-.867v-3.68zm28.211 8.586H1.297V6.95c.001-.488.196-.955.54-1.299s.812-.539 1.299-.54h3.066v1.227c0 .651.258 1.275.718 1.735s1.084.718 1.735.718 1.275-.258 1.735-.718.719-1.084.719-1.735V5.11h4.906v1.227c0 .651.258 1.275.719 1.735s1.084.718 1.735.718 1.274-.258 1.735-.718.718-1.084.718-1.735V5.11h4.906v1.227c0 .651.258 1.275.719 1.735s1.084.718 1.735.718 1.274-.258 1.735-.718.718-1.084.718-1.735V5.11h3.066c.488.001.955.196 1.299.54s.539.812.541 1.299v4.293z"/><use xlink:href="#B"/><use xlink:href="#C"/><path d="M30.734 19.828c.325 0 .637-.129.867-.359s.359-.542.359-.867v-1.84c0-.325-.129-.637-.359-.867s-.542-.359-.867-.359h-2.453c-.325 0-.637.129-.867.359s-.359.542-.359.867v1.84c0 .325.129.637.359.867s.542.359.867.359h2.453zm-2.453-3.066h2.453v1.84h-2.453v-1.84z"/><use xlink:href="#B" y="5.519"/><use xlink:href="#C" y="5.519"/><path d="M16.016 26.574h-2.453c-.325 0-.637.129-.867.359s-.359.542-.359.867v1.84c0 .325.129.637.359.867s.542.359.867.359h2.453c.325 0 .637-.129.867-.359s.359-.542.359-.867V27.8c0-.325-.129-.637-.359-.867s-.542-.359-.867-.359zm-2.453 3.066V27.8h2.453v1.84h-2.453zm7.359-9.812h2.453c.325 0 .637-.129.867-.359s.359-.542.359-.867v-1.84c0-.325-.129-.637-.359-.867s-.542-.359-.867-.359h-2.453c-.325 0-.637.129-.867.359s-.359.542-.359.867v1.84c0 .325.129.637.359.867s.542.359.867.359zm0-3.066h2.453v1.84h-2.453v-1.84zm-1.226 7.359c0 .325.129.637.359.867s.542.359.867.359c.163 0 .319-.065.434-.18s.18-.271.18-.434-.065-.319-.18-.434-.271-.18-.434-.18v-1.84h2.453c.163 0 .319-.065.434-.18s.18-.271.18-.434-.065-.319-.18-.434-.271-.18-.434-.18h-2.453c-.325 0-.637.129-.867.359s-.359.542-.359.867v1.84zM8.657 26.574H6.204c-.325 0-.637.129-.867.359s-.359.542-.359.867v1.84c0 .325.129.637.359.867s.542.359.867.359h2.453c.325 0 .637-.129.867-.359s.359-.542.359-.867V27.8c0-.325-.129-.637-.359-.867s-.542-.359-.867-.359h0zM6.204 29.64V27.8h2.453v1.84H6.204zm22.691-8.585a7.97 7.97 0 0 0-7.365 4.922 7.97 7.97 0 0 0 1.728 8.688c1.115 1.115 2.535 1.874 4.082 2.182s3.149.15 4.606-.454a7.97 7.97 0 0 0 4.922-7.365 7.98 7.98 0 0 0-7.973-7.973h0zm0 14.719a6.75 6.75 0 0 1-3.748-1.137c-1.109-.741-1.974-1.795-2.485-3.027s-.644-2.589-.384-3.898.903-2.511 1.846-3.454 2.145-1.586 3.454-1.846 2.665-.127 3.898.384a6.75 6.75 0 0 1 3.028 2.485c.742 1.11 1.137 2.414 1.137 3.748a6.76 6.76 0 0 1-1.978 4.768 6.75 6.75 0 0 1-4.768 1.978zm3.543-9.317l-4.77 4.77-2.168-2.169a.61.61 0 0 0-.431-.172c-.16.002-.315.066-.428.18a.62.62 0 0 0-.18.428.61.61 0 0 0 .172.431l2.602 2.602c.115.115.271.179.434.179s.319-.064.434-.179l5.204-5.204a.61.61 0 0 0 .172-.431c-.002-.161-.066-.315-.18-.428a.62.62 0 0 0-.428-.18c-.161-.002-.316.06-.431.172z"/></g><defs ><path id="B" d="M17.243 16.762c0-.325-.129-.637-.359-.867s-.542-.359-.867-.359h-2.453c-.325 0-.637.129-.867.359s-.359.542-.359.867v1.84c0 .325.129.637.359.867s.542.359.867.359h2.453c.325 0 .637-.129.867-.359s.359-.542.359-.867v-1.84zm-3.68 1.84v-1.84h2.453v1.84h-2.453z"/><path id="C" d="M9.883 16.762c0-.325-.129-.637-.359-.867s-.542-.359-.867-.359H6.204c-.325 0-.637.129-.867.359s-.359.542-.359.867v1.84c0 .325.129.637.359.867s.542.359.867.359h2.453c.325 0 .637-.129.867-.359s.359-.542.359-.867v-1.84zm-3.68 1.84v-1.84h2.453v1.84H6.204z"/></defs></svg>