<svg xmlns="http://www.w3.org/2000/svg" width="42" height="29" fill="#21aa68" stroke="#fff" xmlns:v="https://vecta.io/nano"><path d="M31.328 18.086a5.02 5.02 0 0 0-5.01 5.01 5.02 5.02 0 0 0 5.01 5.01c2.763 0 5.01-2.247 5.01-5.01a5.02 5.02 0 0 0-5.01-5.01zm0 7.515a2.51 2.51 0 0 1-2.505-2.505 2.51 2.51 0 0 1 2.505-2.505 2.51 2.51 0 0 1 2.505 2.505 2.51 2.51 0 0 1-2.505 2.505zM14.21 18.086a5.02 5.02 0 0 0-5.01 5.01 5.02 5.02 0 0 0 5.01 5.01 5.02 5.02 0 0 0 5.01-5.01 5.02 5.02 0 0 0-5.01-5.01zm0 7.515a2.51 2.51 0 0 1-2.505-2.505 2.51 2.51 0 0 1 2.505-2.505 2.51 2.51 0 0 1 2.505 2.505 2.51 2.51 0 0 1-2.505 2.505z"/><path d="M34.702 3.746c-.213-.423-.646-.69-1.119-.69h-6.597v2.505h5.824l3.411 6.784 2.239-1.126-3.758-7.473zm-8.384 18.14H19.22v2.505h7.098v-2.505z"/><path d="M8.081 21.886H5.579c-.399 0-.722.561-.722 1.253s.323 1.252.722 1.252h2.502c.399 0 .722-.561.722-1.252s-.323-1.253-.722-1.253zm32.712-7.657l-2.464-3.173a1.25 1.25 0 0 0-.989-.484h-9.102V1.803c0-.692-.561-1.253-1.253-1.253H6.11c-.692 0-1.253.561-1.253 1.253s.561 1.253 1.253 1.253h19.623v8.768c0 .692.561 1.252 1.253 1.252h9.741l1.824 2.35v6.46H37.39c-.692 0-1.252.561-1.252 1.253a1.25 1.25 0 0 0 1.252 1.252h2.414c.692 0 1.252-.561 1.253-1.252v-8.142c0-.278-.093-.549-.263-.768zM10.368 15.54H4.606c-.692 0-1.253.561-1.253 1.253s.561 1.253 1.253 1.253h5.762c.692 0 1.252-.561 1.252-1.253s-.561-1.253-1.252-1.253zm2.881-4.927H2.561c-.692 0-1.253.561-1.253 1.253s.561 1.253 1.253 1.253h10.688c.692 0 1.253-.561 1.253-1.253s-.561-1.253-1.253-1.253zm2.046-4.926H4.606c-.692 0-1.253.561-1.253 1.253s.561 1.253 1.253 1.253h10.689c.692 0 1.252-.561 1.252-1.253s-.561-1.253-1.252-1.253z"/></svg>