<svg xmlns="http://www.w3.org/2000/svg" width="40" height="40" fill="#21aa68" stroke="#fff" stroke-width="1.5" xmlns:v="https://vecta.io/nano"><path d="M38.17 17.559l-2.572-2.572a4.38 4.38 0 0 1-1.111-2.682V8.666c0-1.728-1.413-3.141-3.143-3.143h-3.638c-.864 0-2.072-.5-2.682-1.111L22.452 1.84C21.23.618 19.23.618 18.008 1.84l-2.572 2.573c-.611.61-1.82 1.111-2.682 1.111H9.117c-1.728 0-3.143 1.413-3.143 3.143v3.635c0 .864-.5 2.072-1.111 2.682l-2.572 2.573c-1.223 1.221-1.223 3.221 0 4.445l2.572 2.572c.611.611 1.111 1.82 1.111 2.682v3.637c0 1.728 1.415 3.143 3.143 3.143h3.637c.864 0 2.072.5 2.682 1.111l2.572 2.572c1.222 1.221 3.223 1.221 4.444 0l2.572-2.572c.611-.611 1.818-1.111 2.682-1.111h3.638c1.73 0 3.143-1.415 3.143-3.143v-3.637c0-.865.501-2.072 1.111-2.682l2.572-2.572c1.221-1.224 1.221-3.224 0-4.445zm-4.794 4.795c-1.197 1.194-2.032 3.213-2.032 4.905v3.637h-3.638c-1.691 0-3.709.835-4.904 2.032L20.23 35.5l-2.572-2.572c-1.197-1.197-3.213-2.032-4.904-2.032H9.116v-3.637c0-1.692-.835-3.708-2.032-4.905l-2.572-2.573 2.572-2.573c1.197-1.195 2.032-3.212 2.032-4.905V8.668h3.637c1.691 0 3.707-.836 4.904-2.032l2.572-2.573 2.572 2.572c1.195 1.197 3.213 2.032 4.904 2.032h3.638v3.638c0 1.691.835 3.708 2.032 4.904l2.571 2.572-2.572 2.573zm-5.94-9.645l-9.7 9.699-4.712-4.713-2.222 2.222 6.934 6.935 11.923-11.921-2.222-2.222z"/></svg>