<svg xmlns="http://www.w3.org/2000/svg" width="21" height="33" fill="none" stroke="#fff" stroke-width=".5" xmlns:v="https://vecta.io/nano"><path d="M17.687 25.055l-2.081 2.005-2.081-2.005-1.31 1.302 2.06 1.985-2.06 1.985 1.31 1.302 2.081-2.005 2.081 2.005 1.31-1.302-2.06-1.985 2.06-1.985-1.31-1.302z" fill="#394252"/><path d="M20.065 3.197l-1.31-1.302-4.281 4.125-1.979-2.148-1.387 1.224 3.285 3.566 5.671-5.464zm-5.591 14.277l-1.979-2.148-1.387 1.224 3.285 3.567 5.671-5.464-1.31-1.302-4.281 4.125z" fill="#0cbd68"/><path d="M4.879 1.212C2.376 1.212.34 3.205.34 5.655s2.036 4.442 4.539 4.442 4.539-1.993 4.539-4.442-2.036-4.442-4.539-4.442zm0 7.057c-1.473 0-2.672-1.173-2.672-2.615S3.406 3.04 4.879 3.04s2.672 1.173 2.672 2.615S6.352 8.27 4.879 8.27zm0 4.096c-2.503 0-4.539 1.993-4.539 4.443s2.036 4.442 4.539 4.442 4.539-1.993 4.539-4.442-2.036-4.443-4.539-4.443zm0 7.057c-1.473 0-2.672-1.173-2.672-2.615s1.199-2.615 2.672-2.615 2.672 1.173 2.672 2.615-1.199 2.615-2.672 2.615zm0 4.096C2.376 23.518.34 25.511.34 27.96s2.036 4.443 4.539 4.443 4.539-1.993 4.539-4.443-2.036-4.442-4.539-4.442zm0 7.057c-1.473 0-2.672-1.173-2.672-2.615s1.199-2.615 2.672-2.615 2.672 1.173 2.672 2.615-1.199 2.615-2.672 2.615z" fill="#394252"/></svg>