<svg xmlns="http://www.w3.org/2000/svg" width="29" height="29" fill="none" stroke="#fff" stroke-width=".7" xmlns:v="https://vecta.io/nano"><path d="M13.313 18.554c-.246 0-.493-.086-.692-.26l-3.607-3.158a1.05 1.05 0 1 1 1.383-1.581l2.87 2.514 5.3-5.257a1.05 1.05 0 1 1 1.479 1.492l-5.993 5.946c-.204.203-.472.305-.74.305z" fill="#2ac57b"/><path d="M14.618 28.53a2.18 2.18 0 0 1-1.852-1.008L11.733 25.9c-.026-.041-.069-.044-.081-.044l-1.748.899a2.18 2.18 0 0 1-1 .245c-1.187 0-2.157-.922-2.208-2.098l-.084-1.921c-.002-.05-.041-.089-.091-.091l-1.921-.084a2.18 2.18 0 0 1-1.799-1.1c-.379-.657-.4-1.445-.054-2.109l.888-1.705c.023-.044.008-.098-.033-.124l-1.622-1.034c-.63-.401-1.007-1.092-1.007-1.85a2.18 2.18 0 0 1 1.007-1.854l1.621-1.033c.043-.027.057-.08.034-.125l-.888-1.705c-.346-.665-.325-1.453.055-2.11A2.18 2.18 0 0 1 4.6 6.96l1.92-.084c.049-.002.089-.042.091-.091l.084-1.921c.05-1.176 1.02-2.098 2.208-2.098.346 0 .692.085 1 .246l1.705.887c.059.012.099.007.125-.033l1.033-1.622c.4-.631 1.093-1.008 1.851-1.008s1.452.377 1.853 1.007l1.033 1.622c.025.039.065.044.081.044l1.749-.899a2.17 2.17 0 0 1 1-.245c1.187 0 2.157.921 2.208 2.098l.084 1.921c.002.049.042.089.091.091l1.921.083a2.18 2.18 0 0 1 1.798 1.099c.38.657.4 1.446.055 2.11l-.888 1.705c-.023.044-.009.098.033.124l1.622 1.034a2.18 2.18 0 0 1 1.007 1.853 2.18 2.18 0 0 1-1.008 1.851l-1.621 1.033c-.042.027-.056.081-.033.124l.888 1.705a2.18 2.18 0 0 1-.054 2.108c-.379.657-1.051 1.068-1.799 1.101l-1.921.084c-.05.002-.089.041-.091.091l-.084 1.921A2.2 2.2 0 0 1 20.334 27c-.346 0-.692-.085-1-.246l-1.705-.887c-.059-.012-.099-.007-.125.033l-1.032 1.622c-.404.632-1.096 1.008-1.853 1.008h0zm-2.967-4.774c.755 0 1.447.38 1.853 1.017l1.033 1.622c.037.058.123.059.162-.001l1.032-1.621c.406-.637 1.098-1.017 1.853-1.017.351 0 .702.086 1.014.248l1.705.887c.068.011.137-.026.14-.081l.084-1.919c.049-1.147.952-2.049 2.099-2.099l1.921-.084c.035-.002.058-.029.071-.052.019-.033.022-.062.009-.087l-.888-1.705c-.53-1.018-.2-2.25.768-2.867l1.622-1.033c.029-.019.035-.054.035-.08s-.006-.062-.036-.081l-1.621-1.034c-.968-.616-1.298-1.849-.768-2.866l.888-1.706c.016-.031.003-.065-.01-.088-.019-.033-.043-.05-.07-.051l-1.921-.084c-1.146-.05-2.049-.952-2.099-2.099l-.084-1.92c-.002-.054-.073-.088-.11-.088l-1.735.896c-.312.162-.662.248-1.014.248-.755 0-1.447-.38-1.853-1.017l-1.033-1.622c-.053-.083-.138-.038-.16-.001l-1.033 1.623c-.405.637-1.098 1.017-1.853 1.017-.351 0-.702-.086-1.014-.248l-1.705-.888c-.066-.012-.138.026-.14.079l-.084 1.921c-.05 1.147-.952 2.049-2.099 2.099l-1.921.084c-.035.002-.058.029-.071.052s-.026.057-.009.088l.888 1.705c.53 1.018.2 2.25-.768 2.867l-1.621 1.033c-.029.019-.036.055-.036.081 0 .037.012.064.035.079l1.622 1.034c.968.616 1.298 1.849.768 2.866l-.888 1.705c-.016.031-.004.065.01.088.019.033.043.051.07.052l1.921.084c1.146.049 2.049.952 2.099 2.099l.084 1.921c.002.054.074.088.109.088l1.735-.896c.313-.162.664-.248 1.015-.248h0z" fill="#394252"/></svg>