<svg xmlns="http://www.w3.org/2000/svg" width="36" height="45" fill="none" xmlns:v="https://vecta.io/nano"><path d="M1.464 43.649h33v-3.3h-33v3.3zm28.05-16.5a6.61 6.61 0 0 1-6.6-6.6v-.014c0-2.313.577-4.142 2.059-6.522a8.23 8.23 0 0 0 1.241-4.354A8.22 8.22 0 0 0 23.16 3.25c-1.941-1.575-4.481-2.179-6.968-1.655C13.2 2.224 10.7 4.629 9.97 7.579c-.553 2.237-.204 4.521.984 6.431 1.482 2.384 2.06 4.215 2.06 6.538a6.61 6.61 0 0 1-6.6 6.6c-2.729 0-4.95 2.221-4.95 4.95v4.95h33v-4.95a4.96 4.96 0 0 0-4.95-4.95zM13.174 8.371c.432-1.748 1.918-3.173 3.697-3.547 1.533-.322 3.028.029 4.21.988 1.165.946 1.834 2.348 1.834 3.846 0 .926-.257 1.829-.743 2.611-1.816 2.918-2.557 5.313-2.557 8.266v.014a9.86 9.86 0 0 0 2.528 6.6h-8.357a9.87 9.87 0 0 0 2.529-6.607c0-2.956-.741-5.353-2.558-8.274-.713-1.147-.92-2.531-.582-3.896h0zm17.99 25.377h-26.4v-1.65a1.65 1.65 0 0 1 1.65-1.65h23.1a1.65 1.65 0 0 1 1.65 1.65v1.65z" fill="#21aa68" stroke="#fff" stroke-width="2"/></svg>