<svg xmlns="http://www.w3.org/2000/svg" xmlns:xlink="http://www.w3.org/1999/xlink" width="61" height="61" fill="none" xmlns:v="https://vecta.io/nano"><path d="M18.369 6.664a1.8 1.8 0 0 1-2.445-.815 1.8 1.8 0 0 1 .815-2.445 1.8 1.8 0 0 1 2.446.815c.458.866.102 1.987-.815 2.445z" fill="url(#A)"/><path d="M27.183 3.964c-1.019.102-1.885-.56-2.038-1.579A1.86 1.86 0 0 1 26.724.347a1.86 1.86 0 0 1 2.038 1.579c.102 1.019-.611 1.885-1.579 2.038z" fill="url(#B)"/><path d="M36.353 4.422c-.968-.204-1.579-1.172-1.376-2.14S36.149.703 37.117.907s1.579 1.172 1.376 2.14-1.172 1.579-2.14 1.376z" fill="url(#C)"/><path d="M44.81 7.938c-.866-.56-1.121-1.681-.56-2.496.56-.866 1.681-1.07 2.496-.56.866.56 1.07 1.681.56 2.496s-1.63 1.07-2.496.56z" fill="url(#D)"/><path d="M51.638 14.102c-.611-.815-.459-1.936.306-2.547.815-.611 1.936-.459 2.547.306a1.84 1.84 0 0 1-.306 2.547 1.75 1.75 0 0 1-2.547-.306z" fill="url(#E)"/><path d="M55.918 22.254c-.306-.968.204-1.987 1.172-2.293s1.987.204 2.293 1.172-.204 1.987-1.172 2.293c-.968.255-1.987-.255-2.293-1.172z" fill="url(#F)"/><path d="M57.242 31.323a1.86 1.86 0 0 1 1.885-1.783c1.019.051 1.783.866 1.732 1.885s-.866 1.783-1.885 1.732c-.968 0-1.783-.815-1.732-1.834z" fill="url(#G)"/><path d="M55.408 40.34c.357-.917 1.427-1.376 2.343-1.019s1.376 1.427 1.019 2.344-1.427 1.376-2.344 1.019c-.968-.357-1.426-1.427-1.019-2.344z" fill="url(#H)"/><path d="M50.619 48.186c.662-.764 1.783-.815 2.547-.153s.815 1.783.153 2.547-1.783.815-2.547.153-.815-1.783-.153-2.547z" fill="url(#I)"/><path d="M43.435 53.943c.866-.509 1.987-.153 2.446.713.509.866.153 1.987-.713 2.445-.866.51-1.987.153-2.446-.713s-.153-1.987.713-2.446z" fill="url(#J)"/><path d="M34.774 56.949c.968-.153 1.936.509 2.089 1.477s-.509 1.936-1.477 2.089-1.936-.51-2.089-1.478c-.204-1.019.459-1.936 1.477-2.089z" fill="url(#K)"/><path d="M25.552 56.847c.968.204 1.63 1.121 1.427 2.089s-1.121 1.63-2.089 1.426-1.63-1.121-1.427-2.089 1.121-1.63 2.089-1.427z" fill="url(#L)"/><path d="M16.942 53.638c.866.509 1.172 1.63.662 2.496s-1.63 1.172-2.496.662-1.172-1.63-.662-2.496c.56-.866 1.63-1.172 2.496-.662z" fill="url(#M)"/><path d="M9.962 47.728c.662.764.56 1.936-.204 2.547-.764.662-1.885.56-2.547-.204s-.56-1.885.204-2.547 1.885-.56 2.547.204z" fill="url(#N)"/><path d="M5.327 39.729c.357.917-.153 1.987-1.07 2.344s-1.987-.153-2.344-1.07a1.88 1.88 0 0 1 1.121-2.344c.917-.306 1.987.153 2.293 1.07z" fill="url(#O)"/><path d="M3.696 30.711c0 1.019-.815 1.834-1.783 1.834-1.019 0-1.834-.815-1.834-1.783 0-1.019.815-1.834 1.783-1.834 1.019 0 1.834.764 1.834 1.783z" fill="url(#P)"/><path d="M5.224 21.643a1.82 1.82 0 0 1-2.293 1.121 1.82 1.82 0 0 1-1.121-2.293 1.82 1.82 0 0 1 2.293-1.121c.968.306 1.427 1.376 1.121 2.293z" fill="url(#Q)"/><path d="M9.708 13.644c-.611.764-1.783.917-2.547.255-.764-.611-.917-1.783-.255-2.547.611-.764 1.783-.917 2.547-.255.764.611.866 1.732.255 2.547z" fill="url(#R)"/><path d="M22.954 31.577v-2.089h6.674v-6.114h2.14v6.063h6.318v2.089h-6.368v6.114h-2.14v-6.114h-6.623v.051z" fill="#fff"/><defs><linearGradient id="A" x1="-52.253" y1="4.075" x2="150.513" y2="6.837" xlink:href="#S"><stop stop-color="#d8ec1d"/><stop offset=".201" stop-color="#a2e02b"/><stop offset=".481" stop-color="#5dd03d"/><stop offset=".716" stop-color="#2bc44b"/><stop offset=".893" stop-color="#0cbd53"/><stop offset=".991" stop-color="#00ba56"/></linearGradient><linearGradient id="B" x1="-52.212" y1="1.081" x2="150.554" y2="3.844" xlink:href="#S"><stop stop-color="#d8ec1d"/><stop offset=".201" stop-color="#a2e02b"/><stop offset=".481" stop-color="#5dd03d"/><stop offset=".716" stop-color="#2bc44b"/><stop offset=".893" stop-color="#0cbd53"/><stop offset=".991" stop-color="#00ba56"/></linearGradient><linearGradient id="C" x1="-52.217" y1="1.423" x2="150.549" y2="4.185" xlink:href="#S"><stop stop-color="#d8ec1d"/><stop offset=".201" stop-color="#a2e02b"/><stop offset=".481" stop-color="#5dd03d"/><stop offset=".716" stop-color="#2bc44b"/><stop offset=".893" stop-color="#0cbd53"/><stop offset=".991" stop-color="#00ba56"/></linearGradient><linearGradient id="D" x1="-52.266" y1="5.06" x2="150.5" y2="7.823" xlink:href="#S"><stop stop-color="#d8ec1d"/><stop offset=".201" stop-color="#a2e02b"/><stop offset=".481" stop-color="#5dd03d"/><stop offset=".716" stop-color="#2bc44b"/><stop offset=".893" stop-color="#0cbd53"/><stop offset=".991" stop-color="#00ba56"/></linearGradient><linearGradient id="E" x1="-52.355" y1="11.564" x2="150.411" y2="14.327" xlink:href="#S"><stop stop-color="#d8ec1d"/><stop offset=".201" stop-color="#a2e02b"/><stop offset=".481" stop-color="#5dd03d"/><stop offset=".716" stop-color="#2bc44b"/><stop offset=".893" stop-color="#0cbd53"/><stop offset=".991" stop-color="#00ba56"/></linearGradient><linearGradient id="F" x1="-52.472" y1="20.168" x2="150.294" y2="22.931" xlink:href="#S"><stop stop-color="#d8ec1d"/><stop offset=".201" stop-color="#a2e02b"/><stop offset=".481" stop-color="#5dd03d"/><stop offset=".716" stop-color="#2bc44b"/><stop offset=".893" stop-color="#0cbd53"/><stop offset=".991" stop-color="#00ba56"/></linearGradient><linearGradient id="G" x1="-52.604" y1="29.86" x2="150.162" y2="32.622" xlink:href="#S"><stop stop-color="#d8ec1d"/><stop offset=".201" stop-color="#a2e02b"/><stop offset=".481" stop-color="#5dd03d"/><stop offset=".716" stop-color="#2bc44b"/><stop offset=".893" stop-color="#0cbd53"/><stop offset=".991" stop-color="#00ba56"/></linearGradient><linearGradient id="H" x1="-52.735" y1="39.496" x2="150.031" y2="42.258" xlink:href="#S"><stop stop-color="#d8ec1d"/><stop offset=".201" stop-color="#a2e02b"/><stop offset=".481" stop-color="#5dd03d"/><stop offset=".716" stop-color="#2bc44b"/><stop offset=".893" stop-color="#0cbd53"/><stop offset=".991" stop-color="#00ba56"/></linearGradient><linearGradient id="I" x1="-52.85" y1="47.941" x2="149.916" y2="50.704" xlink:href="#S"><stop stop-color="#d8ec1d"/><stop offset=".201" stop-color="#a2e02b"/><stop offset=".481" stop-color="#5dd03d"/><stop offset=".716" stop-color="#2bc44b"/><stop offset=".893" stop-color="#0cbd53"/><stop offset=".991" stop-color="#00ba56"/></linearGradient><linearGradient id="J" x1="-52.936" y1="54.201" x2="149.83" y2="56.964" xlink:href="#S"><stop stop-color="#d8ec1d"/><stop offset=".201" stop-color="#a2e02b"/><stop offset=".481" stop-color="#5dd03d"/><stop offset=".716" stop-color="#2bc44b"/><stop offset=".893" stop-color="#0cbd53"/><stop offset=".991" stop-color="#00ba56"/></linearGradient><linearGradient id="K" x1="-52.981" y1="57.538" x2="149.785" y2="60.301" xlink:href="#S"><stop stop-color="#d8ec1d"/><stop offset=".201" stop-color="#a2e02b"/><stop offset=".481" stop-color="#5dd03d"/><stop offset=".716" stop-color="#2bc44b"/><stop offset=".893" stop-color="#0cbd53"/><stop offset=".991" stop-color="#00ba56"/></linearGradient><linearGradient id="L" x1="-52.982" y1="57.559" x2="149.784" y2="60.321" xlink:href="#S"><stop stop-color="#d8ec1d"/><stop offset=".201" stop-color="#a2e02b"/><stop offset=".481" stop-color="#5dd03d"/><stop offset=".716" stop-color="#2bc44b"/><stop offset=".893" stop-color="#0cbd53"/><stop offset=".991" stop-color="#00ba56"/></linearGradient><linearGradient id="M" x1="-52.937" y1="54.261" x2="149.829" y2="57.024" xlink:href="#S"><stop stop-color="#d8ec1d"/><stop offset=".201" stop-color="#a2e02b"/><stop offset=".481" stop-color="#5dd03d"/><stop offset=".716" stop-color="#2bc44b"/><stop offset=".893" stop-color="#0cbd53"/><stop offset=".991" stop-color="#00ba56"/></linearGradient><linearGradient id="N" x1="-52.852" y1="48.033" x2="149.914" y2="50.796" xlink:href="#S"><stop stop-color="#d8ec1d"/><stop offset=".201" stop-color="#a2e02b"/><stop offset=".481" stop-color="#5dd03d"/><stop offset=".716" stop-color="#2bc44b"/><stop offset=".893" stop-color="#0cbd53"/><stop offset=".991" stop-color="#00ba56"/></linearGradient><linearGradient id="O" x1="-52.737" y1="39.609" x2="150.029" y2="42.371" xlink:href="#S"><stop stop-color="#d8ec1d"/><stop offset=".201" stop-color="#a2e02b"/><stop offset=".481" stop-color="#5dd03d"/><stop offset=".716" stop-color="#2bc44b"/><stop offset=".893" stop-color="#0cbd53"/><stop offset=".991" stop-color="#00ba56"/></linearGradient><linearGradient id="P" x1="-52.605" y1="29.98" x2="150.161" y2="32.743" xlink:href="#S"><stop stop-color="#d8ec1d"/><stop offset=".201" stop-color="#a2e02b"/><stop offset=".481" stop-color="#5dd03d"/><stop offset=".716" stop-color="#2bc44b"/><stop offset=".893" stop-color="#0cbd53"/><stop offset=".991" stop-color="#00ba56"/></linearGradient><linearGradient id="Q" x1="-52.474" y1="20.283" x2="150.292" y2="23.045" xlink:href="#S"><stop stop-color="#d8ec1d"/><stop offset=".201" stop-color="#a2e02b"/><stop offset=".481" stop-color="#5dd03d"/><stop offset=".716" stop-color="#2bc44b"/><stop offset=".893" stop-color="#0cbd53"/><stop offset=".991" stop-color="#00ba56"/></linearGradient><linearGradient id="R" x1="-52.356" y1="11.659" x2="150.41" y2="14.421" xlink:href="#S"><stop stop-color="#d8ec1d"/><stop offset=".201" stop-color="#a2e02b"/><stop offset=".481" stop-color="#5dd03d"/><stop offset=".716" stop-color="#2bc44b"/><stop offset=".893" stop-color="#0cbd53"/><stop offset=".991" stop-color="#00ba56"/></linearGradient><linearGradient id="S" gradientUnits="userSpaceOnUse"/></defs></svg>