<svg xmlns="http://www.w3.org/2000/svg" width="35" height="35" fill="#21aa68" stroke="#fff" xmlns:v="https://vecta.io/nano"><path d="M30.465 25.496c-.564-.42-1.362-.303-1.782.262l-.735.905c-.466.527-.416 1.332.111 1.798a1.27 1.27 0 0 0 1.798-.111l.87-1.072c.42-.564.303-1.362-.262-1.782zm2.13-5.974c-.687-.15-1.366.286-1.516.974l-.296 1.126c-.208.672.169 1.385.841 1.593.125.039.252.057.377.057.544 0 1.047-.351 1.217-.898l.351-1.336c.15-.687-.286-1.366-.974-1.516zm-8.261 10.053l-1.041.524c-.641.29-.926 1.044-.637 1.685.213.471.676.75 1.162.75a1.27 1.27 0 0 0 .524-.113l1.234-.622c.614-.343.834-1.119.491-1.733s-1.119-.834-1.733-.491zM16.3 7.365v9.663l-4.671 4.671c-.497.497-.497 1.304 0 1.801a1.27 1.27 0 0 0 1.802 0l5.044-5.044c.239-.239.373-.563.373-.901V7.365c0-.704-.57-1.274-1.274-1.274s-1.274.57-1.274 1.274zm16.304-3.376c-.703 0-1.274.57-1.274 1.274V8.8c-2.965-4.65-8.143-7.549-13.757-7.549A16.2 16.2 0 0 0 6.044 6.026 16.19 16.19 0 0 0 1.27 17.555a16.2 16.2 0 0 0 4.775 11.529c3.079 3.08 7.174 4.775 11.529 4.775.011 0 .021-.001.032-.002s.021.002.032.002a16.6 16.6 0 0 0 1.378-.057c.701-.059 1.222-.675 1.163-1.376s-.674-1.222-1.376-1.163a14.04 14.04 0 0 1-1.166.049c-.011 0-.021.001-.032.002s-.021-.002-.032-.002c-7.586 0-13.757-6.171-13.757-13.757S9.988 3.798 17.574 3.798a13.79 13.79 0 0 1 11.842 6.751h-3.503c-.703 0-1.274.57-1.274 1.274s.57 1.274 1.274 1.274h3.889a4.05 4.05 0 0 0 2.119-.596 1.28 1.28 0 0 0 .114-.073c1.109-.729 1.842-1.984 1.842-3.407V5.263c0-.703-.57-1.274-1.274-1.274z"/></svg>