<svg xmlns="http://www.w3.org/2000/svg" width="111" height="21" viewBox="1 1 111 21" fill="none"><path fill-rule="evenodd" d="M1.796.639h109.186c.549 0 .995.381.995.851V21.17c0 .47-.446.851-.995.851H1.796c-.549 0-.994-.381-.994-.851V1.489c0-.47.445-.851.994-.851zm7.843 14.39c-.768-.768-1.152-2.001-1.152-3.699s.384-2.931 1.152-3.699 2.001-1.152 3.699-1.152c1.418 0 2.506.264 3.265.793s1.242 1.366 1.45 2.513h-1.45c-.199-.686-.562-1.188-1.091-1.504s-1.253-.474-2.174-.474c-1.201 0-2.075.278-2.622.833s-.82 1.452-.82 2.689.273 2.134.82 2.689 1.42.833 2.622.833c.921 0 1.646-.158 2.175-.474s.892-.817 1.091-1.504h1.45c-.208 1.147-.691 1.985-1.45 2.513s-1.847.793-3.265.793c-1.698 0-2.931-.384-3.699-1.152zm11.083-7.397c.768-.768 2.001-1.152 3.699-1.152s2.931.384 3.699 1.152 1.152 2.001 1.152 3.699-.384 2.931-1.152 3.699-2.001 1.152-3.699 1.152-2.931-.384-3.699-1.152-1.152-2.001-1.152-3.699.384-2.931 1.152-3.699zm1.077 1.009c-.546.555-.82 1.452-.82 2.689s.273 2.134.82 2.689 1.42.833 2.622.833 2.075-.278 2.622-.833.82-1.452.82-2.689-.273-2.134-.82-2.689-1.42-.833-2.622-.833-2.075.278-2.622.833zm10.778 7.431h-1.409V6.588h1.409l6.314 7.438V6.588H40.3v9.484h-1.409l-6.314-7.438v7.438zm9.47-2.696h1.45c.154.515.467.89.942 1.124s1.149.352 2.025.352c1.725 0 2.588-.447 2.588-1.341 0-.406-.221-.732-.664-.975s-1.21-.452-2.303-.623c-1.481-.253-2.502-.576-3.062-.969s-.84-.982-.84-1.768c0-1.788 1.31-2.683 3.929-2.683 1.283 0 2.253.219 2.913.657s1.07 1.154 1.233 2.147h-1.463c-.136-.524-.425-.903-.867-1.138s-1.079-.352-1.91-.352c-1.635 0-2.452.429-2.452 1.287 0 .389.201.689.603.901s1.127.404 2.175.576c1.553.28 2.624.623 3.211 1.03s.881 1.012.881 1.816c0 1.842-1.373 2.764-4.119 2.764-1.319 0-2.317-.221-2.994-.664s-1.102-1.156-1.274-2.141zm9.985-6.788h1.409v5.27c0 1.048.246 1.809.738 2.283s1.276.711 2.351.711c1.084 0 1.87-.237 2.358-.711s.731-1.235.731-2.283v-5.27h1.409v5.392c0 1.472-.355 2.54-1.064 3.204s-1.854.996-3.434.996c-1.572 0-2.714-.332-3.428-.996s-1.07-1.732-1.07-3.204V6.588zm11.123 9.484V6.588h1.409v8.156h6.016v1.328h-7.425zm15.35-8.156h-3.983v8.156h-1.409V7.915h-3.983V6.588h9.376v1.328zm1.531 8.156V6.588h1.409v9.484h-1.409zm5.094 0h-1.409V6.588h1.409l6.314 7.438V6.588h1.409v9.484h-1.409l-6.314-7.438v7.438zm9.62-4.742c0-1.698.384-2.931 1.152-3.699s2.001-1.152 3.699-1.152c1.382 0 2.45.251 3.204.752s1.245 1.294 1.471 2.378h-1.477c-.217-.623-.585-1.079-1.104-1.368s-1.218-.434-2.094-.434c-1.201 0-2.075.278-2.622.833s-.82 1.452-.82 2.689c0 1.246.285 2.145.853 2.696s1.517.826 2.845.826c1.038 0 1.799-.165 2.283-.495s.724-.851.724-1.565v-.542h-3.332v-1.246h4.755v1.788c0 1.183-.354 2.044-1.063 2.581s-1.836.806-3.381.806c-1.816 0-3.119-.382-3.909-1.145s-1.185-1.998-1.185-3.705z" fill="#fefefe"/></svg>