<svg xmlns="http://www.w3.org/2000/svg" width="1900" height="45" fill="none" xmlns:v="https://vecta.io/nano"><path d="M339.689 39.639c-.72-6.174-5.402-11.893-15.414-11.893H16.967c-10.733 0-21.415-4.758-21.415-13.537v-3.625h-4.538v1.926c0 12.574 10.467 19.145 27.611 19.145h303.129c10.013 0 14.623 4.643 14.623 12.346h7.779c0-7.703 4.898-12.346 14.911-12.346L1879.5 22.422c16.93 0 26.97-6.57 26.97-19.145V1.351H1902v3.625c0 9.233-10.68 13.537-21.34 13.537L356.545 27.746c-10.013 0-14.695 5.719-15.487 11.893h-1.369z" fill="#00ba56" stroke="#fff"/></svg>