<svg xmlns="http://www.w3.org/2000/svg" width="375" height="24" fill="none" xmlns:v="https://vecta.io/nano"><path d="M186.592 20.577c-.455-3.897-3.41-7.507-9.731-7.507H10.868c-6.775 0-13.519-3.003-13.519-8.545V2.235h-2.865v1.216c0 7.938 6.607 12.085 17.43 12.085H175.27c6.32 0 9.23 2.931 9.23 7.793h4.911c0-4.863 3.092-7.793 9.413-7.793l161.802-.828c10.686 0 17.02-4.148 17.02-12.085V1.407h-2.82v2.288c0 5.828-6.743 8.546-13.473 8.546l-164.121.828c-6.32 0-9.276 3.61-9.776 7.507h-.864z" fill="#00ba56" stroke="#fff"/></svg>