<svg xmlns="http://www.w3.org/2000/svg" width="848" height="34" fill="none" xmlns:v="https://vecta.io/nano"><path d="M236.068 29.336c-.627-5.377-4.705-10.358-13.426-10.358H18.99C9.642 18.978.338 14.834.338 7.188V4.03h-3.953v1.677c0 10.952 9.116 16.674 24.048 16.674h200.014c8.72 0 12.735 4.044 12.735 10.753h6.776c0-6.709 4.266-10.753 12.986-10.753l574.241-3.041c14.743 0 23.482-5.723 23.482-16.674V.989h-3.89v3.157c0 8.041-9.303 11.79-18.588 11.79l-577.441 3.041c-8.72 0-12.798 4.981-13.488 10.358h-1.192z" fill="#00ba56" stroke="#fff"/></svg>