<svg xmlns="http://www.w3.org/2000/svg" width="29" height="12" fill="#ccd4d9">
    <path d="M13.957 5.719v3.28h-1.044V.899h2.768a2.51 2.51 0 0 1 .967.172c.308.12.588.3.826.529.24.215.431.479.56.774s.194.614.189.935a2.24 2.24 0 0 1-.186.941c-.129.297-.321.562-.563.778-.484.46-1.082.69-1.793.69h-1.725v.001zm0-3.823v2.827h1.751c.192.006.383-.029.561-.101a1.38 1.38 0 0 0 .472-.318 1.38 1.38 0 0 0 .31-.453c.072-.17.109-.353.109-.537s-.037-.367-.109-.537a1.38 1.38 0 0 0-.31-.453A1.36 1.36 0 0 0 16.27 2c-.178-.074-.37-.11-.563-.104h-1.751v.001z"/>
    <path d="M20.63 3.274c.771 0 1.381.206 1.827.617s.67.975.669 1.691v3.415h-.998v-.769h-.045c-.432.633-1.007.95-1.725.95-.612 0-1.125-.181-1.537-.543a1.73 1.73 0 0 1-.618-1.357c0-.573.217-1.029.652-1.368s1.015-.508 1.741-.509c.62 0 1.13.113 1.531.339v-.238a1.18 1.18 0 0 0-.111-.509c-.075-.159-.184-.3-.32-.412a1.48 1.48 0 0 0-1.008-.379c-.583 0-1.044.245-1.384.735l-.919-.577c.506-.724 1.254-1.086 2.245-1.086zM19.279 7.3a.83.83 0 0 0 .346.679 1.27 1.27 0 0 0 .811.271c.441-.001.863-.175 1.174-.486.346-.324.519-.705.519-1.142-.326-.259-.779-.388-1.361-.388-.424 0-.778.102-1.061.306s-.428.458-.428.76zm9.576-3.844l-3.486 7.984h-1.078l1.293-2.794-2.292-5.191h1.134l1.657 3.981h.023l1.611-3.981h1.137zM9.738 5.012c0-.317-.027-.634-.08-.946H5.255v1.792h2.521a2.15 2.15 0 0 1-.321.802 2.16 2.16 0 0 1-.611.612v1.163h1.505c.881-.81 1.389-2.007 1.389-3.423z"/>
    <path d="M5.255 9.558c1.26 0 2.32-.412 3.094-1.123L6.844 7.271c-.419.283-.958.445-1.589.445-1.218 0-2.251-.818-2.621-1.921h-1.55v1.199a4.66 4.66 0 0 0 1.721 1.871 4.68 4.68 0 0 0 2.45.692z"/>
    <path d="M2.635 5.794a2.78 2.78 0 0 1 0-1.781V2.814h-1.55a4.64 4.64 0 0 0 0 4.179l1.55-1.199z"/>
    <path d="M5.255 2.094a2.54 2.54 0 0 1 1.791.698l1.332-1.328C7.533.673 6.414.239 5.255.252a4.68 4.68 0 0 0-2.45.692 4.66 4.66 0 0 0-1.721 1.871l1.55 1.199c.37-1.102 1.403-1.921 2.621-1.921z"/>
</svg>