<svg xmlns="http://www.w3.org/2000/svg" width="41" height="37" fill="none" xmlns:v="https://vecta.io/nano"><path d="M38.958 1.17h-4.565a1.16 1.16 0 1 0 0 2.321h1.897L32.899 7.14c-2.527-3.607-6.715-5.97-11.444-5.97-7.7 0-13.965 6.265-13.965 13.965 0 .615.04 1.221.118 1.816L5.29 19.269 2.628 16.43a1.16 1.16 0 1 0-1.693 1.587l3.482 3.714a1.16 1.16 0 0 0 1.668.027l2.143-2.143c.312.919.719 1.796 1.206 2.618l-7.909 7.909c-1.358 1.357-1.358 3.566 0 4.923a3.48 3.48 0 0 0 4.924 0l7.909-7.909a13.88 13.88 0 0 0 7.098 1.943c7.7 0 13.965-6.265 13.965-13.965a13.88 13.88 0 0 0-1.306-5.893l3.682-3.964v1.694a1.16 1.16 0 1 0 2.321 0V2.33a1.16 1.16 0 0 0-1.16-1.16h0zM21.456 3.491c4.123 0 7.752 2.154 9.822 5.395l-8.637 9.296-7.311-7.311a1.16 1.16 0 0 0-1.641 0L9.819 14.74a11.66 11.66 0 0 1 11.637-11.25zM4.807 33.424a1.16 1.16 0 0 1-1.641 0c-.452-.452-.452-1.189 0-1.641l7.634-7.633a14.07 14.07 0 0 0 1.641 1.641l-7.634 7.633zM33.1 15.134a11.66 11.66 0 0 1-11.644 11.644c-5.526 0-10.166-3.87-11.351-9.042l4.404-4.404 7.342 7.342c.46.46 1.22.455 1.671-.031l8.86-9.536a11.59 11.59 0 0 1 .718 4.027h0z" fill="#21aa68" stroke="#fff"/></svg>