<svg xmlns="http://www.w3.org/2000/svg" width="29" height="28" fill="none" stroke="#fff" stroke-width=".5" xmlns:v="https://vecta.io/nano"><path d="M23.984.518H4.794C2.56.518.743 2.335.743 4.568v15.16c0 2.233 1.817 4.049 4.051 4.049h1.73c.482 0 .873-.391.873-.873s-.391-.873-.873-.873h-1.73c-1.271 0-2.304-1.033-2.304-2.302V4.568c0-1.27 1.034-2.303 2.304-2.303h19.19c1.27 0 2.304 1.033 2.304 2.303v15.16c0 1.269-1.034 2.302-2.304 2.302H13.771a.87.87 0 0 0-.463.133l-3.605 2.252v-1.512c0-.483-.391-.873-.873-.873s-.873.391-.873.873v3.087c0 .317.172.61.45.764a.87.87 0 0 0 .423.109c.161 0 .322-.044.463-.132l4.729-2.954h9.963c2.234 0 4.051-1.816 4.051-4.049V4.568c0-2.233-1.817-4.05-4.051-4.05z" fill="#394252"/><path d="M12.331 13.433c.359.182.797.094 1.058-.212l2.836-3.324 2.69 1.703c.385.244.892.151 1.165-.213l3.328-4.425c.291-.385.212-.933-.173-1.223s-.933-.212-1.223.173l-2.845 3.781-2.649-1.677c-.367-.233-.849-.16-1.132.171l-2.882 3.378-2.716-1.371a.87.87 0 0 0-.995.147l-3.329 3.168c-.35.332-.363.885-.031 1.234a.87.87 0 0 0 .633.271c.216 0 .433-.079.601-.241l2.883-2.744 2.779 1.403z" fill="#0cbd68"/><path d="M8.523 14.686v3.173c0 .482.391.873.873.873s.874-.391.873-.873v-3.173c0-.482-.391-.873-.873-.873s-.873.391-.873.873zm-3.329 1.682v1.491c0 .483.391.873.873.873s.874-.391.873-.873v-1.491c0-.482-.391-.873-.873-.873s-.873.391-.873.873zm7.531-2.383c-.482 0-.873.391-.873.873v3.001c0 .483.391.873.873.873s.873-.391.873-.873v-3.001c0-.482-.391-.873-.873-.873zm2.455-1.549v5.424c0 .482.391.873.873.873s.874-.391.874-.873v-5.424c0-.482-.391-.873-.874-.873s-.873.391-.873.873zm4.203.217c-.482 0-.874.391-.874.873v4.333c0 .482.391.873.874.873s.873-.391.873-.873v-4.333c0-.483-.391-.873-.873-.873zm3.328-2.768c-.483 0-.873.391-.873.873v7.101c0 .482.391.873.873.873s.873-.391.874-.873v-7.102c0-.482-.391-.873-.874-.873z" fill="#394252"/></svg>