<svg xmlns="http://www.w3.org/2000/svg" width="6" height="5" fill="none" xmlns:v="https://vecta.io/nano"><path d="M5.117.345c.104-.099.243-.154.388-.153s.282.058.385.159.163.238.166.382-.049.284-.146.39L2.953 4.822c-.051.055-.112.099-.18.129s-.142.047-.217.048-.149-.012-.218-.04-.132-.07-.185-.122L.191 2.875c-.055-.051-.098-.112-.129-.18s-.047-.142-.048-.216.012-.149.04-.218.07-.132.122-.185.116-.094.185-.122.143-.042.218-.04.148.018.216.048.13.074.18.129l1.552 1.551L5.103.361c.005-.006.01-.011.015-.016h-.001z" fill="#394252"/></svg>