<svg xmlns="http://www.w3.org/2000/svg" width="31" height="30" fill="none" xmlns:v="https://vecta.io/nano"><circle cx="15.66" cy="15.358" r="12.8" fill="#fff"/><path d="M30.5 15a15 15 0 0 0-15-15 15 15 0 0 0-15 15 15 15 0 0 0 15 15 15 15 0 0 0 15-15zm-14.062 6.563a.94.94 0 0 1-.937.938.94.94 0 0 1-.937-.937V10.701l-4.024 4.026a.94.94 0 0 1-1.328 0 .94.94 0 0 1 0-1.328l5.625-5.625a.94.94 0 0 1 .664-.275.94.94 0 0 1 .664.275l5.625 5.625a.94.94 0 0 1 0 1.328.94.94 0 0 1-1.328 0l-4.024-4.026v10.862z" fill="#0cbd53"/></svg>