<svg xmlns="http://www.w3.org/2000/svg" width="43" height="40" fill="#21aa68" stroke="#fff" xmlns:v="https://vecta.io/nano"><path d="M40.899 16.304H31.01l-3.389-3.286c-.997-.981-2.322-1.521-3.731-1.521h-7.536c-1.845 0-3.58.708-4.885 1.994l-.415.409H1.726a1.21 1.21 0 0 0-1.219 1.202V27.92a1.21 1.21 0 0 0 1.219 1.202h5.753l2.894 2.852a1.23 1.23 0 0 0 .862.352h4.512c.412.237.863.389 1.327.454a3.56 3.56 0 0 0 .851 2.434c.723.849 1.76 1.286 2.805 1.286a3.7 3.7 0 0 0 1.528-.329 3.58 3.58 0 0 0 .67 1.18 3.67 3.67 0 0 0 5.153.444l7.581-6.27H40.9a1.21 1.21 0 0 0 1.219-1.202V17.505a1.21 1.21 0 0 0-1.219-1.202h0zM8.846 27.07a1.23 1.23 0 0 0-.862-.352H2.945V16.304h8.615a1.23 1.23 0 0 0 .862-.352l.772-.761c.844-.832 1.967-1.29 3.161-1.29h7.536c.76 0 1.474.292 2.011.821l4.051 3.928c.228.227.354.527.354.847a1.19 1.19 0 0 1-.357.85 1.22 1.22 0 0 1-.862.352 1.22 1.22 0 0 1-.862-.352l-3.744-3.69a1.23 1.23 0 0 0-.862-.352h-3.251 0c-.277 0-.555.092-.784.281l-7.478 6.185a3.57 3.57 0 0 0-1.293 2.447 3.54 3.54 0 0 0 .842 2.631c.585.687 1.389 1.126 2.283 1.251a3.55 3.55 0 0 0 .068.822H11.74L8.846 27.07zm30.834 2.051h-4.463a1.23 1.23 0 0 0-.784.281l-7.921 6.551a1.22 1.22 0 0 1-1.718-.148 1.18 1.18 0 0 1-.281-.877 1.19 1.19 0 0 1 .431-.816l1.403-1.161a1.19 1.19 0 0 0 .15-1.693 1.23 1.23 0 0 0-1.717-.148l-1.403 1.161-1.868 1.545c-.25.206-.565.305-.89.277a1.22 1.22 0 0 1-.828-.425 1.19 1.19 0 0 1 .15-1.693l3.271-2.706a1.19 1.19 0 0 0 .15-1.693 1.23 1.23 0 0 0-1.717-.148l-3.271 2.705c-.515.426-1.285.359-1.717-.148a1.19 1.19 0 0 1 .15-1.693l3.271-2.705a1.19 1.19 0 0 0 .15-1.693 1.23 1.23 0 0 0-1.717-.148l-3.271 2.705a1.22 1.22 0 0 1-1.718-.148 1.19 1.19 0 0 1 .15-1.693l7.138-5.904h2.302l3.387 3.339a3.66 3.66 0 0 0 2.586 1.056 3.66 3.66 0 0 0 2.586-1.056c.691-.681 1.071-1.586 1.071-2.549 0-.269-.031-.533-.089-.79h7.023v10.415zM21.312 6.878a1.21 1.21 0 0 0 1.219-1.202V1.707A1.21 1.21 0 0 0 21.312.506a1.21 1.21 0 0 0-1.219 1.202v3.969a1.21 1.21 0 0 0 1.219 1.202zm5.69 2.039c.312 0 .624-.117.862-.352l3.251-3.204a1.19 1.19 0 0 0 0-1.699 1.23 1.23 0 0 0-1.724 0L26.14 6.866a1.19 1.19 0 0 0 0 1.699c.238.235.55.352.862.352h0zm-12.241-.352c.238.235.55.352.862.352s.624-.117.862-.352a1.19 1.19 0 0 0 0-1.699l-3.251-3.204a1.23 1.23 0 0 0-1.724 0 1.19 1.19 0 0 0 0 1.699l3.251 3.204z"/></svg>