<svg xmlns="http://www.w3.org/2000/svg" width="35" height="39" fill="#21aa68" stroke="#fff" stroke-width=".2" xmlns:v="https://vecta.io/nano"><path d="M21.31 20.769l.08-1.277a9.78 9.78 0 0 0 3.261.552 9.87 9.87 0 0 0 9.858-9.858A9.87 9.87 0 0 0 24.651.328c-5.228 0-9.517 4.091-9.838 9.239H11.75a5.19 5.19 0 0 0-3.818 1.652c-1.001 1.065-1.501 2.455-1.41 3.913l.352 5.636c.007 2.439 1.034 4.621 2.64 6.062v.986l-1.088 1.631-5.091 1.389C1.921 31.222.934 32.514.934 33.98v2.603a1.94 1.94 0 0 0 1.939 1.939h22.438a1.94 1.94 0 0 0 1.939-1.939V33.98c0-1.465-.987-2.758-2.401-3.144l-5.091-1.389-1.087-1.631v-.986c1.605-1.441 2.633-3.623 2.639-6.062h0zm-7.218 9.73l-3.294-2.745c.988.555 2.108.869 3.294.869s2.306-.314 3.294-.869l-3.294 2.745zm-3.827-1.578l2.91 2.425-1.592 1.591c-.004.004-.014.014-.033.012s-.027-.013-.03-.018l-1.964-2.947.709-1.064h0zm3.827 6.302a1.96 1.96 0 0 0 .154-.007l.424 2.069h-1.157l.424-2.069a1.96 1.96 0 0 0 .154.007h0zm.701-1.939a.701.701 0 1 1-1.402 0v-.404l.701-.701.701.701v.404zm.215-1.938l2.91-2.425.709 1.064-1.964 2.947c-.003.005-.011.016-.03.018s-.029-.008-.033-.012l-1.592-1.592h0zm9.643-29.78c4.753 0 8.621 3.867 8.621 8.621a8.63 8.63 0 0 1-8.621 8.62 8.55 8.55 0 0 1-3.181-.606l.192-3.068a5.19 5.19 0 0 0-1.41-3.913c-1-1.065-2.356-1.652-3.818-1.652h-.381c.318-4.466 4.053-8.002 8.598-8.002h0zM8.834 12.067a3.96 3.96 0 0 1 2.916-1.261h4.684a3.96 3.96 0 0 1 2.916 1.261 3.96 3.96 0 0 1 1.077 2.989l-.116 1.862a11.56 11.56 0 0 0-1.11-1.83.62.62 0 0 0-.721-.195c-3.108 1.259-8.948 1.275-9.007 1.275a.62.62 0 0 0-.382.132c-.043.034-.615.493-1.171 1.36l-.163-2.603a3.96 3.96 0 0 1 1.077-2.989h0zm-.722 8.706c.186-1.843 1.216-2.999 1.599-3.37 1.113-.014 5.741-.137 8.77-1.19.509.767 1.592 2.624 1.592 4.532 0 3.662-2.683 6.641-5.981 6.641-3.289 0-5.967-2.964-5.98-6.613h0zm-5.94 15.811v-2.603c0-.909.612-1.711 1.489-1.95l4.884-1.332 1.946 2.919c.213.32.555.525.938.563a1.27 1.27 0 0 0 .848-.218 1.94 1.94 0 0 0 .503.746l-.528 2.576h-5.46v-2.021a.62.62 0 0 0-.619-.619.62.62 0 0 0-.619.619v2.021H2.873a.7.7 0 0 1-.701-.701h0zm23.84-2.603v2.603a.7.7 0 0 1-.701.701H22.63v-2.021a.62.62 0 0 0-.619-.619.62.62 0 0 0-.619.619v2.021h-5.459l-.528-2.576c.221-.204.395-.459.502-.745a1.27 1.27 0 0 0 .72.224 1.35 1.35 0 0 0 .127-.006c.383-.038.725-.243.938-.563l1.946-2.919 4.884 1.332c.877.239 1.489 1.041 1.489 1.95zm-2.021-19.134a.62.62 0 0 0-.619.619.62.62 0 0 0 .619.619h1.32a.62.62 0 0 0 .619-.619.62.62 0 0 0-.619-.619h-.041V9.485h.041a.62.62 0 0 0 .619-.619.62.62 0 0 0-.619-.619h-1.32a.62.62 0 0 0-.619.619.62.62 0 0 0 .619.619h.041v5.362h-.041zm.66-8.084a1.2 1.2 0 0 0 1.196-1.196 1.2 1.2 0 0 0-1.196-1.196 1.2 1.2 0 0 0-1.196 1.196 1.2 1.2 0 0 0 1.196 1.196z"/></svg>