<svg xmlns="http://www.w3.org/2000/svg" width="23" height="23" fill="#C7CDD7" xmlns:v="https://vecta.io/nano"><path d="M13.437 11.286a2.16 2.16 0 0 1-2.159 2.159 2.16 2.16 0 0 1-2.159-2.159 2.16 2.16 0 0 1 2.159-2.159 2.16 2.16 0 0 1 2.159 2.159zm2.894-3.82a2.01 2.01 0 0 0-.484-.745 2.01 2.01 0 0 0-.745-.485c-.228-.089-.571-.194-1.203-.223l-2.617-.038-2.617.038c-.632.029-.975.134-1.203.223-.281.104-.536.269-.745.485a2.01 2.01 0 0 0-.485.745c-.089.228-.194.571-.223 1.203l-.038 2.617.038 2.617c.029.631.134.974.223 1.203a2.01 2.01 0 0 0 .485.745c.209.215.463.381.745.484.228.089.571.194 1.203.223l2.617.038 2.617-.038c.631-.029.974-.134 1.203-.223.565-.218 1.011-.664 1.229-1.229.089-.228.194-.571.223-1.203l.038-2.617-.038-2.617c-.029-.632-.134-.975-.223-1.203zm-5.049 7.146c-1.837 0-3.326-1.489-3.326-3.326S9.445 7.96 11.282 7.96s3.326 1.489 3.326 3.326-1.489 3.326-3.326 3.326zm3.457-6.006c-.429 0-.777-.348-.777-.777s.348-.777.777-.777a.78.78 0 0 1 .777.777.78.78 0 0 1-.777.777zM11.28.006C5.051.006 0 5.057 0 11.286s5.051 11.28 11.28 11.28 11.28-5.051 11.28-11.28S17.509.006 11.28.006zm6.438 13.951c-.031.689-.141 1.16-.301 1.572a3.31 3.31 0 0 1-1.894 1.894c-.412.16-.883.27-1.572.301s-.911.039-2.67.039-1.98-.008-2.671-.039-1.16-.141-1.572-.301a3.17 3.17 0 0 1-1.147-.747 3.18 3.18 0 0 1-.747-1.147c-.16-.412-.27-.883-.301-1.572s-.039-.912-.039-2.671l.039-2.67c.031-.69.141-1.16.301-1.572a3.18 3.18 0 0 1 .747-1.147c.323-.33.715-.585 1.147-.747.412-.16.883-.27 1.572-.301s.911-.039 2.67-.039 1.98.008 2.671.039 1.16.141 1.572.301a3.18 3.18 0 0 1 1.147.747 3.19 3.19 0 0 1 .747 1.147c.16.412.27.883.301 1.572s.039.911.039 2.67l-.039 2.671z"/></svg>