<svg xmlns="http://www.w3.org/2000/svg" width="41" height="41" fill="#21aa68" stroke="#fff" stroke-width=".2" xmlns:v="https://vecta.io/nano"><path d="M40.09 26.69l-4.764-6.929c-.052-.086-.153-.201-.365-.253l-10.496-2.6v-1.171a8.21 8.21 0 0 0 3.449-6.699c0-4.539-3.693-8.231-8.231-8.231S11.452 4.5 11.452 9.038a8.18 8.18 0 0 0 3.617 6.817v1.244l-9.631 2.409c-.28.09-.359.246-.363.252L.311 26.69c-.115.167-.141.379-.072.569s.227.334.423.388l4.303 1.173v7.484c0 .284.191.531.465.604l14.61 3.878a.62.62 0 0 0 .32 0l14.611-3.878c.274-.073.465-.32.465-.604V28.82l4.303-1.173c.195-.053.353-.198.422-.388s.043-.402-.072-.569h0zM16.32 16.14h3.447 0 3.449v1.866c0 1.7-1.779 2.474-3.432 2.474-1.669 0-3.464-.774-3.464-2.474V16.14zm-3.617-7.102a6.99 6.99 0 0 1 6.981-6.981 6.99 6.99 0 0 1 6.981 6.981c0 2.364-1.183 4.549-3.166 5.846l-3.106.006.002-3.003h1.238c.166 0 .325-.066.442-.183s.183-.276.183-.442l-.003-4.253c0-.345-.28-.625-.625-.625s-.625.28-.625.625l.002 3.627h-1.054-.163-.02 0-1.031V8.472c0-.345-.28-.625-.625-.625s-.625.28-.625.625v2.791c0 .345.28.625.625.625h1.031l-.002 3.003h-3.25a6.94 6.94 0 0 1-3.189-5.852zm2.39 9.344c.231 2.199 2.472 3.349 4.691 3.349 2.198 0 4.553-1.111 4.671-3.538l7.843 1.943-12.096 3.213-12.107-3.216 6.999-1.751zm-9.237 2.45l8.514 2.261 4.886 1.298-3.468 6.083L1.84 26.672l4.016-5.841zm.359 8.329l9.71 2.646a.62.62 0 0 0 .164.022c.22 0 .43-.117.543-.316l2.943-5.16V39.37l-13.36-3.546V29.16zm27.971 6.663L20.825 39.37V26.351l2.946 5.162c.113.198.322.315.543.315a.62.62 0 0 0 .164-.022l9.708-2.646v6.663h0zm-9.57-5.35l-3.47-6.083 13.4-3.559 4.016 5.841-13.945 3.801zM9.585 12.824l-3.467.855c-.335.082-.54.421-.457.756.07.285.325.476.606.476a.62.62 0 0 0 .15-.018l3.467-.855c.335-.082.54-.421.457-.756s-.424-.54-.756-.457zM6.128 4.777l3.467.855a.62.62 0 0 0 .15.018c.281 0 .536-.19.606-.475.083-.335-.122-.674-.457-.756l-3.467-.855c-.332-.084-.673.121-.756.457s.122.674.457.756h0zm-.693 4.816h3.571c.345 0 .625-.28.625-.625s-.28-.625-.625-.625H5.435c-.345 0-.625.28-.625.625s.28.625.625.625h0zm24.632 3.14c-.333-.082-.674.122-.756.457s.122.674.457.756l3.468.855a.62.62 0 0 0 .15.018c.281 0 .536-.19.606-.475.083-.335-.122-.674-.457-.756l-3.467-.855zm-.161-7.173a.62.62 0 0 0 .15-.018l3.467-.855c.335-.082.54-.421.457-.756s-.422-.54-.756-.457l-3.467.855c-.335.082-.54.421-.457.756.07.285.325.475.606.475zm.116 3.315c0 .345.279.625.625.625h3.57c.346 0 .625-.28.625-.625s-.279-.625-.625-.625h-3.57c-.346 0-.625.28-.625.625z"/></svg>