<svg xmlns="http://www.w3.org/2000/svg" width="78" height="16" fill="none" xmlns:v="https://vecta.io/nano"><path d="M18.484 4.36h1.418v.943c.483-.705 1.297-1.057 2.448-1.057 1.293 0 2.141.453 2.549 1.362.465-.909 1.367-1.362 2.707-1.362 1.026 0 1.773.265 2.247.797s.709 1.376.709 2.534v4.316h-1.418V7.576c0-.693-.153-1.203-.451-1.519s-.768-.48-1.405-.48c-.732 0-1.257.202-1.578.601s-.478 1.048-.478 1.948v3.766h-1.418V7.576c0-.693-.153-1.203-.451-1.519s-.767-.48-1.407-.48c-.732 0-1.257.202-1.578.601S19.9 7.225 19.9 8.125v3.766h-1.418V4.36h.002zm14.197 11.151V4.36H34.1v1.057c.53-.783 1.468-1.174 2.807-1.174 1.21 0 2.085.307 2.633.92s.815 1.6.815 2.96c0 1.353-.272 2.336-.815 2.956s-1.423.927-2.633.927c-1.34 0-2.278-.393-2.807-1.174v4.677h-1.418v.002zm2.02-5.438c.382.402.994.599 1.831.599s1.454-.2 1.836-.599.57-1.05.57-1.95c0-.886-.188-1.535-.57-1.941s-.994-.608-1.836-.608-1.45.204-1.831.608-.575 1.053-.575 1.941c0 .9.193 1.551.575 1.95zm6.986-.471h1.407c.128.406.368.7.723.882s.866.276 1.519.276c1.288 0 1.928-.31 1.928-.927 0-.281-.17-.5-.521-.667s-.907-.305-1.679-.42c-1.192-.155-2.029-.408-2.514-.761s-.732-.871-.732-1.557c0-.736.254-1.284.767-1.645s1.317-.543 2.417-.543 1.932.191 2.493.572.907.992 1.044 1.834h-1.403c-.128-.406-.359-.7-.696-.884s-.828-.274-1.463-.274c-1.187 0-1.782.294-1.782.882 0 .272.17.487.507.644s.871.298 1.607.413c1.243.193 2.112.453 2.597.781.492.328.732.83.732 1.506 0 1.526-1.113 2.289-3.342 2.289-1.113 0-1.957-.193-2.536-.581-.581-.379-.94-.99-1.075-1.82zm10.62-5.242h2.273v1.33h-2.273v3.535c0 .465.114.801.337 1.014s.595.319 1.095.319h.929v1.331h-.954c-.999 0-1.717-.197-2.159-.592s-.667-1.035-.667-1.912V5.69H49.64V4.36h1.248V2.708h1.418V4.36zm6.401 7.648c-1.003 0-1.739-.179-2.204-.536s-.691-.931-.691-1.724c0-.821.258-1.407.774-1.759s1.349-.53 2.496-.53h2.563c0-.684-.171-1.185-.521-1.497s-.902-.471-1.665-.471c-.608 0-1.077.099-1.405.296s-.552.514-.667.949h-1.407c.137-.866.482-1.499 1.044-1.896s1.394-.592 2.493-.592c1.234 0 2.137.254 2.702.761s.846 1.315.846 2.426v4.462h-1.418v-.969c-.57.72-1.551 1.082-2.94 1.082zM57.231 9.69c0 .377.144.649.442.817s.749.254 1.367.254c.819 0 1.436-.148 1.849-.449s.662-.777.758-1.434v-.346h-2.199c-1.481 0-2.217.386-2.217 1.158zm9.94-5.33h2.273v1.33h-2.273v3.535c0 .465.114.801.337 1.014s.595.319 1.095.319h.929v1.331h-.954c-.999 0-1.717-.197-2.159-.592s-.666-1.035-.666-1.912V5.69h-1.248V4.36h1.248V2.708h1.418V4.36zm3.384 5.242h1.407c.128.406.368.7.723.882s.866.276 1.519.276c1.288 0 1.928-.31 1.928-.927 0-.281-.171-.5-.521-.667s-.907-.305-1.679-.42c-1.192-.155-2.029-.408-2.514-.761s-.732-.871-.732-1.557c0-.736.254-1.284.767-1.645s1.317-.543 2.417-.543 1.932.191 2.493.572.907.992 1.044 1.834h-1.403c-.128-.406-.359-.7-.696-.884s-.828-.274-1.463-.274c-1.187 0-1.782.294-1.782.882 0 .272.171.487.507.644s.871.298 1.607.413c1.243.193 2.112.453 2.597.781.492.328.732.83.732 1.506 0 1.526-1.113 2.289-3.342 2.289-1.113 0-1.957-.193-2.536-.581-.579-.379-.938-.99-1.075-1.82z" fill="#fff"/><path d="M11.22 10.392l-9.836 5.373c-.402.22-.891-.072-.891-.53V4.494c0-.458.489-.747.891-.53.193.105.314.31.314.53v6.192c0 .458.491.75.893.527l5.718-3.151a.61.61 0 0 1 .579-.002l2.33 1.27c.422.233.422.835.002 1.062z" fill="#abee2b"/><path d="M10.463 4.382a.6.6 0 0 1 0 1.037L7.438 7.21l-.049.029-3.645 2.159c-.402.238-.909-.052-.909-.518V.922c0-.467.507-.756.909-.518l6.719 3.979z" fill="#a2e02b"/></svg>