<svg xmlns="http://www.w3.org/2000/svg" width="31" height="32" fill="none" xmlns:v="https://vecta.io/nano"><path d="M18.968 24.754l4.915 4.991c1.365 1.386 3.732 1.386 5.097 0 1.456-1.386 1.456-3.789 0-5.175l-4.915-4.991c.91-1.756 1.456-3.789 1.456-5.915 0-.37 0-.739-.091-1.017l3.368-3.419a.9.9 0 0 0 0-1.294.87.87 0 0 0-1.274 0l-2.457 2.495c-.546-2.126-1.638-3.974-3.186-5.545-4.824-4.898-12.56-4.898-17.384 0s-4.824 12.754 0 17.652c4.005 4.066 9.921 4.713 14.472 2.218zm8.647 1.109c.728.739.728 1.848 0 2.588a1.74 1.74 0 0 1-2.549 0l-4.642-4.713c.455-.37.91-.739 1.365-1.202s.819-.924 1.183-1.386l4.642 4.713zM5.77 6.178a10.38 10.38 0 0 1 14.836 0c1.547 1.571 2.548 3.604 2.912 5.822l-1.82 1.848-3.004-3.05a.87.87 0 0 0-1.274 0l-4.733 4.806-2.093-2.126a.87.87 0 0 0-1.274 0l-3.641 3.697a.9.9 0 0 0 0 1.294.87.87 0 0 0 1.274 0l3.004-3.05c1.365 1.109 2.366 3.142 3.368 2.126l4.733-4.806 3.004 3.05a.87.87 0 0 0 1.274 0l1.274-1.294c-.182 2.588-1.274 4.898-3.003 6.747a10.38 10.38 0 0 1-14.836 0c-4.096-4.159-4.096-10.905 0-15.064z" fill="#394252" stroke="#fff" stroke-width=".5"/></svg>