<svg xmlns="http://www.w3.org/2000/svg" width="23" height="15" fill="none" fill-rule="evenodd" xmlns:v="https://vecta.io/nano"><path d="M11.625 12.433a6.53 6.53 0 0 1-4.282 1.595c-3.645 0-6.601-2.99-6.601-6.677S3.698.674 7.344.674a6.53 6.53 0 0 1 4.282 1.595A6.53 6.53 0 0 1 15.907.674c3.645 0 6.601 2.99 6.601 6.677s-2.955 6.677-6.601 6.677a6.53 6.53 0 0 1-4.281-1.595z" fill="#dfe6eb"/><g fill="#ccd4d9"><path d="M11.625 12.433c1.419-1.225 2.319-3.047 2.319-5.082s-.9-3.857-2.319-5.082A6.53 6.53 0 0 1 15.906.674c3.646 0 6.601 2.99 6.601 6.677s-2.955 6.677-6.601 6.677a6.53 6.53 0 0 1-4.282-1.595z"/><path d="M11.623 12.433c1.419-1.225 2.319-3.047 2.319-5.082s-.9-3.857-2.319-5.082c-1.419 1.225-2.319 3.047-2.319 5.082s.9 3.857 2.319 5.082z"/></g></svg>