<svg xmlns="http://www.w3.org/2000/svg" width="35" height="10" fill="#ccd4d9" fill-rule="evenodd" xmlns:v="https://vecta.io/nano"><path d="M3.634.297C3.939.296 4.848.214 5.232 1.512L6.47 5.809h.231l1.252-4.297C8.341.2 9.313.298 9.702.298H12.7v9.328H9.644V4.128h-.205L7.735 9.625H5.436L3.732 4.124h-.205v5.501H.471V.298h3.163zm13.455 0v5.501h.244l2.072-4.523c.402-.9 1.26-.978 1.26-.978h2.957v9.328h-3.12V4.124h-.244l-2.032 4.523c-.402.896-1.3.978-1.3.978h-2.958V.298h3.12zM34.406 4.73c-.435 1.233-1.802 2.117-3.315 2.117h-3.272v2.779h-2.967V4.73h9.554zM31.235.298h-6.538c.156 2.077 1.944 3.854 3.795 3.854h6.121c.353-1.726-.863-3.854-3.378-3.854z"/></svg>