<svg xmlns="http://www.w3.org/2000/svg" width="42" height="54" fill="none" xmlns:v="https://vecta.io/nano"><path d="M29.385 31.332l-2.567-10.234-5.888-13.152c-.749-1.935.213-4.111 2.148-4.859 1.933-.755 4.111.213 4.86 2.148l9.254 23.525-7.807 2.572z" fill="#ef9645"/><path d="M41.84 27.62c-.728-3.85-2.966-9.731-2.966-9.731L30.241 2.241A3.76 3.76 0 0 0 25.194.577a3.76 3.76 0 0 0-1.663 5.047l7.952 14.243c.019.033 2.108 8.192 2.108 8.192l-5.99-5.397c-4.622-4.135-7.364-5.685-7.364-5.685-1.059-.661-1.759-.755-3.181-.088l-8.76 3.831a1.63 1.63 0 0 0-.589.491l-3.451 4.604c-1.332 1.592-1.122 3.961.47 5.292s3.958 1.119 5.293-.469c.072-.087 2.656-3.819 2.888-3.938 1.547-.795 4.423-2.159 5.681-2.118 1.338.043 9.37 8.887 9.37 8.887.307.386.343.922.09 1.346L23.7 42.611a1.18 1.18 0 0 1-.492.452l-3.989 2.238c-.23.112-.489.148-.74.1l-7.862-3.389c-.391-.169-.716-.477-.883-.87-1.174-2.76-1.34-5.399-1.341-5.429a3.76 3.76 0 0 0-3.929-3.577C2.393 32.219.788 33.99.885 36.063c.019.392.524 8.414 7.052 13.862 3.771 3.145 8.435 4.362 14.395 3.561 6.88-.923 11.142-1.839 17.165-14.259 1.666-3.439 2.839-8.987 2.344-11.608z" fill="#ffdc5d"/></svg>