<svg xmlns="http://www.w3.org/2000/svg" width="41" height="41" fill="#21aa68" stroke="#fff" stroke-width="2" xmlns:v="https://vecta.io/nano"><path d="M15.154 24.634a7.6 7.6 0 0 0 7.598-7.598 7.6 7.6 0 0 0-7.598-7.598 7.6 7.6 0 0 0-7.598 7.598 7.6 7.6 0 0 0 7.598 7.598zm0-11.397a3.8 3.8 0 0 1 3.799 3.799 3.8 3.8 0 0 1-3.799 3.799 3.8 3.8 0 0 1-3.799-3.799 3.8 3.8 0 0 1 3.799-3.799zM1.857 34.131v3.799a1.9 1.9 0 1 0 3.8 0v-3.799a3.8 3.8 0 0 1 3.799-3.799h11.397a3.8 3.8 0 0 1 3.799 3.799v3.799a1.9 1.9 0 0 0 1.9 1.9 1.9 1.9 0 0 0 1.899-1.9v-3.799a7.6 7.6 0 0 0-7.598-7.598H9.455a7.6 7.6 0 0 0-7.598 7.598h0zM27.881 8.957a1.9 1.9 0 0 0-2.733 2.639l.047.047a7.63 7.63 0 0 1 0 10.786 1.9 1.9 0 0 0 2.639 2.733l.047-.047c4.462-4.461 4.463-11.694.002-16.156zm4.368 23.275a1.9 1.9 0 0 0 1.33-.534c8.098-7.724 8.401-20.55.678-28.648a21.67 21.67 0 0 0-.678-.678 1.9 1.9 0 0 0-2.641 2.732c6.589 6.265 6.852 16.686.587 23.275-.191.201-.386.396-.587.587a1.9 1.9 0 0 0 1.311 3.265h0z"/></svg>