<svg xmlns="http://www.w3.org/2000/svg" width="32" height="33" fill="none" xmlns:v="https://vecta.io/nano"><path d="M15.756 1.218a15.18 15.18 0 0 1 15.179 15.179 15.18 15.18 0 0 1-15.178 15.179A15.18 15.18 0 0 1 .578 16.396 15.18 15.18 0 0 1 15.756 1.218zm0 28.189a13.01 13.01 0 0 0 13.01-13.01 13.01 13.01 0 0 0-13.01-13.01 13.01 13.01 0 0 0-13.01 13.01 13.01 13.01 0 0 0 13.01 13.01zm-1.626-8.389l6.932-4.621-6.932-4.621v9.242zm.36-11.609l8.452 5.636a1.63 1.63 0 0 1 .532.586c.126.236.192.5.192.767s-.066.531-.192.767-.309.437-.532.586l-8.452 5.636c-.245.163-.53.257-.824.271s-.586-.052-.846-.191-.476-.346-.628-.598-.231-.541-.231-.836V10.759c0-.294.08-.583.231-.836s.368-.459.628-.598.552-.205.846-.191.579.108.824.271v.002z" fill="#394252" stroke="#fff"/></svg>