<svg xmlns="http://www.w3.org/2000/svg" width="35" height="35" fill="#21aa68" stroke="#fff" xmlns:v="https://vecta.io/nano"><path d="M6.043 1.145a4.68 4.68 0 0 0-4.66 4.66V18.62a4.68 4.68 0 0 0 4.66 4.66h23.299a4.68 4.68 0 0 0 4.66-4.66V5.805a4.68 4.68 0 0 0-4.66-4.66H6.043zm0 2.33h23.299a2.3 2.3 0 0 1 2.33 2.33V18.62a2.3 2.3 0 0 1-2.33 2.33H6.043a2.3 2.3 0 0 1-2.33-2.33V5.805a2.3 2.3 0 0 1 2.33-2.33zm6.332 5.12v7.386c0 1.59 1.893 2.61 3.22 1.734l6.491-4.291c1.33-.879 1.201-2.994-.227-3.702l-6.284-3.113c-1.334-.781-3.199.439-3.199 1.986h0zm2.33.182l5.82 2.885-5.82 3.848V8.777zM5.46 25.609a4.1 4.1 0 0 0-4.077 4.077 4.1 4.1 0 0 0 4.077 4.077 4.1 4.1 0 0 0 4.077-4.077 4.1 4.1 0 0 0-4.077-4.077zm0 2.33a1.73 1.73 0 0 1 1.747 1.747 1.73 1.73 0 0 1-1.747 1.748 1.73 1.73 0 0 1-1.747-1.748 1.73 1.73 0 0 1 1.747-1.747zm7.572-1.165a1.17 1.17 0 0 0-.824.341 1.16 1.16 0 0 0-.341.824 1.17 1.17 0 0 0 .341.824 1.16 1.16 0 0 0 .824.341h11.65a1.17 1.17 0 0 0 .824-.341 1.16 1.16 0 0 0 .341-.824 1.17 1.17 0 0 0-.341-.824 1.16 1.16 0 0 0-.824-.341h-11.65zm0 4.66a1.17 1.17 0 0 0-.824.341 1.16 1.16 0 0 0-.341.824 1.17 1.17 0 0 0 .341.824 1.16 1.16 0 0 0 .824.341h19.804a1.17 1.17 0 0 0 .824-.341 1.16 1.16 0 0 0 .341-.824 1.17 1.17 0 0 0-.341-.824 1.16 1.16 0 0 0-.824-.341H13.032z"/></svg>