<svg xmlns="http://www.w3.org/2000/svg" width="74" height="14" fill="none" xmlns:v="https://vecta.io/nano"><g clip-path="url(#A)"><g fill="#ccd4d9"><path d="M64.377 4.077a2.76 2.76 0 0 0-2.022.868c-.553.579-.837 1.301-.837 2.137 0 .386.079.755.221 1.125s.348.691.6.964a2.79 2.79 0 0 0 .916.659c.347.145.663.225 1.074.225.3 0 .584-.048.869-.145.269-.08.648-.305.79-.546v.578h1.232V4.206h-1.248v.579c-.174-.289-.505-.482-.774-.579a2.83 2.83 0 0 0-.821-.128zm-6.444.016a2.37 2.37 0 0 0-.822.129c-.269.097-.6.289-.774.578v-.578H55.09v7.874.016h1.232V9.38c.142.241.521.45.79.546a2.61 2.61 0 0 0 .869.144c.411 0 .727-.08 1.074-.225a2.77 2.77 0 0 0 .916-.659 2.99 2.99 0 0 0 .6-.964 3.04 3.04 0 0 0 .221-1.125 3 3 0 0 0-.837-2.137c-.6-.627-1.327-.868-2.022-.868zm10.045.129l2.401 5.383-1.042 2.491h1.295l3.27-7.874H72.59l-1.595 4.049-1.706-4.049h-1.311zm-3.554.964a1.57 1.57 0 0 1 1.169.482c.332.354.458.868.458 1.366 0 .546-.11 1.061-.442 1.414s-.727.482-1.201.482a1.57 1.57 0 0 1-1.153-.498c-.332-.354-.49-.82-.49-1.334 0-.546.158-1.044.49-1.398.284-.305.679-.498 1.169-.514zm-6.539.016c.474 0 .884.193 1.169.514.332.354.49.836.49 1.398 0 .514-.158.98-.49 1.334-.284.305-.679.498-1.153.498s-.869-.128-1.201-.482c-.316-.353-.442-.884-.442-1.414 0-.514.126-1.012.458-1.366.316-.337.711-.482 1.169-.482zm-36.767-.353c-.853 0-1.548.289-1.674 1.077a1.87 1.87 0 0 0 .016.659c.19 1.012 1.895 1.285 2.132 1.912.047.112.032.273.016.353-.047.161-.142.321-.474.321-.3 0-.474-.177-.474-.434v-.466h-1.28v.37c0 1.093.837 1.414 1.737 1.414.869 0 1.58-.305 1.69-1.109.063-.418.016-.691 0-.803-.205-1.012-2.022-1.318-2.148-1.896-.016-.096-.016-.193 0-.257.032-.161.142-.321.442-.321.284 0 .442.177.442.434v.305h1.185V6.07c0-1.061-.932-1.222-1.611-1.222h0zm29.977.032c-.853 0-1.564.289-1.674 1.205l-.016.321v2.041l.016.321c.079.884.837 1.205 1.674 1.205.853 0 1.611-.321 1.69-1.205l.016-.321V7.146h-1.69v.707h.489v.707c0 .048 0 .129-.016.177-.032.128-.142.353-.49.353s-.474-.209-.474-.37c-.016-.048-.016-.112-.016-.177V6.327a1 1 0 0 1 .016-.225.45.45 0 0 1 .474-.353c.363 0 .458.241.474.353a1.23 1.23 0 0 1 .016.193v.273h1.2v-.161l-.016-.321c-.079-.916-.821-1.205-1.674-1.205h0zm-14.42.032c-.837 0-1.532.273-1.658 1.061a1.48 1.48 0 0 0 .016.643c.174.98 1.848 1.253 2.085 1.88a.68.68 0 0 1 .016.353c-.032.161-.142.321-.458.321-.3 0-.474-.177-.474-.434v-.466h-1.263v.37c0 1.077.837 1.398 1.722 1.398.853 0 1.564-.289 1.674-1.093.063-.418.016-.691 0-.787-.205-1.012-1.99-1.302-2.116-1.864a.47.47 0 0 1 0-.257c.032-.161.142-.321.426-.321s.442.177.442.434v.305h1.185v-.337c0-1.045-.932-1.205-1.595-1.205h0zm-12.178.112l-.884 4.853h1.279l.663-4.419h.016l.648 4.419h1.279l-.884-4.853h-2.117zm4.059 0l-.11 4.853h1.2l.032-4.371h.032l.79 4.371h1.216l.79-4.371h.032l.032 4.371h1.2l-.111-4.853h-1.943l-.6 3.712H31.1l-.585-3.712h-1.959zm10.898 0v3.487l.016.321c.079.916.774 1.205 1.658 1.205s1.595-.305 1.674-1.205l.016-.321V5.025h-1.216v3.567c0 .064 0 .145-.016.193-.016.129-.126.354-.458.354s-.427-.225-.443-.321c-.016-.064-.016-.129-.016-.193v-3.6h-1.216zm4.691 0V9.83h1.169l-.063-3.953h.032l1.169 3.953h1.706V5.025h-1.185l.063 3.808h-.016l-1.106-3.808h-1.769zm-30.056.161c-.158-1.253-.6-2.394-1.374-3.23C11.893 1.169 10.772.719 9.54.558 8.355.398 7.55.446 7.55.446S6.744.414 5.56.558c-1.232.161-2.353.611-3.175 1.398-.774.836-1.216 1.977-1.374 3.23C.853 6.391.885 7.211.885 7.211s-.032.82.111 2.025c.158 1.253.6 2.394 1.374 3.23.821.787 1.943 1.237 3.175 1.398 1.185.161 1.99.113 1.99.113s.806.032 1.99-.113c1.232-.161 2.353-.61 3.175-1.398.774-.835 1.216-1.977 1.374-3.23.158-1.205.111-2.025.111-2.025s.063-.82-.095-2.025z"/></g><path d="M3.35 5.234v3.551h.648V7.773h.537c.19 0 .363-.032.506-.097a1.34 1.34 0 0 0 .395-.273c.111-.112.205-.241.268-.402a1.33 1.33 0 0 0 .095-.498 1.33 1.33 0 0 0-.095-.498c-.063-.161-.158-.289-.268-.402s-.237-.209-.395-.273a1.29 1.29 0 0 0-.506-.096H3.35zm.632.595h.506c.095 0 .189.016.268.048a.6.6 0 0 1 .205.144c.047.064.095.129.126.209s.048.161.048.257-.016.177-.048.257a.57.57 0 0 1-.126.209.6.6 0 0 1-.205.145c-.079.032-.174.048-.268.048h-.506V5.845v-.016zm3.317.096a1.43 1.43 0 0 0-.521.096c-.158.064-.316.144-.442.273s-.237.273-.316.45-.11.386-.11.611a1.5 1.5 0 0 0 .126.61 1.53 1.53 0 0 0 .316.45c.126.112.284.209.442.273.174.064.332.096.505.096.19 0 .348-.032.506-.096.158-.08.3-.177.395-.305v.402h.647v-2.86h-.647v.369c-.111-.112-.237-.209-.395-.273-.142-.064-.316-.096-.506-.096zm1.769.016l1.137 2.716-.584 1.43h.663l1.658-4.146h-.679l-.726 1.944-.79-1.944h-.679zm-1.658.595c.111 0 .221.016.332.08.111.048.189.096.268.177.079.064.126.161.174.257a.73.73 0 0 1 .063.321c0 .112-.016.225-.063.321a.92.92 0 0 1-.174.257c-.079.08-.174.129-.268.177s-.205.064-.332.064-.237-.032-.332-.064c-.095-.048-.189-.097-.268-.177a1.58 1.58 0 0 1-.174-.273.73.73 0 0 1-.063-.321.73.73 0 0 1 .063-.321c.032-.096.095-.177.174-.257s.158-.128.268-.177.221-.064.332-.064z" fill="#fff"/></g><defs><clipPath id="A"><path fill="#fff" transform="translate(.882 .439)" d="M0 0h73.019v13.544H0z"/></clipPath></defs></svg>