<svg xmlns="http://www.w3.org/2000/svg" width="39" height="11" fill="#ccd4d9" xmlns:v="https://vecta.io/nano"><path d="M30.865 3.328l1.4-1.032h-4.687v6.199h4.687V7.463h-3.35V5.876h2.857V4.844h-2.857V3.328h1.949zm-6.829 1.386h-1.628V3.33h2.599l1.4-1.032H21.07v6.199h2.793c1.566 0 2.465-.71 2.465-1.947 0-1.183-.814-1.835-2.293-1.835zm-.233 2.75h-1.395V5.746h1.395c.849 0 1.245.287 1.245.859 0 .584-.419.859-1.245.859zm12.256-5.168h-2.552v6.199h1.338V6.739h1.214c1.628 0 2.64-.856 2.64-2.225s-1.011-2.218-2.64-2.218zm-.029 3.411h-1.186V3.328h1.186c.857 0 1.329.422 1.329 1.189s-.472 1.189-1.329 1.189zM18.777 7.156c-.343.189-.742.289-1.154.289-1.206 0-2.081-.861-2.081-2.047s.875-2.047 2.081-2.047a2.04 2.04 0 0 1 1.217.381l.959-.707-.063-.056c-.56-.492-1.309-.752-2.164-.752-.928 0-1.771.313-2.372.882s-.938 1.376-.938 2.265.332 1.71.935 2.299 1.445.917 2.367.917c.964 0 1.806-.336 2.377-.948l-.866-.638-.297.162zm-8.696-4.902a5.13 5.13 0 0 1 .617 1.024L6.005 6.737 4.044 5.508V4.029l1.961 1.229 4.076-3.004zM2.038 5.397l.005-.198L.855 5.14l-.006.257a5.13 5.13 0 0 0 1.509 3.642l.843-.843c-.718-.717-1.162-1.708-1.162-2.8zm3.961-3.958l.198.005.059-1.189-.257-.006a5.13 5.13 0 0 0-3.642 1.509l.843.843A3.95 3.95 0 0 1 6 1.44zm.003 7.918a3.82 3.82 0 0 1-.198-.005l-.059 1.188.257.007a5.13 5.13 0 0 0 3.642-1.509l-.843-.843a3.95 3.95 0 0 1-2.8 1.162z"/><path d="M8.238 2.13l1.002-.738A5.13 5.13 0 0 0 6.004.249v1.19c.828 0 1.597.255 2.233.691zm2.917 3.27c0-.315-.028-.623-.082-.923l-1.109.817.001.106A3.95 3.95 0 0 1 8.66 8.336l.799.884c1.041-.942 1.696-2.304 1.696-3.82zM5.999 9.358a3.95 3.95 0 0 1-2.936-1.305l-.884.799a5.14 5.14 0 0 0 3.82 1.695v-1.19zM3.343 2.461l-.799-.884a5.14 5.14 0 0 0-1.695 3.82h1.19a3.95 3.95 0 0 1 1.305-2.936z"/></svg>