<svg xmlns="http://www.w3.org/2000/svg" width="38" height="38" fill="none" xmlns:v="https://vecta.io/nano"><g clip-path="url(#A)"><path d="M37.034 30.772l-6.679-6.482c-.433-.42-1.003-.645-1.609-.637a2.28 2.28 0 0 0-.591.087l-3.011-2.922a13.3 13.3 0 0 0 .827-1.435c.036-.073.064-.148.083-.224h.992c.638 0 1.156-.518 1.156-1.156s-.518-1.156-1.156-1.156h-3.828v-2.246h2.582c.638 0 1.156-.518 1.156-1.156s-.518-1.156-1.156-1.156h-2.582v-2.113h3.828c.639 0 1.156-.518 1.156-1.156s-.518-1.156-1.156-1.156h-.918a13.37 13.37 0 0 0-1.753-2.805c-4.631-5.7-13.035-6.568-18.733-1.936A13.23 13.23 0 0 0 .795 12.09c-.365 3.539.669 7.008 2.912 9.769s5.428 4.483 8.966 4.848c.466.048.931.072 1.393.072 2.589 0 5.094-.749 7.26-2.17l2.971 2.883a2.26 2.26 0 0 0-.188.94c.009.605.253 1.17.685 1.59l6.679 6.482c.439.426 1.007.638 1.575.638.591 0 1.181-.229 1.623-.686l2.411-2.485c.868-.895.847-2.33-.048-3.199h0zM26.33 25.191l-.526.543-2.645-2.567c.184-.173.364-.35.537-.532l2.634 2.556zm-13.419-.783a10.93 10.93 0 0 1-7.409-4.006c-1.854-2.282-2.709-5.149-2.407-8.073S4.819 6.772 7.1 4.918a11.02 11.02 0 0 1 15.481 1.6c.346.426.659.877.937 1.346h-1.455c-.639 0-1.156.518-1.156 1.156v8.984c0 .307.122.601.339.818s.511.339.817.339h1.396c-.652 1.079-1.482 2.032-2.477 2.841a10.93 10.93 0 0 1-8.071 2.407h0zM33.047 34.81l-6.606-6.412 2.341-2.413 6.606 6.412-2.341 2.413zM13.484 10.447v1.576c0 .147.124.271.271.271h3.255c1.424 0 2.583 1.159 2.583 2.584v1.576c0 1.425-1.159 2.584-2.583 2.584h-4.682c-.639 0-1.156-.518-1.156-1.156s.518-1.156 1.156-1.156h4.682c.147 0 .271-.124.271-.271v-1.576c0-.147-.124-.271-.271-.271h-3.255c-1.424 0-2.583-1.159-2.583-2.584v-1.576c0-1.425 1.159-2.584 2.583-2.584h4.682c.639 0 1.156.518 1.156 1.156s-.518 1.156-1.156 1.156h-4.682c-.147 0-.271.124-.271.271h0zM32.668 19.1a4.11 4.11 0 0 0 4.103-4.104v-3.103a4.11 4.11 0 0 0-4.103-4.104 4.11 4.11 0 0 0-4.103 4.104v3.103a4.11 4.11 0 0 0 4.103 4.104zm-1.791-7.206c0-.988.803-1.791 1.791-1.791s1.791.803 1.791 1.791v3.103c0 .988-.803 1.791-1.791 1.791s-1.791-.804-1.791-1.791v-3.103z" fill="#21aa68" stroke="#fff"/></g><defs><clipPath id="A"><path fill="#fff" transform="translate(.722 .142)" d="M0 0h37v37H0z"/></clipPath></defs></svg>