<svg xmlns="http://www.w3.org/2000/svg" width="39" height="39" fill="none" xmlns:v="https://vecta.io/nano"><path d="M37.542.843c-.218-.218-.514-.341-.823-.341s-.605.123-.823.341l-2.11 2.11-1.316-1.316a1.16 1.16 0 0 0-.883-.34l-12.315.632c-.288.015-.56.136-.764.339L.964 19.814c-.218.218-.341.514-.341.823s.123.605.341.823l15.961 15.961c.218.218.514.341.823.341s.823-.341.823-.341l17.545-17.544c.204-.204.325-.476.34-.764l.632-12.315c.008-.163-.018-.325-.076-.478s-.148-.29-.264-.405l-1.316-1.316 2.11-2.11c.218-.218.341-.515.341-.823s-.123-.605-.341-.823zm-2.806 6.353l-.583 11.351-16.405 16.405L3.434 20.637 19.838 4.232l11.351-.583.95.95-2.407 2.407c-.835-.441-1.801-.568-2.722-.358s-1.736.744-2.296 1.504-.83 1.696-.76 2.638.477 1.827 1.145 2.495 1.553 1.074 2.495 1.145 1.878-.199 2.638-.76 1.294-1.376 1.504-2.296.084-1.887-.357-2.722l2.407-2.407.95.95zm-5.702 2.156c.265.265.429.613.466.985s-.057.746-.265 1.057-.517.541-.875.649-.743.09-1.088-.053-.631-.402-.808-.732a1.62 1.62 0 0 1-.16-1.078c.073-.367.271-.697.56-.935s.652-.367 1.026-.367a1.62 1.62 0 0 1 1.143.474zM24.109 20.08c.109.108.196.236.255.378s.09.293.091.447-.029.306-.088.447a1.16 1.16 0 0 1-.632.633c-.142.059-.294.088-.447.088s-.305-.031-.447-.091-.27-.146-.378-.255l-5.805-5.804c-.109-.108-.196-.236-.255-.378s-.09-.293-.091-.447.029-.306.088-.448.145-.271.253-.379.238-.195.379-.253.294-.088.448-.088.305.031.447.091.27.146.378.255l5.805 5.804zm-4.446 4.446c.109.108.196.236.255.378s.09.293.091.447-.029.306-.088.448a1.16 1.16 0 0 1-.632.633c-.142.058-.294.088-.447.088s-.305-.031-.447-.091-.27-.146-.378-.255l-5.805-5.805c-.216-.219-.337-.514-.336-.822s.124-.602.341-.82.512-.34.82-.341.603.12.822.336l5.805 5.805z" fill="#21aa68" stroke="#fff"/></svg>