<svg xmlns="http://www.w3.org/2000/svg" width="27" height="10" fill="none" xmlns:v="https://vecta.io/nano"><path fill-rule="evenodd" d="M7.176 8.94H4.979L3.331 2.653c-.078-.289-.244-.545-.489-.665-.61-.303-1.281-.544-2.014-.665V1.08h3.54c.489 0 .855.364.916.786l.855 4.535L8.336 1.08h2.136L7.176 8.94zm4.518 0H9.619l1.709-7.859h2.075l-1.709 7.859zm4.394-5.682c.061-.423.427-.665.855-.665.672-.061 1.403.061 2.014.363l.366-1.692c-.611-.242-1.282-.364-1.892-.364-2.014 0-3.48 1.089-3.48 2.6 0 1.149 1.038 1.753 1.771 2.117.793.363 1.098.605 1.037.967 0 .544-.611.786-1.22.786-.733 0-1.466-.181-2.136-.484l-.367 1.693c.733.302 1.526.423 2.259.423 2.259.06 3.662-1.028 3.662-2.66 0-2.056-2.869-2.176-2.869-3.083zM26.22 8.939L24.572 1.08h-1.77a.92.92 0 0 0-.855.605l-3.052 7.255h2.136l.427-1.148h2.625l.244 1.148h1.892zm-3.112-5.743l.61 2.962h-1.709l1.099-2.962z" fill="#ccd4d9"/></svg>