<svg xmlns="http://www.w3.org/2000/svg" width="23" height="24" fill="none" xmlns:v="https://vecta.io/nano"><path d="M11.61.968C5.38.968.33 6.019.33 12.249s5.05 11.28 11.28 11.28 11.28-5.05 11.28-11.28S17.84.968 11.61.968zm4.338 12.726s.998.985 1.243 1.442c.007.009.01.019.013.024.1.168.123.299.074.396-.082.162-.364.242-.461.249h-1.762c-.122 0-.378-.032-.688-.246-.239-.167-.474-.441-.703-.707-.342-.397-.638-.74-.937-.74a.36.36 0 0 0-.112.018c-.226.073-.515.395-.515 1.253 0 .268-.212.422-.361.422h-.807c-.275 0-1.707-.096-2.976-1.435-1.553-1.639-2.952-4.927-2.963-4.957-.088-.213.094-.327.293-.327h1.78c.237 0 .315.145.369.273.063.149.296.743.678 1.41.619 1.088.999 1.53 1.303 1.53.057-.001.113-.015.163-.042.397-.221.323-1.637.305-1.931 0-.055-.001-.633-.204-.911-.146-.201-.394-.277-.544-.306.061-.084.141-.152.234-.199.273-.136.764-.156 1.251-.156h.271c.529.007.665.041.857.089.388.093.396.343.362 1.2-.011.243-.021.518-.021.843 0 .07-.004.146-.004.226-.012.436-.026.931.282 1.134.04.025.087.039.134.039.107 0 .429 0 1.301-1.496.269-.481.503-.982.699-1.497.018-.031.069-.125.13-.161.045-.023.095-.035.146-.034h2.093c.228 0 .384.034.414.122.052.14-.009.566-.965 1.86l-.426.563c-.866 1.135-.866 1.193.054 2.054z" fill="#C7CDD7"/></svg>