<svg width="96" height="20" viewBox="0 0 96 20" fill="none" xmlns="http://www.w3.org/2000/svg">
<path d="M22.1154 6.25704V7.40675C22.698 6.5472 23.6818 6.11743 25.072 6.11743C26.633 6.11743 27.6574 6.67038 28.1506 7.77903C28.7116 6.67038 29.801 6.11743 31.4189 6.11743C32.6574 6.11743 33.5598 6.44045 34.1316 7.08921C34.7034 7.73524 34.988 8.76724 34.988 10.1797V15.4438H33.2753V10.1797C33.2753 9.33388 33.091 8.71249 32.7305 8.32651C32.3701 7.9378 31.8037 7.74071 31.0341 7.74071C30.1506 7.74071 29.5164 7.98708 29.1289 8.47434C28.7441 8.96433 28.5517 9.7527 28.5517 10.8504V15.4438H26.8389V10.1797C26.8389 9.33388 26.6547 8.71249 26.2942 8.32651C25.9338 7.9378 25.3674 7.74071 24.595 7.74071C23.7116 7.74071 23.0774 7.98708 22.6899 8.47434C22.3051 8.96433 22.1126 9.7527 22.1126 10.8504V15.4438H20.3999V6.25704H22.1154Z" fill="#3F4651"/>
<path d="M37.5444 19.8596V6.25741H39.2572V7.54673C39.8967 6.59137 41.0295 6.11506 42.6474 6.11506C44.1081 6.11506 45.165 6.49009 45.8263 7.2374C46.4821 7.98471 46.81 9.18917 46.81 10.848C46.81 12.4987 46.4821 13.6977 45.8263 14.4532C45.165 15.206 44.1081 15.5837 42.6474 15.5837C41.0295 15.5837 39.8967 15.1047 39.2572 14.1521V19.8568H37.5444V19.8596ZM39.9835 13.2268C40.4442 13.7168 41.184 13.9577 42.1948 13.9577C43.2111 13.9577 43.9509 13.7141 44.4117 13.2268C44.8724 12.7368 45.1 11.9457 45.1 10.848C45.1 9.76676 44.8724 8.97565 44.4117 8.48018C43.9509 7.98471 43.2111 7.73834 42.1948 7.73834C41.184 7.73834 40.4442 7.98745 39.9835 8.48018C39.5228 8.97565 39.2897 9.76402 39.2897 10.848C39.2897 11.9457 39.5228 12.7396 39.9835 13.2268Z" fill="#3F4651"/>
<path d="M48.4218 12.6518H50.121C50.2754 13.1472 50.5654 13.5058 50.9936 13.7276C51.4272 13.952 52.0397 14.0643 52.8283 14.0643C54.3838 14.0643 55.1562 13.6865 55.1562 12.9337C55.1562 12.5915 54.9502 12.3233 54.5275 12.1207C54.1101 11.9209 53.4326 11.7484 52.5004 11.6088C51.0613 11.4199 50.0505 11.1106 49.4651 10.6808C48.8771 10.2511 48.5817 9.61872 48.5817 8.78107C48.5817 7.88321 48.8879 7.21528 49.5085 6.77456C50.1264 6.3311 51.0993 6.1121 52.4272 6.1121C53.7605 6.1121 54.7605 6.34478 55.438 6.81014C56.1156 7.2755 56.5329 8.02008 56.6982 9.0466H55.0044C54.85 8.55113 54.5708 8.19253 54.1643 7.96806C53.7578 7.74633 53.1643 7.6341 52.3974 7.6341C50.9638 7.6341 50.2456 7.9927 50.2456 8.7099C50.2456 9.04113 50.4516 9.30392 50.8581 9.49554C51.2646 9.68989 51.9096 9.85961 52.7985 9.99922C54.2998 10.2346 55.3486 10.5522 55.934 10.9518C56.5275 11.3515 56.8174 11.9647 56.8174 12.7886C56.8174 14.6501 55.4733 15.5808 52.7822 15.5808C51.438 15.5808 50.4191 15.3454 49.7199 14.8718C49.018 14.4092 48.5844 13.6646 48.4218 12.6518Z" fill="#3F4651"/>
<path d="M61.2436 6.25716H63.9889V7.88044H61.2436V12.1919C61.2436 12.7585 61.3819 13.1691 61.6501 13.4292C61.9239 13.6892 62.3683 13.8179 62.9726 13.8179H64.0946V15.4412H62.9428C61.7369 15.4412 60.8697 15.2003 60.3358 14.7185C59.7965 14.234 59.5309 13.4565 59.5309 12.3862V7.88044H58.0241V6.25716H59.5309V4.24243H61.2436V6.25716Z" fill="#3F4651"/>
<path d="M68.9732 15.5863C67.7618 15.5863 66.8729 15.3673 66.3119 14.9321C65.751 14.4969 65.4772 13.7961 65.4772 12.8298C65.4772 11.8279 65.7889 11.1134 66.4122 10.6836C67.0301 10.2539 68.0409 10.0376 69.4258 10.0376H72.5206C72.5206 9.20271 72.3147 8.59227 71.8919 8.21177C71.4745 7.82579 70.8025 7.63692 69.8811 7.63692C69.1466 7.63692 68.5802 7.75736 68.1846 7.99825C67.7889 8.24188 67.5179 8.62512 67.3797 9.15618H65.6805C65.8458 8.09954 66.2632 7.32759 66.9407 6.84307C67.6182 6.35854 68.6236 6.12039 69.9515 6.12039C71.442 6.12039 72.5315 6.42972 73.2144 7.04837C73.8973 7.66702 74.2361 8.65249 74.2361 10.0075V15.4495H72.5233V14.2669C71.835 15.1456 70.6507 15.5863 68.9732 15.5863ZM67.19 12.7586C67.19 13.2185 67.3634 13.5497 67.7239 13.755C68.0789 13.9631 68.629 14.0643 69.3743 14.0643C70.3634 14.0643 71.1087 13.8837 71.6073 13.5169C72.1006 13.15 72.4068 12.5697 72.5233 11.7677V11.3461H69.8675C68.0789 11.3461 67.19 11.8169 67.19 12.7586Z" fill="#3F4651"/>
<path d="M79.1944 6.25716H81.9397V7.88044H79.1944V12.1919C79.1944 12.7585 79.3326 13.1691 79.6009 13.4292C79.8746 13.6892 80.3191 13.8179 80.9234 13.8179H82.0454V15.4412H80.8936C79.6877 15.4412 78.8204 15.2003 78.2866 14.7185C77.7473 14.234 77.4817 13.4565 77.4817 12.3862V7.88044H75.9749V6.25716H77.4817V4.24243H79.1944V6.25716Z" fill="#3F4651"/>
<path d="M83.2804 12.6518H84.9796C85.134 13.1472 85.424 13.5058 85.8522 13.7276C86.2858 13.952 86.8983 14.0643 87.6869 14.0643C89.2424 14.0643 90.0148 13.6865 90.0148 12.9337C90.0148 12.5915 89.8088 12.3233 89.3861 12.1207C88.9687 11.9209 88.2912 11.7484 87.359 11.6088C85.9199 11.4199 84.9091 11.1106 84.3237 10.6808C83.7356 10.2511 83.4403 9.61872 83.4403 8.78107C83.4403 7.88321 83.7465 7.21528 84.3671 6.77456C84.985 6.3311 85.9579 6.1121 87.2858 6.1121C88.6191 6.1121 89.6191 6.34478 90.2966 6.81014C90.9741 7.2755 91.3915 8.02008 91.5568 9.0466H89.863C89.7086 8.55113 89.4294 8.19253 89.0229 7.96806C88.6164 7.74634 88.0229 7.6341 87.256 7.6341C85.8224 7.6341 85.1042 7.9927 85.1042 8.7099C85.1042 9.04113 85.3102 9.30392 85.7167 9.49554C86.1232 9.68989 86.7682 9.85961 87.6571 9.99922C89.1584 10.2346 90.2072 10.5522 90.7926 10.9518C91.3861 11.3515 91.676 11.9647 91.676 12.7886C91.676 14.6501 90.3319 15.5808 87.6408 15.5808C86.2966 15.5808 85.2777 15.3454 84.5785 14.8718C83.8793 14.4092 83.4457 13.6646 83.2804 12.6518Z" fill="#3F4651"/>
<path d="M12.8241 12.8001L1.0651 19.3035C0.584864 19.5697 0 19.2165 0 18.6624V5.66114C0 5.10698 0.584864 4.75655 1.0651 5.02005C1.29582 5.14772 1.44069 5.39493 1.44069 5.66114V13.156C1.44069 13.7102 2.02824 14.0633 2.50847 13.7944L9.34439 9.98039C9.55902 9.86087 9.82194 9.86087 10.0366 9.97768L12.8214 11.5152C13.3258 11.7977 13.3258 12.5258 12.8241 12.8001Z" fill="url(#paint0_linear_12_9906)"/>
<path d="M11.9196 5.52537C12.3918 5.80789 12.3918 6.49788 11.9196 6.7804L8.24406 8.98349L3.8871 11.5968C3.40687 11.8847 2.80054 11.5343 2.80054 10.9693V1.33651C2.80054 0.771478 3.40687 0.421049 3.8871 0.708999L11.9196 5.52537Z" fill="url(#paint1_linear_12_9906)"/>
<defs>
<linearGradient id="paint0_linear_12_9906" x1="-10.1323" y1="29.0893" x2="32.6331" y2="-5.32189" gradientUnits="userSpaceOnUse">
<stop stop-color="#D8EC1D"/>
<stop offset="0.2" stop-color="#A2E02B"/>
<stop offset="0.48" stop-color="#5DD03D"/>
<stop offset="0.72" stop-color="#2BC44B"/>
<stop offset="0.89" stop-color="#0CBD53"/>
<stop offset="0.99" stop-color="#00BA56"/>
</linearGradient>
<linearGradient id="paint1_linear_12_9906" x1="-10.1323" y1="29.0893" x2="32.6331" y2="-5.32189" gradientUnits="userSpaceOnUse">
<stop stop-color="#D8EC1D"/>
<stop offset="0.2" stop-color="#A2E02B"/>
<stop offset="0.48" stop-color="#5DD03D"/>
<stop offset="0.72" stop-color="#2BC44B"/>
<stop offset="0.89" stop-color="#0CBD53"/>
<stop offset="0.99" stop-color="#00BA56"/>
</linearGradient>
</defs>
</svg>
