<svg width="96" height="20" viewBox="0 0 96 20" fill="none" xmlns="http://www.w3.org/2000/svg">
<path d="M22.4272 5.20766H24.1951V6.42218C24.7966 5.51416 25.812 5.06018 27.2471 5.06018C28.8584 5.06018 29.9159 5.64432 30.425 6.81549C31.0041 5.64432 32.1287 5.06018 33.7988 5.06018C35.0772 5.06018 36.0088 5.40139 36.599 6.08677C37.1893 6.76925 37.483 7.8594 37.483 9.35155V14.9124H35.7151V9.35155C35.7151 8.45803 35.5249 7.80156 35.1528 7.39383C34.7807 6.98319 34.1961 6.77498 33.4016 6.77498C32.4896 6.77498 31.835 7.03523 31.435 7.54994C31.0378 8.06754 30.8392 8.90041 30.8392 10.06V14.9124H29.0712V9.35148C29.0712 8.45796 28.881 7.80149 28.5089 7.39376C28.1369 6.98312 27.5522 6.77491 26.7549 6.77491C25.843 6.77491 25.1883 7.03516 24.7884 7.54987C24.3911 8.06747 24.1925 8.90034 24.1925 10.0599V14.9123H22.4246V5.20753H22.4274L22.4272 5.20766Z" fill="white"/>
<path d="M40.1238 19.5769V5.20763H41.8917V6.56963C42.552 5.56043 43.7212 5.05725 45.3913 5.05725C46.8992 5.05725 47.9901 5.45339 48.6727 6.24285C49.3497 7.0323 49.6882 8.30464 49.6882 10.0571C49.6882 11.8008 49.3497 13.0675 48.6727 13.8656C47.9901 14.6609 46.8992 15.0599 45.3913 15.0599C43.7212 15.0599 42.5519 14.5538 41.8917 13.5475V19.574H40.1238V19.5769ZM42.6415 12.5701C43.117 13.0877 43.8807 13.3423 44.9242 13.3423C45.9732 13.3423 46.7369 13.0849 47.2125 12.5701C47.688 12.0525 47.923 11.2168 47.923 10.0572C47.923 8.91494 47.688 8.07924 47.2125 7.55584C46.7369 7.03244 45.9732 6.77218 44.9242 6.77218C43.8807 6.77218 43.117 7.03534 42.6415 7.55584C42.1659 8.07924 41.9253 8.91211 41.9253 10.0572C41.9253 11.2168 42.1659 12.0554 42.6415 12.5701Z" fill="white"/>
<path d="M51.3501 11.9628H53.1041C53.2635 12.4862 53.5629 12.865 54.0049 13.0992C54.4524 13.3364 55.0847 13.4549 55.8987 13.4549C57.5044 13.4549 58.3017 13.0559 58.3017 12.2606C58.3017 11.8991 58.0892 11.6158 57.6527 11.4018C57.2219 11.1906 56.5226 11.0085 55.5602 10.861C54.0748 10.6614 53.0313 10.3347 52.4271 9.88069C51.82 9.42672 51.5151 8.75866 51.5151 7.87383C51.5151 6.9253 51.8313 6.21976 52.4719 5.75412C53.1096 5.28566 54.114 5.05432 55.4847 5.05432C56.861 5.05432 57.8933 5.30015 58.5926 5.79174C59.292 6.28333 59.7228 7.06988 59.8934 8.1543H58.145C57.9856 7.6309 57.6975 7.25208 57.2779 7.01495C56.8582 6.78071 56.2456 6.66214 55.4539 6.66214C53.974 6.66214 53.2327 7.04096 53.2327 7.7986C53.2327 8.1485 53.4453 8.42615 53.865 8.62857C54.2846 8.83388 54.9504 9.01318 55.868 9.16067C57.4177 9.40932 58.5004 9.7448 59.1046 10.167C59.7172 10.5893 60.0166 11.237 60.0166 12.1074C60.0166 14.0739 58.6291 15.057 55.8512 15.057C54.4637 15.057 53.4118 14.8084 52.6901 14.3081C51.9656 13.8194 51.5179 13.0328 51.3501 11.9628V11.9628Z" fill="white"/>
<path d="M64.5876 5.20762H67.4214V6.92242H64.5876V11.4769C64.5876 12.0756 64.7302 12.5093 65.0072 12.784C65.2897 13.0587 65.7485 13.1946 66.3723 13.1946H67.5305V14.9094H66.3416C65.0967 14.9094 64.2015 14.655 63.6504 14.146C63.0937 13.6342 62.8195 12.8129 62.8195 11.6822V6.92235H61.2642V5.20755H62.8195V3.07922H64.5875V5.20755L64.5876 5.20762Z" fill="white"/>
<path d="M72.5658 15.0628C71.3153 15.0628 70.3978 14.8314 69.8187 14.3717C69.2396 13.9119 68.957 13.1716 68.957 12.1508C68.957 11.0924 69.2788 10.3377 69.9222 9.88368C70.5599 9.42971 71.6035 9.2012 73.0329 9.2012H76.2276C76.2276 8.3192 76.015 7.67433 75.5786 7.27239C75.1478 6.86466 74.454 6.66514 73.5029 6.66514C72.7448 6.66514 72.1601 6.7924 71.7517 7.04685C71.3432 7.30421 71.0635 7.70905 70.9208 8.27006H69.1668C69.3374 7.15383 69.7683 6.33835 70.4676 5.82655C71.167 5.31474 72.2049 5.06311 73.5756 5.06311C75.1142 5.06311 76.2387 5.38989 76.9437 6.04339C77.6486 6.69695 77.9984 7.73796 77.9984 9.16939V14.9182H76.2304V13.669C75.5198 14.5972 74.2973 15.0628 72.5658 15.0628ZM70.7251 12.0756C70.7251 12.5614 70.9041 12.9113 71.2762 13.1282C71.6426 13.3479 72.2105 13.455 72.9798 13.455C74.0009 13.455 74.7702 13.2641 75.285 12.8766C75.7941 12.4891 76.1102 11.8761 76.2305 11.0288V10.5834H73.489C71.6427 10.5834 70.7252 11.0808 70.7252 12.0756H70.7251Z" fill="white"/>
<path d="M83.1151 5.20762H85.949V6.92242H83.1151V11.4769C83.1151 12.0756 83.2578 12.5093 83.5347 12.784C83.8173 13.0587 84.2761 13.1946 84.8999 13.1946H86.0581V14.9094H84.8691C83.6243 14.9094 82.7291 14.655 82.178 14.146C81.6213 13.6342 81.3471 12.8129 81.3471 11.6822V6.92235H79.7917V5.20755H81.3471V3.07922H83.1151V5.20755L83.1151 5.20762Z" fill="white"/>
<path d="M87.3335 11.9628H89.0875C89.2469 12.4862 89.5463 12.865 89.9883 13.0992C90.4358 13.3364 91.0681 13.4549 91.8821 13.4549C93.4879 13.4549 94.2851 13.0559 94.2851 12.2606C94.2851 11.8991 94.0726 11.6158 93.6361 11.4018C93.2053 11.1906 92.506 11.0085 91.5436 10.861C90.0582 10.6614 89.0147 10.3347 88.4105 9.88069C87.8034 9.42672 87.4985 8.75866 87.4985 7.87383C87.4985 6.9253 87.8147 6.21976 88.4553 5.75412C89.093 5.28566 90.0974 5.05432 91.4681 5.05432C92.8444 5.05432 93.8767 5.30015 94.576 5.79174C95.2754 6.28333 95.7062 7.06988 95.8768 8.1543H94.1284C93.969 7.6309 93.6809 7.25208 93.2613 7.01495C92.8417 6.78071 92.229 6.66214 91.4373 6.66214C89.9574 6.66214 89.2161 7.04096 89.2161 7.7986C89.2161 8.1485 89.4287 8.42615 89.8484 8.62857C90.268 8.83388 90.9338 9.01318 91.8514 9.16067C93.4011 9.40932 94.4838 9.7448 95.088 10.167C95.7006 10.5893 96 11.237 96 12.1074C96 14.0739 94.6125 15.057 91.8346 15.057C90.4471 15.057 89.3952 14.8084 88.6735 14.3081C87.9518 13.8194 87.5041 13.0328 87.3335 11.9628V11.9628Z" fill="white"/>
<path d="M13.3718 12.9807L1.1106 19.9035C0.60988 20.1869 0 19.811 0 19.2211V5.38102C0 4.79108 0.609814 4.41806 1.1106 4.69853C1.35115 4.83442 1.50224 5.09757 1.50224 5.38102V13.3594C1.50224 13.9493 2.11485 14.3253 2.61564 14.039L9.74353 9.97895C9.96732 9.85169 10.2415 9.85169 10.4652 9.97605L13.369 11.6128C13.8949 11.9136 13.8949 12.6885 13.3718 12.9806L13.3718 12.9807Z" fill="white"/>
<path d="M12.4292 5.23664C12.9216 5.5374 12.9216 6.27192 12.4292 6.57261L8.6582 8.88024L8.59665 8.91785L4.05362 11.6997C3.5529 12.0063 2.92065 11.6332 2.92065 11.0318V0.77756C2.92065 0.176101 3.5529 -0.19699 4.05362 0.109571L12.4292 5.2367V5.23664Z" fill="white"/>
</svg>
