<svg width="263" height="53" viewBox="0 0 263 53" fill="none" xmlns="http://www.w3.org/2000/svg">
<path d="M61.4354 13.7966H66.2782V17.0149C67.9257 14.6088 70.7073 13.4058 74.6382 13.4058C79.0519 13.4058 81.9484 14.9536 83.343 18.057C84.9292 14.9536 88.0096 13.4058 92.5842 13.4058C96.0861 13.4058 98.6377 14.31 100.255 16.126C101.871 17.9344 102.676 20.8232 102.676 24.7772V39.5125H97.8332V24.7772C97.8332 22.4094 97.3121 20.67 96.293 19.5895C95.2738 18.5014 93.6723 17.9497 91.4961 17.9497C88.9981 17.9497 87.205 18.6394 86.1093 20.0033C85.0212 21.375 84.4771 23.5818 84.4771 26.6545V39.5125H79.6343V24.7772C79.6343 22.4094 79.1132 20.67 78.0941 19.5895C77.0749 18.5014 75.4734 17.9497 73.2896 17.9497C70.7915 17.9497 68.9985 18.6394 67.9027 20.0033C66.8146 21.375 66.2706 23.5818 66.2706 26.6545V39.5125H61.4277V13.7966H61.4354Z" fill="#3F4651"/>
<path d="M109.902 51.8679V13.792H114.745V17.4011C116.554 14.7269 119.757 13.3936 124.331 13.3936C128.461 13.3936 131.45 14.4433 133.32 16.5352C135.174 18.6272 136.101 21.9987 136.101 26.6423C136.101 31.2629 135.174 34.6192 133.32 36.7341C131.45 38.8413 128.461 39.8988 124.331 39.8988C119.757 39.8988 116.554 38.5578 114.745 35.8912V51.8602H109.902V51.8679ZM116.799 33.3012C118.101 34.6728 120.193 35.3471 123.052 35.3471C125.925 35.3471 128.017 34.6652 129.32 33.3012C130.622 31.9296 131.266 29.7151 131.266 26.6423C131.266 23.6156 130.622 21.4011 129.32 20.0141C128.017 18.6272 125.925 17.9375 123.052 17.9375C120.193 17.9375 118.101 18.6348 116.799 20.0141C115.496 21.4011 114.837 23.6079 114.837 26.6423C114.837 29.7151 115.496 31.9373 116.799 33.3012Z" fill="#3F4651"/>
<path d="M140.658 31.6997H145.463C145.899 33.0867 146.719 34.0905 147.93 34.7111C149.156 35.3395 150.888 35.6537 153.118 35.6537C157.516 35.6537 159.7 34.5962 159.7 32.489C159.7 31.5311 159.118 30.7802 157.922 30.2132C156.742 29.6538 154.827 29.171 152.191 28.7802C148.122 28.2515 145.263 27.3856 143.608 26.1826C141.946 24.9795 141.11 23.2095 141.11 20.8647C141.11 18.3513 141.976 16.4816 143.731 15.2479C145.478 14.0066 148.229 13.3936 151.984 13.3936C155.754 13.3936 158.581 14.0449 160.497 15.3475C162.413 16.6502 163.593 18.7344 164.06 21.608H159.271C158.834 20.221 158.045 19.2172 156.895 18.5889C155.746 17.9682 154.068 17.654 151.899 17.654C147.846 17.654 145.815 18.6578 145.815 20.6654C145.815 21.5926 146.398 22.3282 147.547 22.8646C148.696 23.4087 150.52 23.8838 153.033 24.2746C157.279 24.9336 160.244 25.8224 161.899 26.9412C163.577 28.0599 164.397 29.7764 164.397 32.0828C164.397 37.2935 160.597 39.8988 152.987 39.8988C149.187 39.8988 146.306 39.2398 144.329 37.9142C142.344 36.6192 141.118 34.5349 140.658 31.6997Z" fill="#3F4651"/>
<path d="M176.906 13.8023H184.668V18.3463H176.906V30.415C176.906 32.0012 177.297 33.1506 178.055 33.8786C178.829 34.6065 180.086 34.9667 181.795 34.9667H184.967V39.5107H181.711C178.301 39.5107 175.849 38.8363 174.339 37.4877C172.814 36.1314 172.063 33.9552 172.063 30.9591V18.3463H167.803V13.8023H172.063V8.1626H176.906V13.8023Z" fill="#3F4651"/>
<path d="M198.768 39.9151C195.342 39.9151 192.829 39.3021 191.243 38.0837C189.657 36.8653 188.883 34.9037 188.883 32.1987C188.883 29.3942 189.764 27.3942 191.526 26.1912C193.274 24.9881 196.132 24.3828 200.047 24.3828H208.798C208.798 22.0457 208.216 20.3369 207.02 19.2718C205.84 18.1913 203.94 17.6626 201.335 17.6626C199.258 17.6626 197.657 17.9998 196.538 18.6741C195.419 19.3561 194.653 20.4288 194.262 21.9154H189.458C189.925 18.9576 191.105 16.7967 193.021 15.4404C194.936 14.0841 197.779 13.4175 201.534 13.4175C205.748 13.4175 208.829 14.2834 210.76 16.0151C212.691 17.7469 213.649 20.5055 213.649 24.2985V39.5319H208.806V36.2216C206.859 38.6814 203.511 39.9151 198.768 39.9151ZM193.726 31.9995C193.726 33.2868 194.216 34.214 195.235 34.7887C196.239 35.3711 197.795 35.6546 199.902 35.6546C202.699 35.6546 204.806 35.1489 206.216 34.1221C207.61 33.0953 208.476 31.4708 208.806 29.2256V28.0456H201.296C196.239 28.0456 193.726 29.3635 193.726 31.9995Z" fill="#3F4651"/>
<path d="M227.67 13.8023H235.432V18.3463H227.67V30.415C227.67 32.0012 228.06 33.1506 228.819 33.8786C229.593 34.6065 230.85 34.9667 232.558 34.9667H235.731V39.5107H232.474C229.064 39.5107 226.612 38.8363 225.103 37.4877C223.578 36.1314 222.827 33.9552 222.827 30.9591V18.3463H218.566V13.8023H222.827V8.1626H227.67V13.8023Z" fill="#3F4651"/>
<path d="M239.217 31.6997H244.021C244.458 33.0867 245.278 34.0905 246.489 34.7111C247.715 35.3395 249.446 35.6537 251.676 35.6537C256.075 35.6537 258.259 34.5962 258.259 32.489C258.259 31.5311 257.676 30.7802 256.481 30.2132C255.301 29.6538 253.385 29.171 250.749 28.7802C246.68 28.2515 243.822 27.3856 242.167 26.1826C240.504 24.9795 239.669 23.2095 239.669 20.8647C239.669 18.3513 240.535 16.4816 242.29 15.2479C244.037 14.0066 246.788 13.3936 250.542 13.3936C254.312 13.3936 257.14 14.0449 259.055 15.3475C260.971 16.6502 262.151 18.7344 262.619 21.608H257.829C257.393 20.221 256.603 19.2172 255.454 18.5889C254.305 17.9682 252.626 17.654 250.458 17.654C246.404 17.654 244.374 18.6578 244.374 20.6654C244.374 21.5926 244.956 22.3282 246.106 22.8646C247.255 23.4087 249.079 23.8838 251.592 24.2746C255.837 24.9336 258.803 25.8224 260.458 26.9412C262.136 28.0599 262.956 29.7764 262.956 32.0828C262.956 37.2935 259.155 39.8988 251.546 39.8988C247.745 39.8988 244.864 39.2398 242.887 37.9142C240.91 36.6192 239.684 34.5349 239.217 31.6997Z" fill="#3F4651"/>
<path d="M36.6276 34.4002L3.04209 52.7447C1.67047 53.4956 0 52.4995 0 50.9363V14.2627C0 12.6995 1.67047 11.711 3.04209 12.4543C3.70108 12.8144 4.11486 13.5117 4.11486 14.2627V35.404C4.11486 36.9672 5.79299 37.9634 7.16461 37.2048L26.6891 26.4464C27.3021 26.1092 28.0531 26.1092 28.6661 26.4387L36.62 30.7758C38.0606 31.5727 38.0606 33.6263 36.6276 34.4002Z" fill="url(#paint0_linear_530_10865)"/>
<path d="M34.0416 13.8763C35.3902 14.6732 35.3902 16.6195 34.0416 17.4164L23.7123 23.5312L23.5437 23.6309L11.0995 31.0024C9.72786 31.8146 7.99609 30.8261 7.99609 29.2323V2.06039C7.99609 0.466554 9.72786 -0.521931 11.0995 0.290314L34.0416 13.8763Z" fill="url(#paint1_linear_530_10865)"/>
<defs>
<linearGradient id="paint0_linear_530_10865" x1="-28.9454" y1="74.0389" x2="65.9405" y2="-26.4284" gradientUnits="userSpaceOnUse">
<stop stop-color="#D8EC1D"/>
<stop offset="0.2005" stop-color="#A2E02B"/>
<stop offset="0.481" stop-color="#5DD03D"/>
<stop offset="0.7158" stop-color="#2BC44B"/>
<stop offset="0.8927" stop-color="#0CBD53"/>
<stop offset="0.9913" stop-color="#00BA56"/>
</linearGradient>
<linearGradient id="paint1_linear_530_10865" x1="-34.811" y1="68.4995" x2="60.0748" y2="-31.9679" gradientUnits="userSpaceOnUse">
<stop stop-color="#D8EC1D"/>
<stop offset="0.2005" stop-color="#A2E02B"/>
<stop offset="0.481" stop-color="#5DD03D"/>
<stop offset="0.7158" stop-color="#2BC44B"/>
<stop offset="0.8927" stop-color="#0CBD53"/>
<stop offset="0.9913" stop-color="#00BA56"/>
</linearGradient>
</defs>
</svg>
