<svg xmlns="http://www.w3.org/2000/svg" width="14" height="14" fill="none" xmlns:v="https://vecta.io/nano"><path fill-rule="evenodd" d="M7.057.891A6.42 6.42 0 0 0 .641 7.307a6.42 6.42 0 0 0 6.417 6.417 6.42 6.42 0 0 0 6.417-6.417A6.42 6.42 0 0 0 7.057.891zm2.781 5.332c.051-.059.09-.127.115-.201s.034-.152.028-.229-.028-.153-.063-.222-.085-.13-.145-.18-.129-.087-.203-.11-.153-.03-.23-.022-.152.031-.221.069-.128.088-.177.149L6.434 8.485 5.136 7.187c-.11-.106-.257-.165-.41-.164s-.299.063-.407.171-.17.254-.171.407.057.3.164.41l1.75 1.75c.057.057.126.102.201.131s.156.043.237.039.16-.024.233-.06.137-.087.189-.149l2.917-3.5z" fill="#36c086"/></svg>