<svg xmlns="http://www.w3.org/2000/svg" width="17" height="17" fill="none" xmlns:v="https://vecta.io/nano"><path d="M14.608 2.845C13.073 1.244 10.95.34 8.732.344A8.12 8.12 0 0 0 .605 8.45c-.003 2.216.901 4.338 2.501 5.871.058.061.109.099.157.143l.399.348.226.169.396.283.282.174.38.22.333.161.367.168s.25.093.377.138.236.087.357.124l.417.107.348.084.485.074.3.043.804.041s.539-.014.804-.041l.3-.043.485-.074.348-.084.417-.107.357-.124s.253-.087.377-.138.245-.111.367-.168l.333-.161.38-.22.282-.174.396-.283.226-.169a7.47 7.47 0 0 0 .399-.348l.146-.127c3.248-3.117 3.358-8.254.257-11.491zm-1.305 10.868c-.106.093-.215.181-.325.266l-.197.147a6.46 6.46 0 0 1-.32.217 7.12 7.12 0 0 1-.241.147l-.311.174c-.093.047-.187.092-.283.136a6.35 6.35 0 0 1-.303.132c-.103.041-.212.08-.319.116-.098.034-.196.068-.296.098-.116.035-.237.063-.357.092-.094.022-.187.047-.282.066-.138.027-.278.045-.419.064-.08.01-.16.025-.24.033a7.08 7.08 0 0 1-.677.034c-.228 0-.454-.013-.677-.034-.081-.008-.16-.023-.24-.033-.141-.019-.282-.038-.419-.064-.095-.019-.188-.044-.282-.066-.12-.029-.24-.058-.358-.092-.099-.03-.197-.064-.295-.098l-.319-.116c-.104-.041-.203-.086-.303-.132s-.19-.089-.283-.136a5.33 5.33 0 0 1-.311-.174 7.21 7.21 0 0 1-.241-.147 6.52 6.52 0 0 1-.32-.217c-.067-.048-.132-.097-.197-.147-.11-.085-.219-.174-.325-.266-.026-.019-.049-.043-.074-.066.026-1.974 1.294-3.718 3.165-4.35a3.44 3.44 0 0 0 2.957 0c1.871.632 3.139 2.376 3.165 4.35l-.073.066zM6.708 4.998a2.32 2.32 0 1 1 4.047 2.276 2.32 2.32 0 0 1-.886.886 2.6 2.6 0 0 1-.495.209c-.03.009-.058.02-.09.028-.058.015-.119.026-.179.036a2.35 2.35 0 0 1-.341.034h-.066a2.35 2.35 0 0 1-.341-.034c-.058-.01-.12-.021-.179-.036-.031-.008-.058-.019-.09-.028-.169-.051-.331-.12-.485-.205l-.01-.003a2.32 2.32 0 0 1-.886-3.162zm7.697 7.499c-.373-1.737-1.517-3.21-3.108-4.001 1.301-1.417 1.207-3.62-.21-4.921s-3.62-1.207-4.921.21c-1.223 1.332-1.223 3.378 0 4.71-1.591.791-2.735 2.264-3.108 4.001C.833 9.361 1.57 5.015 4.705 2.79s7.481-1.489 9.707 1.647a6.96 6.96 0 0 1 1.285 4.034 6.92 6.92 0 0 1-1.292 4.026z" fill="#fff"/></svg>