<svg xmlns="http://www.w3.org/2000/svg" width="21" height="19" fill="none" xmlns:v="https://vecta.io/nano"><path d="M13.231 1.832l6.701 11.161c.963 1.603.49 3.712-1.057 4.71-.519.336-1.125.515-1.743.516H3.729c-1.821 0-3.298-1.53-3.298-3.419a3.52 3.52 0 0 1 .498-1.807L7.631 1.832C8.593.229 10.627-.262 12.174.736c.428.276.79.651 1.057 1.096zm-2.8 12.387a1 1 0 0 0 1-1 1 1 0 0 0-1-1 1 1 0 0 0-1 1 1 1 0 0 0 1 1zm0-9a1 1 0 0 0-1 1v4a1 1 0 0 0 1 1 1 1 0 0 0 1-1v-4a1 1 0 0 0-1-1z" fill="#fd0240"/></svg>