<svg xmlns="http://www.w3.org/2000/svg" width="17" height="13" fill="none" xmlns:v="https://vecta.io/nano"><path d="M3.421.906h10.161c.625 0 1.226.239 1.68.668s.727 1.016.762 1.64l.004.138v7.15c0 .625-.239 1.226-.668 1.68s-1.016.727-1.64.762l-.139.004H3.421c-.625 0-1.226-.239-1.68-.668s-.727-1.016-.762-1.639l-.004-.138v-7.15c0-.625.239-1.226.668-1.68S2.658.945 3.282.91l.138-.004h10.161H3.421zM14.899 4.95L8.765 8.179c-.069.037-.145.058-.224.064s-.157-.005-.23-.032l-.072-.032-6.135-3.229v5.552c0 .33.124.649.348.892s.531.393.861.42l.108.005h10.161c.331 0 .649-.124.892-.349a1.32 1.32 0 0 0 .42-.861l.004-.108V4.95zm-1.317-2.915H3.421c-.331 0-.649.124-.892.348s-.393.531-.42.861l-.005.108v.323l6.398 3.367 6.398-3.367v-.322a1.32 1.32 0 0 0-.348-.892c-.224-.243-.531-.393-.861-.42l-.108-.005z" fill="#fff"/></svg>