<svg width="15" height="20" viewBox="0 0 15 20" fill="none" xmlns="http://www.w3.org/2000/svg">
<path d="M7.59063 0.234375C3.61863 0.234375 0.390625 3.59688 0.390625 7.73438C0.390625 10.2594 1.79463 12.3719 3.42663 13.8469C3.94263 14.3094 4.84263 15.0469 5.64663 16.1344C6.53463 17.3469 7.33863 18.6469 7.59063 19.5219C7.84263 18.6469 8.64663 17.3469 9.53463 16.1344C10.3386 15.0469 11.2386 14.3094 11.7546 13.8469C13.3866 12.3719 14.7906 10.2594 14.7906 7.73438C14.7906 3.59688 11.5626 0.234375 7.59063 0.234375ZM7.59063 3.43437C8.13272 3.43437 8.66951 3.5456 9.17034 3.76169C9.67118 3.97779 10.1262 4.29452 10.5096 4.69382C10.8929 5.09311 11.1969 5.56714 11.4044 6.08884C11.6119 6.61054 11.7186 7.16969 11.7186 7.73438C11.7186 8.29906 11.6119 8.85821 11.4044 9.37991C11.1969 9.90161 10.8929 10.3756 10.5096 10.7749C10.1262 11.1742 9.67118 11.491 9.17034 11.7071C8.66951 11.9232 8.13272 12.0344 7.59063 12.0344C6.49581 12.0344 5.44584 11.5813 4.67169 10.7749C3.89754 9.96853 3.46263 8.87481 3.46263 7.73438C3.46263 6.59394 3.89754 5.50022 4.67169 4.69382C5.44584 3.88741 6.49581 3.43438 7.59063 3.43437Z" fill="#93E93F"/>
</svg>
