<svg width="68" height="16" viewBox="0 0 68 16" fill="none" xmlns="http://www.w3.org/2000/svg">
<path d="M12.9669 1C8.9909 1 5.82822 4.14558 5.82822 8C5.82822 11.8987 9.0361 15 12.9669 15C16.8976 15 20.1055 11.8544 20.1055 8C20.1507 4.14558 16.8976 1 12.9669 1ZM12.9669 10.6139C11.5211 10.6139 10.3012 9.41772 10.3012 8C10.3012 6.58228 11.5211 5.38609 12.9669 5.38609C14.4127 5.38609 15.6326 6.58228 15.6326 8C15.6326 9.41772 14.4578 10.6139 12.9669 10.6139Z" fill="#8B9097"/>
<path d="M5.82839 3.03895V13.2288H3.25305L0 3.03895H5.82839Z" fill="#8B9097"/>
<path d="M66.0571 4.85328L64.4758 8.66341C64.4307 8.7077 64.4307 8.7963 64.4307 8.84062L64.3853 8.92921L64.3402 8.84062C64.3402 8.7963 64.295 8.7077 64.295 8.66341L62.7137 4.85328H60.6806L63.3462 11.3659L62.2168 13.8469H64.2499L68 4.85328H66.0571Z" fill="#8B9097"/>
<path d="M51.0568 5.20577C50.6953 4.93994 50.2436 4.76273 49.7014 4.71843C48.7979 4.62981 47.9395 4.93994 47.3522 5.5159V4.80705H45.4996V11.3197H47.3522V7.9083C47.3522 7.15513 47.4875 6.93362 47.6232 6.75641C47.849 6.40199 48.2556 6.22478 48.7528 6.22478C49.2496 6.22478 49.7014 6.44628 49.9275 6.80071C50.0629 7.06654 50.108 7.42096 50.108 7.59818C50.108 8.17414 50.108 11.3197 50.108 11.3197H51.9606V7.37667C51.9606 6.35766 51.6442 5.64882 51.0568 5.20577Z" fill="#8B9097"/>
<path d="M41.9751 4.89867C41.0717 4.58854 40.0777 4.63286 39.1739 5.03158C38.5866 5.29741 38.0446 5.74043 37.7282 6.31639C37.4118 6.80373 37.2765 7.42399 37.2765 8.08854C37.2765 8.75309 37.4118 9.37335 37.7282 9.86069C38.0446 10.348 38.4512 10.7911 38.9932 11.0569C39.5354 11.3227 40.1679 11.4999 40.7553 11.4999C41.0717 11.4999 41.3878 11.4556 41.7042 11.367C41.9751 11.2784 42.2464 11.1898 42.5174 11.0569C43.0596 10.7468 43.5114 10.348 43.7826 9.86069C44.0987 9.37335 44.2344 8.75309 44.2344 8.08854C44.2795 6.62652 43.4211 5.38601 41.9751 4.89867ZM42.5174 8.17716C42.4723 8.75309 42.2915 9.24043 41.93 9.55056C41.659 9.77209 41.2524 9.90501 40.7553 9.94931C40.2584 9.94931 39.8969 9.81639 39.5805 9.55056C39.2193 9.24043 39.0386 8.75309 38.9932 8.17716C38.9481 7.51261 39.2193 6.98094 39.7162 6.62652C39.9872 6.44931 40.3487 6.31639 40.7102 6.31639C41.1168 6.31639 41.4332 6.44931 41.7493 6.62652C42.2915 6.93665 42.5625 7.51261 42.5174 8.17716Z" fill="#8B9097"/>
<path d="M35.1494 5.20746C34.7879 4.94165 34.3361 4.76444 33.7939 4.72012C33.7037 4.72012 33.568 4.72012 33.4778 4.72012C32.7548 4.72012 32.1223 5.03025 31.5801 5.6505L31.4898 5.78342H31.3091C31.1734 5.56191 30.9927 5.3847 30.8119 5.25178C30.4504 4.98595 29.9987 4.80874 29.4565 4.76444C28.5981 4.67582 27.9204 4.94165 27.333 5.56191V4.89736H25.4806V11.41H27.333V7.90999C27.333 7.20114 27.4234 7.02393 27.5589 6.80242C27.7849 6.44797 28.1915 6.22646 28.6432 6.27076C29.0952 6.27076 29.5019 6.49229 29.7277 6.84672C29.9085 7.11252 29.9085 7.42265 29.9085 7.73278V11.3657H31.7608V7.86569C31.7608 7.20114 31.851 6.97963 31.9867 6.7581C32.2125 6.40367 32.6192 6.22646 33.0712 6.22646C33.5229 6.22646 33.8844 6.44797 34.1103 6.80242C34.2459 7.02393 34.291 7.28976 34.291 7.46697C34.291 7.55557 34.291 7.64419 34.291 7.68848V11.3214H36.1434V7.33406C36.1434 6.97963 36.0983 6.62518 36.0077 6.31505C35.8273 5.87204 35.556 5.47329 35.1494 5.20746Z" fill="#8B9097"/>
<path d="M58.9159 9.37435C58.6449 9.64018 58.0122 10.1275 57.1538 10.1718C56.4308 10.2161 55.8888 9.9946 55.4822 9.59588C55.3015 9.41864 55.1658 9.15284 55.0756 8.88701H60.1809V8.84271C60.2263 8.57688 60.2714 8.35537 60.2714 8.08954C60.2714 7.86803 60.2263 7.5579 60.1358 7.15916C59.9099 6.40598 59.4582 5.83005 58.8708 5.38701C58.1929 4.89967 57.5604 4.76675 57.3797 4.76675C56.0696 4.54524 54.5785 5.12117 53.8103 6.31739C53.2681 7.15916 53.3135 8.00092 53.3135 8.26675C53.3135 8.57688 53.3586 9.55156 54.1718 10.4376C55.1207 11.4566 56.4308 11.5009 56.8374 11.5452C58.6449 11.5895 59.8648 10.4819 60.1358 10.2604L58.9159 9.37435ZM55.7532 6.62752C56.0242 6.45031 56.3406 6.31739 56.7472 6.31739C57.1538 6.31739 57.4702 6.45031 57.7863 6.62752C58.0576 6.84903 58.2834 7.11486 58.4188 7.42499H55.1658C55.2109 7.11486 55.4368 6.80473 55.7532 6.62752Z" fill="#8B9097"/>
</svg>
