<svg xmlns="http://www.w3.org/2000/svg" width="126" height="27" fill="none" xmlns:v="https://vecta.io/nano"><path d="M26.984 6.94h2.364v1.571c.804-1.174 2.162-1.762 4.08-1.762 2.154 0 3.568.755 4.249 2.27.774-1.515 2.278-2.27 4.511-2.27 1.709 0 2.955.441 3.744 1.328s1.182 2.293 1.182 4.223v7.192H44.75V12.3c0-1.156-.254-2.005-.752-2.532s-1.279-.8-2.341-.8c-1.219 0-2.094.337-2.629 1.002s-.797 1.747-.797 3.246v6.276h-2.364V12.3c0-1.156-.254-2.005-.752-2.532s-1.279-.8-2.345-.8c-1.219 0-2.094.337-2.629 1.002s-.797 1.747-.797 3.246v6.276H26.98V6.94h.004zm23.659 18.584V6.94h2.364v1.762c.883-1.305 2.446-1.956 4.679-1.956 2.016 0 3.474.512 4.387 1.533.905 1.021 1.358 2.667 1.358 4.933 0 2.255-.453 3.893-1.358 4.926-.913 1.029-2.371 1.545-4.387 1.545-2.233 0-3.796-.655-4.679-1.956v7.794h-2.364v.004zm3.366-9.062c.636.669 1.657.999 3.052.999 1.403 0 2.423-.333 3.059-.999s.95-1.75.95-3.25c0-1.477-.314-2.558-.95-3.235s-1.657-1.014-3.059-1.014c-1.395 0-2.416.34-3.052 1.014s-.957 1.754-.957 3.235c0 1.5.322 2.584.957 3.25zm11.643-.785h2.345c.213.677.613 1.167 1.204 1.47.599.307 1.444.46 2.532.46 2.147 0 3.213-.516 3.213-1.545 0-.468-.284-.834-.868-1.111-.576-.273-1.511-.509-2.798-.699-1.986-.258-3.381-.681-4.189-1.268s-1.219-1.451-1.219-2.596c0-1.227.423-2.139 1.279-2.741s2.195-.905 4.028-.905c1.84 0 3.22.318 4.155.954s1.511 1.653 1.739 3.056h-2.338c-.213-.677-.598-1.167-1.159-1.474s-1.38-.456-2.439-.456c-1.978 0-2.97.49-2.97 1.47 0 .452.284.812.845 1.073s1.451.497 2.678.688c2.072.322 3.519.755 4.327 1.302.819.546 1.219 1.384 1.219 2.51 0 2.543-1.855 3.815-5.569 3.815-1.855 0-3.261-.322-4.226-.969-.969-.632-1.567-1.649-1.791-3.033zM83.35 6.94h3.789v2.218H83.35v5.891c0 .774.191 1.335.561 1.691.378.355.991.531 1.825.531h1.548v2.218h-1.59c-1.664 0-2.861-.329-3.598-.987-.744-.662-1.111-1.724-1.111-3.186V9.158h-2.079V6.94h2.079V4.187h2.364V6.94h0zm10.667 12.746c-1.672 0-2.899-.299-3.673-.894s-1.152-1.552-1.152-2.872c0-1.369.43-2.345 1.29-2.932.853-.587 2.248-.883 4.159-.883h4.271c0-1.141-.284-1.975-.868-2.495-.576-.527-1.504-.785-2.775-.785-1.014 0-1.795.165-2.341.494s-.92.856-1.111 1.582h-2.345c.228-1.444.804-2.498 1.739-3.16s2.323-.987 4.155-.987c2.057 0 3.561.423 4.503 1.268s1.41 2.192 1.41 4.043V19.5h-2.364v-1.616c-.95 1.2-2.584 1.803-4.899 1.803zm-2.461-3.863c0 .628.239 1.081.737 1.361.49.284 1.249.423 2.278.423 1.365 0 2.394-.247 3.082-.748.681-.501 1.103-1.294 1.264-2.39v-.576h-3.665c-2.468 0-3.695.643-3.695 1.93zm16.565-8.883h3.789v2.218h-3.789v5.891c0 .774.191 1.335.561 1.691.378.355.991.531 1.825.531h1.548v2.218h-1.589c-1.664 0-2.861-.329-3.598-.987-.744-.662-1.111-1.724-1.111-3.186V9.158h-2.079V6.94h2.079V4.187h2.364V6.94h0zm5.64 8.737h2.345c.213.677.613 1.167 1.204 1.47.598.307 1.444.46 2.532.46 2.147 0 3.213-.516 3.213-1.545 0-.468-.284-.834-.868-1.111-.576-.273-1.511-.509-2.797-.699-1.986-.258-3.381-.681-4.189-1.268s-1.22-1.451-1.22-2.596c0-1.227.423-2.139 1.279-2.741s2.196-.905 4.029-.905c1.84 0 3.22.318 4.155.954s1.511 1.653 1.739 3.056h-2.338c-.213-.677-.598-1.167-1.159-1.474s-1.38-.456-2.439-.456c-1.978 0-2.969.49-2.969 1.47 0 .452.284.812.845 1.073s1.451.497 2.678.688c2.072.322 3.519.755 4.327 1.302.819.546 1.219 1.384 1.219 2.51 0 2.543-1.855 3.815-5.569 3.815-1.855 0-3.261-.322-4.226-.969-.965-.632-1.563-1.649-1.791-3.033z" fill="#000"/><path d="M17.877 16.993L1.485 25.947C.815 26.313 0 25.827 0 25.064v-17.9c0-.763.815-1.245 1.485-.883a1.01 1.01 0 0 1 .524.883v10.319c0 .763.819 1.249 1.489.879l9.53-5.251c.299-.165.666-.165.965-.004l3.882 2.117c.703.389.703 1.391.004 1.769z" fill="url(#A)"/><path d="M16.617 6.977c.658.389.658 1.339 0 1.728l-5.042 2.985-.082.049-6.074 3.598c-.669.396-1.515-.086-1.515-.864V1.21c0-.778.845-1.26 1.515-.864l11.198 6.631z" fill="url(#B)"/><defs><linearGradient id="A" x1="-14.128" y1="36.34" x2="32.185" y2="-12.696" gradientUnits="userSpaceOnUse"><stop stop-color="#d8ec1d"/><stop offset=".201" stop-color="#a2e02b"/><stop offset=".481" stop-color="#5dd03d"/><stop offset=".716" stop-color="#2bc44b"/><stop offset=".893" stop-color="#0cbd53"/><stop offset=".991" stop-color="#00ba56"/></linearGradient><linearGradient id="B" x1="-16.989" y1="33.638" x2="29.324" y2="-15.398" gradientUnits="userSpaceOnUse"><stop stop-color="#d8ec1d"/><stop offset=".201" stop-color="#a2e02b"/><stop offset=".481" stop-color="#5dd03d"/><stop offset=".716" stop-color="#2bc44b"/><stop offset=".893" stop-color="#0cbd53"/><stop offset=".991" stop-color="#00ba56"/></linearGradient></defs></svg>