<svg width="48" height="16" viewBox="0 0 48 16" fill="none" xmlns="http://www.w3.org/2000/svg">
<path fill-rule="evenodd" clip-rule="evenodd" d="M4.43869 1.00239C4.86751 0.999646 6.14196 0.876912 6.68178 2.82503C7.04542 4.1373 7.62467 6.28686 8.41953 9.27372H8.74324C9.59566 6.12477 10.1812 3.9752 10.4999 2.82503C11.0454 0.85662 12.409 1.00243 12.9545 1.00243L17.1628 1.00243V15H12.8736V6.75099H12.5859L10.1949 15H6.96784L4.57683 6.74488H4.2892V15H0V1.00243L4.43869 1.00239ZM23.322 1.00243V9.25756H23.6642L26.5726 2.46943C27.1372 1.11857 28.3405 1.00243 28.3405 1.00243H32.4912V15H28.1124V6.74488H27.7702L24.9188 13.533C24.3542 14.8778 23.0939 15 23.0939 15H18.9432V1.00243H23.322ZM47.6262 7.65417C47.0154 9.5049 45.0973 10.8303 42.9736 10.8303H38.3816V15H34.2176V7.65417H47.6262Z" fill="#8B9097"/>
<path fill-rule="evenodd" clip-rule="evenodd" d="M43.1747 1H33.9995C34.2179 4.11633 36.7277 6.78412 39.326 6.78412H47.9158C48.4115 4.19408 46.705 1 43.1747 1Z" fill="#8B9097"/>
</svg>
