<svg xmlns:svg="http://www.w3.org/2000/svg" xmlns="http://www.w3.org/2000/svg" version="1.1" width="462" height="84" viewBox="0 0 462 84">
  <path id="path6675" d="m 402.01893,22.642768 c -4.3,0 -9.00078,1.50039 -12.80078,5.40039 -3.5,3.6 -5.29883,8.09882 -5.29883,13.29882 0,2.4 0.49944,4.699 1.39844,7 0.901,2.301 2.20078,4.301 3.80078,6 1.7,1.801 3.69978,3.19961 5.80078,4.09961 2.199,0.9 4.19783,1.40039 6.79883,1.40039 1.899,0 3.7,-0.30039 5.5,-0.90039 1.7,-0.5 4.1,-1.89843 5,-3.39843 v 3.59961 h 7.79883 v -35.70118 h -7.89844 v 3.60157 c -1.099,-1.8 -3.20039,-3.00157 -4.90039,-3.60157 -1.7,-0.5 -3.39922,-0.79882 -5.19922,-0.79882 z m -40.80078,0.0996 c -1.8,0 -3.50117,0.20078 -5.20117,0.80078 -1.7,0.6 -3.79744,1.79961 -4.89844,3.59961 v -3.59961 h -7.90039 v 49 0.10156 h 7.79883 v -17 c 0.9,1.5 3.3,2.79844 5,3.39844 1.7,0.601 3.6,0.89843 5.5,0.89843 2.6,0 4.60078,-0.49843 6.80078,-1.39843 2.101,-0.899 4.10178,-2.30057 5.80078,-4.10157 1.601,-1.699 2.90078,-3.699 3.80078,-6 0.899,-2.2 1.39844,-4.6 1.39844,-7 0,-5.2 -1.80078,-9.69882 -5.30078,-13.29882 -3.8,-3.9 -8.39983,-5.40039 -12.79883,-5.40039 z m 63.60156,0.80078 15.19922,33.5 -6.59961,15.5 h 8.19922 l 20.70117,-49 h -8.30078 l -10.09961,25.19922 -10.80078,-25.19922 z m -22.5,6 c 2.799,0 5.29939,0.9 7.40039,3 2.099,2.2 2.89844,5.4 2.89844,8.5 0,3.4 -0.69783,6.59982 -2.79883,8.79882 -2.1,2.199 -4.60156,3 -7.60156,3 -3,0 -5.39983,-1.19961 -7.29883,-3.0996 -2.101,-2.201 -3.10156,-5.09979 -3.10156,-8.30079 0,-3.4 1.00056,-6.49921 3.10156,-8.69921 1.8,-1.90001 4.29939,-3.09822 7.40039,-3.19922 z m -41.40039,0.0996 c 3,0 5.59939,1.19922 7.40039,3.19922 2.101,2.2 3.10156,5.20117 3.10156,8.70117 0,3.2 -1.00056,6.09983 -3.10156,8.29883 -1.8,1.901 -4.29883,3.0996 -7.29883,3.0996 -3,0 -5.50156,-0.799 -7.60156,-3 -2,-2.199 -2.80078,-5.49982 -2.80078,-8.79882 0,-3.2 0.80039,-6.3 2.90039,-8.5 2,-2.1 4.50039,-3 7.40039,-3 z" fill="#211f1f"/>
  <path id="polygon6689" d="m 128.11854,27.443548 c -5.4,0 -9.79961,1.80117 -10.59961,6.70117 -0.2,1.3 -0.20039,2.49961 0.0996,4.09961 1.2,6.298 12,7.99844 13.5,11.89844 0.3,0.699 0.19961,1.69921 0.0996,2.19921 -0.3,1 -0.9,2 -3,2 -1.9,0 -3,-1.10021 -3,-2.69921 v -2.90039 h -8.09961 v 2.30078 c 0,6.801 5.3,8.80078 11,8.80078 5.5,0 10.00117,-1.90039 10.70117,-6.90039 0.4,-2.6 0.1,-4.299 0,-5 -1.3,-6.299 -12.80156,-8.19983 -13.60156,-11.79883 -0.1,-0.6 -0.1,-1.19961 0,-1.59961 0.2,-1 0.90078,-2 2.80078,-2 1.8,0 2.80078,1.09922 2.80078,2.69922 v 1.90039 h 7.5 v -2.09961 c 0,-6.6 -5.90117,-7.60156 -10.20117,-7.60156 z m 189.80078,0.19922 c -5.401,0 -9.90156,1.8 -10.60156,7.5 0,0.5 -0.0996,1.5 -0.0996,2 v 12.69921 c 0,0.6 -3.9e-4,1 0.0996,2 0.5,5.5 5.30056,7.5 10.60156,7.5 5.399,0 10.19922,-2 10.69922,-7.5 0.101,-1 0.0996,-1.4 0.0996,-2 v -8.0996 h -10.69921 v 4.40039 h 3.09961 v 4.39843 c 0,0.300999 3.9e-4,0.80057 -0.0996,1.10157 -0.201,0.799 -0.90061,2.19921 -3.09961,2.19921 -2.2,0 -3,-1.29978 -3,-2.30078 -0.101,-0.299 -0.10156,-0.69961 -0.10156,-1.099611 v -13.79882 c 0,-0.5 5.6e-4,-1.0004 0.10156,-1.400389 0.199,-0.70001 0.8,-2.19922 3,-2.19922 2.3,0 2.899,1.49921 3,2.19922 0.1,0.5 0.0996,1.199209 0.0996,1.199209 v 1.70118 h 7.59961 v -1 c 0,0 3.9e-4,-1.1 -0.0996,-2 -0.5,-5.699999 -5.20061,-7.5 -10.59961,-7.5 z m -91.29883,0.20117 c -5.3,0 -9.7,1.69961 -10.5,6.59961 -0.2,1.3 -0.30039,2.5 0.0996,4 1.099,6.099 11.69922,7.79922 13.19922,11.69922 0.3,0.699 0.19961,1.60021 0.0996,2.19921 -0.2,1 -0.90039,2 -2.90039,2 -1.9,0 -3,-1.10021 -3,-2.69921 v -2.90039 h -8 v 2.30078 c 0,6.701 5.30039,8.69921 10.90039,8.69922 5.4,0 9.89961,-1.80079 10.59961,-6.80079 0.4,-2.6 0.101,-4.29743 0,-4.89843 -1.3,-6.299 -12.59944,-8.09961 -13.39844,-11.59961 -0.2,-0.6 -0.1,-1.19961 0,-1.59961 0.2,-1 0.89922,-2 2.69922,-2 1.8,0 2.80078,1.09922 2.80078,2.69922 v 1.90039 h 7.5 v -2.09961 c 0,-6.5 -5.89961,-7.5 -10.09961,-7.5 z m -77.10156,0.69922 -5.59961,30.19922 h 8.09961 l 4.19922,-27.5 h 0.10156 l 4.09961,27.5 h 8.09961 l -5.59961,-30.19922 z m 25.69922,0 -0.69922,30.19922 h 7.59961 l 0.20117,-27.19922 h 0.19922 l 5,27.19922 h 7.69922 l 5,-27.19922 h 0.20117 l 0.19922,27.19922 h 7.59961 l -0.69922,-30.19922 h -12.30078 l -3.79883,23.09961 h -0.0996 l -3.70117,-23.09961 z m 69,0 v 21.69922 c 0,0.59999 0.0996,1.69899 0.0996,2 0.5,5.69899 4.9,7.5 10.5,7.5 5.601,-1e-5 10.10156,-1.9 10.60156,-7.5 0,-0.30101 0.0996,-1.4 0.0996,-2 v -21.69922 h -7.69922 v 22.19922 c 0,0.39999 -0.002,0.90021 -0.10156,1.19921 -0.1,0.801 -0.79744,2.20118 -2.89844,2.20118 -2.1,0 -2.70173,-1.4 -2.80273,-2 -0.1,-0.4 -0.0996,-0.80118 -0.0996,-1.20118 v -22.39843 z m 29.70117,0 v 29.89843 h 7.40039 l -0.40039,-24.59961 h 0.19922 l 7.40039,24.59961 h 10.80078 v -29.89843 h -7.5 l 0.39844,23.69922 h -0.0996 l -7,-23.69922 z" fill="#211f1f"/>
  <path id="path6709" d="m 83.618935,29.542188 c -1,-7.8 -3.8,-14.9 -8.7,-20.1000005 v 0 c -5.2,-4.9 -12.3,-7.7 -20.1,-8.7 -7.5,-1 -12.6,-0.7 -12.6,-0.7 0,0 -5.1,-0.2 -12.6,0.7 -7.8,1 -14.9,3.8 -20.1000001,8.7 v 0 c -4.9,5.2000005 -7.7,12.3000005 -8.69999999,20.1000005 -1,7.5 -0.8,12.6 -0.8,12.6 0,0 -0.2,5.1 0.7,12.6 0.99999999,7.799 3.79999999,14.9 8.69999999,20.1 v 0 c 5.2000001,4.9 12.3000001,7.699 20.1000001,8.699 7.5,1 12.6,0.701 12.6,0.701 0,0 5.1,0.199 12.6,-0.701 7.8,-1 14.9,-3.799 20.1,-8.699 v 0 c 4.9,-5.199 7.7,-12.301 8.7,-20.1 1,-7.5 0.7,-12.6 0.7,-12.6 0,0 0.4,-5.1 -0.6,-12.6" fill="#1e4bc6"/>
  <path id="path6711" d="m 15.618545,29.841978 v 22.09961 h 4.09961 v -6.29882 h 3.40039 c 1.2,0 2.30117,-0.20157 3.20117,-0.60157 0.9,-0.398 1.8,-1.000221 2.5,-1.69922 0.7,-0.699001 1.29922,-1.5 1.69922,-2.5 0.4,-1 0.59961,-1.9996 0.59961,-3.0996 0,-1.10001 -0.19961,-2.099611 -0.59961,-3.099611 -0.4,-1 -0.99922,-1.8 -1.69922,-2.5 -0.7,-0.699999 -1.5,-1.301179 -2.5,-1.70118 -1,-0.4 -2.00117,-0.59961 -3.20117,-0.59961 z m 4,3.70118 h 3.20117 c 0.6,0 1.19922,0.10078 1.69922,0.30078 0.5,0.2 0.90078,0.49844 1.30078,0.89844 0.3,0.39999 0.59883,0.80078 0.79883,1.30078 0.2,0.5 0.30078,0.99961 0.30078,1.59961 0,0.6 -0.10078,1.09961 -0.30078,1.59961 -0.2,0.5 -0.39883,0.90078 -0.79883,1.30078 -0.4,0.4 -0.80078,0.70039 -1.30078,0.90039 -0.5,0.2 -1.09922,0.29883 -1.69922,0.29883 h -3.20117 v -8.09961 z m 21,0.59961 c -1.2,0 -2.19883,0.19961 -3.29883,0.59961 -1,0.39999 -2.00078,0.89921 -2.80078,1.69921 -0.8,0.8 -1.5,1.70078 -2,2.80079 -0.5,1.09999 -0.69922,2.40078 -0.69922,3.80078 0,1.4 0.29883,2.69882 0.79883,3.79882 0.5,1.1 1.2,1.99979 2,2.80079 0.8,0.699 1.80078,1.29921 2.80078,1.69921 1.1,0.401 2.09922,0.59961 3.19922,0.59961 1.2,0 2.20117,-0.19761 3.20117,-0.59961 1,-0.5 1.9,-1.09939 2.5,-1.90039 v 2.5 h 4.09961 v -17.79882 h -4.09961 v 2.29882 c -0.7,-0.7 -1.5,-1.29922 -2.5,-1.69921 -0.9,-0.4 -2.00117,-0.59961 -3.20117,-0.59961 z m 11.20117,0.0996 7.19922,16.90039 -3.69922,8.90039 h 4.19922 l 10.5,-25.80078 h -4.30078 l -4.59961,12.0996 -5,-12.0996 z m -10.5,3.70117 c 0.7,0 1.39961,0.1 2.09961,0.5 0.7,0.3 1.19922,0.59961 1.69922,1.09961 0.5,0.4 0.79961,0.99961 1.09961,1.59961 0.3,0.599 0.40039,1.299 0.40039,2 0,0.699 -0.10039,1.398 -0.40039,2 -0.3,0.6 -0.59961,1.09961 -1.09961,1.59961 -0.5,0.49999 -1.09922,0.80156 -1.69922,1.10156 -0.6,0.3 -1.29961,0.39844 -2.09961,0.39844 -0.8,-10e-6 -1.50156,-0.19944 -2.10156,-0.39844 -0.6,-0.301 -1.19922,-0.60156 -1.69922,-1.10156 -0.4,-0.5 -0.79961,-1.09722 -1.09961,-1.69922 -0.3,-0.6 -0.40039,-1.3 -0.40039,-2 0,-0.7 0.10039,-1.4 0.40039,-2 0.2,-0.6 0.59961,-1.09961 1.09961,-1.59961 0.5,-0.5 0.99922,-0.79961 1.69922,-1.09961 0.7,-0.3 1.40156,-0.40039 2.10156,-0.40039 z" fill="#ffffff"/>
</svg>