<svg width="86" height="16" viewBox="0 0 86 16" fill="none" xmlns="http://www.w3.org/2000/svg">
<path d="M64.2131 2.01638H67.207C69.015 2.01638 70.3574 3.40695 70.3574 5.13241C70.3574 6.87062 69.0168 8.26119 67.1961 8.26119H65.8428V10.7657H64.2149V2.01638H64.2131ZM65.8428 3.52525V6.75049H67.0888C68.0583 6.75049 68.7185 6.03155 68.7185 5.13241C68.7185 4.24602 68.0601 3.52707 67.0888 3.52707H65.8428V3.52525Z" fill="#8B9097"/>
<path d="M70.7903 7.26558C70.7903 4.9413 72.4909 3.6108 74.2626 3.6108C75.1847 3.6108 76.0105 3.99484 76.5144 4.59366V3.75277H78.1314V10.7638H76.5144V9.85378C75.9996 10.5017 75.1611 10.9094 74.2389 10.9094C72.5491 10.9076 70.7903 9.55347 70.7903 7.26558ZM76.598 7.24192C76.598 6.05521 75.6995 5.08509 74.5027 5.08509C73.3058 5.08509 72.3836 6.03155 72.3836 7.24192C72.3836 8.46504 73.3058 9.42242 74.5027 9.42242C75.6995 9.42242 76.598 8.4523 76.598 7.24192Z" fill="#8B9097"/>
<path d="M81.6528 10.4162L78.7789 3.75277H80.5033L82.4549 8.47414L84.2993 3.75277H86L81.8201 14H80.1795L81.6528 10.4162Z" fill="#8B9097"/>
<path d="M47.2499 2.26028L47.3608 8.68345H47.3172L45.4364 2.26028H42.4025V10.3598H44.4124L44.2996 3.71455H44.3451L46.3641 10.3598H49.2762V2.26028H47.2499Z" fill="#8B9097"/>
<path d="M8.75624 2.26028L7.23927 10.4435H9.44925L10.5679 3.01926L10.6134 3.01744L11.7047 10.4435H13.9001L12.3941 2.26028H8.75624Z" fill="#8B9097"/>
<path d="M21.1121 2.26028L20.1026 8.51782H20.0571L19.0495 2.26028H15.7136L15.5335 10.4435H17.5798L17.6307 3.08661H17.6762L19.0422 10.4435H21.1176L22.4836 3.08843L22.5291 3.08661L22.58 10.4435H24.6263L24.4462 2.26028H21.1121Z" fill="#8B9097"/>
<path d="M3.79789 8.1356C3.87792 8.33399 3.85246 8.58699 3.81426 8.7417C3.74696 9.01471 3.56325 9.29319 3.01758 9.29319C2.50646 9.29319 2.19543 8.99651 2.19543 8.55058L2.19361 7.75701H0V8.38859C0 10.2142 1.43512 10.7657 2.9721 10.7657C4.45088 10.7657 5.66773 10.2615 5.86235 8.89459C5.9624 8.18838 5.88782 7.72607 5.85326 7.55316C5.50767 5.84044 2.4046 5.32899 2.1736 4.36979C2.1354 4.20416 2.1445 4.03125 2.16451 3.94024C2.22271 3.67814 2.39915 3.39057 2.91208 3.39057C3.39045 3.39057 3.67238 3.68542 3.67238 4.13135V4.63916H5.7132V4.06219C5.7132 2.27848 4.11256 2 2.95573 2C1.50242 2 0.312853 2.48233 0.0964024 3.81647C0.0363782 4.18049 0.0291026 4.50811 0.114591 4.91946C0.471098 6.59214 3.3759 7.07629 3.79789 8.1356Z" fill="#8B9097"/>
<path d="M30.3849 8.11922C30.4631 8.31579 30.4395 8.56514 30.4013 8.71803C30.3358 8.98741 30.1521 9.26225 29.6119 9.26225C29.1044 9.26225 28.797 8.96921 28.797 8.52692L28.7952 7.74245H26.6234V8.36675C26.6234 10.1741 28.0458 10.7202 29.5664 10.7202C31.0306 10.7202 32.2348 10.2214 32.4276 8.86728C32.5258 8.16836 32.453 7.70969 32.4185 7.5386C32.0765 5.84226 29.0044 5.33627 28.777 4.38799C28.737 4.22418 28.7479 4.05491 28.7661 3.9639C28.8243 3.70362 29.0007 3.41969 29.5064 3.41969C29.983 3.41969 30.2594 3.71091 30.2594 4.15319V4.65372H32.2802V4.08403C32.2802 2.31852 30.696 2.04368 29.5501 2.04368C28.1113 2.04368 26.9345 2.52055 26.7198 3.84195C26.6598 4.20416 26.6525 4.52632 26.738 4.93402C27.0891 6.59214 29.9684 7.07083 30.3849 8.11922Z" fill="#8B9097"/>
<path d="M37.2495 9.21856C37.8188 9.21856 37.9934 8.82724 38.0335 8.62521C38.0517 8.53784 38.0535 8.41772 38.0535 8.31215V2.25846H40.1234V8.1265C40.1252 8.27757 40.1107 8.58517 40.1034 8.66525C39.9615 10.1923 38.7537 10.6874 37.2513 10.6874C35.7471 10.6874 34.5411 10.1923 34.3975 8.66525C34.3902 8.58517 34.3738 8.27757 34.3793 8.1265V2.25846H36.4474V8.31215C36.4455 8.41772 36.4492 8.53602 36.4674 8.62521C36.5056 8.82724 36.6802 9.21856 37.2495 9.21856Z" fill="#8B9097"/>
<path d="M54.3055 9.13302C54.8984 9.13302 55.104 8.75808 55.1403 8.53966C55.1567 8.44684 55.1603 8.33217 55.1603 8.22842V7.03989H54.3218V5.84772H57.2193V8.04095C57.2175 8.19566 57.2139 8.30669 57.1903 8.57971C57.0556 10.0704 55.7642 10.6018 54.3145 10.6018C52.8649 10.6018 51.5753 10.0704 51.4388 8.57971C51.4152 8.30851 51.4116 8.19566 51.4097 8.04095V4.59912C51.4097 4.45351 51.4279 4.19688 51.4443 4.06037C51.6262 2.53147 52.8649 2.03822 54.3145 2.03822C55.7642 2.03822 57.0338 2.52601 57.1848 4.06037C57.2103 4.32064 57.203 4.59912 57.203 4.59912V4.87214H55.1403V4.41347C55.1403 4.41347 55.1385 4.21872 55.1149 4.10223C55.0785 3.92204 54.9221 3.50887 54.2982 3.50887C53.7034 3.50887 53.5288 3.9002 53.4833 4.10223C53.4597 4.20962 53.4506 4.35523 53.4506 4.48991V8.23024C53.4506 8.33399 53.4542 8.44866 53.4688 8.54148C53.5088 8.75808 53.7143 9.13302 54.3055 9.13302Z" fill="#8B9097"/>
</svg>
