<svg width="40" height="40" viewBox="0 0 40 40" fill="none" xmlns="http://www.w3.org/2000/svg">
<path fill-rule="evenodd" clip-rule="evenodd" d="M40 20C40 31.0457 31.0457 40 20 40C8.95431 40 0 31.0457 0 20C0 8.95431 8.95431 0 20 0C31.0457 0 40 8.95431 40 20ZM20.7206 14.7249C18.8397 15.534 15.0808 17.2087 9.44364 19.7489C8.52826 20.1254 8.04874 20.4937 8.00509 20.8539C7.93131 21.4625 8.66826 21.7022 9.67179 22.0286C9.80829 22.0729 9.94973 22.1189 10.0947 22.1677C11.082 22.4996 12.4102 22.888 13.1006 22.9034C13.7269 22.9174 14.4259 22.6503 15.1976 22.1022C20.4646 18.425 23.1834 16.5664 23.3541 16.5263C23.4745 16.498 23.6414 16.4625 23.7544 16.5664C23.8675 16.6704 23.8564 16.8672 23.8444 16.92C23.7714 17.2419 20.8786 20.0235 19.3816 21.463C18.9149 21.9117 18.5839 22.23 18.5162 22.3027C18.3646 22.4656 18.2101 22.6196 18.0616 22.7677C17.1444 23.6822 16.4566 24.3681 18.0997 25.488C18.8894 26.0262 19.5212 26.4713 20.1516 26.9153C20.84 27.4002 21.5267 27.8838 22.4151 28.4861C22.6414 28.6396 22.8576 28.799 23.0682 28.9542C23.8693 29.545 24.5891 30.0757 25.4784 29.9911C25.9951 29.9419 26.5288 29.4394 26.7999 27.9406C27.4405 24.3986 28.6997 16.7241 28.9907 13.5616C29.0162 13.2846 28.9841 12.93 28.9583 12.7743C28.9326 12.6186 28.8788 12.3968 28.6831 12.2327C28.4514 12.0382 28.0938 11.9972 27.9338 12.0001C27.2065 12.0134 26.0907 12.4147 20.7206 14.7249Z" fill="#8B9097"/>
</svg>
