<svg width="42" height="16" viewBox="0 0 42 16" fill="none" xmlns="http://www.w3.org/2000/svg">
<path fill-rule="evenodd" clip-rule="evenodd" d="M10.5001 14.8971H6.8654L4.1398 4.03633C4.01043 3.53673 3.73574 3.09506 3.33169 2.88689C2.32332 2.36376 1.21217 1.94743 0 1.73746V1.31932H5.85526C6.66337 1.31932 7.26945 1.94743 7.37047 2.67692L8.78466 10.5112L12.4176 1.31932H15.9513L10.5001 14.8971Z" fill="#8B9097"/>
<path fill-rule="evenodd" clip-rule="evenodd" d="M17.9746 14.8971H14.5419L17.3685 1.31932H20.8012L17.9746 14.8971Z" fill="#8B9097"/>
<path fill-rule="evenodd" clip-rule="evenodd" d="M25.2388 5.07461C25.3399 4.34332 25.9459 3.92518 26.653 3.92518C27.7642 3.82019 28.9746 4.03016 29.9847 4.55148L30.5908 1.62812C29.5807 1.20998 28.4695 1 27.4611 1C24.1295 1 21.7051 2.88073 21.7051 5.49094C21.7051 7.47666 23.4224 8.51929 24.6345 9.14741C25.9459 9.77372 26.451 10.1919 26.35 10.8182C26.35 11.7576 25.3399 12.1758 24.3315 12.1758C23.1193 12.1758 21.9072 11.8626 20.7978 11.3395L20.1917 14.2647C21.4039 14.786 22.7153 14.996 23.9274 14.996C27.6632 15.0991 29.9847 13.2202 29.9847 10.4C29.9847 6.84854 25.2388 6.64038 25.2388 5.07461Z" fill="#8B9097"/>
<path fill-rule="evenodd" clip-rule="evenodd" d="M39.2744 1.31932L42 14.8971H38.8703L38.4663 12.9132H34.1245L33.4191 14.8971H29.8854L34.9326 2.36376C35.1346 1.73746 35.7407 1.31932 36.3468 1.31932H39.2744ZM37.8627 10.0874L36.8543 4.97017L35.0361 10.0874H37.8627Z" fill="#8B9097"/>
</svg>
