<svg width="40" height="40" viewBox="0 0 40 40" fill="none" xmlns="http://www.w3.org/2000/svg">
<path fill-rule="evenodd" clip-rule="evenodd" d="M20 40C31.0457 40 40 31.0457 40 20C40 8.9543 31.0457 0 20 0C8.9543 0 0 8.9543 0 20C0 31.0457 8.9543 40 20 40ZM9 14C9.17864 22.1201 13.4659 27 20.9824 27H21.4086V22.3544C24.1706 22.6146 26.2591 24.5275 27.0973 27H31C29.9282 23.3043 27.111 21.2613 25.3521 20.4805C27.111 19.5175 29.5845 17.1752 30.1754 14H26.63C25.8605 16.5766 23.5797 18.9189 21.4086 19.1401V14H17.8631V23.005C15.6645 22.4845 12.8888 19.96 12.7651 14H9Z" fill="#8B9097"/>
</svg>
