<svg width="40" height="40" viewBox="0 0 40 40" fill="none" xmlns="http://www.w3.org/2000/svg">
<path d="M23.3396 19.6521L18.6604 17.4688C18.2521 17.2792 17.9167 17.4917 17.9167 17.9437V22.0563C17.9167 22.5083 18.2521 22.7208 18.6604 22.5312L23.3375 20.3479C23.7479 20.1562 23.7479 19.8438 23.3396 19.6521ZM20 0C8.95417 0 0 8.95417 0 20C0 31.0458 8.95417 40 20 40C31.0458 40 40 31.0458 40 20C40 8.95417 31.0458 0 20 0ZM20 28.125C9.7625 28.125 9.58333 27.2021 9.58333 20C9.58333 12.7979 9.7625 11.875 20 11.875C30.2375 11.875 30.4167 12.7979 30.4167 20C30.4167 27.2021 30.2375 28.125 20 28.125Z" fill="#8B9097"/>
</svg>
