<svg width="36" height="36" viewBox="0 0 36 36" fill="none" xmlns="http://www.w3.org/2000/svg">
<path d="M35.9083 17.5909C35.9083 12.9255 34.055 8.45117 30.756 5.15224C27.4571 1.85332 22.9828 0 18.3174 0C13.652 0 9.17773 1.85332 5.87881 5.15224C2.57988 8.45117 0.726563 12.9255 0.726562 17.5909C0.726563 22.2562 2.57988 26.7305 5.87881 30.0295C9.17773 33.3284 13.652 35.1817 18.3174 35.1817C22.9828 35.1817 27.4571 33.3284 30.756 30.0295C34.055 26.7305 35.9083 22.2562 35.9083 17.5909ZM19.4168 25.2869C19.4168 25.5784 19.301 25.8581 19.0948 26.0643C18.8887 26.2705 18.609 26.3863 18.3174 26.3863C18.0258 26.3863 17.7462 26.2705 17.54 26.0643C17.3338 25.8581 17.218 25.5784 17.218 25.2869V12.5489L12.4992 17.2698C12.2928 17.4763 12.0128 17.5922 11.7208 17.5922C11.4289 17.5922 11.1489 17.4763 10.9425 17.2698C10.736 17.0634 10.62 16.7834 10.62 16.4914C10.62 16.1995 10.736 15.9195 10.9425 15.713L17.539 9.11646C17.6412 9.01408 17.7625 8.93284 17.896 8.87742C18.0296 8.82199 18.1728 8.79346 18.3174 8.79346C18.462 8.79346 18.6052 8.82199 18.7388 8.87742C18.8724 8.93284 18.9937 9.01408 19.0958 9.11646L25.6924 15.713C25.8988 15.9195 26.0148 16.1995 26.0148 16.4914C26.0148 16.7834 25.8988 17.0634 25.6924 17.2698C25.4859 17.4763 25.2059 17.5922 24.914 17.5922C24.622 17.5922 24.342 17.4763 24.1356 17.2698L19.4168 12.5489V25.2869Z" fill="#38AC5A"/>
</svg>
