<svg width="9" height="8" viewBox="0 0 9 8" fill="none" xmlns="http://www.w3.org/2000/svg">
<path d="M6.88471 0.882584C7.02558 0.748473 7.21303 0.674331 7.40753 0.675803C7.60202 0.677274 7.78833 0.754245 7.92716 0.890472C8.06598 1.0267 8.14645 1.21153 8.15159 1.40596C8.15673 1.60039 8.08614 1.78921 7.95471 1.93258L3.96471 6.92258C3.8961 6.99648 3.81329 7.05579 3.72124 7.09695C3.62919 7.13811 3.52978 7.16029 3.42896 7.16216C3.32814 7.16403 3.22798 7.14554 3.13447 7.10782C3.04095 7.07009 2.95601 7.01389 2.88471 6.94258L0.238708 4.29658C0.165022 4.22792 0.105919 4.14512 0.0649275 4.05312C0.0239355 3.96112 0.0018935 3.86181 0.00011672 3.76111C-0.00166006 3.6604 0.0168648 3.56037 0.0545858 3.46699C0.0923068 3.3736 0.148451 3.28876 0.21967 3.21755C0.290889 3.14633 0.375723 3.09018 0.469111 3.05246C0.562499 3.01474 0.662528 2.99622 0.763231 2.99799C0.863934 2.99977 0.963247 3.02181 1.05525 3.0628C1.14725 3.1038 1.23005 3.1629 1.29871 3.23658L3.39271 5.32958L6.86571 0.904584C6.87196 0.896885 6.87864 0.88954 6.88571 0.882584H6.88471Z" fill="#3F4651"/>
</svg>
