<svg width="37" height="15" viewBox="0 0 37 15" fill="none" xmlns="http://www.w3.org/2000/svg">
<path d="M17.3978 7.11221V11.271H16.0742V1.00069H19.5846C20.0037 0.991965 20.4203 1.06604 20.8104 1.21864C21.2006 1.37125 21.5565 1.59935 21.8578 1.8898C22.162 2.16262 22.4042 2.49719 22.568 2.87105C22.7318 3.2449 22.8134 3.64937 22.8073 4.05727C22.816 4.46735 22.7357 4.87446 22.5718 5.2507C22.4079 5.62693 22.1643 5.9634 21.8578 6.23703C21.2439 6.82048 20.4862 7.11194 19.5846 7.11139H17.3978V7.11221ZM17.3978 2.26511V5.85024H19.6175C19.8609 5.85743 20.103 5.81392 20.3285 5.72248C20.554 5.63105 20.7579 5.4937 20.9271 5.31924C21.0955 5.15611 21.2293 4.961 21.3206 4.74544C21.412 4.52988 21.4591 4.29824 21.4591 4.06423C21.4591 3.83022 21.412 3.59859 21.3206 3.38303C21.2293 3.16747 21.0955 2.97236 20.9271 2.80923C20.76 2.63109 20.5569 2.49038 20.3311 2.39643C20.1053 2.30248 19.8621 2.25744 19.6175 2.26429H17.3978V2.26511Z" fill="#CCD4D9"/>
<path d="M25.8604 4.01562C26.8387 4.01562 27.611 4.27621 28.1771 4.79739C28.7433 5.31856 29.0261 6.03313 29.0255 6.94109V11.2719H27.7595V10.2968H27.7019C27.1539 11.0998 26.4249 11.5014 25.5151 11.5014C24.7385 11.5014 24.0888 11.2719 23.5659 10.813C23.315 10.6024 23.1144 10.3386 22.9787 10.0409C22.843 9.74323 22.7757 9.4191 22.7816 9.09217C22.7816 8.36504 23.0573 7.78677 23.6087 7.35738C24.16 6.92798 24.8961 6.71274 25.8168 6.71164C26.6028 6.71164 27.2501 6.85505 27.7587 7.14186V6.8403C27.7602 6.61742 27.7119 6.397 27.6173 6.19503C27.5228 5.99305 27.3843 5.81459 27.212 5.67257C26.8619 5.3578 26.4058 5.18605 25.9344 5.19155C25.1951 5.19155 24.61 5.5024 24.1792 6.12409L23.0134 5.39232C23.6547 4.47452 24.6037 4.01562 25.8604 4.01562ZM24.148 9.12085C24.1471 9.28876 24.1864 9.45445 24.2628 9.60412C24.3392 9.75378 24.4503 9.8831 24.587 9.98128C24.8797 10.2108 25.243 10.3324 25.6154 10.3255C26.174 10.3245 26.7094 10.1029 27.1043 9.70922C27.5427 9.29785 27.762 8.81519 27.762 8.26124C27.3493 7.93345 26.7738 7.76956 26.0355 7.76956C25.4979 7.76956 25.0495 7.89876 24.6906 8.15717C24.328 8.41939 24.148 8.73816 24.148 9.12085Z" fill="#CCD4D9"/>
<path d="M36.2903 4.24219L31.8707 14.3666H30.5043L32.1444 10.8241L29.2383 4.24219H30.677L32.7775 9.29005H32.8062L34.8492 4.24219H36.2903Z" fill="#CCD4D9"/>
<path d="M12.0473 6.21531C12.0478 5.81325 12.0137 5.41188 11.9454 5.01562H6.36328V7.28798H9.56047C9.49504 7.65091 9.35657 7.99688 9.15339 8.30502C8.95022 8.61317 8.68654 8.87712 8.37827 9.08096V10.556H10.2864C11.4036 9.5292 12.0473 8.01074 12.0473 6.21531Z" fill="#CCD4D9"/>
<path d="M6.36285 11.9818C7.96021 11.9818 9.30518 11.459 10.286 10.5576L8.37784 9.08258C7.84676 9.4415 7.16277 9.64637 6.36285 9.64637C4.81893 9.64637 3.50849 8.60893 3.03988 7.21094H1.07422V8.73103C1.56688 9.70822 2.32233 10.5297 3.25621 11.1037C4.1901 11.6778 5.26567 11.9818 6.36285 11.9818Z" fill="#CCD4D9"/>
<path d="M3.04127 7.20821C2.79353 6.47565 2.79353 5.68234 3.04127 4.94978V3.42969H1.0756C0.661156 4.25173 0.445312 5.15899 0.445312 6.07899C0.445312 6.999 0.661156 7.90626 1.0756 8.7283L3.04127 7.20821Z" fill="#CCD4D9"/>
<path d="M6.36285 2.51553C7.20699 2.50178 8.02264 2.81969 8.63352 3.40055L10.323 1.71656C9.25168 0.713604 7.83247 0.162965 6.36285 0.180075C5.26568 0.180124 4.1901 0.484138 3.25621 1.05818C2.32233 1.63221 1.56688 2.45368 1.07422 3.43087L3.03988 4.95096C3.50849 3.55296 4.81893 2.51553 6.36285 2.51553Z" fill="#CCD4D9"/>
</svg>
