<svg width="62" height="14" viewBox="0 0 62 14" fill="none" xmlns="http://www.w3.org/2000/svg">
<g clip-path="url(#clip0_492_4470)">
<path d="M11.8688 0.773438C8.30856 0.773438 5.47656 3.72621 5.47656 7.34439C5.47656 11.0041 8.34903 13.9153 11.8688 13.9153C15.3886 13.9153 18.261 10.9626 18.261 7.34439C18.3015 3.72621 15.3886 0.773438 11.8688 0.773438ZM11.8688 9.79809C10.5742 9.79809 9.48181 8.67522 9.48181 7.34439C9.48181 6.01356 10.5742 4.89069 11.8688 4.89069C13.1634 4.89069 14.2558 6.01356 14.2558 7.34439C14.2558 8.67522 13.2039 9.79809 11.8688 9.79809Z" fill="#CCD4D9"/>
<path d="M5.4768 2.6875V12.2528H3.17073L0.257812 2.6875H5.4768Z" fill="#CCD4D9"/>
<path d="M59.4081 4.39062L57.9921 7.96722C57.9517 8.0088 57.9517 8.09196 57.9517 8.13357L57.9111 8.21673L57.8707 8.13357C57.8707 8.09196 57.8303 8.0088 57.8303 7.96722L56.4143 4.39062H54.5938L56.9806 10.5041L55.9694 12.833H57.7899L61.1478 4.39062H59.4081Z" fill="#CCD4D9"/>
<path d="M45.9762 4.72151C45.6525 4.47197 45.248 4.30562 44.7625 4.26404C43.9535 4.18085 43.1849 4.47197 42.6589 5.01263V4.34723H41V10.4607H42.6589V7.2584C42.6589 6.55139 42.7801 6.34346 42.9016 6.17711C43.1038 5.84441 43.4679 5.67806 43.9131 5.67806C44.358 5.67806 44.7625 5.88599 44.965 6.21869C45.0862 6.46823 45.1266 6.80093 45.1266 6.96728C45.1266 7.50794 45.1266 10.4607 45.1266 10.4607H46.7855V6.75935C46.7855 5.8028 46.5022 5.1374 45.9762 4.72151Z" fill="#CCD4D9"/>
<path d="M37.8441 4.43323C37.0351 4.14211 36.145 4.18372 35.3358 4.558C34.8098 4.80754 34.3245 5.2234 34.0412 5.76406C33.7579 6.22153 33.6367 6.80376 33.6367 7.42758C33.6367 8.0514 33.7579 8.63364 34.0412 9.09111C34.3245 9.54858 34.6886 9.96447 35.1739 10.214C35.6595 10.4635 36.2258 10.6299 36.7518 10.6299C37.0351 10.6299 37.3181 10.5883 37.6014 10.5051C37.8441 10.4219 38.087 10.3388 38.3296 10.214C38.8152 9.92289 39.2197 9.54858 39.4626 9.09111C39.7457 8.63364 39.8671 8.0514 39.8671 7.42758C39.9075 6.05518 39.1389 4.8907 37.8441 4.43323ZM38.3296 7.51077C38.2893 8.0514 38.1274 8.50887 37.8037 8.79999C37.561 9.00795 37.1969 9.13272 36.7518 9.1743C36.3069 9.1743 35.9832 9.04953 35.6999 8.79999C35.3764 8.50887 35.2146 8.0514 35.1739 7.51077C35.1335 6.88695 35.3764 6.38788 35.8213 6.05518C36.064 5.88883 36.3877 5.76406 36.7114 5.76406C37.0755 5.76406 37.3588 5.88883 37.6418 6.05518C38.1274 6.34629 38.37 6.88695 38.3296 7.51077Z" fill="#CCD4D9"/>
<path d="M31.732 4.72309C31.4083 4.47358 31.0038 4.30723 30.5183 4.26562C30.4375 4.26562 30.316 4.26562 30.2352 4.26562C29.5878 4.26562 29.0215 4.55674 28.5359 5.13898L28.4551 5.26375H28.2933C28.1718 5.05582 28.01 4.88947 27.8481 4.7647C27.5244 4.51516 27.1199 4.34881 26.6343 4.30723C25.8657 4.22404 25.2589 4.47358 24.733 5.05582V4.432H23.0742V10.5455H24.733V7.34317V7.25998C24.733 6.59458 24.8139 6.42823 24.9352 6.2203C25.1375 5.88757 25.5016 5.67964 25.9061 5.72122C26.3109 5.72122 26.675 5.92918 26.8772 6.26188C27.0391 6.51139 27.0391 6.80251 27.0391 7.09363V10.5039H28.6978V7.2184C28.6978 6.59458 28.7786 6.38665 28.9 6.17869C29.1023 5.84599 29.4664 5.67964 29.8711 5.67964C30.2756 5.67964 30.5993 5.88757 30.8016 6.2203C30.923 6.42823 30.9634 6.67777 30.9634 6.84412C30.9634 6.92728 30.9634 7.01047 30.9634 7.05205V10.4623H32.6221V6.71935C32.6221 6.38665 32.5817 6.05392 32.5006 5.7628C32.339 5.34694 32.0961 4.97263 31.732 4.72309Z" fill="#CCD4D9"/>
<path d="M53.0136 8.63458C52.7709 8.88412 52.2043 9.34159 51.4357 9.38317C50.7883 9.42475 50.303 9.21682 49.9389 8.84254C49.777 8.67617 49.6556 8.42665 49.5748 8.17711H54.1463V8.13553C54.1869 7.886 54.2273 7.67806 54.2273 7.42853C54.2273 7.22059 54.1869 6.92947 54.1059 6.55517C53.9036 5.84816 53.4991 5.30753 52.9732 4.89164C52.3662 4.43417 51.7998 4.3094 51.638 4.3094C50.4649 4.10147 49.1296 4.6421 48.4418 5.765C47.9563 6.55517 47.9969 7.34534 47.9969 7.59488C47.9969 7.88599 48.0373 8.80093 48.7655 9.63271C49.6152 10.5892 50.7883 10.6308 51.1524 10.6724C52.7709 10.714 53.8632 9.67429 54.1059 9.46636L53.0136 8.63458ZM50.1815 6.05612C50.4242 5.88977 50.7075 5.765 51.0716 5.765C51.4357 5.765 51.719 5.88977 52.0021 6.05612C52.245 6.26405 52.4472 6.51359 52.5684 6.80471H49.6556C49.696 6.51359 49.8982 6.22247 50.1815 6.05612Z" fill="#CCD4D9"/>
</g>
<defs>
<clipPath id="clip0_492_4470">
<rect width="61.1098" height="13.1419" fill="white" transform="translate(0.257812 0.773438)"/>
</clipPath>
</defs>
</svg>
