<svg viewBox="0 0 172 34" fill="none" xmlns="http://www.w3.org/2000/svg">
<g clip-path="url(#clip0_737_1183)">
<path d="M40.5156 8.2876L43.4301 8.5001V10.6251C44.5019 9.01901 46.243 8.2876 48.8051 8.2876C51.6799 8.2876 53.4887 9.40484 54.3951 11.4751C55.4273 9.40484 57.4346 8.2876 60.4151 8.2876C62.6953 8.2876 64.5225 8.98699 65.5751 10.2001C66.6265 11.4072 67.0801 13.2976 67.0801 15.9376V25.7126H63.8551V15.9376C63.8551 14.3548 63.658 13.0496 62.9951 12.3251C62.3333 11.5969 61.1931 11.2626 59.7701 11.2626C58.1432 11.2626 57.041 11.8365 56.3301 12.7501C55.6191 13.6624 55.2551 15.1657 55.2551 17.2126V25.7126H52.0301V15.9376C52.0301 14.3548 51.618 13.0496 50.9551 12.3251C50.2933 11.5969 49.3669 11.2626 47.9451 11.2626C46.317 11.2626 45.216 11.8365 44.5051 12.7501C43.7929 13.6624 43.4301 15.1657 43.4301 17.2126V25.7126H40.5156V8.2876Z" fill="white"/>
<path d="M76.7533 21.2501C77.5859 22.1348 78.7955 22.5251 80.6233 22.5251C82.4616 22.5251 83.876 22.1348 84.7083 21.2501C85.5409 20.3666 85.9983 18.7687 85.9983 16.7876C85.9983 14.8303 85.5409 13.4318 84.7083 12.5376C83.876 11.6434 82.4616 11.2626 80.6233 11.2626C78.7955 11.2626 77.5859 11.6434 76.7533 12.5376C75.9207 13.4318 75.4633 14.8303 75.4633 16.7876C75.4633 18.7687 75.9207 20.3666 76.7533 21.2501ZM72.2383 33.1501V8.5001H75.2483V10.8376C76.406 9.10742 78.5533 8.2876 81.4833 8.2876C84.1247 8.2876 86.0917 9.05933 87.2883 10.4126C88.4756 11.7646 89.0083 13.7862 89.0083 16.7876C89.0083 19.7735 88.4756 22.0077 87.2883 23.3751C86.0917 24.7379 84.1247 25.5001 81.4833 25.5001C78.5533 25.5001 76.406 24.4619 75.2483 22.7376V33.1501H72.2383Z" fill="white"/>
<path d="M91.373 20.4001H94.598C94.8895 21.3097 95.5058 21.9038 96.318 22.3126C97.1412 22.7251 98.2642 22.9501 99.758 22.9501C102.706 22.9501 104.058 22.2113 104.058 20.8251C104.058 20.1961 103.785 19.7065 102.983 19.3376C102.191 18.9687 100.877 18.7476 99.113 18.4876C96.3866 18.1381 94.4209 17.5787 93.308 16.7876C92.196 15.9953 91.588 14.7136 91.588 13.1751C91.588 11.524 92.3499 10.3743 93.523 9.5626C94.6962 8.74736 96.3826 8.2876 98.898 8.2876C101.424 8.2876 103.42 8.70745 104.703 9.5626C105.988 10.4178 106.758 11.712 107.068 13.6001H103.843C103.552 12.6905 103.11 12.1001 102.338 11.6876C101.566 11.2788 100.351 11.0501 98.898 11.0501C96.1808 11.0501 94.813 11.6405 94.813 12.9626C94.813 13.5722 95.116 14.097 95.888 14.4501C96.6593 14.8094 98.0733 15.2514 99.758 15.5126C102.605 15.9444 104.45 16.476 105.563 17.2126C106.685 17.9504 107.283 19.0934 107.283 20.6126C107.283 24.0393 104.645 25.7126 99.543 25.7126C96.9966 25.7126 95.0611 25.3073 93.738 24.4376C92.4142 23.5728 91.6829 22.2628 91.373 20.4001Z" fill="white"/>
<path d="M115.668 8.7127H120.613V11.6877H115.668V19.7627C115.668 20.8149 115.827 21.4062 116.313 21.8877C116.81 22.3693 117.805 22.7377 118.893 22.7377H120.828V25.7127H118.678C116.5 25.7127 114.912 25.3372 113.948 24.4377C112.973 23.5395 112.658 21.966 112.658 19.9752V11.6877H109.863V8.7127H112.658V4.8877H115.668V8.7127Z" fill="white"/>
<path d="M127.278 20.6126C127.278 21.458 127.699 21.934 128.353 22.3126C128.996 22.6959 130.008 22.9501 131.363 22.9501C133.16 22.9501 134.545 22.5613 135.448 21.8876C136.34 21.2152 136.956 20.1757 137.168 18.7001V17.8501H132.223C128.975 17.8501 127.278 18.8782 127.278 20.6126ZM130.718 25.7126C128.517 25.7126 126.79 25.2383 125.773 24.4376C124.754 23.637 124.268 22.3918 124.268 20.6126C124.268 18.7694 124.854 17.5786 125.988 16.7876C127.112 15.9953 128.846 15.5126 131.363 15.5126H137.168C137.168 13.9741 136.645 12.8141 135.878 12.1126C135.119 11.4038 133.894 11.0501 132.223 11.0501C130.887 11.0501 129.934 11.2449 129.213 11.6876C128.492 12.1339 127.956 12.8402 127.708 13.8126H124.698C124.994 11.8666 125.618 10.4516 126.848 9.5626C128.077 8.67243 130.026 8.2876 132.438 8.2876C135.146 8.2876 137.004 8.8519 138.243 9.9876C139.483 11.1269 140.178 13.0211 140.178 15.5126V25.5001H137.168V23.3751C135.918 25.0018 133.764 25.7126 130.718 25.7126Z" fill="white"/>
<path d="M148.778 8.7127H154.153V11.6877H148.778V19.7627C148.778 20.8149 149.112 21.4062 149.638 21.8877C150.173 22.3693 151.045 22.7377 152.218 22.7377H154.368V25.7127H152.218C149.87 25.7127 148.099 25.3372 147.058 24.4377C146.008 23.5395 145.553 21.966 145.553 19.9752V11.6877H142.543V8.7127H145.553V4.8877H148.778V8.7127Z" fill="white"/>
<path d="M156.088 20.4001H159.313C159.603 21.3097 160.221 21.9038 161.033 22.3126C161.856 22.7251 162.979 22.9501 164.473 22.9501C167.421 22.9501 168.773 22.2113 168.773 20.8251C168.773 20.1961 168.5 19.7065 167.698 19.3376C166.905 18.9687 165.592 18.7476 163.828 18.4876C161.101 18.1381 159.136 17.5787 158.023 16.7876C156.911 15.9953 156.303 14.7136 156.303 13.1751C156.303 11.524 157.065 10.3743 158.238 9.5626C159.41 8.74736 161.097 8.2876 163.613 8.2876C166.139 8.2876 168.133 8.70745 169.418 9.5626C170.701 10.4178 171.471 11.712 171.783 13.6001H168.558C168.268 12.6905 167.825 12.1001 167.053 11.6876C166.281 11.2788 165.067 11.0501 163.613 11.0501C160.897 11.0501 159.528 11.6405 159.528 12.9626C159.528 13.5722 159.831 14.097 160.603 14.4501C161.376 14.8094 162.787 15.2514 164.473 15.5126C167.321 15.9444 169.165 16.476 170.278 17.2126C171.401 17.9504 171.998 19.0934 171.998 20.6126C171.998 24.0393 169.362 25.7126 164.258 25.7126C161.711 25.7126 159.777 25.3073 158.453 24.4376C157.131 23.5728 156.398 22.2628 156.088 20.4001Z" fill="white"/>
<path d="M23.65 21.8877L1.935 33.7877C1.12404 34.2323 0.000597318 33.738 0 32.7252V8.71268C0.000137176 8.48009 0.101213 8.27729 0.215 8.07518C0.417713 7.71508 0.872116 7.44611 1.29 7.43768C1.70954 7.42923 2.16063 7.72633 2.365 8.07518C2.48664 8.28284 2.5807 8.47137 2.58 8.71268V22.5252C2.58229 23.3096 3.5475 24.1189 4.515 23.8002L17.2 16.7877C17.3954 16.6797 17.6223 16.5752 17.845 16.5752C18.0677 16.5752 18.2946 16.6797 18.49 16.7877L23.65 19.5502C24.012 19.7476 24.295 20.3061 24.295 20.7189C24.295 21.2076 24.0997 21.6424 23.65 21.8877Z" fill="url(#paint0_linear_737_1183)"/>
<path d="M21.9303 8.92522C22.2869 9.13248 22.5753 9.57024 22.5753 9.98772C22.5753 10.4053 22.2869 10.8428 21.9303 11.0502L15.2653 15.0877L6.88032 19.7627C6.67685 19.8817 6.0535 20.1879 5.59032 19.9752C5.07951 19.7407 4.94488 19.3424 4.94532 18.7002V1.27522C4.94532 0.743979 5.16625 0.454533 5.59032 0.212723C6.01439 -0.0290873 6.67685 0.0938151 6.88032 0.212724L21.9303 8.92522Z" fill="url(#paint1_linear_737_1183)"/>
</g>
<defs>
<linearGradient id="paint0_linear_737_1183" x1="-18.6488" y1="47.6341" x2="43.0626" y2="-17.1273" gradientUnits="userSpaceOnUse">
<stop stop-color="#D8EC1D"/>
<stop offset="0.2" stop-color="#A2E02B"/>
<stop offset="0.48" stop-color="#5DD03D"/>
<stop offset="0.72" stop-color="#2BC44B"/>
<stop offset="0.89" stop-color="#0CBD53"/>
<stop offset="0.99" stop-color="#00BA56"/>
</linearGradient>
<linearGradient id="paint1_linear_737_1183" x1="-22.9773" y1="43.8052" x2="37.5156" y2="-21.6118" gradientUnits="userSpaceOnUse">
<stop stop-color="#D8EC1D"/>
<stop offset="0.2" stop-color="#A2E02B"/>
<stop offset="0.48" stop-color="#5DD03D"/>
<stop offset="0.72" stop-color="#2BC44B"/>
<stop offset="0.89" stop-color="#0CBD53"/>
<stop offset="0.99" stop-color="#00BA56"/>
</linearGradient>
<clipPath id="clip0_737_1183">
<rect width="171.998" height="34" fill="white"/>
</clipPath>
</defs>
</svg>
