<svg width="29" height="18" viewBox="0 0 29 18" fill="none" xmlns="http://www.w3.org/2000/svg">
<path fill-rule="evenodd" clip-rule="evenodd" d="M14.2683 15.0906C12.8067 16.3522 10.9106 17.1138 8.83863 17.1138C4.21607 17.1138 0.46875 13.323 0.46875 8.64673C0.46875 3.9705 4.21607 0.179688 8.83863 0.179688C10.9106 0.179688 12.8067 0.941284 14.2683 2.20285C15.73 0.941284 17.6261 0.179688 19.698 0.179688C24.3206 0.179688 28.0679 3.9705 28.0679 8.64673C28.0679 13.323 24.3206 17.1138 19.698 17.1138C17.6261 17.1138 15.73 16.3522 14.2683 15.0906Z" fill="#DFE6EB"/>
<path fill-rule="evenodd" clip-rule="evenodd" d="M14.2637 15.0906C16.063 13.5376 17.2039 11.2269 17.2039 8.64673C17.2039 6.06651 16.063 3.75586 14.2637 2.20285C15.7253 0.941284 17.6214 0.179688 19.6934 0.179688C24.3159 0.179688 28.0632 3.9705 28.0632 8.64673C28.0632 13.323 24.3159 17.1138 19.6934 17.1138C17.6214 17.1138 15.7253 16.3522 14.2637 15.0906Z" fill="#CCD4D9"/>
<path fill-rule="evenodd" clip-rule="evenodd" d="M14.2644 15.0904C16.0637 13.5374 17.2046 11.2267 17.2046 8.64651C17.2046 6.0663 16.0637 3.75565 14.2644 2.20264C12.4651 3.75565 11.3242 6.0663 11.3242 8.64651C11.3242 11.2267 12.4651 13.5374 14.2644 15.0904Z" fill="#CCD4D9"/>
</svg>
