<svg width="45" height="13" viewBox="0 0 45 13" fill="none" xmlns="http://www.w3.org/2000/svg">
<path fill-rule="evenodd" clip-rule="evenodd" d="M4.78384 0.236394C5.17129 0.234076 6.32276 0.130368 6.8105 1.77649C7.13905 2.88534 7.6624 4.70169 8.38057 7.22553H8.67305C9.44322 4.56472 9.97228 2.74837 10.2602 1.77649C10.7531 0.113221 11.9851 0.236426 12.4779 0.236426L16.2802 0.236431V12.0641H12.4048V5.09386H12.145L9.98466 12.0641H7.06896L4.90865 5.0887H4.64878V12.0641H0.773438V0.236431L4.78384 0.236394ZM21.8451 0.236431V7.21187H22.1542L24.7821 1.47602C25.2922 0.334565 26.3794 0.236431 26.3794 0.236431H30.1295V12.0641H26.1733V5.0887H25.8641L23.2878 10.8246C22.7777 11.9608 21.639 12.0641 21.639 12.0641H17.8888V0.236431H21.8451ZM43.8042 5.85704C43.2523 7.42087 41.5193 8.54085 39.6006 8.54085H35.4516V12.0641H31.6894V5.85704H43.8042Z" fill="#CCD4D9"/>
<path fill-rule="evenodd" clip-rule="evenodd" d="M39.7821 0.234375H31.4922C31.6895 2.86762 33.9572 5.12186 36.3047 5.12186H44.0657C44.5135 2.93332 42.9717 0.234375 39.7821 0.234375Z" fill="#CCD4D9"/>
</svg>
