<svg width="94" height="19" viewBox="0 0 94 19" fill="none" xmlns="http://www.w3.org/2000/svg">
<g clip-path="url(#clip0_492_4491)">
<path d="M81.2489 5.5C80.3878 5.5 79.4463 5.80573 78.6853 6.60041C77.9843 7.33396 77.624 8.25066 77.624 9.31023C77.624 9.79926 77.7241 10.2677 77.9041 10.7366C78.0846 11.2054 78.3449 11.613 78.6653 11.9592C79.0058 12.3261 79.4063 12.6111 79.8271 12.7945C80.2675 12.9779 80.6678 13.0799 81.1887 13.0799C81.569 13.0799 81.9297 13.0187 82.2902 12.8964C82.6307 12.7945 83.1113 12.5096 83.2916 12.2039V12.9374H84.8535V5.66277H83.2716V6.39664C83.0515 6.02987 82.6307 5.78503 82.2902 5.66277C81.9497 5.56089 81.6094 5.5 81.2489 5.5ZM73.0776 5.52029C72.7171 5.52029 72.3764 5.56121 72.0359 5.68347C71.6955 5.80572 71.2754 6.05016 71.0549 6.41694V5.68347H69.4727V15.6679V15.6886H71.0346V12.2246C71.2148 12.5303 71.6955 12.7948 72.0359 12.9171C72.3764 13.0396 72.7569 13.1002 73.1374 13.1002C73.6582 13.1002 74.0589 12.9986 74.4995 12.8152C74.9202 12.632 75.3209 12.3464 75.6612 11.9795C75.9818 11.6333 76.2422 11.2257 76.4224 10.7569C76.6024 10.3086 76.7025 9.81956 76.7025 9.33053C76.7025 8.27095 76.3418 7.35425 75.6409 6.6207C74.8798 5.82602 73.9586 5.52029 73.0776 5.52029ZM85.8153 5.68347L88.8593 12.5096L87.5376 15.6679H89.1797L93.3256 5.68347H91.6632L89.6405 10.8182L87.4774 5.68347H85.8153ZM81.3092 6.90605C81.8697 6.90605 82.3705 7.08944 82.7913 7.51734C83.2117 7.96562 83.3718 8.61767 83.3718 9.24934C83.3718 9.94214 83.232 10.5941 82.8112 11.0422C82.3906 11.4903 81.8897 11.6535 81.2888 11.6535C80.688 11.6535 80.2074 11.4091 79.8271 11.0219C79.4063 10.5734 79.2059 9.98277 79.2059 9.33053C79.2059 8.63773 79.4063 8.00622 79.8271 7.55794C80.1876 7.17078 80.6881 6.92663 81.3092 6.90605ZM73.0177 6.92635C73.6186 6.92635 74.1392 7.1707 74.4998 7.57823C74.9206 8.02651 75.121 8.63804 75.121 9.35122C75.121 10.0033 74.9206 10.5941 74.4998 11.0422C74.1394 11.4296 73.6389 11.6738 73.0381 11.6738C72.4373 11.6738 71.9363 11.511 71.5157 11.0625C71.1151 10.6144 70.9548 9.94185 70.9548 9.26963C70.9548 8.61759 71.1151 7.98592 71.5356 7.53764C71.9362 7.10973 72.4369 6.92635 73.0177 6.92635Z" fill="#CCD4D9"/>
<path d="M26.3944 6.47656C25.3129 6.47656 24.4318 6.84358 24.2716 7.84202C24.2315 8.10691 24.2315 8.35135 24.2915 8.67737C24.5319 9.96068 26.6948 10.3072 26.9952 11.1019C27.0553 11.2443 27.0352 11.4481 27.0152 11.55C26.9551 11.7537 26.8349 11.9575 26.4144 11.9575C26.0338 11.9575 25.8135 11.7333 25.8135 11.4075V10.8165H24.1914V11.2853C24.1914 12.6711 25.2529 13.0786 26.3944 13.0786C27.4959 13.0786 28.3974 12.6914 28.5376 11.6725C28.6177 11.1428 28.5576 10.7966 28.5376 10.6537C28.2772 9.37022 25.9738 8.9829 25.8135 8.24955C25.7935 8.12729 25.7935 8.00511 25.8135 7.92361C25.8536 7.71984 25.9939 7.51608 26.3745 7.51608C26.735 7.51608 26.9354 7.74006 26.9354 8.06608V8.45331H28.4375V8.02549C28.4375 6.68064 27.2556 6.47656 26.3944 6.47656H26.3944ZM64.4066 6.51716C63.3249 6.51716 62.4236 6.88393 62.2834 8.04539C62.2834 8.14727 62.2634 8.35103 62.2634 8.45292V11.0406C62.2634 11.1628 62.2634 11.2443 62.2834 11.4481C62.3835 12.5688 63.3449 12.9763 64.4066 12.9763C65.4879 12.9763 66.4492 12.5688 66.5494 11.4481C66.5696 11.2443 66.5693 11.1628 66.5693 11.0406V9.39015H64.4266V10.2868H65.0473V11.183C65.0473 11.2444 65.0474 11.3462 65.0274 11.4075C64.9871 11.5703 64.847 11.8556 64.4066 11.8556C63.966 11.8556 63.8058 11.5908 63.8058 11.3868C63.7856 11.3259 63.7854 11.2442 63.7854 11.1627V8.35103C63.7854 8.24915 63.7856 8.14719 63.8058 8.06568C63.8456 7.92305 63.966 7.61756 64.4066 7.61756C64.8672 7.61756 64.9872 7.92305 65.0074 8.06568C65.0275 8.16757 65.0274 8.31004 65.0274 8.31004V8.65668H66.5494V8.45292C66.5494 8.45292 66.5495 8.22878 66.5294 8.04539C66.4293 6.88393 65.4879 6.51716 64.4066 6.51716L64.4066 6.51716ZM46.1218 6.55815C45.0604 6.55815 44.1792 6.90447 44.0189 7.90291C43.9789 8.1678 43.9588 8.41232 44.0389 8.71797C44.259 9.96073 46.3819 10.3072 46.6823 11.1019C46.7424 11.2443 46.7223 11.4279 46.7023 11.55C46.6622 11.7537 46.522 11.9575 46.1214 11.9575C45.7409 11.9575 45.5206 11.7333 45.5206 11.4075V10.8165H43.9184V11.2853C43.9184 12.6507 44.9799 13.0579 46.1015 13.0579C47.1829 13.0579 48.0841 12.691 48.2243 11.6722C48.3044 11.1424 48.2445 10.7965 48.2243 10.674C47.9639 9.39052 45.701 9.02361 45.5409 8.31044C45.5009 8.18818 45.5209 8.066 45.5409 7.9845C45.581 7.78073 45.721 7.57697 46.0815 7.57697C46.442 7.57697 46.6424 7.80095 46.6424 8.12697V8.5142H48.1445V8.08638C48.1445 6.76191 46.963 6.55815 46.1218 6.55815H46.1218ZM30.6804 6.70062L29.5589 12.8541H31.1811L32.022 7.25063H32.0424L32.8634 12.8541H34.4856L33.3641 6.70062H30.6804ZM35.8273 6.70062L35.6872 12.8541H37.2092L37.2495 7.31192H37.2894L38.2908 12.8541H39.8327L40.8341 7.31192H40.8744L40.9143 12.8541H42.4363L42.2963 6.70062H39.8327L39.0719 11.4075H39.052L38.3107 6.70062H35.8273ZM49.6462 6.70062V11.1221C49.6462 11.2444 49.6661 11.4683 49.6661 11.5297C49.7663 12.6909 50.6475 13.0579 51.769 13.0579C52.8907 13.0579 53.7921 12.6708 53.8922 11.5297C53.8922 11.4683 53.9122 11.2444 53.9122 11.1221V6.70062H52.3702V11.224C52.3702 11.3055 52.3698 11.4075 52.3499 11.4684C52.3298 11.6316 52.1902 11.9169 51.7694 11.9169C51.3488 11.9169 51.2283 11.6316 51.2081 11.5094C51.188 11.4279 51.1881 11.3461 51.1881 11.2646V6.70062H49.6462ZM55.5945 6.70062V12.7929H57.0766L56.9965 7.78033H57.0364L58.5185 12.7929H60.6816V6.70062H59.1795L59.2593 11.5297H59.2394L57.8375 6.70062H55.5945Z" fill="#CCD4D9"/>
<path d="M17.4811 6.90245C17.2808 5.31309 16.72 3.86637 15.7387 2.80679C14.6973 1.80835 13.2753 1.23781 11.7132 1.03404C10.2111 0.83028 9.18974 0.891409 9.18974 0.891409C9.18974 0.891409 8.16834 0.850656 6.66628 1.03404C5.10414 1.23781 3.6822 1.80835 2.64077 2.80679C1.65943 3.86637 1.09866 5.31309 0.898386 6.90245C0.698112 8.43069 0.738167 9.46988 0.738167 9.46988C0.738167 9.46988 0.698112 10.5091 0.878359 12.0373C1.07863 13.6265 1.6394 15.0734 2.62074 16.133C3.66217 17.1314 5.08412 17.7018 6.64625 17.9055C8.14831 18.1093 9.16971 18.0484 9.16971 18.0484C9.16971 18.0484 10.1911 18.0889 11.6932 17.9055C13.2553 17.7018 14.6772 17.1314 15.7187 16.133C16.7 15.0736 17.2608 13.6265 17.4611 12.0373C17.6613 10.5091 17.6012 9.46988 17.6012 9.46988C17.6012 9.46988 17.6814 8.43069 17.4811 6.90245Z" fill="#CCD4D9"/>
<path d="M3.86328 6.96094V11.464H4.68433V10.1806H5.36534C5.60567 10.1806 5.8262 10.1395 6.00645 10.058C6.1867 9.9769 6.36694 9.85418 6.50713 9.71175C6.64733 9.56932 6.76733 9.40611 6.84744 9.20234C6.92755 8.99858 6.96753 8.7949 6.96753 8.57076C6.96753 8.34661 6.92755 8.14293 6.84744 7.93917C6.76733 7.7354 6.64733 7.57239 6.50713 7.42976C6.36694 7.28712 6.20672 7.16462 6.00645 7.08312C5.80618 7.00161 5.60567 6.96094 5.36534 6.96094L3.86328 6.96094ZM4.66438 7.71511H5.30549C5.42565 7.71511 5.54566 7.73564 5.6458 7.77639C5.74594 7.81715 5.8262 7.87796 5.90631 7.95946C5.96639 8.04097 6.02624 8.12263 6.0663 8.22452C6.10635 8.3264 6.12654 8.4282 6.12654 8.55046C6.12654 8.67272 6.10635 8.77452 6.0663 8.8764C6.02624 8.97828 5.98642 9.05995 5.90631 9.14146C5.8262 9.22296 5.74594 9.28417 5.6458 9.32492C5.54566 9.36567 5.42565 9.38581 5.30549 9.38581H4.66438V7.7354V7.71511ZM8.87014 7.83728C8.62981 7.83728 8.42977 7.87796 8.20946 7.95946C8.00919 8.04097 7.80876 8.14269 7.64854 8.3057C7.48832 8.46871 7.34813 8.65226 7.24799 8.8764C7.14786 9.10054 7.10796 9.3656 7.10796 9.65087C7.10796 9.93614 7.1678 10.2008 7.26794 10.4249C7.36808 10.6491 7.50827 10.8324 7.66849 10.9956C7.82871 11.1381 8.02914 11.2604 8.22941 11.3419C8.44972 11.4236 8.64983 11.464 8.87014 11.464C9.11046 11.464 9.31097 11.4238 9.51125 11.3419C9.71152 11.24 9.89177 11.1179 10.0119 10.9546V11.464H10.833V7.83728H10.0119V8.3057C9.87174 8.16307 9.71152 8.04097 9.51125 7.95946C9.331 7.87796 9.11046 7.83728 8.87014 7.83728ZM11.1134 7.85758L12.5553 11.3013L11.8144 13.1149H12.6554L14.7583 7.85758H13.8969L12.9758 10.323L11.9744 7.85758H11.1134ZM9.01056 8.61175C9.15075 8.61175 9.29087 8.63212 9.43106 8.71363C9.57125 8.77476 9.67123 8.83581 9.77137 8.93769C9.87151 9.01919 9.93151 9.14137 9.99159 9.26363C10.0517 9.38569 10.0718 9.52832 10.0718 9.67116C10.0718 9.81359 10.0517 9.95602 9.99159 10.0787C9.93151 10.2009 9.87151 10.3027 9.77137 10.4046C9.67123 10.5065 9.55122 10.568 9.43106 10.6291C9.31089 10.6902 9.17078 10.7103 9.01056 10.7103C8.85034 10.7103 8.70984 10.6696 8.58967 10.6291C8.46951 10.5678 8.3495 10.5065 8.24936 10.4046C8.16925 10.3027 8.08922 10.1811 8.02914 10.0584C7.96906 9.93613 7.94895 9.7935 7.94895 9.65086C7.94895 9.50823 7.96906 9.36559 8.02914 9.24333C8.0692 9.12108 8.14923 9.01927 8.24936 8.91739C8.3495 8.81551 8.44948 8.75446 8.58967 8.69333C8.72987 8.6322 8.87037 8.61175 9.01056 8.61175Z" fill="white"/>
</g>
<defs>
<clipPath id="clip0_492_4491">
<rect width="92.5907" height="17.1741" fill="white" transform="translate(0.734375 0.882812)"/>
</clipPath>
</defs>
</svg>
