<svg version="1.1" id="Слой_1" xmlns="http://www.w3.org/2000/svg" xmlns:xlink="http://www.w3.org/1999/xlink" x="0px" y="0px"
	 viewBox="0 0 48 13.1" style="enable-background:new 0 0 48 13.1;" xml:space="preserve">
<path style="fill:#CCD4D9;" d="M38.1,3.9l1.8-1.3H34v7.9h5.9V9.2h-4.2v-2h3.6V5.8h-3.6V3.9H38.1z"/>
<path style="fill:#CCD4D9;" d="M29.4,5.7h-2.1V3.9h3.3l1.8-1.3h-6.8v7.9h3.5c2,0,3.1-0.9,3.1-2.5C32.3,6.5,31.3,5.7,29.4,5.7z
	 M29.1,9.2h-1.8V7h1.8c1.1,0,1.6,0.4,1.6,1.1S30.2,9.2,29.1,9.2z"/>
<path style="fill:#CCD4D9;" d="M44.7,2.6h-3.2v7.9h1.7V8.2h1.5c2.1,0,3.3-1.1,3.3-2.8S46.7,2.6,44.7,2.6z M44.6,6.9h-1.5v-3h1.5
	c1.1,0,1.7,0.5,1.7,1.5S45.7,6.9,44.6,6.9z"/>
<path style="fill:#CCD4D9;" d="M22.7,8.8c-0.4,0.2-0.9,0.4-1.5,0.4c-1.5,0-2.6-1.1-2.6-2.6S19.7,4,21.2,4c0.6,0,1.1,0.2,1.5,0.5
	l1.3-1l-0.1-0.1c-0.7-0.6-1.7-1-2.7-1c-1.2,0-2.2,0.4-3,1.1c-0.8,0.8-1.2,1.9-1.2,3s0.4,2.2,1.2,2.9c0.8,0.7,1.8,1.2,3,1.2
	s2.3-0.4,3-1.2c-0.6-0.4-1.1-0.8-1.1-0.8L22.7,8.8z"/>
<path style="fill:#CCD4D9;" d="M11.7,2.5c0.3,0.4,0.6,0.8,0.8,1.3l-6,4.4L4.1,6.7V4.8l2.5,1.6L11.7,2.5z"/>
<path style="fill:#CCD4D9;" d="M1.5,6.5c0-0.1,0-0.2,0-0.3H0c0,0.1,0,0.2,0,0.3c0,1.8,0.7,3.4,1.9,4.6l1.1-1
	C2.1,9.2,1.5,7.9,1.5,6.5z"/>
<path style="fill:#CCD4D9;" d="M6.5,1.5c0.1,0,0.2,0,0.3,0L6.9,0C6.8,0,6.6,0,6.5,0C4.7,0,3.1,0.7,1.9,1.9L3,3
	C3.9,2.1,5.1,1.5,6.5,1.5z"/>
<path style="fill:#CCD4D9;" d="M6.5,11.6c-0.1,0-0.2,0-0.3,0l-0.1,1.5c0.1,0,0.2,0,0.3,0c1.8,0,3.4-0.7,4.6-1.9l-1.1-1.1
	C9.2,11,7.9,11.6,6.5,11.6z"/>
<path style="fill:#CCD4D9;" d="M9.4,2.4l1.3-0.9C9.5,0.5,8.1,0,6.5,0v1.5C7.6,1.5,8.6,1.8,9.4,2.4z"/>
<path style="fill:#CCD4D9;" d="M13.1,6.5c0-0.4,0-0.8-0.1-1.2l-1.4,1v0.1c0,1.5-0.6,2.8-1.7,3.7l1,1.1C12.2,10.2,13.1,8.5,13.1,6.5z
	"/>
<path style="fill:#CCD4D9;" d="M6.5,11.6C5,11.6,3.7,11,2.8,9.9l-1.1,1C2.9,12.2,4.6,13,6.5,13V11.6z"/>
<path style="fill:#CCD4D9;" d="M3.2,2.8l-1-1.1C0.8,2.9,0,4.6,0,6.5h1.5C1.5,5.1,2.1,3.7,3.2,2.8z"/>
</svg>
