<svg width="191" height="190" viewBox="0 0 191 190" fill="none" xmlns="http://www.w3.org/2000/svg">
<path d="M90.6452 122.355L56.9055 180.705L40.6714 171.364L74.3576 112.816L76.1636 109.677L72.6671 110.62L7.46743 128.194L2.60675 110.162L67.8064 92.5874L71.3029 91.6449L68.1641 89.8389L9.616 56.1527L18.9548 39.9215L77.5029 73.6077L80.6417 75.4136L79.6992 71.9171L62.1246 6.71747L80.157 1.85679L97.7317 67.0564L98.6742 70.553L100.48 67.4141L134.166 8.86604L150.398 18.2048L116.711 76.7529L114.905 79.8918L118.402 78.9493L183.805 61.3198L188.665 79.3523L123.466 96.927L119.98 97.8666L123.105 99.6738L181.455 133.414L172.113 149.65L113.618 116.163L110.485 114.369L111.425 117.855L128.999 183.055L110.967 187.915L93.3921 122.716L92.4525 119.23L90.6452 122.355Z" stroke="url(#paint0_linear_866_387)" stroke-width="3"/>
<defs>
<linearGradient id="paint0_linear_866_387" x1="18.6076" y1="115.629" x2="182.955" y2="73.5259" gradientUnits="userSpaceOnUse">
<stop stop-color="#9399FF"/>
<stop offset="0.40625" stop-color="#6C99FF"/>
<stop offset="1" stop-color="#18C0FF"/>
</linearGradient>
</defs>
</svg>
