<svg width="33" height="11" viewBox="0 0 33 11" fill="none" xmlns="http://www.w3.org/2000/svg">
<path fill-rule="evenodd" clip-rule="evenodd" d="M8.04975 10.2003H5.26325L3.17371 2.22863C3.07453 1.86193 2.86395 1.53775 2.55418 1.38496C1.78114 1.00099 0.929288 0.695405 0 0.541286V0.234375H4.48884C5.10837 0.234375 5.57301 0.695405 5.65045 1.23084L6.73462 6.9811L9.51977 0.234375H12.2288L8.04975 10.2003ZM13.7801 10.2003H11.1484L13.3154 0.234375H15.947L13.7801 10.2003ZM19.3498 2.99072C19.4272 2.45396 19.8919 2.14705 20.434 2.14705C21.2858 2.06999 22.2137 2.22411 22.9881 2.60675L23.4528 0.461031C22.6784 0.15412 21.8265 0 21.0535 0C18.4993 0 16.6407 1.38043 16.6407 3.2963C16.6407 4.7538 17.9572 5.51908 18.8865 5.98011C19.8919 6.43981 20.2791 6.74672 20.2016 7.20643C20.2016 7.89598 19.4272 8.20289 18.6542 8.20289C17.7249 8.20289 16.7956 7.97304 15.9451 7.58907L15.4805 9.73611C16.4098 10.1188 17.4151 10.2729 18.3444 10.2729C21.2084 10.3486 22.9881 8.9695 22.9881 6.89951C22.9881 4.29277 19.3498 4.13997 19.3498 2.99072ZM32.1976 10.2003L30.1081 0.234375H27.8636C27.399 0.234375 26.9344 0.541286 26.7795 1.00099L22.9102 10.2003H25.6192L26.1599 8.74417H29.4885L29.7983 10.2003H32.1976ZM28.2533 2.91406L29.0264 6.67007H26.8594L28.2533 2.91406Z" fill="#CCD4D9"/>
</svg>
