<svg width="28" height="28" viewBox="0 0 28 28" xmlns="http://www.w3.org/2000/svg">
<path d="M16.1579 13.895L13.0039 12.4233C12.7287 12.2955 12.5026 12.4387 12.5026 12.7435V15.5155C12.5026 15.8202 12.7287 15.9635 13.0039 15.8357L16.1565 14.364C16.4331 14.2348 16.4331 14.0242 16.1579 13.895ZM13.9068 0.648438C6.46136 0.648438 0.425781 6.68402 0.425781 14.1295C0.425781 21.575 6.46136 27.6105 13.9068 27.6105C21.3523 27.6105 27.3879 21.575 27.3879 14.1295C27.3879 6.68402 21.3523 0.648438 13.9068 0.648438ZM13.9068 19.6062C7.00622 19.6062 6.88545 18.9841 6.88545 14.1295C6.88545 9.27491 7.00622 8.65281 13.9068 8.65281C20.8075 8.65281 20.9282 9.27491 20.9282 14.1295C20.9282 18.9841 20.8075 19.6062 13.9068 19.6062Z"/>
</svg>
